<svg width="98" height="21" viewBox="0 0 98 21" fill="none" xmlns="http://www.w3.org/2000/svg">
<path fill-rule="evenodd" clip-rule="evenodd" d="M8.51239 20.1111C14.0361 21.492 19.4218 18.1778 20.8028 12.7921C22.1837 7.40646 18.8694 1.8827 13.4838 0.501757C7.96001 -0.879183 2.57435 2.43507 1.19341 7.82074C-0.187532 13.3445 3.12672 18.7302 8.51239 20.1111ZM13.2079 6.4398C14.5889 6.85408 15.5555 7.54455 15.4174 8.92549C15.2793 9.89215 14.727 10.3064 13.8984 10.5826C14.8651 10.9969 15.2793 11.8255 14.8651 13.2064C14.3127 15.0016 12.9317 15.1397 10.9984 14.7254L10.5842 16.5207L9.4794 16.2445L9.89368 14.4493C9.75559 14.3802 9.61749 14.3457 9.4794 14.3112C9.3413 14.2766 9.20321 14.2421 9.06512 14.1731L8.65083 15.9683L7.54608 15.6921L7.96036 13.8969C7.82228 13.8969 7.68419 13.8624 7.54611 13.8278L7.54608 13.8278C7.40799 13.7933 7.26989 13.7588 7.1318 13.7588L5.75086 13.3445L6.30324 12.1017L7.1318 12.2397C7.54608 12.2397 7.68418 12.1017 7.68418 11.9636L8.37465 9.06359L8.92702 6.99218C8.92702 6.71599 8.78893 6.4398 8.37465 6.30171L7.54608 6.16361L7.96036 4.92077L9.4794 5.33505C9.61749 5.33505 9.72106 5.36957 9.82463 5.4041C9.9282 5.43862 10.0318 5.47314 10.1699 5.47314L10.5842 3.67792L11.6889 4.0922L11.2746 5.88743C11.4127 5.95647 11.5508 5.991 11.6889 6.02552C11.827 6.06004 11.9651 6.09457 12.1032 6.16361L12.5175 4.36839L13.6222 4.64458L13.2079 6.4398ZM9.47949 12.792C10.3081 13.0682 12.6557 13.7586 12.9318 12.3777C13.2829 11.2074 11.5512 10.7313 10.5105 10.4452C10.3232 10.3937 10.1582 10.3484 10.0319 10.3063L9.47949 12.792ZM13.2078 8.78756C12.9697 9.85899 11.5001 9.49362 10.6569 9.28398C10.522 9.25044 10.4031 9.22089 10.3079 9.20184L10.8602 6.99234C10.9925 7.04524 11.1754 7.09814 11.3819 7.15784L11.3819 7.15785C12.2531 7.4098 13.5428 7.78278 13.2078 8.78756Z" fill="white"/>
<path fill-rule="evenodd" clip-rule="evenodd" d="M32.5409 6.71546C31.9886 6.43927 31.2981 6.30117 30.4695 6.30117C30.0552 6.30117 29.779 6.30117 29.3648 6.43927C29.2267 6.50831 29.0541 6.57736 28.8814 6.64641C28.7088 6.71546 28.5362 6.7845 28.3981 6.85355L29.9171 0.225037L25.9124 1.0536L21.4934 19.5582C21.9077 19.8344 22.4601 19.9725 23.0124 20.1106L23.0124 20.1106C23.2886 20.1796 23.5303 20.2141 23.772 20.2487C24.0136 20.2832 24.2553 20.3177 24.5315 20.3868C25.0839 20.5249 25.4981 20.5249 25.9124 20.5249H26.741C27.9838 20.5249 29.0886 20.2487 30.0552 19.8344C31.0219 19.4201 31.9886 18.8677 32.679 18.0392C33.5076 17.2106 34.06 16.382 34.4742 15.2773C34.8885 14.3106 35.1647 13.2059 35.1647 11.963C35.1647 11.1345 35.0266 10.444 34.8885 9.75352C34.7504 9.06305 34.4742 8.51068 34.06 7.9583C33.6457 7.40593 33.0933 6.99164 32.5409 6.71546ZM28.8124 16.7968C28.2601 17.073 27.7077 17.2111 27.1553 17.2111H26.741H26.4649H26.1887H25.9125L27.4315 10.1683C27.8458 9.89209 28.122 9.754 28.5363 9.6159C28.9505 9.47781 29.2267 9.47781 29.5029 9.47781C30.1934 9.47781 30.7458 9.754 31.022 10.1683C31.2981 10.5826 31.4362 11.273 31.4362 12.1016C31.4362 12.7921 31.4362 13.4825 31.16 14.0349C30.8839 14.7254 30.6077 15.1397 30.1934 15.692C29.7791 16.1063 29.3648 16.5206 28.8124 16.7968Z" fill="white"/>
<path fill-rule="evenodd" clip-rule="evenodd" d="M39.8601 4.50594C40.2743 4.78213 40.6886 4.92023 41.241 4.92023C41.5172 4.92023 41.9315 4.92023 42.2077 4.78213C42.4838 4.64404 42.76 4.50594 43.0362 4.22976C43.3124 3.95357 43.4505 3.67738 43.5886 3.40119C43.7267 3.125 43.8648 2.84882 43.8648 2.43453C43.8648 1.88216 43.5886 1.32978 43.1743 1.05359C42.76 0.777407 42.3457 0.639313 41.7934 0.639313C41.5172 0.639313 41.1029 0.639313 40.8267 0.777407C40.5505 0.915501 40.2743 1.05359 39.9982 1.32978C39.722 1.60597 39.5839 1.88216 39.4458 2.15835C39.3077 2.43453 39.1696 2.71072 39.1696 3.125C39.1696 3.67738 39.4458 4.22976 39.8601 4.50594ZM35.5791 19.9728H39.3076L42.6219 6.57766H38.7553L35.5791 19.9728Z" fill="white"/>
<path d="M45.9361 3.26331L49.9408 2.71094L48.9742 6.71566H53.2551L52.4265 9.89183H48.1456L47.0409 14.4489C46.9028 14.8632 46.9028 15.1394 46.9028 15.5537C46.9028 15.8299 46.9028 16.2442 47.0409 16.3822C47.179 16.6584 47.317 16.7965 47.5932 16.9346C47.8694 17.0727 48.2837 17.0727 48.698 17.0727C49.1123 17.0727 49.5266 17.0727 49.9408 16.9346C50.3551 16.7965 50.7694 16.7965 51.0456 16.6584L51.3218 19.5584C50.7694 19.6965 50.217 19.9727 49.6646 20.1108C49.1123 20.2489 48.4218 20.2489 47.5932 20.2489C46.3504 20.2489 45.5218 20.1108 44.8314 19.6965C44.1409 19.2822 43.7266 18.8679 43.4504 18.3156C43.1742 17.7632 43.0361 17.0727 43.0361 16.2442C43.0361 15.4156 43.1742 14.587 43.4504 13.7585L45.9361 3.26331Z" fill="white"/>
<path d="M52.9788 14.725C52.9788 13.6203 53.1169 12.5155 53.5311 11.4107C53.9454 10.4441 54.4978 9.47743 55.1883 8.78696C55.8787 7.9584 56.7073 7.40602 57.674 6.99174C58.6406 6.57746 59.7454 6.30127 60.9882 6.30127C61.8168 6.30127 62.5072 6.43936 63.0596 6.57746C63.612 6.71555 64.1644 6.85365 64.7168 7.12983L63.4739 10.0298C63.1977 9.89171 62.7834 9.75362 62.3692 9.61553C61.9549 9.47743 61.5406 9.47743 60.9882 9.47743C59.7454 9.47743 58.7787 9.89171 57.9501 10.7203C57.2597 11.5488 56.8454 12.7917 56.8454 14.1726C56.8454 15.0012 56.9835 15.6917 57.3978 16.244C57.8121 16.7964 58.5025 17.0726 59.4692 17.0726C60.0216 17.0726 60.4358 17.0726 60.8501 16.9345C61.2644 16.7964 61.6787 16.6583 62.093 16.5202L62.3692 19.5583C61.9549 19.6964 61.4025 19.9726 60.8501 20.1107C60.2977 20.2488 59.6073 20.3869 58.7787 20.3869C57.674 20.3869 56.8454 20.2488 56.1549 19.9726C55.4645 19.6964 54.774 19.2821 54.3597 18.7297C53.9454 18.1774 53.5311 17.625 53.393 16.9345C53.1169 16.1059 52.9788 15.4155 52.9788 14.725Z" fill="white"/>
<path fill-rule="evenodd" clip-rule="evenodd" d="M67.3406 19.9728C68.0311 20.2489 68.7216 20.387 69.6882 20.387C70.9311 20.387 72.0358 20.1109 73.0025 19.5585C73.9692 19.0061 74.6596 18.3156 75.3501 17.4871C75.9025 16.6585 76.4548 15.6918 76.731 14.7252C77.1453 13.7585 77.2834 12.6538 77.2834 11.6871V11.6871C77.2834 10.8586 77.2834 10.1681 77.0072 9.47762C76.8691 8.78715 76.4548 8.23477 76.0406 7.68239C75.6263 7.26811 75.0739 6.85383 74.3834 6.57764C73.693 6.30145 72.8644 6.16336 72.0358 6.16336C70.9311 6.16336 69.8263 6.43955 68.8597 6.99192C67.893 7.5443 67.2026 8.23477 66.5121 9.06333C65.8216 9.8919 65.2692 10.8586 64.993 11.8252C64.5788 12.7919 64.4407 13.8966 64.4407 14.8633C64.4407 15.6918 64.4407 16.3823 64.7169 17.0728C64.855 17.7633 65.2692 18.3156 65.6835 18.868C66.0978 19.2823 66.6502 19.6966 67.3406 19.9728ZM70.102 10.0297C70.5163 9.6154 71.0687 9.47731 71.6211 9.47731C72.3115 9.47731 72.8639 9.7535 73.1401 10.1678C73.4163 10.5821 73.5544 11.2725 73.5544 12.1011C73.5544 12.6535 73.4163 13.2058 73.2782 13.7582L73.2782 13.7582C73.1683 14.3077 72.9709 14.6823 72.7557 15.0908C72.7005 15.1956 72.6441 15.3026 72.5877 15.4154C72.3115 15.9677 71.8972 16.382 71.483 16.6582C71.0687 17.0725 70.5163 17.2106 69.9639 17.2106C69.2735 17.2106 68.7211 16.9344 68.4449 16.5201C68.1687 16.1058 68.0306 15.4154 68.0306 14.5868C68.0306 14.0344 68.1687 13.482 68.3068 12.9297C68.4167 12.3802 68.6141 12.0056 68.8293 11.5971C68.8845 11.4923 68.9409 11.3853 68.9973 11.2725C69.2735 10.7202 69.6877 10.3059 70.102 10.0297Z" fill="white"/>
<path fill-rule="evenodd" clip-rule="evenodd" d="M81.8408 4.506C82.2551 4.78219 82.6694 4.92029 83.2218 4.92029C83.636 4.92029 83.9122 4.92029 84.1884 4.78219C84.4646 4.6441 84.7408 4.506 85.017 4.22982C85.2932 3.95363 85.4313 3.67744 85.5694 3.40125L85.5694 3.40125C85.7074 3.12506 85.8455 2.84887 85.8455 2.4346C85.8455 1.88222 85.5694 1.32984 85.1551 1.05366C84.7408 0.777468 84.3265 0.639374 83.7741 0.639374C83.4979 0.639374 83.0837 0.639374 82.8075 0.777468C82.5313 0.915562 82.2551 1.05366 81.9789 1.32984C81.7027 1.60603 81.5646 1.88222 81.4265 2.15841C81.2884 2.4346 81.1503 2.71078 81.1503 3.12507C81.1503 3.67744 81.4265 4.22982 81.8408 4.506ZM77.698 19.9728H81.4265L84.7408 6.57766H80.8742L77.698 19.9728Z" fill="white"/>
<path d="M87.3644 7.26793C87.6406 7.12983 87.9168 7.12983 88.3311 6.99174C88.7453 6.85365 89.0215 6.71555 89.5739 6.71555C89.9882 6.57746 90.5406 6.57746 91.0929 6.43936C91.6453 6.43936 92.1977 6.30127 92.8882 6.30127C94.8215 6.30127 96.2024 6.85365 97.031 8.09649C97.7214 9.20124 97.8595 10.8584 97.4453 12.7917L95.5119 19.9726H91.6453L93.3024 12.9298C93.4405 12.5155 93.4405 12.1012 93.5786 11.6869C93.5786 11.2727 93.5786 10.8584 93.5786 10.5822C93.5786 10.306 93.3024 10.0298 93.1643 9.75362C92.8882 9.61553 92.4739 9.47743 92.0596 9.47743C91.5072 9.47743 91.0929 9.47743 90.5406 9.61553L88.0549 19.9726H84.1882C84.3263 19.9726 87.3644 7.26793 87.3644 7.26793Z" fill="white"/>
</svg>
