<svg width="117" height="22" viewBox="0 0 117 22" fill="none" xmlns="http://www.w3.org/2000/svg">
<path d="M11.065 7.45944H9.62378V10.3008H11.8912V11.4905H9.62378V14.3317H11.1356C11.5241 14.3317 14.3247 14.3755 14.3203 11.026C14.316 7.67641 11.604 7.45944 11.065 7.45944Z" fill="white"/>
<path d="M10.8232 0.81189C5.25234 0.81189 0.736328 5.3279 0.736328 10.8988C0.736328 16.4697 5.25234 20.9857 10.8232 20.9857C16.3941 20.9857 20.9102 16.4697 20.9102 10.8988C20.9102 5.3279 16.3941 0.81189 10.8232 0.81189ZM11.2196 16.3467H7.56658V11.4903H6.27888V10.3006H7.56648V5.4439H10.7017C11.4434 5.4439 16.356 5.28987 16.356 10.9865C16.356 16.7773 11.2197 16.3467 11.2197 16.3467H11.2196Z" fill="white"/>
<path d="M33.609 17.2058H28.3425V3.0416H33.609C35.8033 3.0416 37.5871 3.69991 38.9603 5.01652C40.3336 6.33312 41.0202 8.03905 41.0202 10.1343C41.0202 12.2154 40.3336 13.9142 38.9603 15.2308C37.6013 16.5475 35.8175 17.2058 33.609 17.2058ZM33.609 15.0185C35.0955 15.0185 36.2776 14.5513 37.1553 13.6169C38.033 12.6826 38.4719 11.5217 38.4719 10.1343C38.4719 8.70443 38.0401 7.5294 37.1765 6.60919C36.3271 5.68898 35.1379 5.22887 33.609 5.22887H30.8271V15.0185H33.609Z" fill="white"/>
<path d="M47.9846 17.4606C46.399 17.4606 45.1249 16.9438 44.1622 15.9104C43.1995 14.8628 42.7182 13.5815 42.7182 12.0667C42.7182 10.5519 43.1995 9.27779 44.1622 8.24433C45.1249 7.21086 46.399 6.69413 47.9846 6.69413C49.5844 6.69413 50.8656 7.21086 51.8283 8.24433C52.791 9.27779 53.2723 10.5519 53.2723 12.0667C53.2723 13.5957 52.791 14.8769 51.8283 15.9104C50.8656 16.9438 49.5844 17.4606 47.9846 17.4606ZM47.9846 15.4857C48.9048 15.4857 49.6269 15.1601 50.1507 14.5088C50.6886 13.8434 50.9576 13.0294 50.9576 12.0667C50.9576 11.1182 50.6886 10.3183 50.1507 9.66711C49.6269 9.00173 48.9048 8.66904 47.9846 8.66904C47.0786 8.66904 46.3566 9.00173 45.8186 9.66711C45.2948 10.3183 45.0329 11.1182 45.0329 12.0667C45.0329 13.0294 45.2948 13.8434 45.8186 14.5088C46.3566 15.1601 47.0786 15.4857 47.9846 15.4857Z" fill="white"/>
<path d="M59.6906 21.3679C57.9493 21.3679 56.5194 20.8583 55.401 19.839L56.4415 18.2251C57.206 19.1028 58.289 19.5417 59.6906 19.5417C60.54 19.5417 61.255 19.3152 61.8354 18.8621C62.43 18.4233 62.7273 17.7225 62.7273 16.7598V15.5281C61.8496 16.6607 60.7524 17.227 59.4358 17.227C58.0909 17.227 56.9937 16.7598 56.1443 15.8254C55.309 14.8911 54.8914 13.6028 54.8914 11.9606C54.8914 10.3325 55.309 9.05128 56.1443 8.11691C56.9937 7.16839 58.0909 6.69413 59.4358 6.69413C60.7807 6.69413 61.8779 7.25333 62.7273 8.37174V6.94896H64.957V16.6749C64.957 17.5526 64.8013 18.31 64.4898 18.9471C64.1925 19.5983 63.782 20.0867 63.2582 20.4123C62.7344 20.7521 62.1752 20.9928 61.5806 21.1343C61.0001 21.2901 60.3701 21.3679 59.6906 21.3679ZM60.0941 15.2521C60.6037 15.2521 61.1063 15.1176 61.6018 14.8486C62.0973 14.5796 62.4725 14.254 62.7273 13.8718V10.0494C62.4725 9.66711 62.0973 9.3415 61.6018 9.07252C61.1063 8.80353 60.6037 8.66904 60.0941 8.66904C59.2163 8.66904 58.5156 8.97342 57.9918 9.58217C57.4679 10.1768 57.206 10.9696 57.206 11.9606C57.206 12.9516 57.4679 13.7514 57.9918 14.3602C58.5156 14.9548 59.2163 15.2521 60.0941 15.2521Z" fill="white"/>
<path d="M72.5823 17.4606C71.025 17.4606 69.7367 16.9651 68.7174 15.9741C67.7122 14.9689 67.2097 13.6665 67.2097 12.0667C67.2097 10.5661 67.6981 9.29903 68.6749 8.26556C69.6659 7.21794 70.9117 6.69413 72.4124 6.69413C73.9272 6.69413 75.1447 7.21794 76.0649 8.26556C76.9993 9.31319 77.4665 10.651 77.4665 12.2791V12.81H69.5456C69.6305 13.6169 69.9632 14.2894 70.5437 14.8274C71.1241 15.3653 71.8815 15.6343 72.8159 15.6343C73.3397 15.6343 73.8635 15.5352 74.3873 15.337C74.9253 15.1388 75.3712 14.8628 75.7251 14.5088L76.7444 15.9741C75.711 16.9651 74.3236 17.4606 72.5823 17.4606ZM75.3004 11.2385C75.2721 10.5307 75.0102 9.90071 74.5147 9.34858C74.0334 8.79645 73.3326 8.52039 72.4124 8.52039C71.5346 8.52039 70.848 8.79645 70.3525 9.34858C69.857 9.88655 69.581 10.5165 69.5243 11.2385H75.3004Z" fill="white"/>
<path d="M84.3392 17.4606C82.7819 17.4606 81.5078 16.958 80.5168 15.9529C79.5258 14.9335 79.0303 13.6382 79.0303 12.0667C79.0303 10.5095 79.5258 9.22824 80.5168 8.22309C81.5078 7.20378 82.7819 6.69413 84.3392 6.69413C86.0522 6.69413 87.3617 7.30288 88.2678 8.52039L86.8025 9.87947C86.2362 9.07252 85.4505 8.66904 84.4453 8.66904C83.511 8.66904 82.7607 8.98757 82.1944 9.62464C81.6281 10.2476 81.3449 11.0616 81.3449 12.0667C81.3449 13.0719 81.6281 13.893 82.1944 14.5301C82.7607 15.1671 83.511 15.4857 84.4453 15.4857C85.4222 15.4857 86.2079 15.0822 86.8025 14.2752L88.2678 15.6343C87.3617 16.8518 86.0522 17.4606 84.3392 17.4606Z" fill="white"/>
<path d="M94.8523 17.4606C93.2667 17.4606 91.9926 16.9438 91.0299 15.9104C90.0672 14.8628 89.5859 13.5815 89.5859 12.0667C89.5859 10.5519 90.0672 9.27779 91.0299 8.24433C91.9926 7.21086 93.2667 6.69413 94.8523 6.69413C96.452 6.69413 97.7332 7.21086 98.6959 8.24433C99.6586 9.27779 100.14 10.5519 100.14 12.0667C100.14 13.5957 99.6586 14.8769 98.6959 15.9104C97.7332 16.9438 96.452 17.4606 94.8523 17.4606ZM94.8523 15.4857C95.7725 15.4857 96.4945 15.1601 97.0183 14.5088C97.5563 13.8434 97.8253 13.0294 97.8253 12.0667C97.8253 11.1182 97.5563 10.3183 97.0183 9.66711C96.4945 9.00173 95.7725 8.66904 94.8523 8.66904C93.9462 8.66904 93.2242 9.00173 92.6863 9.66711C92.1624 10.3183 91.9005 11.1182 91.9005 12.0667C91.9005 13.0294 92.1624 13.8434 92.6863 14.5088C93.2242 15.1601 93.9462 15.4857 94.8523 15.4857Z" fill="white"/>
<path d="M103.5 5.69605C103.132 5.69605 102.807 5.56156 102.523 5.29258C102.254 5.02359 102.12 4.69798 102.12 4.31574C102.12 3.9335 102.254 3.60789 102.523 3.3389C102.807 3.06992 103.132 2.93542 103.5 2.93542C103.883 2.93542 104.208 3.06992 104.477 3.3389C104.746 3.60789 104.881 3.9335 104.881 4.31574C104.881 4.69798 104.746 5.02359 104.477 5.29258C104.208 5.56156 103.883 5.69605 103.5 5.69605ZM104.626 17.2058H102.396V6.94896H104.626V17.2058Z" fill="white"/>
<path d="M116.671 17.2058H114.441V10.7926C114.441 9.37689 113.755 8.66904 112.381 8.66904C111.843 8.66904 111.341 8.80353 110.874 9.07252C110.406 9.3415 110.031 9.66711 109.748 10.0494V17.2058H107.518V6.94896H109.748V8.35051C110.13 7.89748 110.64 7.50816 111.277 7.18255C111.914 6.85693 112.608 6.69413 113.358 6.69413C114.448 6.69413 115.269 6.97727 115.821 7.54355C116.388 8.10984 116.671 8.92387 116.671 9.98565V17.2058Z" fill="white"/>
</svg>
