<svg width="131" height="38" viewBox="0 0 131 38" fill="none" xmlns="http://www.w3.org/2000/svg">
<path fill-rule="evenodd" clip-rule="evenodd" d="M37.1674 21.805C37.1674 22.0163 36.9561 22.2276 36.7449 22.2276H28.7868C28.9981 24.1995 30.477 26.0306 32.5898 26.0306C33.9983 26.0306 35.0546 25.4672 35.8997 24.3403C35.9702 24.1995 36.111 24.1291 36.2519 24.1291C36.4632 24.1291 36.6744 24.2699 36.6744 24.5516C36.6744 24.6221 36.6744 24.6925 36.604 24.7629C35.8293 26.1714 34.2095 26.8757 32.6602 26.8757C29.984 26.8757 28.0825 24.4812 28.0825 21.8755C28.0825 19.2697 29.984 16.8752 32.6602 16.8752C35.3363 16.8752 37.1674 19.1993 37.1674 21.805ZM36.3226 21.3823C36.1818 19.4104 34.6324 17.5793 32.5196 17.5793C30.4069 17.5793 28.9279 19.4104 28.7166 21.3823H36.3226Z" fill="white"/>
<path d="M28.7868 22.2276V21.7276H28.2303L28.2896 22.2808L28.7868 22.2276ZM35.8997 24.3403L36.2997 24.6403L36.3268 24.6043L36.347 24.564L35.8997 24.3403ZM36.604 24.7629L36.2505 24.4093L36.2002 24.4596L36.1659 24.5219L36.604 24.7629ZM36.3226 21.3823V21.8823H36.8596L36.8213 21.3467L36.3226 21.3823ZM28.7166 21.3823L28.2195 21.329L28.1602 21.8823H28.7166V21.3823ZM36.6674 21.805C36.6674 21.7746 36.6748 21.7556 36.678 21.7487C36.6812 21.742 36.683 21.7408 36.6818 21.742C36.6806 21.7432 36.6818 21.7413 36.6886 21.7382C36.6954 21.735 36.7144 21.7276 36.7449 21.7276V22.7276C37.0131 22.7276 37.2395 22.5985 37.3889 22.4491C37.5383 22.2997 37.6674 22.0733 37.6674 21.805H36.6674ZM36.7449 21.7276H28.7868V22.7276H36.7449V21.7276ZM28.2896 22.2808C28.5196 24.427 30.1485 26.5306 32.5898 26.5306V25.5306C30.8055 25.5306 29.4765 23.972 29.2839 22.1743L28.2896 22.2808ZM32.5898 26.5306C34.1651 26.5306 35.366 25.8853 36.2997 24.6403L35.4997 24.0403C34.7433 25.049 33.8314 25.5306 32.5898 25.5306V26.5306ZM36.347 24.564C36.336 24.5858 36.3176 24.6045 36.2975 24.616C36.2794 24.6263 36.2636 24.6291 36.2519 24.6291V23.6291C35.9494 23.6291 35.6194 23.783 35.4525 24.1167L36.347 24.564ZM36.2519 24.6291C36.251 24.6291 36.2337 24.6293 36.2102 24.6084C36.1974 24.5971 36.1867 24.5825 36.18 24.5672C36.1734 24.5519 36.1744 24.5447 36.1744 24.5516H37.1744C37.1744 24.2751 37.0658 24.031 36.8746 23.861C36.6926 23.6992 36.464 23.6291 36.2519 23.6291V24.6291ZM36.1744 24.5516C36.1744 24.5718 36.1743 24.5738 36.1743 24.5733C36.1745 24.5705 36.1755 24.5563 36.1806 24.536C36.1859 24.5145 36.1949 24.4898 36.2089 24.465C36.2228 24.4402 36.238 24.4218 36.2505 24.4093L36.9576 25.1165C37.1834 24.8906 37.1744 24.6295 37.1744 24.5516H36.1744ZM36.1659 24.5219C35.5021 25.7289 34.0805 26.3757 32.6602 26.3757V27.3757C34.3386 27.3757 36.1566 26.614 37.0421 25.0039L36.1659 24.5219ZM32.6602 26.3757C30.3202 26.3757 28.5825 24.2692 28.5825 21.8755H27.5825C27.5825 24.6932 29.6478 27.3757 32.6602 27.3757V26.3757ZM28.5825 21.8755C28.5825 19.4817 30.3202 17.3752 32.6602 17.3752V16.3752C29.6478 16.3752 27.5825 19.0577 27.5825 21.8755H28.5825ZM32.6602 17.3752C34.999 17.3752 36.6674 19.4099 36.6674 21.805H37.6674C37.6674 18.9886 35.6737 16.3752 32.6602 16.3752V17.3752ZM36.8213 21.3467C36.6659 19.1706 34.9487 17.0793 32.5196 17.0793V18.0793C34.3161 18.0793 35.6976 19.6502 35.8239 21.4179L36.8213 21.3467ZM32.5196 17.0793C30.0784 17.0793 28.4494 19.1829 28.2195 21.329L29.2138 21.4356C29.4064 19.6379 30.7354 18.0793 32.5196 18.0793V17.0793ZM28.7166 21.8823H36.3226V20.8823H28.7166V21.8823Z" fill="white"/>
<path fill-rule="evenodd" clip-rule="evenodd" d="M46.8864 17.0152C47.0977 17.0152 47.3089 17.2265 47.3089 17.4377C47.3089 17.649 47.1681 17.8603 46.8864 17.8603H44.7736V26.2409C44.7736 26.4522 44.6328 26.6635 44.3511 26.6635C44.1398 26.6635 43.9285 26.4522 43.9285 26.2409V17.7899H41.8862C41.6749 17.7899 41.4636 17.649 41.4636 17.3673C41.4636 17.156 41.6045 16.9448 41.8862 16.9448H43.9285V13.846C43.9285 13.6348 44.0694 13.4235 44.3511 13.4235C44.5623 13.4235 44.7736 13.5643 44.7736 13.846V16.9448H46.8864V17.0152Z" fill="white" stroke="white"/>
<path fill-rule="evenodd" clip-rule="evenodd" d="M59.9859 21.1008V26.1715C59.9859 26.3827 59.7746 26.594 59.5634 26.594C59.3521 26.594 59.1408 26.4532 59.1408 26.1715V21.1008C59.1408 19.4106 58.1548 17.65 56.2534 17.65C53.7885 17.65 52.7321 19.7627 52.8729 22.0164C52.8729 22.0868 52.8729 22.2981 52.8729 22.3685V26.1715C52.8729 26.3827 52.7321 26.594 52.4504 26.594C52.2391 26.594 52.0278 26.4532 52.0278 26.1715V9.41019C52.0278 9.19892 52.1687 8.98764 52.4504 8.98764C52.6617 8.98764 52.8729 9.19892 52.8729 9.41019V18.8472C53.5772 17.65 54.7744 16.8049 56.2534 16.8049C58.6478 16.8049 59.9859 18.9176 59.9859 21.1008Z" fill="white"/>
<path d="M59.9859 21.1008V26.1715C59.9859 26.3827 59.7746 26.594 59.5634 26.594C59.3521 26.594 59.1408 26.4532 59.1408 26.1715V21.1008C59.1408 19.4106 58.1548 17.65 56.2534 17.65C53.7885 17.65 52.7321 19.7627 52.8729 22.0164C52.8729 22.0868 52.8729 22.2981 52.8729 22.3685V26.1715C52.8729 26.3827 52.7321 26.594 52.4504 26.594C52.2391 26.594 52.0278 26.4532 52.0278 26.1715V9.41019C52.0278 9.19892 52.1687 8.98764 52.4504 8.98764C52.6617 8.98764 52.8729 9.19892 52.8729 9.41019V18.8472C53.5772 17.65 54.7744 16.8049 56.2534 16.8049C58.6478 16.8049 59.9859 18.9176 59.9859 21.1008" stroke="white"/>
<path fill-rule="evenodd" clip-rule="evenodd" d="M74.2821 21.8045C74.2821 22.0158 74.0709 22.2271 73.8596 22.2271H65.9015C66.1128 24.199 67.5917 26.0301 69.7045 26.0301C71.113 26.0301 72.1694 25.4667 73.0145 24.3399C73.0849 24.199 73.2258 24.1286 73.3666 24.1286C73.5779 24.1286 73.7892 24.2694 73.7892 24.5511C73.7892 24.6216 73.7892 24.692 73.7187 24.7624C72.9441 26.1709 71.3243 26.8752 69.7749 26.8752C67.0988 26.8752 65.1973 24.4807 65.1973 21.875C65.1973 19.2692 67.0988 16.8747 69.7749 16.8747C72.3807 16.8043 74.2821 19.1988 74.2821 21.8045ZM73.4365 21.3828C73.2957 19.4109 71.7463 17.5799 69.6336 17.5799C67.5208 17.5799 66.0419 19.4109 65.8306 21.3828H73.4365Z" fill="white"/>
<path d="M65.9015 22.2271V21.7271H65.3451L65.4044 22.2804L65.9015 22.2271ZM73.0145 24.3399L73.4145 24.6399L73.4415 24.6038L73.4617 24.5635L73.0145 24.3399ZM73.7187 24.7624L73.3652 24.4089L73.3149 24.4591L73.2806 24.5214L73.7187 24.7624ZM69.7749 16.8747V17.3749L69.7884 17.3746L69.7749 16.8747ZM73.4365 21.3828V21.8828H73.9735L73.9353 21.3472L73.4365 21.3828ZM65.8306 21.3828L65.3334 21.3296L65.2741 21.8828H65.8306V21.3828ZM73.7821 21.8045C73.7821 21.7741 73.7896 21.7551 73.7927 21.7482C73.7959 21.7415 73.7978 21.7403 73.7965 21.7415C73.7953 21.7427 73.7965 21.7408 73.8033 21.7377C73.8101 21.7345 73.8292 21.7271 73.8596 21.7271V22.7271C74.1278 22.7271 74.3542 22.598 74.5036 22.4486C74.653 22.2992 74.7821 22.0728 74.7821 21.8045H73.7821ZM73.8596 21.7271H65.9015V22.7271H73.8596V21.7271ZM65.4044 22.2804C65.6343 24.4265 67.2632 26.5301 69.7045 26.5301V25.5301C67.9202 25.5301 66.5913 23.9715 66.3987 22.1738L65.4044 22.2804ZM69.7045 26.5301C71.2798 26.5301 72.4808 25.8848 73.4145 24.6399L72.6145 24.0399C71.858 25.0485 70.9462 25.5301 69.7045 25.5301V26.5301ZM73.4617 24.5635C73.4508 24.5853 73.4323 24.604 73.4122 24.6155C73.3941 24.6258 73.3783 24.6286 73.3666 24.6286V23.6286C73.0641 23.6286 72.7341 23.7825 72.5673 24.1162L73.4617 24.5635ZM73.3666 24.6286C73.3657 24.6286 73.3485 24.6288 73.3249 24.6079C73.3122 24.5966 73.3015 24.582 73.2948 24.5667C73.2881 24.5514 73.2892 24.5442 73.2892 24.5511H74.2892C74.2892 24.2746 74.1805 24.0305 73.9893 23.8605C73.8073 23.6987 73.5788 23.6286 73.3666 23.6286V24.6286ZM73.2892 24.5511C73.2892 24.5713 73.289 24.5733 73.289 24.5728C73.2892 24.57 73.2902 24.5558 73.2953 24.5355C73.3007 24.514 73.3097 24.4894 73.3237 24.4645C73.3376 24.4397 73.3528 24.4213 73.3652 24.4089L74.0723 25.116C74.2982 24.8901 74.2892 24.629 74.2892 24.5511H73.2892ZM73.2806 24.5214C72.6168 25.7284 71.1952 26.3752 69.7749 26.3752V27.3752C71.4533 27.3752 73.2713 26.6135 74.1568 25.0034L73.2806 24.5214ZM69.7749 26.3752C67.4349 26.3752 65.6973 24.2687 65.6973 21.875H64.6973C64.6973 24.6927 66.7626 27.3752 69.7749 27.3752V26.3752ZM65.6973 21.875C65.6973 19.4812 67.4349 17.3747 69.7749 17.3747V16.3747C66.7626 16.3747 64.6973 19.0572 64.6973 21.875H65.6973ZM69.7884 17.3746C72.0394 17.3137 73.7821 19.4008 73.7821 21.8045H74.7821C74.7821 18.9968 72.7219 16.2949 69.7614 16.3749L69.7884 17.3746ZM73.9353 21.3472C73.7798 19.1711 72.0626 17.0799 69.6336 17.0799V18.0799C71.43 18.0799 72.8115 19.6507 72.9378 21.4185L73.9353 21.3472ZM69.6336 17.0799C67.1923 17.0799 65.5634 19.1834 65.3334 21.3296L66.3277 21.4361C66.5203 19.6384 67.8493 18.0799 69.6336 18.0799V17.0799ZM65.8306 21.8828H73.4365V20.8828H65.8306V21.8828Z" fill="white"/>
<path fill-rule="evenodd" clip-rule="evenodd" d="M84.1414 17.3685C84.1414 17.6502 84.0005 17.791 83.7893 17.791C81.4652 18.1431 80.4088 20.0446 80.4088 22.2982V26.1012C80.4088 26.3125 80.268 26.5238 79.9863 26.5238C79.775 26.5238 79.5637 26.3829 79.5637 26.1012V17.4389C79.5637 17.2276 79.7046 17.0163 79.9863 17.0163C80.1976 17.0163 80.4088 17.1572 80.4088 17.4389V19.1995C81.0427 18.0727 82.3807 17.0163 83.7893 17.0163C83.8597 17.0163 84.1414 17.1572 84.1414 17.3685Z" fill="white"/>
<path d="M84.1414 17.3685C84.1414 17.6502 84.0005 17.791 83.7893 17.791C81.4652 18.1431 80.4088 20.0446 80.4088 22.2982V26.1012C80.4088 26.3125 80.268 26.5238 79.9863 26.5238C79.775 26.5238 79.5637 26.3829 79.5637 26.1012V17.4389C79.5637 17.2276 79.7046 17.0163 79.9863 17.0163C80.1976 17.0163 80.4088 17.1572 80.4088 17.4389V19.1995C81.0427 18.0727 82.3807 17.0163 83.7893 17.0163C83.8597 17.0163 84.1414 17.1572 84.1414 17.3685" stroke="white"/>
<path fill-rule="evenodd" clip-rule="evenodd" d="M97.2402 21.8045C97.2402 22.0158 97.0289 22.2271 96.8176 22.2271H88.8595C89.0708 24.199 90.5497 26.0301 92.6625 26.0301C94.071 26.0301 95.1274 25.4667 95.9725 24.3399C96.0429 24.199 96.1838 24.1286 96.3246 24.1286C96.5359 24.1286 96.7472 24.2694 96.7472 24.5511C96.7472 24.6216 96.7472 24.692 96.6768 24.7624C95.9021 26.1709 94.2823 26.8752 92.7329 26.8752C90.0568 26.8752 88.1553 24.4807 88.1553 21.875C88.1553 19.2692 90.0568 16.8747 92.7329 16.8747C95.2683 16.8043 97.2402 19.1988 97.2402 21.8045ZM96.3948 21.3828C96.2539 19.4109 94.7046 17.5799 92.5918 17.5799C90.4791 17.5799 89.0001 19.4109 88.7888 21.3828H96.3948Z" fill="white"/>
<path d="M88.8595 22.2271V21.7271H88.3031L88.3624 22.2804L88.8595 22.2271ZM95.9725 24.3399L96.3725 24.6399L96.3996 24.6038L96.4197 24.5635L95.9725 24.3399ZM96.6768 24.7624L96.3232 24.4089L96.2729 24.4591L96.2387 24.5214L96.6768 24.7624ZM92.7329 16.8747V17.3749L92.7468 17.3746L92.7329 16.8747ZM96.3948 21.3828V21.8828H96.9318L96.8935 21.3472L96.3948 21.3828ZM88.7888 21.3828L88.2917 21.3296L88.2324 21.8828H88.7888V21.3828ZM96.7402 21.8045C96.7402 21.7741 96.7476 21.7551 96.7508 21.7482C96.7539 21.7415 96.7558 21.7403 96.7546 21.7415C96.7534 21.7427 96.7546 21.7408 96.7613 21.7377C96.7682 21.7345 96.7872 21.7271 96.8176 21.7271V22.7271C97.0859 22.7271 97.3123 22.598 97.4617 22.4486C97.6111 22.2992 97.7402 22.0728 97.7402 21.8045H96.7402ZM96.8176 21.7271H88.8595V22.7271H96.8176V21.7271ZM88.3624 22.2804C88.5923 24.4265 90.2212 26.5301 92.6625 26.5301V25.5301C90.8783 25.5301 89.5493 23.9715 89.3567 22.1738L88.3624 22.2804ZM92.6625 26.5301C94.2378 26.5301 95.4388 25.8848 96.3725 24.6399L95.5725 24.0399C94.816 25.0485 93.9042 25.5301 92.6625 25.5301V26.5301ZM96.4197 24.5635C96.4088 24.5853 96.3904 24.604 96.3702 24.6155C96.3522 24.6258 96.3363 24.6286 96.3246 24.6286V23.6286C96.0221 23.6286 95.6922 23.7825 95.5253 24.1162L96.4197 24.5635ZM96.3246 24.6286C96.3238 24.6286 96.3065 24.6288 96.283 24.6079C96.2702 24.5966 96.2595 24.582 96.2528 24.5667C96.2461 24.5514 96.2472 24.5442 96.2472 24.5511H97.2472C97.2472 24.2746 97.1385 24.0305 96.9473 23.8605C96.7653 23.6987 96.5368 23.6286 96.3246 23.6286V24.6286ZM96.2472 24.5511C96.2472 24.5713 96.247 24.5733 96.2471 24.5728C96.2472 24.57 96.2482 24.5558 96.2533 24.5355C96.2587 24.514 96.2677 24.4894 96.2817 24.4645C96.2956 24.4397 96.3108 24.4213 96.3232 24.4089L97.0303 25.116C97.2562 24.8901 97.2472 24.629 97.2472 24.5511H96.2472ZM96.2387 24.5214C95.5749 25.7284 94.1533 26.3752 92.7329 26.3752V27.3752C94.4113 27.3752 96.2293 26.6135 97.1149 25.0034L96.2387 24.5214ZM92.7329 26.3752C90.3929 26.3752 88.6553 24.2687 88.6553 21.875H87.6553C87.6553 24.6927 89.7206 27.3752 92.7329 27.3752V26.3752ZM88.6553 21.875C88.6553 19.4812 90.3929 17.3747 92.7329 17.3747V16.3747C89.7206 16.3747 87.6553 19.0572 87.6553 21.875H88.6553ZM92.7468 17.3746C94.9316 17.3139 96.7402 19.4061 96.7402 21.8045H97.7402C97.7402 18.9915 95.6049 16.2948 92.7191 16.3749L92.7468 17.3746ZM96.8935 21.3472C96.7381 19.1711 95.0209 17.0799 92.5918 17.0799V18.0799C94.3883 18.0799 95.7698 19.6507 95.8961 21.4185L96.8935 21.3472ZM92.5918 17.0799C90.1505 17.0799 88.5216 19.1834 88.2917 21.3296L89.286 21.4361C89.4786 19.6384 90.8076 18.0799 92.5918 18.0799V17.0799ZM88.7888 21.8828H96.3948V20.8828H88.7888V21.8828Z" fill="white"/>
<path fill-rule="evenodd" clip-rule="evenodd" d="M110.128 17.4383V20.1849V26.1711C110.128 26.3824 109.917 26.5936 109.706 26.5936C109.494 26.5936 109.283 26.4528 109.283 26.1711V24.4809C108.649 25.819 107.452 26.7345 105.973 26.7345C103.579 26.7345 102.311 24.6922 102.311 22.509V17.3679C102.311 17.1566 102.452 16.9453 102.734 16.9453C102.945 16.9453 103.156 17.1566 103.156 17.3679V22.5794C103.156 24.2696 104.142 26.0302 106.044 26.0302C108.72 26.0302 109.354 23.4949 109.354 20.7483V17.5087C109.354 17.2975 109.494 17.0862 109.776 17.0862C109.917 17.0862 110.128 17.227 110.128 17.4383Z" fill="white"/>
<path d="M110.128 17.4383V20.1849V26.1711C110.128 26.3824 109.917 26.5936 109.706 26.5936C109.494 26.5936 109.283 26.4528 109.283 26.1711V24.4809C108.649 25.819 107.452 26.7345 105.973 26.7345C103.579 26.7345 102.311 24.6922 102.311 22.509V17.3679C102.311 17.1566 102.452 16.9453 102.734 16.9453C102.945 16.9453 103.156 17.1566 103.156 17.3679V22.5794C103.156 24.2696 104.142 26.0302 106.044 26.0302C108.72 26.0302 109.354 23.4949 109.354 20.7483V17.5087C109.354 17.2975 109.494 17.0862 109.776 17.0862C109.917 17.0862 110.128 17.227 110.128 17.4383" stroke="white"/>
<path fill-rule="evenodd" clip-rule="evenodd" d="M130.34 21.0296V26.1706C130.34 26.3819 130.129 26.5932 129.918 26.5932C129.707 26.5932 129.495 26.4524 129.495 26.1706V21.0296C129.495 19.3394 128.509 17.6492 126.608 17.6492C124.213 17.6492 123.298 20.2549 123.298 22.2268V26.1706C123.298 26.3819 123.087 26.5932 122.875 26.5932C122.664 26.5932 122.453 26.4524 122.453 26.1706V21.0296C122.453 19.3394 121.467 17.6492 119.565 17.6492C117.1 17.6492 116.115 19.5507 116.185 22.086C116.185 22.1564 116.185 22.2268 116.185 22.2972V26.1706C116.185 26.3819 116.044 26.5932 115.762 26.5932C115.551 26.5932 115.34 26.4524 115.34 26.1706V17.4379C115.34 17.2266 115.481 17.0153 115.762 17.0153C115.974 17.0153 116.185 17.1562 116.185 17.4379V18.9168C116.889 17.7196 118.086 16.8745 119.565 16.8745C121.185 16.8745 122.453 17.9309 122.946 19.4098C123.58 17.9309 124.918 16.8745 126.537 16.8745C129.002 16.8041 130.34 18.8464 130.34 21.0296Z" fill="white"/>
<path d="M130.34 21.0296V26.1706C130.34 26.3819 130.129 26.5932 129.918 26.5932C129.707 26.5932 129.495 26.4524 129.495 26.1706V21.0296C129.495 19.3394 128.509 17.6492 126.608 17.6492C124.213 17.6492 123.298 20.2549 123.298 22.2268V26.1706C123.298 26.3819 123.087 26.5932 122.875 26.5932C122.664 26.5932 122.453 26.4524 122.453 26.1706V21.0296C122.453 19.3394 121.467 17.6492 119.565 17.6492C117.1 17.6492 116.115 19.5507 116.185 22.086C116.185 22.1564 116.185 22.2268 116.185 22.2972V26.1706C116.185 26.3819 116.044 26.5932 115.762 26.5932C115.551 26.5932 115.34 26.4524 115.34 26.1706V17.4379C115.34 17.2266 115.481 17.0153 115.762 17.0153C115.974 17.0153 116.185 17.1562 116.185 17.4379V18.9168C116.889 17.7196 118.086 16.8745 119.565 16.8745C121.185 16.8745 122.453 17.9309 122.946 19.4098C123.58 17.9309 124.918 16.8745 126.537 16.8745C129.002 16.8041 130.34 18.8464 130.34 21.0296" stroke="white"/>
<g opacity="0.9">
<path opacity="0.5" fill-rule="evenodd" clip-rule="evenodd" d="M0.802734 21.6056L12.0543 37.4955V28.2646L0.802734 21.6056Z" fill="white"/>
<path fill-rule="evenodd" clip-rule="evenodd" d="M0.802734 19.4471L12.0543 26.1521V14.3494L0.802734 19.4471Z" fill="white" fill-opacity="0.8"/>
<path opacity="0.5" fill-rule="evenodd" clip-rule="evenodd" d="M0.802734 19.4472L12.0543 14.3496V0.755859L0.802734 19.4472Z" fill="white"/>
<path opacity="0.75" fill-rule="evenodd" clip-rule="evenodd" d="M23.3519 21.6056L12.0544 37.4955V28.2646L23.3519 21.6056Z" fill="white"/>
<path fill-rule="evenodd" clip-rule="evenodd" d="M23.3519 19.4471L12.0544 26.1521V14.3495L23.3519 19.4471Z" fill="white" fill-opacity="0.9"/>
<path opacity="0.75" fill-rule="evenodd" clip-rule="evenodd" d="M23.3519 19.447L12.0544 14.3494V0.755676L23.3519 19.447Z" fill="white"/>
</g>
</svg>
