<svg width="326" height="62" viewBox="0 0 326 62" fill="none" xmlns="http://www.w3.org/2000/svg">
<path d="M0.958439 5.94232C0.460223 2.85338 2.88939 0.0709052 6.01731 0.147664L319.474 7.83986C322.764 7.9206 325.081 11.1032 324.146 14.2588L311.061 58.4204C310.432 60.5435 308.481 62 306.267 62H14.2582C11.8041 62 9.71273 60.2189 9.32196 57.7962L0.958439 5.94232Z" fill="#EA662C"/>
<path d="M121.497 40.4101L121.885 25.14L128.623 25.6862C129.228 26.1517 129.738 26.7482 130.153 27.4756C130.504 28.1014 130.759 28.8998 130.918 29.8708C131.093 30.8256 131.031 31.9743 130.73 33.3171C130.582 33.8969 130.355 34.3079 130.049 34.5502C129.759 34.793 129.463 34.9522 129.161 35.0279C128.809 35.1023 128.426 35.1009 128.011 35.0237L132.315 40.8098L130.016 40.7514L125.695 35.6151L124.049 35.4482L123.259 40.955L121.606 41.038L121.497 40.4101ZM124.251 27.4758L124.095 33.6488C124.577 33.6778 125.027 33.6975 125.443 33.7081C125.793 33.717 126.135 33.7256 126.468 33.7341C126.801 33.7426 127.035 33.7318 127.169 33.7019C127.42 33.6582 127.65 33.4723 127.859 33.1442C128.067 32.816 128.235 32.4285 128.363 31.9816C128.508 31.5185 128.604 31.0291 128.651 30.5135C128.714 29.9816 128.718 29.4982 128.662 29.0633C128.607 28.6117 128.483 28.2418 128.29 27.9535C128.114 27.6656 127.851 27.5172 127.501 27.5083L124.251 27.4758ZM133.854 25.5689L143.328 25.7345L143.203 27.7069L135.903 27.5966L135.849 31.7215L142.963 32.2273L142.999 33.7537L135.917 33.949L135.734 39.171L142.859 39.2769L142.732 41.3244L133.588 40.9671L133.854 25.5689ZM154.351 29.6405L152.931 29.4294L152.965 28.0798C152.814 28.1093 152.589 28.1286 152.288 28.1377C152.038 28.148 151.688 28.1557 151.237 28.161C150.804 28.15 150.246 28.1358 149.563 28.1185C148.863 28.1007 148.335 28.2123 147.979 28.4534C147.64 28.6782 147.392 28.9303 147.234 29.2097C147.043 29.5383 146.95 29.9194 146.955 30.353C146.95 31.2032 146.954 32.0452 146.966 32.8791C146.981 33.5964 146.987 34.3551 146.983 35.1553C146.98 35.9554 146.97 36.6638 146.954 37.2802C146.938 37.9133 147.035 38.3743 147.244 38.663C147.454 38.9518 147.699 39.1497 147.98 39.2569C148.293 39.3815 148.659 39.4242 149.077 39.3848L152.003 39.384L152.08 36.335L149.979 36.3567L149.954 34.3804L154.105 34.4108C154.077 34.8435 154.048 35.318 154.018 35.8341C153.991 36.2668 153.969 36.7831 153.954 37.3829C153.939 37.9661 153.923 38.6075 153.905 39.3073C153.887 40.0071 153.825 40.514 153.717 40.828C153.609 41.1254 153.487 41.3223 153.351 41.4189C153.199 41.5317 153.032 41.5442 152.85 41.4562C152.816 41.5054 152.64 41.5426 152.322 41.5678C152.038 41.594 151.596 41.6161 150.995 41.6342C150.412 41.636 149.562 41.6228 148.445 41.5945C147.896 41.5805 147.414 41.5099 147 41.3827C146.604 41.2393 146.258 41.0638 145.963 40.8562C145.685 40.6491 145.458 40.4182 145.281 40.1637C145.121 39.8929 144.994 39.6229 144.901 39.3538C144.667 38.7143 144.594 37.9872 144.681 37.1725L144.859 30.1747C144.89 28.9751 145.079 28.0797 145.427 27.4883C145.793 26.8807 146.187 26.4573 146.61 26.2179C147.101 25.9303 147.654 25.8109 148.27 25.8599L153.293 25.9875C153.676 25.9972 153.948 26.1291 154.108 26.3833C154.286 26.6212 154.387 26.8905 154.413 27.1913C154.454 27.5424 154.436 27.9338 154.358 28.3653L154.351 29.6405ZM157.995 25.9818L157.592 41.8267L155.621 41.6516L156.017 26.0566L157.995 25.9818ZM167.378 29.5961L167.655 28.5278L163.531 28.4231C163.264 28.4663 163.037 28.5356 162.851 28.6309C162.666 28.7096 162.504 28.8222 162.367 28.9687C162.23 29.1153 162.159 29.3052 162.153 29.5385L162.127 30.5382C162.214 31.0739 162.334 31.5937 162.488 32.0978C162.642 32.6019 162.906 33.0421 163.28 33.4183C163.67 33.795 164.213 34.0839 164.908 34.285C165.62 34.4698 166.569 34.5272 167.755 34.4573C168.349 34.7057 168.806 35.0591 169.128 35.5175C169.45 35.9758 169.646 36.4809 169.715 37.0328C169.784 37.5848 169.72 38.15 169.522 38.7285C169.341 39.2907 169.028 39.808 168.582 40.2801C168.153 40.7527 167.593 41.1387 166.902 41.4379C166.211 41.7371 165.398 41.8998 164.464 41.9261C163.513 41.952 162.788 41.9586 162.288 41.9459C161.788 41.9499 161.421 41.9489 161.188 41.943C160.904 41.9358 160.738 41.9232 160.688 41.9053C160.506 41.8673 160.342 41.7381 160.198 41.5177C160.069 41.3311 159.96 41.0449 159.87 40.6591C159.779 40.2734 159.744 39.7056 159.763 38.9559C159.772 38.5893 159.788 38.3063 159.809 38.1068C159.848 37.891 159.894 37.7421 159.946 37.6601C159.998 37.5781 160.057 37.5379 160.124 37.5396C160.191 37.5413 160.256 37.5763 160.321 37.6446C160.484 37.7988 160.66 38.095 160.849 38.5333L160.823 39.558L165.971 39.6887C166.667 39.2062 167.203 38.778 167.579 38.4041C167.734 38.2413 167.863 38.0862 167.966 37.9388C168.087 37.7918 168.14 37.6597 168.126 37.5427C168.129 37.4261 168.057 37.3325 167.909 37.2621C167.777 37.192 167.553 37.1613 167.236 37.17C165.984 37.2049 164.937 37.0699 164.095 36.7651C163.269 36.4607 162.587 36.0683 162.049 35.5878C161.528 35.1078 161.133 34.5809 160.864 34.0072C160.595 33.4169 160.409 32.862 160.306 32.3425C160.203 31.8064 160.148 31.3465 160.141 30.9629C160.151 30.5797 160.157 30.3381 160.159 30.2381L160.284 28.2657C160.395 27.8517 160.688 27.484 161.163 27.1626C161.57 26.8895 162.176 26.6465 162.982 26.4335C163.805 26.2043 164.941 26.1081 166.39 26.1449C167.107 26.1631 167.689 26.2279 168.136 26.3393C168.584 26.434 168.93 26.5679 169.176 26.7408C169.422 26.8971 169.584 27.0763 169.663 27.2784C169.741 27.4638 169.761 27.656 169.723 27.8551C169.644 28.3199 169.306 28.8448 168.708 29.4298L167.378 29.5961ZM171.018 26.4375L183.615 26.7073L183.686 28.8598L178.716 28.6086L177.873 42.0915L176.022 42.0946L176.195 28.4195L170.894 28.36L171.018 26.4375ZM184.97 26.8668L194.444 27.0323L194.319 29.0048L187.02 28.8944L186.965 33.0194L194.079 33.5251L194.116 35.0515L187.033 35.2468L186.851 40.4689L193.975 40.5748L193.848 42.6222L184.705 42.265L184.97 26.8668ZM195.701 42.2941L196.088 27.024L202.827 27.5702C203.432 28.0357 203.942 28.6322 204.357 29.3596C204.708 29.9854 204.963 30.7838 205.121 31.7548C205.297 32.7096 205.235 33.8584 204.934 35.2012C204.786 35.7809 204.558 36.192 204.252 36.4343C203.963 36.677 203.667 36.8362 203.365 36.9119C203.013 36.9863 202.629 36.9849 202.215 36.9077L206.519 42.6938L204.22 42.6354L199.899 37.4991L198.252 37.3323L197.462 42.839L195.81 42.9221L195.701 42.2941ZM198.455 29.3598L198.298 35.5329C198.781 35.5618 199.231 35.5815 199.647 35.5921C199.997 35.601 200.339 35.6097 200.672 35.6181C201.005 35.6266 201.239 35.6159 201.373 35.5859C201.624 35.5423 201.854 35.3564 202.062 35.0282C202.271 34.7001 202.439 34.3126 202.567 33.8657C202.712 33.4025 202.808 32.9131 202.854 32.3975C202.918 31.8656 202.922 31.3822 202.866 30.9473C202.811 30.4958 202.687 30.1258 202.494 29.8375C202.318 29.5496 202.055 29.4012 201.705 29.3924L198.455 29.3598Z" fill="#FFFBE0"/>
</svg>
