<svg width="326" height="62" viewBox="0 0 326 62" fill="none" xmlns="http://www.w3.org/2000/svg">
<path d="M0.958439 5.94232C0.460223 2.85338 2.88939 0.0709052 6.01731 0.147664L319.474 7.83986C322.764 7.9206 325.081 11.1032 324.146 14.2588L311.061 58.4204C310.432 60.5435 308.481 62 306.267 62H14.2582C11.8041 62 9.71273 60.2189 9.32196 57.7962L0.958439 5.94232Z" fill="#EA662C"/>
<path d="M68.3148 23.9049L68.7187 37.5445L75.7235 37.4473L75.4152 39.7402L65.7592 38.8698L66.2655 23.8529L68.3148 23.9049ZM83.4183 37.6427C83.8681 37.6541 84.2968 37.5149 84.7043 37.2252C85.1284 36.9358 85.5051 36.5453 85.8344 36.0535C86.1636 35.5617 86.4361 35.0101 86.6516 34.3987C86.8843 33.7711 87.0424 33.1249 87.126 32.4601C87.2096 31.7953 87.2092 31.1535 87.1249 30.5345C87.041 29.8988 86.8554 29.3272 86.5682 28.8198C86.281 28.3123 85.883 27.9021 85.3741 27.5891C84.8652 27.2761 84.2192 27.1096 83.4361 27.0897C82.5197 27.0665 81.7965 27.3148 81.2665 27.8349C80.7369 28.3383 80.3622 28.979 80.1424 29.757C79.923 30.5183 79.8516 31.3584 79.9283 32.2774C80.005 33.1963 80.1917 34.0513 80.4884 34.8424C80.8022 35.6173 81.2022 36.2776 81.6885 36.8235C82.1919 37.3531 82.7685 37.6262 83.4183 37.6427ZM84.3178 39.6411C82.8183 39.6031 81.5763 39.2714 80.5919 38.6463C79.6241 38.0215 78.8855 37.2358 78.376 36.2892C77.8669 35.326 77.5768 34.2766 77.5056 33.1411C77.4344 32.0056 77.5373 30.9079 77.8143 29.8479C78.0917 28.7713 78.533 27.8072 79.1381 26.9556C79.7599 26.1044 80.5091 25.4899 81.3857 25.112C82.4813 24.6397 83.4602 24.4978 84.3224 24.6864C85.2016 24.8588 85.9588 25.2448 86.5937 25.8445C87.2454 26.4445 87.7762 27.2083 88.1861 28.1356C88.5965 29.0463 88.8718 30.0203 89.0122 31.0575C89.1697 32.0785 89.1934 33.1128 89.0835 34.1603C88.9906 35.1916 88.7503 36.1192 88.3626 36.9429C87.9753 37.75 87.4417 38.4117 86.7617 38.9279C86.0988 39.4279 85.2842 39.6657 84.3178 39.6411ZM96.3897 37.972C96.8395 37.9834 97.2682 37.8443 97.6757 37.5545C98.0998 37.2652 98.4765 36.8746 98.8058 36.3828C99.135 35.891 99.4075 35.3394 99.623 34.728C99.8557 34.1004 100.014 33.4542 100.097 32.7895C100.181 32.1247 100.181 31.4828 100.096 30.8638C100.012 30.2281 99.8268 29.6566 99.5396 29.1491C99.2524 28.6417 98.8544 28.2314 98.3455 27.9184C97.8366 27.6054 97.1906 27.4389 96.4075 27.4191C95.4912 27.3958 94.7679 27.6442 94.2379 28.1642C93.7083 28.6676 93.3336 29.3083 93.1138 30.0863C92.8944 30.8477 92.823 31.6878 92.8997 32.6067C92.9764 33.5256 93.1631 34.3806 93.4598 35.1717C93.7736 35.9466 94.1736 36.607 94.6599 37.1528C95.1633 37.6825 95.7399 37.9555 96.3897 37.972ZM97.2892 39.9705C95.7897 39.9324 94.5477 39.6008 93.5633 38.9756C92.5955 38.3508 91.8569 37.5652 91.3474 36.6186C90.8383 35.6554 90.5482 34.606 90.477 33.4705C90.4058 32.335 90.5087 31.2372 90.7857 30.1773C91.0631 29.1006 91.5044 28.1365 92.1095 27.2849C92.7313 26.4338 93.4805 25.8193 94.3571 25.4414C95.4527 24.969 96.4317 24.8272 97.2938 25.0158C98.1731 25.1882 98.9302 25.5742 99.5651 26.1738C100.217 26.7739 100.748 27.5376 101.158 28.465C101.568 29.3757 101.843 30.3496 101.984 31.3869C102.141 32.4079 102.165 33.4421 102.055 34.4897C101.962 35.521 101.722 36.4485 101.334 37.2723C100.947 38.0794 100.413 38.741 99.7331 39.2573C99.0702 39.7573 98.2556 39.995 97.2892 39.9705ZM106.134 24.54L106.095 31.9914L106.85 31.8105L113.98 24.8142L115.788 25.4854C114.98 26.4485 114.216 27.346 113.494 28.178C113.185 28.5369 112.868 28.8957 112.542 29.2542C112.233 29.6131 111.932 29.9556 111.64 30.2816C111.349 30.6077 111.074 30.9008 110.818 31.161C110.578 31.4217 110.381 31.6251 110.227 31.7712C109.902 32.0798 109.783 32.5019 109.87 33.0376C109.957 33.5566 110.159 34.1203 110.477 34.7285C110.796 35.3201 111.189 35.922 111.657 36.5341C112.141 37.1466 112.611 37.6836 113.066 38.1453C113.538 38.6075 113.954 38.9681 114.314 39.2274C114.674 39.4866 114.906 39.5592 115.009 39.4451L115.028 40.671C114.193 40.7164 113.421 40.5718 112.713 40.2371C112.005 39.9023 111.365 39.4693 110.795 38.938C110.226 38.39 109.733 37.7856 109.316 37.1248C108.899 36.464 108.565 35.8387 108.313 35.2488C108.061 34.6589 107.899 34.1546 107.826 33.7359C107.754 33.3006 107.778 33.0345 107.897 32.9375L105.837 34.2856L105.884 40.3137L103.785 40.2604L104.182 24.6155L106.134 24.54ZM122.782 40.8678L123.181 25.1729L132.65 25.5383L132.603 27.3878L125.147 27.4986L125.047 31.4473L131.292 31.7309L131.49 33.7866L125.366 33.6811L125.186 40.7538L122.782 40.8678ZM139.245 39.0601C139.695 39.0715 140.124 38.9324 140.531 38.6426C140.955 38.3533 141.332 37.9627 141.661 37.4709C141.99 36.9791 142.263 36.4275 142.478 35.8161C142.711 35.1885 142.869 34.5423 142.953 33.8775C143.036 33.2128 143.036 32.5709 142.952 31.9519C142.868 31.3162 142.682 30.7447 142.395 30.2372C142.108 29.7298 141.71 29.3195 141.201 29.0065C140.692 28.6935 140.046 28.527 139.263 28.5072C138.346 28.4839 137.623 28.7323 137.093 29.2523C136.564 29.7557 136.189 30.3964 135.969 31.1744C135.75 31.9358 135.678 32.7759 135.755 33.6948C135.832 34.6137 136.018 35.4687 136.315 36.2598C136.629 37.0347 137.029 37.6951 137.515 38.2409C138.019 38.7706 138.595 39.0436 139.245 39.0601ZM140.145 41.0586C138.645 41.0205 137.403 40.6889 136.419 40.0637C135.451 39.4389 134.712 38.6533 134.203 37.7067C133.694 36.7435 133.404 35.6941 133.332 34.5586C133.261 33.4231 133.364 32.3253 133.641 31.2654C133.918 30.1887 134.36 29.2246 134.965 28.373C135.587 27.5219 136.336 26.9074 137.212 26.5295C138.308 26.0571 139.287 25.9153 140.149 26.1039C141.028 26.2763 141.785 26.6623 142.42 27.2619C143.072 27.862 143.603 28.6257 144.013 29.5531C144.423 30.4638 144.699 31.4377 144.839 32.475C144.996 33.496 145.02 34.5302 144.91 35.5778C144.817 36.6091 144.577 37.5366 144.189 38.3604C143.802 39.1675 143.268 39.8291 142.588 40.3454C141.926 40.8454 141.111 41.0831 140.145 41.0586ZM146.323 41.0404L146.71 25.7703L153.449 26.3165C154.054 26.782 154.564 27.3785 154.979 28.1059C155.33 28.7317 155.584 29.5301 155.743 30.5011C155.919 31.4559 155.856 32.6047 155.556 33.9475C155.408 34.5272 155.18 34.9382 154.874 35.1806C154.584 35.4233 154.289 35.5825 153.987 35.6582C153.635 35.7326 153.251 35.7312 152.836 35.654L157.141 41.4401L154.842 41.3817L150.521 36.2454L148.874 36.0786L148.084 41.5853L146.432 41.6684L146.323 41.0404ZM149.077 28.1061L148.92 34.2791C149.403 34.3081 149.852 34.3278 150.269 34.3384C150.619 34.3473 150.96 34.356 151.294 34.3644C151.627 34.3729 151.861 34.3621 151.995 34.3322C152.246 34.2886 152.476 34.1027 152.684 33.7745C152.892 33.4464 153.061 33.0588 153.189 32.6119C153.334 32.1488 153.43 31.6594 153.476 31.1438C153.54 30.6119 153.544 30.1285 153.488 29.6936C153.433 29.2421 153.309 28.8721 153.116 28.5838C152.94 28.2959 152.677 28.1475 152.327 28.1386L149.077 28.1061ZM164.886 26.2818L177.483 26.5516L177.554 28.7041L172.583 28.4529L171.741 41.9358L169.89 41.9389L170.062 28.2638L164.762 28.2043L164.886 26.2818ZM178.379 41.8543L178.766 26.5842L185.505 27.1304C186.11 27.5959 186.62 28.1924 187.035 28.9198C187.386 29.5456 187.64 30.344 187.799 31.315C187.975 32.2698 187.913 33.4186 187.612 34.7614C187.464 35.3411 187.236 35.7522 186.93 35.9945C186.641 36.2372 186.345 36.3964 186.043 36.4721C185.691 36.5465 185.307 36.5451 184.892 36.4679L189.197 42.254L186.898 42.1956L182.577 37.0593L180.93 36.8925L180.14 42.3992L178.488 42.4823L178.379 41.8543ZM181.133 28.92L180.976 35.093C181.459 35.122 181.909 35.1417 182.325 35.1523C182.675 35.1612 183.016 35.1699 183.35 35.1783C183.683 35.1868 183.917 35.176 184.051 35.1461C184.302 35.1025 184.532 34.9166 184.74 34.5884C184.949 34.2603 185.117 33.8727 185.245 33.4259C185.39 32.9627 185.486 32.4733 185.532 31.9577C185.596 31.4258 185.6 30.9424 185.544 30.5075C185.489 30.056 185.365 29.686 185.172 29.3977C184.996 29.1098 184.733 28.9614 184.383 28.9525L181.133 28.92ZM190.736 27.0132L200.21 27.1787L200.084 29.1511L192.785 29.0408L192.73 33.1658L199.845 33.6715L199.881 35.1979L192.799 35.3932L192.616 40.6153L199.741 40.7211L199.614 42.7686L190.47 42.4114L190.736 27.0132ZM202.666 42.4709L207.895 27.5739C208.566 27.4075 209.169 27.3061 209.704 27.2697C209.921 27.2585 210.137 27.264 210.353 27.2862C210.586 27.3088 210.785 27.3638 210.949 27.4514C211.114 27.5222 211.245 27.6256 211.342 27.7614C211.455 27.8977 211.509 28.0741 211.503 28.2907C211.498 28.5073 211.538 28.8834 211.625 29.4191C211.712 29.9382 211.821 30.5495 211.953 31.2531C212.103 31.9404 212.275 32.695 212.471 33.5169C212.667 34.3388 212.871 35.1693 213.083 36.0083C213.312 36.831 213.542 37.6288 213.772 38.4015C214.02 39.1581 214.253 39.8392 214.471 40.4449C214.689 41.034 214.894 41.506 215.085 41.861C215.276 42.2159 215.447 42.3953 215.597 42.3991C215.88 42.4063 216.012 42.4597 215.993 42.5592C215.974 42.6421 215.896 42.7402 215.76 42.8534C215.59 42.9825 215.361 43.1267 215.074 43.2861L212.527 43.1464L211.159 38.9104L206.383 38.8641L205.077 43.0323L202.325 43.0875L202.666 42.4709ZM210.515 36.6683C210.599 36.6704 210.642 36.5882 210.647 36.4216C210.651 36.255 210.623 36.0292 210.564 35.7442C210.521 35.4597 210.454 35.1413 210.363 34.7888C210.272 34.4364 210.173 34.0671 210.066 33.6809C209.805 32.7907 209.497 31.7826 209.143 30.6565L207.266 36.5858L210.515 36.6683ZM225.493 31.0717L225.77 30.0033L221.646 29.8986C221.378 29.9419 221.151 30.0111 220.966 30.1064C220.78 30.1851 220.619 30.2977 220.482 30.4443C220.345 30.5908 220.273 30.7808 220.267 31.014L220.242 32.0137C220.328 32.5494 220.449 33.0693 220.602 33.5733C220.756 34.0774 221.02 34.5176 221.394 34.8939C221.785 35.2706 222.328 35.5594 223.023 35.7605C223.735 35.9453 224.684 36.0027 225.869 35.9328C226.463 36.1813 226.921 36.5347 227.243 36.993C227.565 37.4513 227.76 37.9564 227.83 38.5084C227.899 39.0603 227.835 39.6255 227.636 40.204C227.455 40.7663 227.142 41.2835 226.697 41.7557C226.268 42.2283 225.708 42.6142 225.017 42.9134C224.326 43.2126 223.513 43.3754 222.579 43.4017C221.628 43.4275 220.902 43.4341 220.402 43.4214C219.902 43.4254 219.535 43.4244 219.302 43.4185C219.019 43.4113 218.853 43.3988 218.803 43.3808C218.621 43.3429 218.457 43.2137 218.313 42.9933C218.184 42.8066 218.075 42.5204 217.984 42.1346C217.894 41.7489 217.858 41.1811 217.878 40.4314C217.887 40.0648 217.902 39.7818 217.924 39.5823C217.963 39.3665 218.008 39.2177 218.06 39.1356C218.113 39.0536 218.172 39.0134 218.239 39.0151C218.305 39.0168 218.371 39.0518 218.436 39.1201C218.599 39.2743 218.775 39.5705 218.964 40.0088L218.938 41.0335L224.086 41.1642C224.782 40.6817 225.318 40.2535 225.694 39.8796C225.848 39.7168 225.977 39.5617 226.081 39.4143C226.201 39.2673 226.255 39.1353 226.241 39.0182C226.244 38.9016 226.171 38.808 226.023 38.7376C225.892 38.6676 225.667 38.6369 225.35 38.6455C224.099 38.6804 223.052 38.5455 222.21 38.2406C221.384 37.9362 220.702 37.5438 220.164 37.0633C219.642 36.5833 219.247 36.0564 218.978 35.4827C218.71 34.8924 218.524 34.3375 218.421 33.818C218.317 33.2819 218.262 32.822 218.256 32.4384C218.265 32.0552 218.271 31.8136 218.274 31.7136L218.399 29.7412C218.51 29.3272 218.802 28.9595 219.277 28.6381C219.684 28.365 220.291 28.122 221.096 27.9091C221.919 27.6799 223.055 27.5837 224.505 27.6205C225.221 27.6387 225.803 27.7035 226.25 27.8148C226.698 27.9096 227.045 28.0434 227.291 28.2164C227.537 28.3727 227.699 28.5518 227.777 28.7539C227.856 28.9393 227.876 29.1315 227.837 29.3306C227.759 29.7954 227.421 30.3204 226.822 30.9054L225.493 31.0717ZM232.458 27.9474C232.453 30.1147 232.511 32.1085 232.631 33.9288C232.678 34.7135 232.741 35.4987 232.822 36.2844C232.902 37.0533 233.001 37.7727 233.117 38.4426C233.233 39.1124 233.377 39.7079 233.547 40.229C233.717 40.7335 233.916 41.1054 234.144 41.3445C234.598 41.8229 235.001 42.0415 235.352 42.0004C235.72 41.9598 236.032 41.826 236.288 41.5991C236.595 41.3234 236.863 40.9301 237.093 40.4191L237.153 28.1917L239.703 28.2564C239.72 29.524 239.746 30.8 239.78 32.0846C239.802 33.1856 239.814 34.3862 239.814 35.6866C239.831 36.9708 239.826 38.1877 239.796 39.3374C239.767 40.487 239.62 41.3502 239.355 41.927C239.107 42.5042 238.839 42.9059 238.55 43.132C238.209 43.4067 237.831 43.5222 237.415 43.4783C236.831 43.4968 236.231 43.5066 235.614 43.5076C235.081 43.5107 234.489 43.5123 233.838 43.5125C233.205 43.4964 232.572 43.4803 231.939 43.4643C231.306 43.4482 230.842 43.3281 230.548 43.1038C230.27 42.8801 230.085 42.6253 229.992 42.3395C229.883 42.02 229.868 41.6528 229.945 41.2379L230.162 27.7641L232.458 27.9474ZM241.552 43.4583L241.939 28.1882L248.678 28.7344C249.283 29.1999 249.793 29.7964 250.208 30.5238C250.559 31.1496 250.813 31.948 250.972 32.919C251.148 33.8737 251.086 35.0225 250.785 36.3653C250.637 36.9451 250.409 37.3561 250.103 37.5984C249.814 37.8412 249.518 38.0004 249.216 38.0761C248.864 38.1505 248.48 38.1491 248.065 38.0719L252.37 43.858L250.071 43.7996L245.75 38.6633L244.103 38.4964L243.313 44.0032L241.661 44.0862L241.552 43.4583ZM244.306 30.524L244.149 36.697C244.632 36.7259 245.082 36.7457 245.498 36.7563C245.848 36.7651 246.189 36.7738 246.523 36.7823C246.856 36.7907 247.09 36.78 247.224 36.7501C247.475 36.7064 247.705 36.5205 247.913 36.1924C248.122 35.8642 248.29 35.4767 248.418 35.0298C248.563 34.5667 248.659 34.0773 248.705 33.5616C248.769 33.0297 248.773 32.5464 248.717 32.1115C248.662 31.6599 248.538 31.29 248.345 31.0017C248.169 30.7138 247.906 30.5654 247.556 30.5565L244.306 30.524ZM253.909 28.6171L263.383 28.7826L263.257 30.7551L255.958 30.6448L255.903 34.7697L263.018 35.2755L263.054 36.8019L255.972 36.9972L255.789 42.2192L262.914 42.3251L262.787 44.3725L253.643 44.0153L253.909 28.6171Z" fill="#FFFBE0"/>
</svg>
