<svg width="141" height="70" viewBox="0 0 141 70" fill="none" xmlns="http://www.w3.org/2000/svg">
<path d="M76.191 39.0221L71.2262 43.9639H76.4577V58.6432H63.9968V51.1758L58.4834 56.7134V70H63.9968V63.5805H76.4577V70H81.9666V39.0221H76.191Z" fill="white"/>
<path d="M1.34904 31.0278V7.62395e-06H22.2141V4.94647H6.83512V13.8051H20.8651V18.7516H6.83512V31.0278H1.34904Z" fill="white"/>
<path d="M87.6417 23.743V7.28481C87.6417 2.42827 90.07 7.62395e-06 94.9265 7.62395e-06H110.8V2.06853V4.94647H95.1064C93.7873 4.94647 93.1278 5.606 93.1278 6.92506V24.1028C93.1278 25.4218 93.7873 26.0814 95.1064 26.0814H106.213V17.4026H99.6481V12.4561H111.699V31.0278H94.9265C90.07 31.0278 87.6417 28.5996 87.6417 23.743Z" fill="white"/>
<path d="M114.443 7.62395e-06H115.693H120.325L127.699 14.1199L135.074 7.62395e-06H139.751H140.924L130.442 19.8758V31.0278H124.956V19.8758L114.443 7.62395e-06Z" fill="white"/>
<path d="M0 67.9315V65.0535H13.8951C15.2141 65.0535 15.8737 64.394 15.8737 63.075V59.6574C15.8737 58.4882 15.364 57.7987 14.3448 57.5889L5.21627 55.7902C1.73876 55.0707 0 52.7173 0 48.7302V46.257C0 41.4004 2.42827 38.9722 7.2848 38.9722H20.4604V41.0407V43.9186H7.46467C6.14561 43.9186 5.48608 44.5782 5.48608 45.8972V48.8651C5.48608 50.0343 5.99572 50.7238 7.01499 50.9336L16.1435 52.7323C19.621 53.4518 21.3597 55.7901 21.3597 59.7473V62.7152C21.3597 67.5717 18.9315 70 14.0749 70H0L0 67.9315Z" fill="white"/>
<path d="M24.4608 43.9186V38.9722H33.417L39.7049 45.2562V70H34.2188V43.9186H24.4608Z" fill="white"/>
<path d="M87.5472 70V38.9722H103.667C108.524 38.9722 110.952 41.4004 110.952 46.257V51.3383C110.952 55.1456 109.453 57.454 106.455 58.2634L111.851 68.8308L112.473 70H106.5L100.744 58.6231H93.0333V70H87.5472ZM93.0333 53.6767H103.487C104.806 53.6767 105.466 53.0171 105.466 51.6981V45.8972C105.466 44.5782 104.806 43.9186 103.487 43.9186H93.0333V53.6767Z" fill="white"/>
<path d="M65.7336 38.6658C63.7709 38.6658 61.8886 39.4455 60.5008 40.8333C59.1129 42.2212 58.3333 44.1035 58.3333 46.0661V51.4857L71.1636 38.6658H65.7336Z" fill="#FF3A2B"/>
<path d="M43.9332 38.666C45.8958 38.666 47.7781 39.4457 49.166 40.8335C50.5538 42.2213 51.3335 44.1036 51.3335 46.0663V51.4859L38.4927 38.666H43.9332Z" fill="#FF3A2B"/>
<path d="M43.9407 31.4709C45.9034 31.4709 47.7857 30.6913 49.1735 29.3034C50.5613 27.9156 51.341 26.0333 51.341 24.0706V18.6667L38.5002 31.4709H43.9407Z" fill="#FF3A2B"/>
<path d="M65.7334 31.3343C63.7708 31.3343 61.8885 30.5546 60.5006 29.1668C59.1128 27.7789 58.3331 25.8966 58.3331 23.9339V18.5301L71.1635 31.3343H65.7334Z" fill="#FF3A2B"/>
<path d="M26.4907 7.2848V23.743C26.4907 28.5996 29.0485 31.0278 33.608 31.0278L38.5728 26.0814H33.9554C32.6363 26.0814 31.9768 25.4218 31.9768 24.1028V6.92505C31.9768 5.606 32.6363 4.94647 33.9554 4.94647H43.9832C45.3023 4.94647 45.9618 5.606 45.9618 6.92505V18.7135L51.4479 13.1758V7.2848C51.4479 2.42827 49.0196 0 44.1631 0H33.7755C28.919 0 26.4907 2.42827 26.4907 7.2848Z" fill="white"/>
<path d="M65.6181 7.62395e-06C60.7615 7.62395e-06 58.3333 2.42827 58.3333 7.28481V13.1758L63.8289 18.6299L63.8193 6.92506C63.8193 5.606 64.4789 4.94647 65.7979 4.94647H81.4917V2.06853V0L65.6181 7.62395e-06Z" fill="white"/>
<path d="M76.905 17.4026V26.0814H71.2259L76.3816 31.0278H82.3911V12.4561H70.3397V17.4026H76.905Z" fill="white"/>
</svg>
