<svg width="87" height="87" viewBox="0 0 87 87" fill="none" xmlns="http://www.w3.org/2000/svg">
<path d="M72.1187 53.2437C66.9796 53.2437 62.0509 55.2852 58.417 58.9191C54.7831 62.5531 52.7416 67.4817 52.7416 72.6208V86.8116L86.3368 53.2437H72.1187Z" fill="#FE333C"/>
<path d="M15.0355 53.2443C20.1747 53.2443 25.1033 55.2858 28.7372 58.9197C32.3712 62.5536 34.4127 67.4823 34.4127 72.6214V86.8122L0.790039 53.2443H15.0355Z" fill="#FE333C"/>
<path d="M15.0549 34.4042C20.194 34.4042 25.1227 32.3627 28.7566 28.7287C32.3905 25.0948 34.432 20.1662 34.432 15.027V0.877331L0.80941 34.4042H15.0549Z" fill="#FE333C"/>
<path d="M72.1184 34.0462C66.9793 34.0462 62.0506 32.0047 58.4167 28.3708C54.7828 24.7369 52.7413 19.8082 52.7413 14.6691V0.519409L86.3365 34.0462H72.1184Z" fill="#FE333C"/>
</svg>
