<svg width="379" height="194" viewBox="0 0 379 194" fill="none" xmlns="http://www.w3.org/2000/svg">
<g filter="url(#filter0_d_39_2)">
<path d="M204.5 105.177L191.5 118.116H205.198V156.553H172.571V137L158.134 151.5V186.29H172.571V169.481H205.198V186.29H219.623V105.177H204.5Z" fill="white"/>
<path d="M8.53235 84.2441V3.00002H63.1661V15.952H22.8973V39.1478H59.6337V52.0997H22.8973V84.2441H8.53235Z" fill="white"/>
<path d="M234.483 65.1694V22.0747C234.483 9.35826 240.842 3.00002 253.558 3.00002H295.122V8.41629V15.952H254.029C250.575 15.952 248.848 17.6789 248.848 21.1328V66.1114C248.848 69.5652 250.575 71.2922 254.029 71.2922H283.112V48.5674H265.921V35.6154H297.477V84.2441H253.558C240.842 84.2441 234.483 77.8859 234.483 65.1694Z" fill="white"/>
<path d="M304.661 3.00002H307.933H320.061L339.371 39.972L358.681 3.00002H370.927H374L346.554 55.0434V84.2441H332.189V55.0434L304.661 3.00002Z" fill="white"/>
<path d="M5 180.874V173.338H41.3832C44.8371 173.338 46.564 171.611 46.564 168.157V159.209C46.564 156.147 45.2296 154.342 42.5607 153.792L18.6584 149.082C9.55281 147.199 5 141.037 5 130.596V124.12C5 111.404 11.3582 105.046 24.0747 105.046H58.574V110.462V117.998H24.5457C21.0918 117.998 19.3649 119.725 19.3649 123.179V130.95C19.3649 134.011 20.6993 135.816 23.3682 136.366L47.2705 141.076C56.3761 142.96 60.9289 149.082 60.9289 159.444V167.215C60.9289 179.932 54.5707 186.29 41.8542 186.29H5L5 180.874Z" fill="white"/>
<path d="M69.0487 117.998V105.046H92.5L108.964 121.5V186.29H94.5994V117.998H69.0487Z" fill="white"/>
<path d="M234.236 186.29V105.046H276.445C289.161 105.046 295.52 111.404 295.52 124.12V137.426C295.52 147.395 291.595 153.439 283.745 155.558L297.875 183.229L299.503 186.29H283.863L268.792 156.5H248.601V186.29H234.236ZM248.601 143.548H275.974C279.428 143.548 281.155 141.821 281.155 138.368V123.179C281.155 119.725 279.428 117.998 275.974 117.998H248.601V143.548Z" fill="white"/>
<path d="M177.119 104.244C171.98 104.244 167.051 106.285 163.417 109.919C159.783 113.553 157.742 118.482 157.742 123.621V137.812L191.337 104.244H177.119Z" fill="#FE333C"/>
<path d="M120.036 104.244C125.175 104.244 130.103 106.286 133.737 109.92C137.371 113.554 139.413 118.482 139.413 123.621V137.812L105.79 104.244H120.036Z" fill="#FE333C"/>
<path d="M120.055 85.4042C125.194 85.4042 130.123 83.3626 133.757 79.7287C137.391 76.0948 139.432 71.1662 139.432 66.027V51.8773L105.81 85.4042H120.055Z" fill="#FE333C"/>
<path d="M177.119 85.0463C171.979 85.0463 167.051 83.0047 163.417 79.3708C159.783 75.7369 157.741 70.8083 157.741 65.6691V51.5194L191.337 85.0463H177.119Z" fill="#FE333C"/>
<path d="M74.364 22.0747V65.1694C74.364 77.8859 81.0614 84.2441 93.0001 84.2441L106 71.2922H93.9097C90.4558 71.2922 88.7289 69.5652 88.7289 66.1114V21.1327C88.7289 17.6789 90.4558 15.952 93.9097 15.952H120.167C123.621 15.952 125.348 17.6789 125.348 21.1327V52L139.713 37.5V22.0747C139.713 9.35824 133.354 3 120.638 3H93.4387C80.7223 3 74.364 9.35824 74.364 22.0747Z" fill="white"/>
<path d="M176.816 3.00002C164.1 3.00002 157.742 9.35826 157.742 22.0747V37.5L172.132 51.781L172.107 21.1328C172.107 17.6789 173.834 15.952 177.287 15.952H218.38V8.41629V3L176.816 3.00002Z" fill="white"/>
<path d="M206.37 48.5674V71.2922H191.5L205 84.2441H220.735V35.6154H189.18V48.5674H206.37Z" fill="white"/>
</g>
<defs>
<filter id="filter0_d_39_2" x="0" y="0" width="379" height="193.29" filterUnits="userSpaceOnUse" color-interpolation-filters="sRGB">
<feFlood flood-opacity="0" result="BackgroundImageFix"/>
<feColorMatrix in="SourceAlpha" type="matrix" values="0 0 0 0 0 0 0 0 0 0 0 0 0 0 0 0 0 0 127 0" result="hardAlpha"/>
<feOffset dy="2"/>
<feGaussianBlur stdDeviation="2.5"/>
<feComposite in2="hardAlpha" operator="out"/>
<feColorMatrix type="matrix" values="0 0 0 0 0 0 0 0 0 0 0 0 0 0 0 0 0 0 0.5 0"/>
<feBlend mode="normal" in2="BackgroundImageFix" result="effect1_dropShadow_39_2"/>
<feBlend mode="normal" in="SourceGraphic" in2="effect1_dropShadow_39_2" result="shape"/>
</filter>
</defs>
</svg>
