<svg width="334" height="57" viewBox="0 0 334 57" fill="none" xmlns="http://www.w3.org/2000/svg">
<path d="M1.35998 13.6185C0.903885 10.6387 3.16868 7.93589 6.18234 7.86349L327.861 0.135464C330.86 0.0634325 333.246 2.62893 332.958 5.61425L328.436 52.4802C328.189 55.0437 326.035 57 323.459 57H12.2929C9.82364 57 7.72409 55.1974 7.35048 52.7565L1.35998 13.6185Z" fill="#EA662C"/>
<path d="M84.4788 26.2525C84.479 26.2671 84.3761 26.254 84.1701 26.2132C83.9786 26.1575 83.714 26.1175 83.3762 26.0934C83.0531 26.069 82.6864 26.0673 82.276 26.0882C81.8656 26.1092 81.4489 26.1962 81.0259 26.3494C80.6026 26.4879 80.1952 26.7069 79.8038 27.0062C79.4121 27.2909 79.0809 27.6921 78.8101 28.2096C78.3967 28.9934 78.1665 29.7597 78.1193 30.5085C78.0719 31.2426 78.0965 31.895 78.1933 32.4656C78.3065 33.1532 78.5069 33.7882 78.7946 34.3706C79.3477 35.0515 79.9205 35.5781 80.513 35.9504C80.7648 36.1079 81.0381 36.2357 81.333 36.3339C81.6278 36.432 81.9292 36.4788 82.2372 36.474C82.5596 36.4544 82.881 36.3688 83.2014 36.2172C83.5364 36.0654 83.87 35.8183 84.2021 35.4758C84.5343 35.1333 84.8021 34.9019 85.0056 34.7814C85.2089 34.6463 85.3621 34.5926 85.4652 34.6203C85.568 34.6334 85.6279 34.7132 85.6449 34.8596C85.6764 35.0058 85.679 35.1745 85.6526 35.3655C85.6012 35.8357 85.4204 36.4839 85.1104 37.3101C84.8929 37.4748 84.6677 37.6176 84.4348 37.7385C84.2313 37.859 84.0203 37.9649 83.8016 38.0562C83.5828 38.1329 83.3927 38.1725 83.2314 38.175C83.0554 38.1777 82.7623 38.1969 82.3522 38.2325C81.9567 38.2679 81.4942 38.2383 80.9647 38.1437C80.4349 38.0345 79.8744 37.8304 79.2831 37.5314C78.6915 37.2178 78.1264 36.7131 77.5877 36.0173C77.2285 35.5534 76.9567 35.0442 76.7721 34.4896C76.5876 33.935 76.4543 33.3723 76.3722 32.8015C76.3048 32.2305 76.2817 31.6808 76.3029 31.1524C76.3242 30.624 76.3536 30.1542 76.3913 29.7429C76.4435 29.3167 76.497 28.9785 76.5518 28.7283C76.6064 28.4634 76.6336 28.3236 76.6334 28.309C76.6332 28.2943 76.6684 28.1984 76.739 28.0213C76.8094 27.8296 76.9231 27.5931 77.0801 27.312C77.2519 27.0307 77.4672 26.7267 77.7262 26.4C77.9997 26.0584 78.3248 25.7381 78.7016 25.4389C79.0931 25.1396 79.5512 24.8832 80.076 24.6698C80.6152 24.4415 81.2218 24.3002 81.8957 24.2458C82.9211 24.1568 83.6617 24.1454 84.1175 24.2118C84.5879 24.2779 84.8978 24.4052 85.0474 24.5936C85.2114 24.7671 85.2736 24.9935 85.2338 25.2728C85.2088 25.5519 85.2136 25.8672 85.2483 26.2187C85.265 26.3504 85.2744 26.4823 85.2764 26.6143C85.2929 26.7314 85.3019 26.8413 85.3035 26.9439L85.3085 27.2739L84.4506 27.287L84.4422 26.7371C84.4402 26.6051 84.4384 26.4878 84.4368 26.3851C84.4499 26.2823 84.4639 26.238 84.4788 26.2525ZM86.8628 37.7893L86.6567 24.3489L92.6011 24.5878C93.1498 24.9754 93.6196 25.4816 94.0105 26.1063C94.3415 26.644 94.5941 27.3369 94.7685 28.185C94.9573 29.0182 94.9435 30.0305 94.727 31.222C94.6176 31.737 94.4326 32.1066 94.172 32.3306C93.926 32.5544 93.6716 32.705 93.4088 32.7823C93.102 32.8604 92.7648 32.8729 92.3973 32.8199L96.3894 37.7532L94.3656 37.7843L90.3823 33.4228L88.9287 33.3351L88.4313 38.2053L86.9812 38.3375L86.8628 37.7893ZM88.8212 26.3179L88.9045 31.7513C89.33 31.7594 89.726 31.7607 90.0927 31.7551C90.4006 31.7503 90.7013 31.7457 90.9946 31.7412C91.2879 31.7367 91.4929 31.7189 91.6098 31.6878C91.8291 31.6404 92.0245 31.4687 92.196 31.1727C92.3675 30.8768 92.5015 30.53 92.5981 30.1325C92.7091 29.72 92.7758 29.2863 92.7982 28.8312C92.835 28.3613 92.8211 27.9361 92.7566 27.5557C92.6919 27.1607 92.5696 26.8398 92.3898 26.5932C92.2247 26.3464 91.9881 26.2254 91.6802 26.2301L88.8212 26.3179ZM97.1964 24.2973L105.532 24.1035L105.493 25.8423L99.0708 26.0068L99.1704 29.6357L105.444 29.8255L105.531 31.1663L99.3104 31.5917L99.3369 36.1899L105.605 36.0278L105.567 37.8326L97.5141 37.846L97.1964 24.2973ZM108.24 37.4615L112.304 24.1757C112.889 24.0054 113.415 23.8946 113.884 23.8434C114.074 23.8258 114.265 23.8229 114.455 23.8347C114.661 23.8462 114.838 23.8875 114.985 23.9585C115.133 24.015 115.252 24.1011 115.341 24.2171C115.446 24.3329 115.5 24.4861 115.503 24.6767C115.505 24.8673 115.554 25.1966 115.65 25.6646C115.745 26.1178 115.863 26.6514 116.004 27.2653C116.16 27.8643 116.339 28.5217 116.541 29.2373C116.742 29.953 116.951 30.6759 117.168 31.406C117.399 32.1212 117.63 32.8144 117.86 33.4856C118.105 34.1419 118.334 34.7325 118.547 35.2573C118.76 35.7674 118.957 36.1751 119.138 36.4804C119.319 36.7856 119.475 36.9372 119.607 36.9352C119.856 36.9314 119.974 36.9736 119.961 37.0618C119.947 37.1354 119.883 37.2244 119.767 37.3288C119.622 37.4484 119.426 37.5834 119.179 37.7339L116.934 37.7023L115.58 34.0266L111.379 34.157L110.38 37.8688L107.962 38.0159L108.24 37.4615ZM114.934 32.0783C115.007 32.0772 115.043 32.0033 115.041 31.8566C115.038 31.71 115.006 31.5125 114.943 31.264C114.896 31.0154 114.825 30.7378 114.733 30.4312C114.64 30.1246 114.54 29.8034 114.432 29.4677C114.171 28.6943 113.864 27.8189 113.511 26.8415L112.074 32.1221L114.934 32.0783ZM120.797 23.8694L131.883 23.6555L132.022 25.5456L127.643 25.5027L127.385 37.388L125.758 37.457L125.42 25.4268L120.757 25.5643L120.797 23.8694ZM133.081 23.7471L141.417 23.5533L141.377 25.2921L134.955 25.4566L135.055 29.0855L141.328 29.2753L141.415 30.6162L135.195 31.0416L135.221 35.6397L141.489 35.4776L141.451 37.2824L133.398 37.2958L133.081 23.7471ZM149.827 36.8239L153.892 23.5381C154.476 23.3678 155.002 23.257 155.471 23.2058C155.661 23.1882 155.852 23.1853 156.043 23.1971C156.248 23.2086 156.425 23.2499 156.573 23.321C156.72 23.3774 156.839 23.4636 156.929 23.5795C157.033 23.6953 157.087 23.8485 157.09 24.0391C157.093 24.2298 157.142 24.559 157.237 25.027C157.332 25.4802 157.45 26.0138 157.591 26.6277C157.747 27.2267 157.926 27.8841 158.128 28.5997C158.329 29.3154 158.538 30.0383 158.755 30.7684C158.986 31.4836 159.217 32.1768 159.447 32.848C159.692 33.5043 159.921 34.0949 160.134 34.6197C160.347 35.1298 160.544 35.5375 160.725 35.8428C160.906 36.148 161.062 36.2997 161.194 36.2976C161.443 36.2938 161.561 36.336 161.548 36.4242C161.534 36.4978 161.47 36.5868 161.354 36.6912C161.209 36.8108 161.013 36.9458 160.766 37.0963L158.521 37.0647L157.167 33.389L152.966 33.5194L151.967 37.2312L149.549 37.3783L149.827 36.8239ZM156.521 31.4407C156.594 31.4396 156.63 31.3657 156.628 31.219C156.625 31.0724 156.593 30.8749 156.531 30.6265C156.483 30.3778 156.412 30.1002 156.32 29.7936C156.227 29.487 156.127 29.1658 156.019 28.8301C155.758 28.0567 155.451 27.1813 155.099 26.2039L153.661 31.4845L156.521 31.4407ZM163.165 36.8395L163.073 23.6173L165.751 23.2462L169.701 32.5808L169.562 23.5179L171.254 23.3819L171.785 36.4873L170.341 37.0595L165.602 27.8471L165.406 36.5851L163.165 36.8395ZM180.169 36.3588L184.233 23.0729C184.818 22.9026 185.344 22.7918 185.813 22.7406C186.003 22.7231 186.194 22.7201 186.384 22.7319C186.59 22.7434 186.767 22.7847 186.914 22.8558C187.062 22.9122 187.181 22.9984 187.27 23.1143C187.375 23.2301 187.429 23.3833 187.431 23.5739C187.434 23.7646 187.483 24.0939 187.579 24.5618C187.674 25.015 187.792 25.5486 187.933 26.1625C188.089 26.7615 188.268 27.4189 188.47 28.1345C188.671 28.8502 188.88 29.5731 189.097 30.3032C189.328 31.0184 189.558 31.7116 189.789 32.3828C190.034 33.0391 190.263 33.6297 190.476 34.1545C190.689 34.6646 190.886 35.0723 191.067 35.3776C191.248 35.6828 191.404 35.8345 191.536 35.8324C191.785 35.8286 191.903 35.8708 191.89 35.959C191.876 36.0326 191.812 36.1216 191.696 36.226C191.551 36.3456 191.355 36.4806 191.108 36.6311L188.863 36.5995L187.509 32.9238L183.308 33.0542L182.309 36.766L179.891 36.9131L180.169 36.3588ZM186.863 30.9755C186.936 30.9744 186.972 30.9005 186.969 30.7538C186.967 30.6072 186.935 30.4097 186.872 30.1613C186.825 29.9126 186.754 29.635 186.662 29.3284C186.569 29.0218 186.469 28.7006 186.361 28.3649C186.1 27.5915 185.793 26.7161 185.44 25.7387L184.003 31.0194L186.863 30.9755ZM200.959 24.4666C200.96 24.4813 200.857 24.4682 200.651 24.4274C200.459 24.3716 200.195 24.3317 199.857 24.3075C199.534 24.2831 199.167 24.2814 198.757 24.3024C198.346 24.3234 197.929 24.4104 197.506 24.5636C197.083 24.7021 196.676 24.921 196.284 25.2204C195.893 25.5051 195.561 25.9062 195.291 26.4238C194.877 27.2075 194.647 27.9738 194.6 28.7226C194.552 29.4568 194.577 30.1091 194.674 30.6797C194.787 31.3674 194.988 32.0024 195.275 32.5847C195.828 33.2657 196.401 33.7923 196.994 34.1646C197.245 34.3221 197.519 34.4499 197.814 34.5481C198.108 34.6462 198.41 34.6929 198.718 34.6882C199.04 34.6686 199.362 34.583 199.682 34.4314C200.017 34.2796 200.351 34.0324 200.683 33.69C201.015 33.3475 201.283 33.116 201.486 32.9956C201.689 32.8604 201.843 32.8068 201.946 32.8345C202.049 32.8476 202.109 32.9274 202.125 33.0738C202.157 33.22 202.16 33.3886 202.133 33.5797C202.082 34.0499 201.901 34.6981 201.591 35.5243C201.373 35.689 201.148 35.8318 200.915 35.9527C200.712 36.0731 200.501 36.1791 200.282 36.2704C200.063 36.3471 199.873 36.3867 199.712 36.3892C199.536 36.3919 199.243 36.411 198.833 36.4467C198.437 36.4821 197.975 36.4525 197.445 36.3579C196.916 36.2487 196.355 36.0446 195.764 35.7456C195.172 35.432 194.607 34.9273 194.068 34.2314C193.709 33.7676 193.437 33.2583 193.253 32.7038C193.068 32.1492 192.935 31.5865 192.853 31.0157C192.785 30.4447 192.762 29.8949 192.784 29.3666C192.805 28.8382 192.834 28.3683 192.872 27.957C192.924 27.5309 192.978 27.1927 193.032 26.9425C193.087 26.6776 193.114 26.5378 193.114 26.5232C193.114 26.5085 193.149 26.4126 193.22 26.2355C193.29 26.0437 193.404 25.8073 193.561 25.5262C193.732 25.2449 193.948 24.9409 194.207 24.6142C194.48 24.2726 194.805 23.9523 195.182 23.6531C195.574 23.3537 196.032 23.0974 196.557 22.884C197.096 22.6557 197.702 22.5143 198.376 22.46C199.402 22.3709 200.142 22.3596 200.598 22.4259C201.068 22.4921 201.378 22.6193 201.528 22.8077C201.692 22.9812 201.754 23.2076 201.714 23.487C201.689 23.766 201.694 24.0813 201.729 24.4328C201.746 24.5646 201.755 24.6965 201.757 24.8285C201.773 24.9456 201.783 25.0554 201.784 25.1581L201.789 25.488L200.931 25.5012L200.923 24.9513C200.921 24.8193 200.919 24.702 200.917 24.5993C200.931 24.4964 200.944 24.4522 200.959 24.4666ZM211.195 24.3097C211.195 24.3244 211.092 24.3113 210.886 24.2704C210.695 24.2147 210.43 24.1748 210.092 24.1506C209.769 24.1262 209.403 24.1245 208.992 24.1455C208.582 24.1664 208.165 24.2535 207.742 24.4067C207.319 24.5452 206.912 24.7641 206.52 25.0635C206.128 25.3482 205.797 25.7493 205.526 26.2668C205.113 27.0506 204.883 27.8169 204.836 28.5657C204.788 29.2999 204.813 29.9522 204.91 30.5228C205.023 31.2105 205.223 31.8455 205.511 32.4278C206.064 33.1087 206.637 33.6354 207.229 34.0077C207.481 34.1651 207.754 34.293 208.049 34.3911C208.344 34.4893 208.646 34.536 208.953 34.5313C209.276 34.5117 209.597 34.4261 209.918 34.2745C210.253 34.1227 210.586 33.8755 210.918 33.533C211.251 33.1906 211.518 32.9591 211.722 32.8386C211.925 32.7035 212.078 32.6498 212.181 32.6776C212.284 32.6907 212.344 32.7704 212.361 32.9169C212.393 33.0631 212.395 33.2317 212.369 33.4228C212.317 33.893 212.137 34.5412 211.827 35.3673C211.609 35.532 211.384 35.6748 211.151 35.7957C210.948 35.9162 210.737 36.0221 210.518 36.1135C210.299 36.1902 210.109 36.2298 209.948 36.2322C209.772 36.2349 209.479 36.2541 209.068 36.2897C208.673 36.3251 208.21 36.2955 207.681 36.201C207.151 36.0918 206.591 35.8877 205.999 35.5887C205.408 35.2751 204.843 34.7703 204.304 34.0745C203.945 33.6106 203.673 33.1014 203.488 32.5468C203.304 31.9923 203.171 31.4296 203.089 30.8588C203.021 30.2877 202.998 29.738 203.019 29.2096C203.04 28.6812 203.07 28.2114 203.108 27.8001C203.16 27.3739 203.213 27.0357 203.268 26.7855C203.323 26.5207 203.35 26.3809 203.35 26.3662C203.349 26.3516 203.385 26.2557 203.455 26.0786C203.526 25.8868 203.639 25.6504 203.796 25.3693C203.968 25.0879 204.184 24.7839 204.443 24.4572C204.716 24.1157 205.041 23.7953 205.418 23.4962C205.809 23.1968 206.267 22.9404 206.792 22.727C207.332 22.4987 207.938 22.3574 208.612 22.3031C209.637 22.214 210.378 22.2027 210.834 22.269C211.304 22.3351 211.614 22.4624 211.764 22.6508C211.928 22.8243 211.99 23.0507 211.95 23.33C211.925 23.6091 211.93 23.9244 211.965 24.2759C211.981 24.4077 211.991 24.5395 211.993 24.6715C212.009 24.7886 212.018 24.8985 212.02 25.0012L212.025 25.3311L211.167 25.3443L211.158 24.7943C211.156 24.6624 211.155 24.545 211.153 24.4424C211.166 24.3395 211.18 24.2953 211.195 24.3097ZM218.702 34.1838C219.098 34.1777 219.47 34.04 219.818 33.7706C220.181 33.5011 220.498 33.1441 220.77 32.6999C221.042 32.2557 221.261 31.7609 221.429 31.2156C221.611 30.6555 221.727 30.0816 221.777 29.4941C221.826 28.9066 221.803 28.3422 221.707 27.801C221.61 27.2451 221.427 26.7492 221.156 26.3133C220.885 25.8774 220.52 25.5309 220.062 25.2739C219.603 25.0169 219.029 24.8937 218.34 24.9043C217.533 24.9166 216.906 25.1609 216.459 25.6372C216.011 26.0988 215.705 26.6755 215.539 27.3675C215.374 28.0448 215.341 28.786 215.441 29.5912C215.542 30.3965 215.737 31.1416 216.026 31.8265C216.329 32.4966 216.705 33.063 217.152 33.5255C217.614 33.9731 218.13 34.1926 218.702 34.1838ZM219.565 35.9088C218.245 35.929 217.141 35.6819 216.253 35.1675C215.38 34.6528 214.702 33.9884 214.22 33.1744C213.738 32.3457 213.445 31.4334 213.342 30.4375C213.239 29.4417 213.29 28.4728 213.496 27.5308C213.701 26.5742 214.054 25.7107 214.556 24.9403C215.072 24.1696 215.709 23.6024 216.466 23.2388C217.413 22.7842 218.268 22.6244 219.033 22.7594C219.812 22.8794 220.492 23.1917 221.072 23.6962C221.666 24.2005 222.16 24.853 222.554 25.6537C222.947 26.4398 223.224 27.2863 223.385 28.1933C223.56 29.0854 223.618 29.9939 223.559 30.919C223.514 31.8291 223.336 32.6532 223.025 33.3914C222.713 34.115 222.267 34.7159 221.688 35.1941C221.123 35.6575 220.415 35.8957 219.565 35.9088ZM227.54 22.1889C227.613 24.0947 227.735 25.8457 227.906 27.4419C227.976 28.1303 228.06 28.8184 228.158 29.5063C228.256 30.1795 228.369 30.8085 228.495 31.3933C228.621 31.9781 228.769 32.4966 228.937 32.9488C229.105 33.3862 229.293 33.706 229.502 33.9082C229.919 34.3125 230.281 34.4903 230.588 34.4416C230.91 34.3927 231.179 34.2639 231.396 34.0552C231.656 33.8018 231.878 33.4464 232.062 32.9889L231.677 22.2355L233.921 22.2011C233.982 23.315 234.05 24.436 234.126 25.5643C234.185 26.5315 234.238 27.5869 234.285 28.7303C234.346 29.8588 234.385 30.929 234.4 31.9409C234.416 32.9528 234.317 33.717 234.105 34.2337C233.908 34.7501 233.686 35.1129 233.44 35.322C233.15 35.5758 232.822 35.6909 232.455 35.6671C231.942 35.7043 231.415 35.7344 230.872 35.7574C230.403 35.7793 229.883 35.8019 229.311 35.8254C228.754 35.8339 228.197 35.8424 227.639 35.851C227.082 35.8595 226.67 35.7705 226.403 35.5839C226.151 35.3971 225.979 35.1797 225.887 34.9317C225.78 34.6547 225.753 34.3324 225.806 33.9649L225.514 22.1099L227.54 22.1889ZM236.491 35.7153L236.398 22.4932L239.076 22.122L243.026 31.4566L242.887 22.3937L244.579 22.2577L245.11 35.3631L243.667 35.9353L238.927 26.7229L238.731 35.4609L236.491 35.7153ZM246.354 21.9445L257.44 21.7305L257.579 23.6206L253.199 23.5777L252.942 35.4631L251.315 35.532L250.976 23.5018L246.314 23.6393L246.354 21.9445Z" fill="#FFFBE0"/>
</svg>
