<svg width="104" height="29" viewBox="0 0 104 29" fill="none" xmlns="http://www.w3.org/2000/svg">
<path fill-rule="evenodd" clip-rule="evenodd" d="M29.3337 14.5055C29.3337 22.1706 22.8714 28.3844 14.8997 28.3844C6.92793 28.3844 0.465576 22.1706 0.465576 14.5055C0.465576 6.84039 6.92793 0.626587 14.8997 0.626587C22.8714 0.626587 29.3337 6.84039 29.3337 14.5055ZM16.4587 16.2304V16.2326V16.2349C19.8654 16.082 22.4086 15.4883 22.4086 14.7778C22.4086 14.0672 19.8677 13.4736 16.4587 13.3206V15.6412C16.3598 15.6502 15.8291 15.6952 14.7678 15.6952C13.8841 15.6952 13.2432 15.657 13.0206 15.6412V13.3184C9.60719 13.4691 7.05726 14.0649 7.05726 14.7755C7.05726 15.4883 9.60495 16.082 13.0206 16.2326V16.2304C13.241 16.2416 13.8638 16.2663 14.752 16.2663C15.8629 16.2663 16.3621 16.2371 16.4587 16.2304ZM16.4587 11.0023V13.08L16.461 13.0823C20.3196 13.2599 23.2204 14.0267 23.2204 14.9419C23.2204 15.8593 20.3196 16.6239 16.461 16.8015V23.4619H13.0229V16.8015C9.15972 16.6216 6.25225 15.8571 6.25225 14.9397C6.25225 14.0222 9.15747 13.2577 13.0229 13.08V11.0023H8.26701V7.83401H21.2146V11.0023H16.4587Z" fill="white"/>
<path d="M41.1073 9.00856V12.2778H44.3582V14.7308H41.0849V19.7047C41.0849 20.8032 41.7051 21.3393 42.6141 21.3393C43.0686 21.3393 43.5947 21.1993 44.0246 20.9892L44.8373 23.4181C44.0022 23.7442 43.3081 23.8842 42.4238 23.9083C39.8669 24.0024 38.1945 22.5779 38.1945 19.7047V14.7308H35.9958V12.2778H38.1945V9.31273L41.1073 9.00856ZM97.1538 12.1246L97.3687 13.4551C98.2777 12.0305 99.4957 11.8205 100.691 11.8205C101.909 11.8205 103.08 12.2865 103.725 12.9168L102.411 15.3917C101.813 14.9015 101.264 14.6433 100.308 14.6433C98.7793 14.6433 97.3687 15.4376 97.3687 17.5624V23.6348H94.4537V12.1202L97.1538 12.1246ZM90.0095 16.5383C89.8191 15.0437 88.6236 14.2954 86.9511 14.2954C85.3749 14.2954 84.0831 15.0437 83.6532 16.5383H90.0095ZM83.6062 18.8972C83.7965 20.3218 85.0637 21.3502 87.119 21.3502C88.1937 21.3502 89.6042 20.952 90.2736 20.2758L92.1364 22.0746C90.8938 23.335 88.8631 23.9433 87.0698 23.9433C83.0084 23.9433 80.5926 21.4903 80.5926 17.8009C80.5926 14.2975 83.0308 11.7745 86.8548 11.7745C90.7976 11.7745 93.2603 14.1575 92.8058 18.8972H83.6062ZM70.7504 7.2886V13.687C71.8027 12.3566 73.0923 11.9583 74.4312 11.9583C77.7761 11.9583 79.2582 14.1772 79.2582 17.5646V23.637H76.3432V17.5887C76.3432 15.4858 75.2192 14.5995 73.6654 14.5995C71.9437 14.5995 70.7504 16.0241 70.7504 17.7528V23.6391H67.8353V7.29079L70.7504 7.2886ZM63.0082 8.87727V12.1465H66.2591V14.5995H62.9859V19.5734C62.9859 20.6719 63.6083 21.208 64.515 21.208C64.9695 21.208 65.4957 21.068 65.9255 20.8579L66.7383 23.2868C65.9032 23.6129 65.2091 23.7529 64.3247 23.777C61.7679 23.8711 60.0954 22.4444 60.0954 19.5734V14.5995H57.8968V12.1465H60.0954V9.18143L63.0082 8.87727ZM54.9549 16.5383C54.7646 15.0437 53.569 14.2954 51.8966 14.2954C50.3204 14.2954 49.0285 15.0437 48.5987 16.5383H54.9549ZM48.5516 18.8972C48.7419 20.3218 50.0092 21.3502 52.0645 21.3502C53.1392 21.3502 54.5497 20.952 55.2191 20.2758L57.0819 22.0746C55.8393 23.335 53.8086 23.9433 52.0152 23.9433C47.9516 23.9433 45.5381 21.4903 45.5381 17.8009C45.5381 14.2975 47.9762 11.7745 51.798 11.7745C55.7408 11.7745 58.2013 14.1575 57.7491 18.8972H48.5516Z" fill="white"/>
</svg>
