<svg width="120" height="22" viewBox="0 0 120 22" fill="none" xmlns="http://www.w3.org/2000/svg">
<mask id="path-1-outside-1_221_519" maskUnits="userSpaceOnUse" x="29.2886" y="0.218994" width="90" height="20" fill="black">
<rect fill="white" x="29.2886" y="0.218994" width="90" height="20"/>
<path d="M40.4913 18.3769C40.4238 18.6959 40.1422 18.9242 39.8161 18.9242H31.533C30.8939 18.9242 30.4189 18.333 30.5564 17.709L34.0629 1.79852C34.1375 1.46004 34.4375 1.21899 34.7841 1.21899C35.2562 1.21899 35.607 1.65593 35.5051 2.11691L32.3625 16.3279C32.2244 16.9522 32.6996 17.5439 33.3389 17.5439H39.8161C40.2547 17.5439 40.582 17.9477 40.4913 18.3769Z"/>
<path d="M48.0097 4.0858C47.7443 4.0858 47.5142 3.99732 47.3196 3.82036C47.1426 3.6257 47.0541 3.40449 47.0541 3.15674C47.0541 2.82051 47.178 2.54622 47.4258 2.33386C47.6735 2.10381 47.9478 1.98879 48.2486 1.98879C48.5141 1.98879 48.7353 2.07727 48.9122 2.25423C49.1069 2.43119 49.2042 2.6524 49.2042 2.91784C49.2042 3.25407 49.0804 3.53721 48.8326 3.76727C48.5849 3.97962 48.3106 4.0858 48.0097 4.0858ZM45.4457 18.3961C45.3774 18.7046 45.1038 18.9242 44.7878 18.9242C44.357 18.9242 44.0368 18.5253 44.13 18.1046L46.6717 6.63127C46.74 6.32276 47.0136 6.10319 47.3296 6.10319C47.7605 6.10319 48.0806 6.50205 47.9874 6.92275L45.4457 18.3961Z"/>
<path d="M52.9169 19.2427C51.2181 19.2427 50.3687 18.526 50.3687 17.0926C50.3687 16.898 50.3952 16.6679 50.4483 16.4025L52.2348 8.36317C52.3533 7.83 51.9476 7.32423 51.4014 7.32423H51.0996C50.7102 7.32423 50.4203 6.96456 50.503 6.58402C50.564 6.30336 50.8124 6.10319 51.0996 6.10319H51.927C52.3966 6.10319 52.8029 5.77643 52.9037 5.31776L53.3824 3.13893C53.4516 2.82381 53.7308 2.59931 54.0534 2.59931C54.4923 2.59931 54.8186 3.00515 54.7244 3.43378L54.4048 4.88861C54.2678 5.51249 54.7428 6.10319 55.3815 6.10319H55.9656C56.3602 6.10319 56.6512 6.47191 56.5594 6.8557C56.4937 7.13044 56.2481 7.32423 55.9656 7.32423H54.6492C54.18 7.32423 53.7739 7.65041 53.6727 8.10854L51.8817 16.2166C51.8463 16.3936 51.8286 16.5794 51.8286 16.7741C51.8286 17.5881 52.2622 17.9951 53.1293 17.9951C53.3506 17.9951 53.5662 17.961 53.776 17.8926C54.1371 17.7751 54.5814 17.9301 54.6693 18.2995C54.7175 18.5019 54.6444 18.7175 54.4662 18.8249C54.0043 19.1035 53.4879 19.2427 52.9169 19.2427Z"/>
<path d="M63.5451 19.2427C61.6516 19.2427 60.1563 18.7295 59.0591 17.7031C57.9796 16.6591 57.4399 15.2876 57.4399 13.5887C57.4399 11.4475 58.13 9.61591 59.5103 8.09402C60.8907 6.55444 62.5718 5.78465 64.5538 5.78465C66.2173 5.78465 67.5356 6.30669 68.5089 7.35078C69.4999 8.39486 69.9954 9.72209 69.9954 11.3325C69.9954 11.6092 69.9748 11.8937 69.9337 12.1859C69.8696 12.6403 69.4612 12.9517 69.0023 12.9517H59.6989C59.2684 12.9517 58.8998 13.2645 58.8998 13.6949C58.8998 14.9514 59.3068 15.9954 60.1209 16.8272C60.9349 17.6412 62.094 18.0482 63.5982 18.0482C64.8465 18.0482 65.9575 17.7237 66.9313 17.0748C67.2216 16.8814 67.6272 16.9595 67.7896 17.2682C67.9138 17.5041 67.8509 17.7969 67.631 17.9476C66.3715 18.811 65.0095 19.2427 63.5451 19.2427ZM59.3979 10.7187C59.1767 11.2985 59.6533 11.8633 60.2739 11.8633H68.0565C68.3967 11.8633 68.6682 11.6196 68.6682 11.2794C68.6682 10.0052 68.2877 8.96999 67.5268 8.17366C66.7835 7.37732 65.7395 6.97915 64.3945 6.97915C63.1204 6.97915 61.9701 7.4658 60.9437 8.4391C60.2377 9.10795 59.7225 9.86783 59.3979 10.7187Z"/>
<path d="M82.7723 16.8962C82.9663 17.129 82.9562 17.4727 82.7314 17.6759C81.5758 18.7204 80.2342 19.2427 78.7066 19.2427C77.0077 19.2427 75.6274 18.7384 74.5656 17.7297C73.5216 16.721 72.9995 15.3318 72.9995 13.5622C72.9995 11.4386 73.6897 9.61591 75.07 8.09402C76.4503 6.55444 78.1315 5.78465 80.1134 5.78465C82.0181 5.78465 83.4397 6.40071 84.3782 7.63282C84.5809 7.89887 84.5031 8.27246 84.2356 8.47312C83.9209 8.70913 83.4747 8.61155 83.2203 8.31161C82.4967 7.4587 81.4788 7.03224 80.1665 7.03224C78.4677 7.03224 77.0874 7.68701 76.0256 8.99654C74.9815 10.2884 74.4595 11.8191 74.4595 13.5887C74.4595 15.0044 74.8665 16.0928 75.6805 16.8537C76.4945 17.6147 77.5475 17.9951 78.8393 17.9951C79.9987 17.9951 80.9938 17.6178 81.8246 16.8632C82.0991 16.6138 82.5349 16.6113 82.7723 16.8962Z"/>
<path d="M91.7437 19.2427C90.0271 19.2427 88.6557 18.7295 87.6293 17.7031C86.6029 16.6767 86.0897 15.3141 86.0897 13.6153C86.0897 11.5271 86.771 9.70439 88.1336 8.14711C89.4962 6.57214 91.1685 5.78465 93.1505 5.78465C94.8671 5.78465 96.2385 6.29784 97.2649 7.32423C98.2913 8.35062 98.8045 9.71324 98.8045 11.4121C98.8045 13.5003 98.1232 15.3318 96.7606 16.9068C95.398 18.4641 93.7257 19.2427 91.7437 19.2427ZM91.7702 17.9951C93.3275 17.9951 94.637 17.3404 95.6988 16.0308C96.7606 14.7036 97.2915 13.1817 97.2915 11.4652C97.2915 10.1026 96.9199 9.02308 96.1766 8.22675C95.4511 7.43041 94.4335 7.03224 93.124 7.03224C91.5667 7.03224 90.2572 7.69586 89.1954 9.02308C88.1336 10.3326 87.6027 11.8456 87.6027 13.5622C87.6027 14.9248 87.9655 16.0043 88.6911 16.8006C89.4343 17.597 90.4607 17.9951 91.7702 17.9951Z"/>
<path d="M104.838 4.0858C104.572 4.0858 104.342 3.99732 104.148 3.82036C103.971 3.6257 103.882 3.40449 103.882 3.15674C103.882 2.82051 104.006 2.54622 104.254 2.33386C104.502 2.10381 104.776 1.98879 105.077 1.98879C105.342 1.98879 105.563 2.07727 105.74 2.25423C105.935 2.43119 106.032 2.6524 106.032 2.91784C106.032 3.25407 105.908 3.53721 105.661 3.76727C105.413 3.97962 105.139 4.0858 104.838 4.0858ZM102.274 18.3961C102.205 18.7046 101.932 18.9242 101.616 18.9242C101.185 18.9242 100.865 18.5253 100.958 18.1046L103.5 6.63127C103.568 6.32276 103.842 6.10319 104.158 6.10319C104.589 6.10319 104.909 6.50205 104.815 6.92275L102.274 18.3961Z"/>
<path d="M116.604 18.3949C116.536 18.704 116.262 18.9242 115.945 18.9242C115.515 18.9242 115.194 18.526 115.287 18.1053L117.018 10.2176C117.124 9.73978 117.177 9.4301 117.177 9.28853C117.177 8.52758 116.921 7.9613 116.408 7.58968C115.894 7.21805 115.222 7.03224 114.39 7.03224C112.956 7.03224 111.546 7.70802 110.16 9.05956C110.026 9.19003 109.936 9.35873 109.896 9.54125L107.95 18.3954C107.882 18.7042 107.609 18.9242 107.292 18.9242C106.862 18.9242 106.542 18.5256 106.635 18.1052L109.177 6.63201C109.245 6.32307 109.519 6.10319 109.835 6.10319H110.136C110.413 6.10319 110.618 6.35853 110.559 6.62833C110.467 7.04783 111 7.35438 111.345 7.09773C112.519 6.22234 113.694 5.78465 114.868 5.78465C116.001 5.78465 116.903 6.05894 117.576 6.60753C118.266 7.13842 118.611 7.90821 118.611 8.9169C118.611 9.25313 118.558 9.61591 118.452 10.0052L116.604 18.3949Z"/>
</mask>
<path d="M40.4913 18.3769C40.4238 18.6959 40.1422 18.9242 39.8161 18.9242H31.533C30.8939 18.9242 30.4189 18.333 30.5564 17.709L34.0629 1.79852C34.1375 1.46004 34.4375 1.21899 34.7841 1.21899C35.2562 1.21899 35.607 1.65593 35.5051 2.11691L32.3625 16.3279C32.2244 16.9522 32.6996 17.5439 33.3389 17.5439H39.8161C40.2547 17.5439 40.582 17.9477 40.4913 18.3769Z" fill="white"/>
<path d="M48.0097 4.0858C47.7443 4.0858 47.5142 3.99732 47.3196 3.82036C47.1426 3.6257 47.0541 3.40449 47.0541 3.15674C47.0541 2.82051 47.178 2.54622 47.4258 2.33386C47.6735 2.10381 47.9478 1.98879 48.2486 1.98879C48.5141 1.98879 48.7353 2.07727 48.9122 2.25423C49.1069 2.43119 49.2042 2.6524 49.2042 2.91784C49.2042 3.25407 49.0804 3.53721 48.8326 3.76727C48.5849 3.97962 48.3106 4.0858 48.0097 4.0858ZM45.4457 18.3961C45.3774 18.7046 45.1038 18.9242 44.7878 18.9242C44.357 18.9242 44.0368 18.5253 44.13 18.1046L46.6717 6.63127C46.74 6.32276 47.0136 6.10319 47.3296 6.10319C47.7605 6.10319 48.0806 6.50205 47.9874 6.92275L45.4457 18.3961Z" fill="white"/>
<path d="M52.9169 19.2427C51.2181 19.2427 50.3687 18.526 50.3687 17.0926C50.3687 16.898 50.3952 16.6679 50.4483 16.4025L52.2348 8.36317C52.3533 7.83 51.9476 7.32423 51.4014 7.32423H51.0996C50.7102 7.32423 50.4203 6.96456 50.503 6.58402C50.564 6.30336 50.8124 6.10319 51.0996 6.10319H51.927C52.3966 6.10319 52.8029 5.77643 52.9037 5.31776L53.3824 3.13893C53.4516 2.82381 53.7308 2.59931 54.0534 2.59931C54.4923 2.59931 54.8186 3.00515 54.7244 3.43378L54.4048 4.88861C54.2678 5.51249 54.7428 6.10319 55.3815 6.10319H55.9656C56.3602 6.10319 56.6512 6.47191 56.5594 6.8557C56.4937 7.13044 56.2481 7.32423 55.9656 7.32423H54.6492C54.18 7.32423 53.7739 7.65041 53.6727 8.10854L51.8817 16.2166C51.8463 16.3936 51.8286 16.5794 51.8286 16.7741C51.8286 17.5881 52.2622 17.9951 53.1293 17.9951C53.3506 17.9951 53.5662 17.961 53.776 17.8926C54.1371 17.7751 54.5814 17.9301 54.6693 18.2995C54.7175 18.5019 54.6444 18.7175 54.4662 18.8249C54.0043 19.1035 53.4879 19.2427 52.9169 19.2427Z" fill="white"/>
<path d="M63.5451 19.2427C61.6516 19.2427 60.1563 18.7295 59.0591 17.7031C57.9796 16.6591 57.4399 15.2876 57.4399 13.5887C57.4399 11.4475 58.13 9.61591 59.5103 8.09402C60.8907 6.55444 62.5718 5.78465 64.5538 5.78465C66.2173 5.78465 67.5356 6.30669 68.5089 7.35078C69.4999 8.39486 69.9954 9.72209 69.9954 11.3325C69.9954 11.6092 69.9748 11.8937 69.9337 12.1859C69.8696 12.6403 69.4612 12.9517 69.0023 12.9517H59.6989C59.2684 12.9517 58.8998 13.2645 58.8998 13.6949C58.8998 14.9514 59.3068 15.9954 60.1209 16.8272C60.9349 17.6412 62.094 18.0482 63.5982 18.0482C64.8465 18.0482 65.9575 17.7237 66.9313 17.0748C67.2216 16.8814 67.6272 16.9595 67.7896 17.2682C67.9138 17.5041 67.8509 17.7969 67.631 17.9476C66.3715 18.811 65.0095 19.2427 63.5451 19.2427ZM59.3979 10.7187C59.1767 11.2985 59.6533 11.8633 60.2739 11.8633H68.0565C68.3967 11.8633 68.6682 11.6196 68.6682 11.2794C68.6682 10.0052 68.2877 8.96999 67.5268 8.17366C66.7835 7.37732 65.7395 6.97915 64.3945 6.97915C63.1204 6.97915 61.9701 7.4658 60.9437 8.4391C60.2377 9.10795 59.7225 9.86783 59.3979 10.7187Z" fill="white"/>
<path d="M82.7723 16.8962C82.9663 17.129 82.9562 17.4727 82.7314 17.6759C81.5758 18.7204 80.2342 19.2427 78.7066 19.2427C77.0077 19.2427 75.6274 18.7384 74.5656 17.7297C73.5216 16.721 72.9995 15.3318 72.9995 13.5622C72.9995 11.4386 73.6897 9.61591 75.07 8.09402C76.4503 6.55444 78.1315 5.78465 80.1134 5.78465C82.0181 5.78465 83.4397 6.40071 84.3782 7.63282C84.5809 7.89887 84.5031 8.27246 84.2356 8.47312C83.9209 8.70913 83.4747 8.61155 83.2203 8.31161C82.4967 7.4587 81.4788 7.03224 80.1665 7.03224C78.4677 7.03224 77.0874 7.68701 76.0256 8.99654C74.9815 10.2884 74.4595 11.8191 74.4595 13.5887C74.4595 15.0044 74.8665 16.0928 75.6805 16.8537C76.4945 17.6147 77.5475 17.9951 78.8393 17.9951C79.9987 17.9951 80.9938 17.6178 81.8246 16.8632C82.0991 16.6138 82.5349 16.6113 82.7723 16.8962Z" fill="white"/>
<path d="M91.7437 19.2427C90.0271 19.2427 88.6557 18.7295 87.6293 17.7031C86.6029 16.6767 86.0897 15.3141 86.0897 13.6153C86.0897 11.5271 86.771 9.70439 88.1336 8.14711C89.4962 6.57214 91.1685 5.78465 93.1505 5.78465C94.8671 5.78465 96.2385 6.29784 97.2649 7.32423C98.2913 8.35062 98.8045 9.71324 98.8045 11.4121C98.8045 13.5003 98.1232 15.3318 96.7606 16.9068C95.398 18.4641 93.7257 19.2427 91.7437 19.2427ZM91.7702 17.9951C93.3275 17.9951 94.637 17.3404 95.6988 16.0308C96.7606 14.7036 97.2915 13.1817 97.2915 11.4652C97.2915 10.1026 96.9199 9.02308 96.1766 8.22675C95.4511 7.43041 94.4335 7.03224 93.124 7.03224C91.5667 7.03224 90.2572 7.69586 89.1954 9.02308C88.1336 10.3326 87.6027 11.8456 87.6027 13.5622C87.6027 14.9248 87.9655 16.0043 88.6911 16.8006C89.4343 17.597 90.4607 17.9951 91.7702 17.9951Z" fill="white"/>
<path d="M104.838 4.0858C104.572 4.0858 104.342 3.99732 104.148 3.82036C103.971 3.6257 103.882 3.40449 103.882 3.15674C103.882 2.82051 104.006 2.54622 104.254 2.33386C104.502 2.10381 104.776 1.98879 105.077 1.98879C105.342 1.98879 105.563 2.07727 105.74 2.25423C105.935 2.43119 106.032 2.6524 106.032 2.91784C106.032 3.25407 105.908 3.53721 105.661 3.76727C105.413 3.97962 105.139 4.0858 104.838 4.0858ZM102.274 18.3961C102.205 18.7046 101.932 18.9242 101.616 18.9242C101.185 18.9242 100.865 18.5253 100.958 18.1046L103.5 6.63127C103.568 6.32276 103.842 6.10319 104.158 6.10319C104.589 6.10319 104.909 6.50205 104.815 6.92275L102.274 18.3961Z" fill="white"/>
<path d="M116.604 18.3949C116.536 18.704 116.262 18.9242 115.945 18.9242C115.515 18.9242 115.194 18.526 115.287 18.1053L117.018 10.2176C117.124 9.73978 117.177 9.4301 117.177 9.28853C117.177 8.52758 116.921 7.9613 116.408 7.58968C115.894 7.21805 115.222 7.03224 114.39 7.03224C112.956 7.03224 111.546 7.70802 110.16 9.05956C110.026 9.19003 109.936 9.35873 109.896 9.54125L107.95 18.3954C107.882 18.7042 107.609 18.9242 107.292 18.9242C106.862 18.9242 106.542 18.5256 106.635 18.1052L109.177 6.63201C109.245 6.32307 109.519 6.10319 109.835 6.10319H110.136C110.413 6.10319 110.618 6.35853 110.559 6.62833C110.467 7.04783 111 7.35438 111.345 7.09773C112.519 6.22234 113.694 5.78465 114.868 5.78465C116.001 5.78465 116.903 6.05894 117.576 6.60753C118.266 7.13842 118.611 7.90821 118.611 8.9169C118.611 9.25313 118.558 9.61591 118.452 10.0052L116.604 18.3949Z" fill="white"/>
<path d="M40.4913 18.3769C40.4238 18.6959 40.1422 18.9242 39.8161 18.9242H31.533C30.8939 18.9242 30.4189 18.333 30.5564 17.709L34.0629 1.79852C34.1375 1.46004 34.4375 1.21899 34.7841 1.21899C35.2562 1.21899 35.607 1.65593 35.5051 2.11691L32.3625 16.3279C32.2244 16.9522 32.6996 17.5439 33.3389 17.5439H39.8161C40.2547 17.5439 40.582 17.9477 40.4913 18.3769Z" stroke="white" mask="url(#path-1-outside-1_221_519)"/>
<path d="M48.0097 4.0858C47.7443 4.0858 47.5142 3.99732 47.3196 3.82036C47.1426 3.6257 47.0541 3.40449 47.0541 3.15674C47.0541 2.82051 47.178 2.54622 47.4258 2.33386C47.6735 2.10381 47.9478 1.98879 48.2486 1.98879C48.5141 1.98879 48.7353 2.07727 48.9122 2.25423C49.1069 2.43119 49.2042 2.6524 49.2042 2.91784C49.2042 3.25407 49.0804 3.53721 48.8326 3.76727C48.5849 3.97962 48.3106 4.0858 48.0097 4.0858ZM45.4457 18.3961C45.3774 18.7046 45.1038 18.9242 44.7878 18.9242C44.357 18.9242 44.0368 18.5253 44.13 18.1046L46.6717 6.63127C46.74 6.32276 47.0136 6.10319 47.3296 6.10319C47.7605 6.10319 48.0806 6.50205 47.9874 6.92275L45.4457 18.3961Z" stroke="white" mask="url(#path-1-outside-1_221_519)"/>
<path d="M52.9169 19.2427C51.2181 19.2427 50.3687 18.526 50.3687 17.0926C50.3687 16.898 50.3952 16.6679 50.4483 16.4025L52.2348 8.36317C52.3533 7.83 51.9476 7.32423 51.4014 7.32423H51.0996C50.7102 7.32423 50.4203 6.96456 50.503 6.58402C50.564 6.30336 50.8124 6.10319 51.0996 6.10319H51.927C52.3966 6.10319 52.8029 5.77643 52.9037 5.31776L53.3824 3.13893C53.4516 2.82381 53.7308 2.59931 54.0534 2.59931C54.4923 2.59931 54.8186 3.00515 54.7244 3.43378L54.4048 4.88861C54.2678 5.51249 54.7428 6.10319 55.3815 6.10319H55.9656C56.3602 6.10319 56.6512 6.47191 56.5594 6.8557C56.4937 7.13044 56.2481 7.32423 55.9656 7.32423H54.6492C54.18 7.32423 53.7739 7.65041 53.6727 8.10854L51.8817 16.2166C51.8463 16.3936 51.8286 16.5794 51.8286 16.7741C51.8286 17.5881 52.2622 17.9951 53.1293 17.9951C53.3506 17.9951 53.5662 17.961 53.776 17.8926C54.1371 17.7751 54.5814 17.9301 54.6693 18.2995C54.7175 18.5019 54.6444 18.7175 54.4662 18.8249C54.0043 19.1035 53.4879 19.2427 52.9169 19.2427Z" stroke="white" mask="url(#path-1-outside-1_221_519)"/>
<path d="M63.5451 19.2427C61.6516 19.2427 60.1563 18.7295 59.0591 17.7031C57.9796 16.6591 57.4399 15.2876 57.4399 13.5887C57.4399 11.4475 58.13 9.61591 59.5103 8.09402C60.8907 6.55444 62.5718 5.78465 64.5538 5.78465C66.2173 5.78465 67.5356 6.30669 68.5089 7.35078C69.4999 8.39486 69.9954 9.72209 69.9954 11.3325C69.9954 11.6092 69.9748 11.8937 69.9337 12.1859C69.8696 12.6403 69.4612 12.9517 69.0023 12.9517H59.6989C59.2684 12.9517 58.8998 13.2645 58.8998 13.6949C58.8998 14.9514 59.3068 15.9954 60.1209 16.8272C60.9349 17.6412 62.094 18.0482 63.5982 18.0482C64.8465 18.0482 65.9575 17.7237 66.9313 17.0748C67.2216 16.8814 67.6272 16.9595 67.7896 17.2682C67.9138 17.5041 67.8509 17.7969 67.631 17.9476C66.3715 18.811 65.0095 19.2427 63.5451 19.2427ZM59.3979 10.7187C59.1767 11.2985 59.6533 11.8633 60.2739 11.8633H68.0565C68.3967 11.8633 68.6682 11.6196 68.6682 11.2794C68.6682 10.0052 68.2877 8.96999 67.5268 8.17366C66.7835 7.37732 65.7395 6.97915 64.3945 6.97915C63.1204 6.97915 61.9701 7.4658 60.9437 8.4391C60.2377 9.10795 59.7225 9.86783 59.3979 10.7187Z" stroke="white" mask="url(#path-1-outside-1_221_519)"/>
<path d="M82.7723 16.8962C82.9663 17.129 82.9562 17.4727 82.7314 17.6759C81.5758 18.7204 80.2342 19.2427 78.7066 19.2427C77.0077 19.2427 75.6274 18.7384 74.5656 17.7297C73.5216 16.721 72.9995 15.3318 72.9995 13.5622C72.9995 11.4386 73.6897 9.61591 75.07 8.09402C76.4503 6.55444 78.1315 5.78465 80.1134 5.78465C82.0181 5.78465 83.4397 6.40071 84.3782 7.63282C84.5809 7.89887 84.5031 8.27246 84.2356 8.47312C83.9209 8.70913 83.4747 8.61155 83.2203 8.31161C82.4967 7.4587 81.4788 7.03224 80.1665 7.03224C78.4677 7.03224 77.0874 7.68701 76.0256 8.99654C74.9815 10.2884 74.4595 11.8191 74.4595 13.5887C74.4595 15.0044 74.8665 16.0928 75.6805 16.8537C76.4945 17.6147 77.5475 17.9951 78.8393 17.9951C79.9987 17.9951 80.9938 17.6178 81.8246 16.8632C82.0991 16.6138 82.5349 16.6113 82.7723 16.8962Z" stroke="white" mask="url(#path-1-outside-1_221_519)"/>
<path d="M91.7437 19.2427C90.0271 19.2427 88.6557 18.7295 87.6293 17.7031C86.6029 16.6767 86.0897 15.3141 86.0897 13.6153C86.0897 11.5271 86.771 9.70439 88.1336 8.14711C89.4962 6.57214 91.1685 5.78465 93.1505 5.78465C94.8671 5.78465 96.2385 6.29784 97.2649 7.32423C98.2913 8.35062 98.8045 9.71324 98.8045 11.4121C98.8045 13.5003 98.1232 15.3318 96.7606 16.9068C95.398 18.4641 93.7257 19.2427 91.7437 19.2427ZM91.7702 17.9951C93.3275 17.9951 94.637 17.3404 95.6988 16.0308C96.7606 14.7036 97.2915 13.1817 97.2915 11.4652C97.2915 10.1026 96.9199 9.02308 96.1766 8.22675C95.4511 7.43041 94.4335 7.03224 93.124 7.03224C91.5667 7.03224 90.2572 7.69586 89.1954 9.02308C88.1336 10.3326 87.6027 11.8456 87.6027 13.5622C87.6027 14.9248 87.9655 16.0043 88.6911 16.8006C89.4343 17.597 90.4607 17.9951 91.7702 17.9951Z" stroke="white" mask="url(#path-1-outside-1_221_519)"/>
<path d="M104.838 4.0858C104.572 4.0858 104.342 3.99732 104.148 3.82036C103.971 3.6257 103.882 3.40449 103.882 3.15674C103.882 2.82051 104.006 2.54622 104.254 2.33386C104.502 2.10381 104.776 1.98879 105.077 1.98879C105.342 1.98879 105.563 2.07727 105.74 2.25423C105.935 2.43119 106.032 2.6524 106.032 2.91784C106.032 3.25407 105.908 3.53721 105.661 3.76727C105.413 3.97962 105.139 4.0858 104.838 4.0858ZM102.274 18.3961C102.205 18.7046 101.932 18.9242 101.616 18.9242C101.185 18.9242 100.865 18.5253 100.958 18.1046L103.5 6.63127C103.568 6.32276 103.842 6.10319 104.158 6.10319C104.589 6.10319 104.909 6.50205 104.815 6.92275L102.274 18.3961Z" stroke="white" mask="url(#path-1-outside-1_221_519)"/>
<path d="M116.604 18.3949C116.536 18.704 116.262 18.9242 115.945 18.9242C115.515 18.9242 115.194 18.526 115.287 18.1053L117.018 10.2176C117.124 9.73978 117.177 9.4301 117.177 9.28853C117.177 8.52758 116.921 7.9613 116.408 7.58968C115.894 7.21805 115.222 7.03224 114.39 7.03224C112.956 7.03224 111.546 7.70802 110.16 9.05956C110.026 9.19003 109.936 9.35873 109.896 9.54125L107.95 18.3954C107.882 18.7042 107.609 18.9242 107.292 18.9242C106.862 18.9242 106.542 18.5256 106.635 18.1052L109.177 6.63201C109.245 6.32307 109.519 6.10319 109.835 6.10319H110.136C110.413 6.10319 110.618 6.35853 110.559 6.62833C110.467 7.04783 111 7.35438 111.345 7.09773C112.519 6.22234 113.694 5.78465 114.868 5.78465C116.001 5.78465 116.903 6.05894 117.576 6.60753C118.266 7.13842 118.611 7.90821 118.611 8.9169C118.611 9.25313 118.558 9.61591 118.452 10.0052L116.604 18.3949Z" stroke="white" mask="url(#path-1-outside-1_221_519)"/>
<path fill-rule="evenodd" clip-rule="evenodd" d="M20.6831 13.5537C20.9097 12.7059 21.0241 11.8322 21.0234 10.9547C21.0248 9.9835 20.8825 9.01746 20.6012 8.08791C20.4065 7.40418 20.1327 6.74552 19.7853 6.12528C19.4442 5.49566 19.0354 4.90515 18.5661 4.36427C18.2487 3.99387 17.9032 3.64842 17.5328 3.33097C16.992 2.86169 16.4015 2.45288 15.7718 2.11181C15.6605 2.0467 15.5492 1.9879 15.4379 1.93539C15.1845 1.80367 14.9237 1.68691 14.6566 1.58571C13.4756 1.11264 12.2147 0.870932 10.9424 0.873742C10.0639 0.87278 9.18904 0.987168 8.34029 1.21397C6.95778 1.58793 5.66965 2.24917 4.55994 3.15455C3.39775 4.10245 2.46169 5.29771 1.81999 6.65323C1.17829 8.00874 0.847121 9.49036 0.850613 10.9901C0.854106 12.4898 1.19217 13.9699 1.84018 15.3224C2.48819 16.6749 3.4298 17.8658 4.5964 18.8083C5.76299 19.7507 7.12518 20.421 8.58367 20.7703C10.0422 21.1196 11.5602 21.1391 13.0272 20.8273C14.4942 20.5155 15.8731 19.8804 17.0635 18.9681C18.2538 18.0559 19.2257 16.8896 19.9082 15.5541C20.2396 14.918 20.4996 14.2471 20.6831 13.5537ZM7.32584 12.845L8.12602 12.53C8.10711 12.6025 8.10711 12.6466 8.10711 12.6875C7.8971 13.4961 7.69338 14.3057 7.49596 15.1164C7.4361 15.3653 7.44555 15.3653 7.66607 15.3653C9.82087 15.3653 11.9788 15.3695 14.1399 15.3779C14.1703 15.3818 14.2012 15.3795 14.2306 15.371C14.26 15.3625 14.2874 15.3481 14.311 15.3286C14.3347 15.3091 14.3541 15.285 14.368 15.2577C14.3819 15.2304 14.39 15.2005 14.3919 15.17C14.4865 14.7289 14.5915 14.29 14.707 13.8531C14.7479 13.7019 14.7133 13.6515 14.5684 13.6515H10.7408C10.5265 13.6515 10.5108 13.6295 10.5643 13.4184C10.6399 13.1034 10.7187 12.7883 10.7975 12.4733C10.8762 12.1583 10.955 11.8432 11.0306 11.5282C11.0383 11.4788 11.0594 11.4323 11.0916 11.394C11.1238 11.3557 11.1659 11.3269 11.2133 11.3108C11.3566 11.2573 11.5 11.2006 11.6433 11.1439C11.7867 11.0872 11.93 11.0305 12.0733 10.9769C12.1242 10.9613 12.1697 10.9318 12.2048 10.8917C12.2398 10.8516 12.263 10.8026 12.2718 10.7501C12.3033 10.6146 12.3372 10.48 12.371 10.3453C12.4049 10.2106 12.4388 10.0759 12.4703 9.94047C12.4703 9.924 12.4753 9.90518 12.4805 9.88599C12.4911 9.84642 12.5021 9.80526 12.4703 9.7798C12.4343 9.75103 12.3929 9.77153 12.3529 9.7913C12.3404 9.7975 12.3279 9.80364 12.3159 9.80816L11.5787 10.1011C11.5702 10.1063 11.562 10.1118 11.5538 10.1172C11.5075 10.1478 11.4649 10.176 11.4086 10.1358C11.3644 10.1042 11.3793 10.0599 11.394 10.0162C11.4014 9.99447 11.4086 9.97291 11.4086 9.95307L12.1899 6.80278C12.2497 6.5539 12.2434 6.5539 12.004 6.5539H9.86183C9.67911 6.55075 9.6098 6.62006 9.5657 6.80278C9.38771 7.52578 9.20735 8.24878 9.02699 8.97178C8.84664 9.69476 8.66629 10.4177 8.4883 11.1407C8.47899 11.205 8.4515 11.2652 8.40908 11.3143C8.36666 11.3634 8.31107 11.3994 8.24888 11.418C8.11755 11.4617 7.98833 11.514 7.85938 11.5661C7.76563 11.604 7.67203 11.6418 7.57787 11.6763C7.53249 11.6895 7.49168 11.715 7.45997 11.7501C7.42827 11.7851 7.40692 11.8283 7.3983 11.8747C7.36364 12.0149 7.3282 12.1559 7.29276 12.2969C7.25732 12.4379 7.22188 12.5788 7.18723 12.719C7.18723 12.7347 7.1824 12.7517 7.17754 12.7688C7.1677 12.8035 7.15772 12.8386 7.18723 12.8639C7.22344 12.895 7.2639 12.875 7.30164 12.8565C7.30986 12.8524 7.31795 12.8484 7.32584 12.845Z" fill="white"/>
</svg>
