<svg width="145" height="34" viewBox="0 0 145 34" fill="none" xmlns="http://www.w3.org/2000/svg">
<path d="M63.091 24.3759C61.0729 24.3759 59.4391 23.7513 58.2379 22.4539C57.0366 21.1565 56.46 19.4267 56.46 17.1683C56.46 15.054 57.0846 13.3242 58.334 12.0268C59.6313 10.7294 61.4092 10.0086 63.2352 10.1048C64.6767 10.0567 66.1182 10.4411 67.3676 11.258L66.5507 13.2281C65.5897 12.6034 64.4364 12.2671 63.2832 12.219C62.13 12.1709 60.9768 12.6995 60.256 13.6125C59.4872 14.6696 59.1028 15.967 59.1508 17.2644C59.1508 18.8501 59.4872 20.0994 60.2079 21.0124C60.9768 21.9253 62.0819 22.4058 63.2832 22.3578C64.4845 22.3578 65.6858 22.0695 66.7429 21.4929L67.0793 23.511C65.878 24.0876 64.4845 24.424 63.091 24.3759Z" fill="white"/>
<path d="M73.6141 24.3766C72.2206 24.4246 70.8752 23.8961 69.9622 22.887C69.0493 21.7818 68.5688 20.3883 68.6168 18.9468C68.6168 17.265 69.0493 15.9196 69.9622 14.9586C70.8272 13.9975 72.0765 13.517 73.7102 13.517C75.1037 13.4209 76.4491 13.9975 77.3621 15.0066C78.2751 16.1118 78.7556 17.5053 78.7075 18.9468C78.7556 20.3883 78.2751 21.7818 77.3621 22.887C76.4011 23.8961 75.0076 24.4727 73.6141 24.3766ZM73.7102 22.5026C74.479 22.5506 75.1998 22.2143 75.6323 21.5896C76.1128 20.7728 76.305 19.8598 76.2569 18.9468C76.305 18.0338 76.0647 17.0728 75.5842 16.256C74.7193 15.1988 73.1817 15.0066 72.1245 15.8715C71.9804 15.9676 71.8362 16.1118 71.7401 16.256C71.2596 17.0728 71.0674 17.9858 71.1155 18.9468C71.0674 19.8598 71.3077 20.7728 71.7882 21.5416C72.1726 22.1662 72.9414 22.5506 73.7102 22.5026Z" fill="white"/>
<path d="M80.7739 12.219V10.1048H83.2726V12.219H80.7739ZM80.7739 24.1838V13.7567H83.2726V24.1838H80.7739Z" fill="white"/>
<path d="M85.8674 24.1841V13.757H87.8856L88.1739 15.0544C89.0869 14.0934 90.3842 13.5168 91.7297 13.4687C92.7387 13.3726 93.7478 13.757 94.4686 14.5258C95.0932 15.2466 95.3816 16.2557 95.3816 17.553V24.1361H92.8829V17.8894C92.9309 17.2167 92.7868 16.592 92.4504 16.0154C92.1141 15.583 91.5855 15.3427 91.0089 15.3907C90.4803 15.3907 89.9518 15.5349 89.5193 15.8232C89.0869 16.0635 88.7505 16.4479 88.5583 16.8803C88.4141 17.6492 88.3661 18.418 88.3661 19.1868V24.2802H85.8674V24.1841Z" fill="white"/>
<path d="M101.1 24.3758C99.8022 24.4239 98.5529 24.1836 97.3997 23.607L97.6399 21.733C98.1685 21.9733 98.697 22.2135 99.2256 22.3577C99.8022 22.5018 100.379 22.5979 101.003 22.646C101.436 22.646 101.916 22.5499 102.301 22.3577C102.589 22.1655 102.781 21.8291 102.781 21.4447C102.781 21.1083 102.637 20.772 102.349 20.5798C101.82 20.2434 101.292 20.0032 100.715 19.811L100.187 19.6188C99.4178 19.3785 98.697 18.946 98.1204 18.3694C97.688 17.8409 97.4477 17.1681 97.4958 16.4954C97.4477 15.6305 97.8321 14.8136 98.5048 14.2851C99.3698 13.7085 100.379 13.4682 101.388 13.5163C102.589 13.4682 103.79 13.7565 104.896 14.2851L104.271 16.0149C103.406 15.5825 102.397 15.3422 101.436 15.3422C101.052 15.3422 100.619 15.3903 100.283 15.5825C99.9944 15.7266 99.8503 16.0149 99.8503 16.3513C99.8503 16.6396 99.9944 16.9279 100.283 17.1201C100.811 17.4084 101.34 17.6487 101.868 17.8409L102.109 17.937L102.445 18.0811C103.214 18.3214 103.935 18.7538 104.559 19.3304C105.04 19.859 105.28 20.5317 105.232 21.2525C105.28 22.1655 104.896 23.0784 104.175 23.655C103.262 24.1356 102.205 24.4239 101.1 24.3758Z" fill="white"/>
<path d="M107.298 24.184V10.2491H111.959C112.92 10.2491 113.881 10.3933 114.794 10.6816C115.515 10.9219 116.188 11.4024 116.62 12.0751C117.101 12.7959 117.341 13.6127 117.293 14.4776C117.293 15.1023 117.197 15.6789 117.053 16.2555C116.861 16.7841 116.572 17.2646 116.188 17.649C115.707 18.1295 115.179 18.4178 114.554 18.61C113.737 18.8503 112.872 18.9464 111.959 18.9464C111.094 18.9464 110.374 18.9464 109.845 18.8503V24.184H107.298ZM111.671 17.0244C112.151 17.0244 112.584 16.9763 113.064 16.8802C113.401 16.7841 113.689 16.688 113.977 16.4958C114.17 16.3516 114.362 16.1594 114.506 15.9192C114.65 15.727 114.698 15.4867 114.746 15.2465C114.794 15.0062 114.794 14.7659 114.794 14.5257C114.842 13.853 114.554 13.2283 114.074 12.7959C113.449 12.3634 112.728 12.1712 111.959 12.2192H109.845V17.0724C109.941 17.0244 110.518 17.0244 111.671 17.0244Z" fill="white"/>
<path d="M121.521 24.3767C120.656 24.4248 119.839 24.1365 119.167 23.5599C118.542 22.9832 118.206 22.1183 118.254 21.2534C118.206 20.3404 118.59 19.4275 119.311 18.8509C120.272 18.2262 121.377 17.8898 122.53 17.8418C122.723 17.7937 122.963 17.7937 123.155 17.7457L123.924 17.6496L124.597 17.6015V17.0249C124.645 16.5444 124.5 16.0158 124.164 15.6314C123.78 15.2951 123.299 15.1509 122.819 15.199C121.713 15.247 120.656 15.4873 119.695 15.9197C119.695 15.9197 119.599 15.6314 119.359 15.0548L119.071 14.1899C120.32 13.6613 121.713 13.373 123.059 13.4211C124.452 13.4211 125.51 13.7094 126.134 14.334C126.759 14.9587 127.095 15.9197 127.095 17.3132V24.1365H125.269C125.269 24.1365 125.173 23.8962 125.077 23.5118C124.981 23.1274 124.885 22.8871 124.885 22.8871C124.452 23.3196 123.924 23.704 123.347 23.9923C122.771 24.2806 122.146 24.3767 121.521 24.3767ZM122.194 22.5988C122.723 22.5988 123.251 22.4547 123.684 22.1664C124.068 21.9261 124.404 21.5898 124.597 21.1573V19.1392L124.116 19.1872L123.587 19.2353C122.819 19.2833 122.05 19.4755 121.377 19.8119C120.897 20.1002 120.656 20.6768 120.656 21.2054C120.656 21.5898 120.752 21.9742 121.041 22.2144C121.377 22.5027 121.81 22.6469 122.194 22.5988Z" fill="white"/>
<path d="M129.642 12.219V10.1048H132.141V12.219H129.642ZM129.642 24.1838V13.7567H132.141V24.1838H129.642Z" fill="white"/>
<path d="M138.628 24.3758C137.378 24.4239 136.177 23.8472 135.408 22.8862C134.591 21.733 134.159 20.2915 134.255 18.898C134.207 17.5045 134.591 16.111 135.408 15.0058C136.177 14.0448 137.378 13.4682 138.628 13.5162C140.117 13.5162 141.174 14.0448 141.751 15.1019C141.703 14.5253 141.655 13.9007 141.655 13.324V9.96047L144.153 9.81631V24.2316H141.991L141.703 22.7901C141.607 22.9823 141.511 23.1265 141.415 23.2226C141.318 23.3667 141.174 23.5109 141.03 23.655C140.838 23.7992 140.646 23.9433 140.454 24.0394C140.213 24.1355 139.925 24.2316 139.685 24.2797C139.348 24.3277 138.964 24.3758 138.628 24.3758ZM139.204 22.5018C140.886 22.5018 141.703 21.3486 141.751 19.0902C141.751 17.7928 141.511 16.8798 141.078 16.3032C140.646 15.7266 139.925 15.3902 139.156 15.4383C138.435 15.3902 137.763 15.7266 137.378 16.3032C136.898 17.072 136.657 18.0331 136.706 18.946C136.657 19.859 136.898 20.82 137.378 21.5888C137.811 22.1654 138.483 22.5018 139.204 22.5018Z" fill="white"/>
<path d="M36.3266 15.3427H11.6284C10.8595 15.2946 10.0907 15.0063 9.51412 14.5258C9.03361 13.9973 8.79335 13.2765 8.8414 12.5557C8.8414 10.0571 10.8115 9.76876 11.6284 9.72071H20.4217L18.0672 0.879303H11.6764C7.64012 0.879303 0 3.32991 0 12.5557C0 21.7815 7.64012 24.2321 11.6764 24.2321L38.6811 24.1841L36.3266 15.3427Z" fill="white"/>
<path d="M23.0166 33.7946H31.9541L30.7528 29.422H33.1073C37.1436 29.422 44.7357 26.9714 44.7357 17.7456C44.7357 8.51974 37.1436 6.11719 33.1073 6.11719H15.6167L18.1154 15.343H32.9151C33.78 15.343 35.9904 15.1027 36.1345 17.6495C36.2306 20.004 34.0203 20.1481 33.1553 20.1962H19.3647L23.0166 33.7946Z" fill="#A4A4A4"/>
</svg>
