<svg width="82" height="25" viewBox="0 0 82 25" fill="none" xmlns="http://www.w3.org/2000/svg">
<path d="M30.3943 9.56955C30.1798 9.49803 29.7269 9.45033 29.274 9.45033C27.9153 9.45033 26.4612 10.551 26.4612 11.9096V18.3891H23.3625V6.82834H26.3421V7.99631C27.0333 7.1382 28.2966 6.58994 29.703 6.58994C30.0547 6.59247 30.4055 6.62436 30.7519 6.68528L30.3943 9.56955Z" fill="white"/>
<path d="M33.8979 0.750122C35.0183 0.750122 35.9241 1.60824 35.9241 2.72857C35.9241 3.84891 35.0183 4.70696 33.8979 4.70696C32.7776 4.70696 31.8718 3.84891 31.8718 2.72857C31.8718 1.60824 32.7776 0.750122 33.8979 0.750122ZM35.4473 18.3892H32.3486V6.82847H35.4473V18.3892V18.3892Z" fill="white"/>
<path d="M44.601 6.5896C43.3712 6.57403 42.1743 6.98742 41.2163 7.75869V6.82846H38.2361V24.1095H41.3351V17.579C42.2164 18.2752 43.3111 18.6458 44.4341 18.628C46.1505 18.628 47.7948 17.8646 48.8198 16.6728C49.726 15.6238 50.2733 14.1944 50.2733 12.6208C50.2733 9.21215 47.7468 6.5896 44.601 6.5896ZM44.2243 15.8146C42.2994 15.8146 41.0343 14.4863 41.0343 12.6309C41.0343 10.7756 42.2994 9.44722 44.2243 9.44722C45.8674 9.44722 47.1995 10.8729 47.1995 12.6309C47.1995 14.389 45.8674 15.8146 44.2243 15.8146Z" fill="white"/>
<path d="M69.0805 18.3891H65.9817V1.46509H69.0805V18.3891V18.3891Z" fill="white"/>
<path d="M81.7138 16.5536C80.5935 17.8885 78.758 18.6274 76.9703 18.6274C73.514 18.6274 70.9158 16.2438 70.9158 12.6206C70.9158 9.40269 73.1088 6.58994 76.5413 6.58994C79.7354 6.58994 81.9999 9.28346 81.9999 12.5014C82.0017 12.7969 81.9777 13.092 81.9283 13.3834H73.9192C74.0861 15.0042 75.3971 16.1246 77.0419 16.1246C78.3528 16.1246 79.4016 15.3856 79.9499 14.7897L81.7138 16.5536ZM78.8296 11.1189C78.7342 10.0939 77.8046 9.09282 76.5412 9.09282C75.254 9.09282 74.2053 10.0702 74.0623 11.1189H78.8296Z" fill="white"/>
<path d="M58.4745 6.5896C57.2447 6.57404 56.0479 6.98743 55.0899 7.75868V6.82846H52.1096V24.1095H55.2086V17.579C56.09 18.2752 57.1847 18.6458 58.3077 18.628C60.024 18.628 61.6683 17.8646 62.6933 16.6728C63.5995 15.6238 64.1468 14.1944 64.1468 12.6208C64.1468 9.21215 61.6203 6.5896 58.4745 6.5896ZM58.0979 15.8146C56.173 15.8146 54.9078 14.4863 54.9078 12.6309C54.9078 10.7756 56.173 9.4472 58.0979 9.4472C59.7409 9.4472 61.073 10.8729 61.073 12.6309C61.073 14.389 59.7409 15.8146 58.0979 15.8146Z" fill="white"/>
<path d="M16.9742 14.1771C16.2746 13.7731 15.4867 13.656 14.7063 13.6288C14.0515 13.6059 13.0746 13.1863 13.0746 11.9952C13.0746 11.1078 13.794 10.3935 14.7066 10.3617C15.4869 10.3344 16.2747 10.2172 16.9742 9.81335C17.6025 9.45061 18.1242 8.92888 18.487 8.30059C18.8497 7.6723 19.0407 6.95959 19.0407 6.2341C19.0407 5.50861 18.8497 4.79591 18.4869 4.16762C18.1242 3.53934 17.6024 3.01761 16.9742 2.65487C16.3459 2.29214 15.6331 2.10118 14.9077 2.1012C14.1822 2.10121 13.4695 2.2922 12.8412 2.65495C12.2129 3.01771 11.6912 3.53947 11.3285 4.16777C10.9657 4.79607 10.7748 5.50878 10.7748 6.23427C10.7748 7.03502 11.0596 7.77191 11.423 8.45536C11.7287 9.03019 11.8833 10.0971 10.835 10.7023C10.0552 11.1525 9.08207 10.8674 8.59597 10.0895C8.18537 9.43237 7.68971 8.8167 6.99576 8.41598C6.36748 8.05324 5.65479 7.86227 4.92931 7.86227C4.20383 7.86227 3.49113 8.05323 2.86285 8.41597C2.23456 8.77871 1.71283 9.30044 1.35009 9.92872C0.987354 10.557 0.796387 11.2697 0.796387 11.9952C0.796387 12.7207 0.987354 13.4334 1.35009 14.0616C1.71283 14.6899 2.23456 15.2116 2.86285 15.5744C3.49113 15.9371 4.20383 16.1281 4.92931 16.1281C5.65479 16.1281 6.36748 15.9371 6.99576 15.5744C7.68952 15.1738 8.18523 14.5585 8.59556 13.9019C8.93252 13.3626 9.77407 12.6753 10.835 13.2882C11.6136 13.7381 11.8543 14.7237 11.4227 15.5355C11.0593 16.2189 10.7749 16.9556 10.7749 17.7562C10.7749 18.4817 10.9658 19.1944 11.3286 19.8227C11.6913 20.4509 12.213 20.9727 12.8413 21.3354C13.4696 21.6981 14.1823 21.8891 14.9077 21.8891C15.6332 21.8891 16.3459 21.6981 16.9742 21.3354C17.6025 20.9727 18.1242 20.451 18.4869 19.8227C18.8496 19.1944 19.0406 18.4817 19.0406 17.7562C19.0406 17.0308 18.8497 16.3181 18.4869 15.6898C18.1242 15.0615 17.6025 14.5398 16.9742 14.1771Z" fill="white"/>
</svg>
