<svg width="125" height="27" viewBox="0 0 125 27" fill="none" xmlns="http://www.w3.org/2000/svg">
<path fill-rule="evenodd" clip-rule="evenodd" d="M9.85623 25.7274C16.9893 27.5107 23.9441 23.2308 25.7274 16.276C27.5107 9.32125 23.2308 2.18815 16.276 0.40487C9.14292 -1.37841 2.18815 2.90146 0.40487 9.85623C-1.37841 16.9893 2.90146 23.9441 9.85623 25.7274ZM15.9193 8.07302C17.7026 8.608 18.9509 9.49964 18.7725 11.2829C18.5942 12.5312 17.8809 13.0662 16.8109 13.4228C18.0592 13.9578 18.5942 15.0278 18.0592 16.8111C17.3459 19.1293 15.5626 19.3077 13.0661 18.7727L12.5311 21.0909L11.1045 20.7343L11.6394 18.416C11.4611 18.3269 11.2828 18.2823 11.1045 18.2377C10.9261 18.1931 10.7478 18.1485 10.5695 18.0594L10.0345 20.3776L8.60787 20.021L9.14285 17.7027C8.96453 17.7027 8.7862 17.6581 8.60787 17.6135C8.42954 17.569 8.25121 17.5244 8.07289 17.5244L6.28961 16.9894L7.00292 15.3845L8.07289 15.5628C8.60787 15.5628 8.7862 15.3845 8.7862 15.2061L9.67784 11.4612L10.3911 8.78633C10.3911 8.42968 10.2128 8.07302 9.67784 7.89469L8.60787 7.71637L9.14285 6.11142L11.1045 6.6464C11.2828 6.6464 11.4165 6.69098 11.5503 6.73556C11.684 6.78015 11.8178 6.82473 11.9961 6.82473L12.5311 4.50647L13.9577 5.04145L13.4227 7.35971C13.601 7.44887 13.7794 7.49346 13.9577 7.53804C14.136 7.58262 14.3144 7.6272 14.4927 7.71637L15.0277 5.39811L16.4543 5.75476L15.9193 8.07302ZM11.1045 16.2762C12.1745 16.6328 15.206 17.5245 15.5627 15.7412C16.0161 14.2299 13.7798 13.6152 12.4359 13.2457C12.194 13.1792 11.981 13.1207 11.8178 13.0663L11.1045 16.2762ZM15.9193 11.1048C15.6118 12.4884 13.714 12.0165 12.6251 11.7458L12.625 11.7458C12.4508 11.7025 12.2973 11.6643 12.1744 11.6397L12.8877 8.7865C13.0585 8.85482 13.2947 8.92313 13.5613 9.00022L13.5613 9.00023C14.6863 9.3256 16.3518 9.80725 15.9193 11.1048Z" fill="#FFC328"/>
<path fill-rule="evenodd" clip-rule="evenodd" d="M40.8851 8.42949C40.1718 8.07284 39.2802 7.89451 38.2102 7.89451C37.6752 7.89451 37.3186 7.89451 36.7836 8.07284C36.6052 8.162 36.3823 8.25116 36.1594 8.34033C35.9365 8.42949 35.7136 8.51866 35.5353 8.60782L37.4969 0.0480957L32.3254 1.11806L26.6189 25.014C27.1539 25.3706 27.8672 25.5489 28.5805 25.7273L28.5805 25.7273C28.9372 25.8164 29.2492 25.861 29.5613 25.9056C29.8734 25.9502 30.1854 25.9948 30.5421 26.0839C31.2554 26.2623 31.7904 26.2623 32.3254 26.2623H33.3953C35.0003 26.2623 36.4269 25.9056 37.6752 25.3706C38.9235 24.8356 40.1718 24.1223 41.0634 23.0524C42.1334 21.9824 42.8467 20.9124 43.3817 19.4858C43.9167 18.2375 44.2733 16.8109 44.2733 15.2059C44.2733 14.136 44.095 13.2443 43.9167 12.3527C43.7383 11.4611 43.3817 10.7478 42.8467 10.0344C42.3117 9.32113 41.5984 8.78615 40.8851 8.42949ZM36.0703 21.4476C35.3569 21.8042 34.6436 21.9826 33.9303 21.9826H33.3953H33.0387H32.682H32.3254L34.287 12.8879C34.822 12.5312 35.1786 12.3529 35.7136 12.1745C36.2486 11.9962 36.6052 11.9962 36.9619 11.9962C37.8535 11.9962 38.5668 12.3529 38.9235 12.8879C39.2802 13.4228 39.4585 14.3145 39.4585 15.3844C39.4585 16.2761 39.4585 17.1677 39.1018 17.881C38.7452 18.7727 38.3885 19.3076 37.8535 20.021C37.3186 20.5559 36.7836 21.0909 36.0703 21.4476Z" fill="white"/>
<path fill-rule="evenodd" clip-rule="evenodd" d="M50.3366 5.57618C50.8716 5.93283 51.4066 6.11116 52.1199 6.11116C52.4766 6.11116 53.0116 6.11116 53.3682 5.93283C53.7249 5.75451 54.0815 5.57618 54.4382 5.21952C54.7948 4.86287 54.9732 4.50621 55.1515 4.14956C55.3298 3.7929 55.5081 3.43625 55.5081 2.90127C55.5081 2.18796 55.1515 1.47465 54.6165 1.11799C54.0815 0.761335 53.5465 0.583008 52.8332 0.583008C52.4766 0.583008 51.9416 0.583008 51.5849 0.761335C51.2283 0.939663 50.8716 1.11799 50.515 1.47465C50.1583 1.8313 49.98 2.18796 49.8017 2.54461C49.6233 2.90127 49.445 3.25792 49.445 3.7929C49.445 4.50621 49.8017 5.21952 50.3366 5.57618ZM44.8083 25.549H49.6232L53.9031 8.25122H48.9099L44.8083 25.549Z" fill="white"/>
<path d="M58.1829 3.97124L63.3544 3.25793L62.1061 8.42943H67.6342L66.5643 12.531H61.0361L59.6095 18.4158C59.4312 18.9508 59.4312 19.3074 59.4312 19.8424C59.4312 20.1991 59.4312 20.734 59.6095 20.9124C59.7878 21.269 59.9661 21.4473 60.3228 21.6257C60.6795 21.804 61.2144 21.804 61.7494 21.804C62.2844 21.804 62.8194 21.804 63.3544 21.6257C63.8893 21.4473 64.4243 21.4473 64.781 21.269L65.1376 25.0139C64.4243 25.1922 63.711 25.5489 62.9977 25.7272C62.2844 25.9055 61.3928 25.9055 60.3228 25.9055C58.7179 25.9055 57.6479 25.7272 56.7562 25.1922C55.8646 24.6572 55.3296 24.1223 54.973 23.409C54.6163 22.6956 54.438 21.804 54.438 20.734C54.438 19.6641 54.6163 18.5941 54.973 17.5241L58.1829 3.97124Z" fill="white"/>
<path d="M67.2776 18.7724C67.2776 17.3458 67.4559 15.9192 67.9909 14.4925C68.5259 13.2442 69.2392 11.9959 70.1308 11.1043C71.0225 10.0343 72.0924 9.32103 73.3407 8.78605C74.589 8.25106 76.0156 7.89441 77.6206 7.89441C78.6906 7.89441 79.5822 8.07274 80.2955 8.25106C81.0088 8.42939 81.7221 8.60772 82.4354 8.96437L80.8305 12.7093C80.4738 12.5309 79.9388 12.3526 79.4039 12.1743C78.8689 11.9959 78.3339 11.9959 77.6206 11.9959C76.0156 11.9959 74.7673 12.5309 73.6974 13.6009C72.8057 14.6709 72.2708 16.2758 72.2708 18.0591C72.2708 19.129 72.4491 20.0207 72.9841 20.734C73.5191 21.4473 74.4107 21.804 75.659 21.804C76.3723 21.804 76.9073 21.804 77.4423 21.6256C77.9772 21.4473 78.5122 21.269 79.0472 21.0907L79.4039 25.0139C78.8689 25.1922 78.1556 25.5488 77.4423 25.7272C76.7289 25.9055 75.8373 26.0838 74.7673 26.0838C73.3407 26.0838 72.2708 25.9055 71.3791 25.5488C70.4875 25.1922 69.5958 24.6572 69.0609 23.9439C68.5259 23.2306 67.9909 22.5173 67.8126 21.6256C67.4559 20.5557 67.2776 19.664 67.2776 18.7724Z" fill="white"/>
<path fill-rule="evenodd" clip-rule="evenodd" d="M85.8237 25.5491C86.7154 25.9057 87.607 26.0841 88.8553 26.0841C90.4603 26.0841 91.8869 25.7274 93.1352 25.0141C94.3835 24.3008 95.2751 23.4091 96.1667 22.3392C96.88 21.2692 97.5934 20.0209 97.95 18.7726C98.485 17.5243 98.6633 16.0977 98.6633 14.8494C98.6633 13.7794 98.6633 12.8878 98.3067 11.9962C98.1283 11.1045 97.5934 10.3912 97.0584 9.67791C96.5234 9.14293 95.8101 8.60795 94.9184 8.25129C94.0268 7.89464 92.9568 7.71631 91.8869 7.71631C90.4603 7.71631 89.0336 8.07296 87.7853 8.78627C86.537 9.49958 85.6454 10.3912 84.7538 11.4612C83.8621 12.5312 83.1488 13.7794 82.7922 15.0277C82.2572 16.276 82.0789 17.7027 82.0789 18.9509C82.0789 20.0209 82.0789 20.9126 82.4355 21.8042C82.6138 22.6958 83.1488 23.4091 83.6838 24.1224C84.2188 24.6574 84.9321 25.1924 85.8237 25.5491ZM89.3902 12.7094C89.9252 12.1744 90.6385 11.9961 91.3519 11.9961C92.2435 11.9961 92.9568 12.3527 93.3135 12.8877C93.6701 13.4227 93.8484 14.3144 93.8484 15.3843C93.8484 16.0976 93.6701 16.8109 93.4918 17.5242L93.4918 17.5242C93.3499 18.2338 93.095 18.7175 92.8171 19.245C92.7458 19.3803 92.673 19.5185 92.6001 19.6642C92.2435 20.3775 91.7085 20.9125 91.1735 21.2691C90.6385 21.8041 89.9252 21.9824 89.2119 21.9824C88.3203 21.9824 87.607 21.6258 87.2503 21.0908C86.8937 20.5558 86.7153 19.6642 86.7153 18.5942C86.7153 17.8809 86.8937 17.1676 87.072 16.4543C87.2139 15.7447 87.4688 15.261 87.7467 14.7335C87.818 14.5982 87.8908 14.46 87.9636 14.3144C88.3203 13.601 88.8553 13.0661 89.3902 12.7094Z" fill="white"/>
<path fill-rule="evenodd" clip-rule="evenodd" d="M104.548 5.57618C105.083 5.93283 105.618 6.11116 106.331 6.11116C106.866 6.11116 107.223 6.11116 107.58 5.93283C107.936 5.75451 108.293 5.57618 108.65 5.21952C109.006 4.86287 109.185 4.50621 109.363 4.14956C109.541 3.7929 109.72 3.43625 109.72 2.90127C109.72 2.18796 109.363 1.47465 108.828 1.11799C108.293 0.761335 107.758 0.583008 107.045 0.583008C106.688 0.583008 106.153 0.583008 105.796 0.761335C105.44 0.939663 105.083 1.11799 104.726 1.47465C104.37 1.8313 104.191 2.18796 104.013 2.54461C103.835 2.90127 103.656 3.25792 103.656 3.7929C103.656 4.50621 104.013 5.21952 104.548 5.57618ZM99.1982 25.549H104.013L108.293 8.25122H103.3L99.1982 25.549Z" fill="white"/>
<path d="M111.681 9.1427C112.038 8.96437 112.394 8.96437 112.929 8.78605C113.464 8.60772 113.821 8.42939 114.534 8.42939C115.069 8.25106 115.783 8.25106 116.496 8.07274C117.209 8.07274 117.923 7.89441 118.814 7.89441C121.311 7.89441 123.094 8.60772 124.164 10.2127C125.056 11.6393 125.234 13.7792 124.699 16.2758L122.202 25.5488H117.209L119.349 16.4541C119.528 15.9192 119.528 15.3842 119.706 14.8492C119.706 14.3142 119.706 13.7792 119.706 13.4226C119.706 13.0659 119.349 12.7093 119.171 12.3526C118.814 12.1743 118.279 11.9959 117.744 11.9959C117.031 11.9959 116.496 11.9959 115.783 12.1743L112.573 25.5488H107.58C107.758 25.5488 111.681 9.1427 111.681 9.1427Z" fill="white"/>
</svg>
