<svg width="130" height="35" viewBox="0 0 130 35" fill="none" xmlns="http://www.w3.org/2000/svg">
<path d="M18.0332 34.6793C27.9927 34.6793 36.0665 26.9161 36.0665 17.3396C36.0665 7.76322 27.9927 0 18.0332 0C8.07375 0 0 7.76322 0 17.3396C0 26.9161 8.07375 34.6793 18.0332 34.6793Z" fill="#26A17B"/>
<path d="M19.9815 19.4972V19.4944C19.8607 19.5028 19.237 19.5393 17.8492 19.5393C16.7395 19.5393 15.9613 19.5084 15.686 19.4944V19.4972C11.4187 19.309 8.23572 18.5673 8.23572 17.6768C8.23572 16.789 11.4215 16.0445 15.686 15.8563V18.7583C15.9642 18.778 16.7648 18.8258 17.8689 18.8258C19.1949 18.8258 19.8579 18.7696 19.9815 18.7583V15.8591C24.2404 16.0502 27.4149 16.7918 27.4149 17.6796C27.4149 18.5673 24.2376 19.309 19.9815 19.5V19.4972ZM19.9815 15.5585V12.9627H25.9232V9.00439H9.74713V12.9627H15.6888V15.5585C10.8596 15.7805 7.22998 16.7356 7.22998 17.8818C7.22998 19.028 10.8624 19.9832 15.6888 20.208V28.5292H19.9843V20.208C24.8051 19.986 28.4291 19.0309 28.4291 17.8846C28.4291 16.7413 24.8051 15.7833 19.9843 15.5613" fill="white"/>
<path d="M50.7754 10.472V14.5564H54.8369V17.6211H50.7474V23.8352C50.7474 25.2076 51.5222 25.8774 52.6579 25.8774C53.2257 25.8774 53.883 25.7024 54.4201 25.44L55.4355 28.4746C54.3921 28.8819 53.525 29.0569 52.4201 29.087C49.2257 29.2045 47.1362 27.4248 47.1362 23.8352V17.6211H44.3894V14.5564H47.1362V10.852L50.7754 10.472ZM120.797 14.365L121.066 16.0272C122.201 14.2474 123.723 13.985 125.217 13.985C126.738 13.985 128.201 14.5673 129.007 15.3547L127.365 18.4467C126.618 17.8343 125.933 17.5117 124.738 17.5117C122.828 17.5117 121.066 18.5041 121.066 21.1587V28.7452H117.424V14.3595L120.797 14.365ZM111.871 19.8792C111.634 18.012 110.14 17.077 108.05 17.077C106.081 17.077 104.467 18.012 103.93 19.8792H111.871ZM103.871 22.8264C104.109 24.6061 105.692 25.891 108.26 25.891C109.603 25.891 111.365 25.3935 112.201 24.5487L114.529 26.796C112.976 28.3707 110.439 29.1307 108.199 29.1307C103.125 29.1307 100.106 26.066 100.106 21.4567C100.106 17.0797 103.153 13.9276 107.93 13.9276C112.856 13.9276 115.933 16.9048 115.365 22.8264H103.871ZM87.81 8.32312V16.317C89.1247 14.6548 90.7359 14.1572 92.4086 14.1572C96.5876 14.1572 98.4393 16.9294 98.4393 21.1614V28.748H94.7974V21.1915C94.7974 18.5642 93.3932 17.457 91.4519 17.457C89.3009 17.457 87.81 19.2368 87.81 21.3965V28.7507H84.1681V8.32585L87.81 8.32312ZM78.1374 10.3079V14.3923H82.1989V17.457H78.1094V23.6711C78.1094 25.0435 78.887 25.7133 80.0199 25.7133C80.5877 25.7133 81.245 25.5384 81.7821 25.2759L82.7975 28.3105C81.7541 28.7179 80.887 28.8928 79.7821 28.9229C76.5877 29.0405 74.4982 27.258 74.4982 23.6711V17.457H71.7514V14.3923H74.4982V10.6879L78.1374 10.3079ZM68.0759 19.8792C67.8382 18.012 66.3445 17.077 64.255 17.077C62.2858 17.077 60.6718 18.012 60.1347 19.8792H68.0759ZM60.076 22.8264C60.3137 24.6061 61.8969 25.891 64.4648 25.891C65.8074 25.891 67.5696 25.3935 68.406 24.5487L70.7332 26.796C69.1808 28.3707 66.6438 29.1307 64.4032 29.1307C59.3263 29.1307 56.311 26.066 56.311 21.4567C56.311 17.0797 59.3571 13.9276 64.1319 13.9276C69.0577 13.9276 72.1318 16.9048 71.5668 22.8264H60.076Z" fill="white"/>
</svg>
