<svg width="181" height="37" viewBox="0 0 181 37" fill="none" xmlns="http://www.w3.org/2000/svg">
<path d="M10.7846 18.0335C10.7442 18.7356 10.9845 19.4251 11.4526 19.9503C11.9206 20.4756 12.5782 20.7936 13.2809 20.8347H13.4257C13.9431 20.8341 14.4491 20.6821 14.8811 20.3975C15.3132 20.1129 15.6524 19.7081 15.8569 19.2331C16.0613 18.7581 16.1221 18.2337 16.0318 17.7245C15.9414 17.2154 15.7039 16.7438 15.3484 16.368C14.9929 15.9922 14.5351 15.7287 14.0315 15.6099C13.5279 15.4911 13.0005 15.5222 12.5143 15.6995C12.0282 15.8768 11.6047 16.1924 11.296 16.6074C10.9873 17.0224 10.807 17.5187 10.7773 18.0349L10.7846 18.0335Z" fill="white"/>
<path d="M0.903562 17.3622C0.734632 17.3527 0.56669 17.3935 0.420961 17.4794C0.275232 17.5653 0.158256 17.6925 0.0848164 17.8448C0.0113768 17.9971 -0.0152304 18.1677 0.00835756 18.3352C0.0319455 18.5026 0.10467 18.6593 0.21734 18.7854C0.33001 18.9115 0.477568 19.0014 0.641367 19.0438C0.805166 19.0862 0.977854 19.079 1.13761 19.0233C1.29736 18.9677 1.43701 18.8659 1.5389 18.7309C1.64079 18.596 1.70036 18.4338 1.71007 18.265C1.71672 18.1528 1.70111 18.0403 1.66413 17.9341C1.62715 17.8279 1.56954 17.73 1.49459 17.6461C1.41965 17.5622 1.32886 17.4939 1.22743 17.4452C1.126 17.3965 1.01594 17.3683 0.903562 17.3622Z" fill="white"/>
<path d="M10.6164 2.66612C10.7669 2.58892 10.8911 2.46896 10.9735 2.32135C11.0559 2.17374 11.0927 2.00508 11.0794 1.8366C11.066 1.66812 11.0031 1.50734 10.8985 1.37452C10.794 1.24169 10.6524 1.14275 10.4917 1.09015C10.3309 1.03755 10.1582 1.03364 9.99525 1.07891C9.8323 1.12418 9.68639 1.21661 9.57589 1.34457C9.4654 1.47253 9.39525 1.63029 9.37429 1.79799C9.35332 1.9657 9.38248 2.13585 9.45808 2.28704C9.5089 2.38823 9.57926 2.47838 9.66511 2.55228C9.75095 2.62617 9.85059 2.68236 9.95827 2.7176C10.0659 2.75284 10.1795 2.76643 10.2925 2.7576C10.4055 2.74876 10.5156 2.71767 10.6164 2.66612Z" fill="white"/>
<path d="M13.3052 7.35096C13.5389 7.23318 13.7324 7.04882 13.8612 6.82118C13.99 6.59354 14.0484 6.33284 14.029 6.07205C14.0095 5.81126 13.9131 5.56207 13.752 5.356C13.5909 5.14993 13.3722 4.99623 13.1237 4.91432C12.8751 4.83241 12.6079 4.82597 12.3557 4.89583C12.1035 4.96568 11.8777 5.10868 11.7068 5.30676C11.5359 5.50483 11.4276 5.74909 11.3957 6.00864C11.3637 6.2682 11.4094 6.5314 11.5271 6.76498C11.6053 6.92016 11.7134 7.05843 11.8451 7.17187C11.9768 7.28532 12.1295 7.37172 12.2947 7.42614C12.4598 7.48056 12.634 7.50193 12.8074 7.48903C12.9808 7.47613 13.15 7.42922 13.3052 7.35096Z" fill="white"/>
<path d="M4.25687 10.5734C4.4371 10.6919 4.64844 10.7542 4.86414 10.7526C5.07984 10.751 5.29022 10.6854 5.46864 10.5643C5.64707 10.4432 5.78553 10.2719 5.86651 10.0721C5.94749 9.87232 5.96734 9.65303 5.92355 9.44197C5.87977 9.2309 5.77432 9.03756 5.62054 8.88641C5.46676 8.73525 5.27157 8.63307 5.05966 8.5928C4.84775 8.55252 4.62864 8.57596 4.43007 8.66016C4.2315 8.74435 4.06238 8.88551 3.94411 9.06577C3.78572 9.3072 3.72969 9.60158 3.78833 9.88426C3.84697 10.1669 4.01548 10.4148 4.25687 10.5734Z" fill="white"/>
<path d="M5.8687 16.8803C5.60742 16.8655 5.34764 16.9285 5.12219 17.0613C4.89674 17.1941 4.71574 17.3907 4.60207 17.6262C4.4884 17.8617 4.44717 18.1257 4.48358 18.3846C4.51999 18.6436 4.63241 18.8859 4.80663 19.0811C4.98085 19.2762 5.20905 19.4153 5.46239 19.4809C5.71572 19.5464 5.98282 19.5354 6.22992 19.4493C6.47701 19.3632 6.69302 19.2058 6.85063 18.9971C7.00823 18.7883 7.10037 18.5376 7.11539 18.2765C7.13515 17.9262 7.01495 17.5824 6.78119 17.3206C6.54743 17.0588 6.21924 16.9004 5.8687 16.8803Z" fill="white"/>
<path d="M4.40174 25.7715C4.20931 25.8687 4.05004 26.0207 3.94406 26.2083C3.83807 26.396 3.79013 26.6108 3.80629 26.8256C3.82245 27.0404 3.90199 27.2457 4.03486 27.4153C4.16772 27.585 4.34794 27.7115 4.55274 27.7788C4.75754 27.8462 4.97772 27.8513 5.18545 27.7936C5.39318 27.736 5.57914 27.618 5.71981 27.4548C5.86048 27.2915 5.94955 27.0902 5.97576 26.8764C6.00197 26.6625 5.96415 26.4457 5.86707 26.2534C5.80256 26.1255 5.71348 26.0117 5.60491 25.9183C5.49634 25.8249 5.37041 25.7538 5.23433 25.709C5.09824 25.6643 4.95467 25.6468 4.8118 25.6575C4.66894 25.6682 4.5296 25.707 4.40174 25.7715Z" fill="white"/>
<path d="M9.54636 14.1472C9.80408 14.316 10.1061 14.4046 10.4142 14.4018C10.7223 14.3991 11.0227 14.3051 11.2774 14.1318C11.532 13.9585 11.7296 13.7136 11.845 13.4281C11.9604 13.1427 11.9885 12.8294 11.9257 12.5279C11.8629 12.2265 11.7121 11.9504 11.4924 11.7346C11.2726 11.5188 10.9937 11.373 10.691 11.3155C10.3883 11.2581 10.0753 11.2916 9.79167 11.4119C9.50804 11.5322 9.26646 11.7339 9.0975 11.9913C8.98509 12.1623 8.90753 12.3537 8.86925 12.5546C8.83098 12.7555 8.83274 12.962 8.87443 13.1623C8.91612 13.3625 8.99693 13.5526 9.11223 13.7216C9.22753 13.8906 9.37506 14.0352 9.54636 14.1472Z" fill="white"/>
<path d="M25.8677 7.24709C26.0872 7.39011 26.3441 7.46492 26.6061 7.46205C26.868 7.45919 27.1233 7.37878 27.3395 7.23099C27.5557 7.0832 27.7233 6.87466 27.8209 6.63174C27.9186 6.38882 27.942 6.12242 27.8882 5.86622C27.8343 5.61001 27.7057 5.37551 27.5185 5.19234C27.3313 5.00918 27.094 4.88558 26.8366 4.83717C26.5791 4.78875 26.313 4.8177 26.072 4.92036C25.831 5.02301 25.6259 5.19475 25.4826 5.41388C25.3871 5.55944 25.3214 5.72238 25.2891 5.89338C25.2568 6.06438 25.2586 6.24007 25.2943 6.41037C25.3301 6.58068 25.3992 6.74225 25.4976 6.88583C25.596 7.02941 25.7218 7.15217 25.8677 7.24709Z" fill="white"/>
<path d="M28.584 2.57635C28.7259 2.66925 28.8921 2.71802 29.0617 2.7165C29.2312 2.71497 29.3966 2.66322 29.5367 2.56779C29.6768 2.47236 29.7855 2.33753 29.8489 2.18037C29.9124 2.02322 29.9277 1.85079 29.8931 1.68491C29.8584 1.51903 29.7753 1.36715 29.6542 1.24848C29.5331 1.12982 29.3796 1.0497 29.2129 1.01828C29.0463 0.98685 28.8741 1.00552 28.718 1.07193C28.562 1.13834 28.4292 1.2495 28.3364 1.39135C28.2122 1.58134 28.1685 1.81286 28.2149 2.03504C28.2613 2.25723 28.3941 2.45191 28.584 2.57635Z" fill="white"/>
<path d="M26.076 15.5133C25.7285 15.4933 25.3805 15.542 25.0518 15.6564C24.7231 15.7709 24.4202 15.9489 24.1603 16.1803C23.6356 16.6477 23.3181 17.3043 23.2778 18.0055C23.2375 18.7068 23.4776 19.3954 23.9453 19.9197C24.4131 20.4441 25.0701 20.7613 25.7719 20.8016C25.8226 20.8016 25.8747 20.8016 25.9254 20.8016C26.4366 20.8014 26.9369 20.6534 27.3658 20.3754C27.7948 20.0974 28.1341 19.7014 28.3429 19.2351C28.5516 18.7688 28.6209 18.252 28.5424 17.7472C28.4639 17.2424 28.241 16.7711 27.9004 16.3901C27.6698 16.1302 27.3897 15.9189 27.0764 15.7683C26.7632 15.6178 26.4231 15.5311 26.076 15.5133Z" fill="white"/>
<path d="M14.1758 13.9635C14.3957 14.4027 14.734 14.7717 15.1525 15.0291C15.571 15.2866 16.0532 15.4221 16.5446 15.4205C16.9977 15.4206 17.4432 15.3047 17.8387 15.0838C18.2342 14.8629 18.5665 14.5444 18.8038 14.1587C19.041 13.773 19.1754 13.333 19.1941 12.8806C19.2128 12.4283 19.1152 11.9787 18.9106 11.5747C18.6891 11.1376 18.3501 10.7707 17.9317 10.5152C17.5134 10.2596 17.0321 10.1255 16.5417 10.1278C16.09 10.1286 15.646 10.2447 15.2518 10.465C14.8576 10.6854 14.5263 11.0028 14.2893 11.387C14.0523 11.7712 13.9175 12.2096 13.8976 12.6605C13.8777 13.1114 13.9735 13.56 14.1758 13.9635Z" fill="white"/>
<path d="M34.9536 10.5706C35.1461 10.4735 35.3054 10.3217 35.4115 10.1341C35.5176 9.94663 35.5657 9.73189 35.5497 9.51707C35.5337 9.30225 35.4543 9.09699 35.3216 8.92723C35.1889 8.75747 35.0088 8.63083 34.8041 8.56331C34.5994 8.4958 34.3792 8.49044 34.1715 8.54792C33.9637 8.60539 33.7777 8.72312 33.6368 8.88622C33.496 9.04932 33.4068 9.25048 33.3803 9.46427C33.3539 9.67806 33.3914 9.89488 33.4883 10.0873C33.6186 10.3455 33.8461 10.5414 34.1209 10.632C34.3956 10.7226 34.6951 10.7005 34.9536 10.5706Z" fill="white"/>
<path d="M28.2337 11.414C27.9584 11.5525 27.7305 11.7694 27.5787 12.0374C27.4269 12.3053 27.358 12.6122 27.3807 12.9193C27.4035 13.2264 27.5168 13.5198 27.7064 13.7625C27.8961 14.0052 28.1535 14.1863 28.4461 14.2828C28.7387 14.3793 29.0534 14.387 29.3503 14.3048C29.6473 14.2226 29.9132 14.0542 30.1144 13.821C30.3157 13.5878 30.4431 13.3002 30.4808 12.9946C30.5184 12.689 30.4646 12.3791 30.326 12.1041C30.2341 11.9214 30.107 11.7586 29.9521 11.625C29.7972 11.4913 29.6174 11.3896 29.423 11.3255C29.2287 11.2614 29.0236 11.2362 28.8195 11.2514C28.6154 11.2665 28.4164 11.3218 28.2337 11.414Z" fill="white"/>
<path d="M19.5776 2.17725C19.793 2.1895 20.0071 2.13766 20.1929 2.02829C20.3788 1.91892 20.528 1.75693 20.6217 1.5628C20.7154 1.36868 20.7493 1.15115 20.7193 0.937734C20.6893 0.724315 20.5965 0.524594 20.4529 0.363837C20.3092 0.203079 20.1211 0.088507 19.9123 0.0346137C19.7034 -0.0192797 19.4833 -0.0100729 19.2797 0.0610694C19.0761 0.132212 18.8982 0.262093 18.7685 0.434284C18.6388 0.606474 18.5631 0.813238 18.551 1.02842C18.5348 1.31677 18.6339 1.59975 18.8264 1.81517C19.0189 2.03059 19.2891 2.16082 19.5776 2.17725Z" fill="white"/>
<path d="M19.5662 9.03386C19.8737 9.05109 20.1795 8.97683 20.4449 8.82045C20.7102 8.66407 20.9232 8.4326 21.0569 8.15529C21.1907 7.87798 21.2391 7.56728 21.1962 7.26246C21.1532 6.95764 21.0208 6.67238 20.8157 6.44273C20.6106 6.21309 20.3419 6.04936 20.0437 5.97225C19.7454 5.89514 19.431 5.9081 19.1402 6.0095C18.8493 6.1109 18.5951 6.29618 18.4095 6.54194C18.224 6.78769 18.1156 7.08288 18.0979 7.3902C18.0746 7.80269 18.2162 8.20756 18.4915 8.51578C18.7668 8.824 19.1534 9.01035 19.5662 9.03386Z" fill="white"/>
<path d="M11.1246 24.9265C11.3998 24.7879 11.6277 24.5708 11.7794 24.3028C11.9311 24.0347 11.9998 23.7277 11.9769 23.4207C11.954 23.1136 11.8405 22.8202 11.6507 22.5775C11.4609 22.3349 11.2034 22.154 10.9107 22.0577C10.618 21.9613 10.3033 21.9539 10.0063 22.0363C9.70941 22.1187 9.4436 22.2872 9.24253 22.5206C9.04147 22.7539 8.91418 23.0417 8.87676 23.3473C8.83935 23.653 8.89349 23.9629 9.03233 24.2378C9.21846 24.6063 9.54342 24.8859 9.93578 25.015C10.3281 25.1442 10.7558 25.1123 11.1246 24.9265Z" fill="white"/>
<path d="M20.5726 11.3058C20.2495 11.7986 20.1 12.385 20.1479 12.9721C20.1958 13.5593 20.4383 14.1138 20.837 14.5477C21.2357 14.9817 21.7679 15.2704 22.3493 15.3682C22.9307 15.4659 23.5281 15.3671 24.047 15.0874C24.5659 14.8077 24.9766 14.363 25.2141 13.8238C25.4516 13.2846 25.5024 12.6817 25.3585 12.1104C25.2145 11.5391 24.8839 11.0321 24.4191 10.6697C23.9544 10.3072 23.3819 10.11 22.7923 10.1093C22.352 10.1089 21.9186 10.2182 21.531 10.4271C21.1435 10.636 20.8141 10.938 20.5726 11.3058Z" fill="white"/>
<path d="M25.1798 22.3785C24.9675 21.9579 24.6467 21.6014 24.2505 21.346C23.8544 21.0905 23.3972 20.9453 22.9261 20.9254C22.4551 20.9054 21.9872 21.0114 21.5708 21.2324C21.1544 21.4534 20.8046 21.7814 20.5574 22.1826C20.3102 22.5838 20.1747 23.0436 20.1647 23.5146C20.1547 23.9857 20.2706 24.4508 20.5006 24.8621C20.7305 25.2734 21.0661 25.616 21.4727 25.8544C21.8794 26.0929 22.3423 26.2186 22.8138 26.2186C23.2286 26.2157 23.637 26.1167 24.0069 25.9292C24.6326 25.6127 25.1073 25.0614 25.3272 24.3959C25.547 23.7304 25.494 23.005 25.1798 22.3785Z" fill="white"/>
<path d="M29.8105 22.1931C29.5529 22.0241 29.2509 21.9353 28.9428 21.9378C28.6347 21.9403 28.3342 22.0341 28.0794 22.2072C27.8246 22.3803 27.6269 22.6251 27.5113 22.9105C27.3957 23.196 27.3673 23.5092 27.4299 23.8107C27.4925 24.1122 27.6431 24.3884 27.8628 24.6044C28.0824 24.8203 28.3612 24.9663 28.6639 25.0239C28.9666 25.0816 29.2796 25.0482 29.5634 24.928C29.8471 24.8079 30.0888 24.6064 30.2579 24.349C30.4839 24.0036 30.5637 23.5828 30.4798 23.1787C30.396 22.7746 30.1553 22.4202 29.8105 22.1931Z" fill="white"/>
<path d="M34.884 18.2159C34.8988 17.9548 34.8357 17.6953 34.7028 17.47C34.57 17.2447 34.3733 17.0638 34.1375 16.9502C33.9018 16.8367 33.6377 16.7955 33.3786 16.8318C33.1194 16.8682 32.8769 16.9806 32.6816 17.1546C32.4863 17.3287 32.3471 17.5568 32.2815 17.8099C32.2159 18.0631 32.2269 18.33 32.3131 18.5769C32.3992 18.8238 32.5567 19.0396 32.7656 19.1971C32.9745 19.3546 33.2255 19.4467 33.4867 19.4617C33.8373 19.4814 34.1814 19.3613 34.4434 19.1278C34.7054 18.8942 34.8639 18.5662 34.884 18.2159Z" fill="white"/>
<path d="M38.5505 17.2739C38.3812 17.2641 38.2129 17.3048 38.0667 17.3906C37.9206 17.4765 37.8032 17.6038 37.7294 17.7563C37.6557 17.9088 37.6288 18.0798 37.6523 18.2476C37.6758 18.4154 37.7485 18.5724 37.8613 18.6989C37.9741 18.8254 38.1219 18.9156 38.286 18.9581C38.4501 19.0007 38.6232 18.9936 38.7833 18.9379C38.9434 18.8821 39.0833 18.7802 39.1854 18.645C39.2876 18.5098 39.3473 18.3473 39.357 18.1782C39.3697 17.9515 39.2919 17.729 39.1407 17.5595C38.9896 17.39 38.7773 17.2873 38.5505 17.2739Z" fill="white"/>
<path d="M35.0983 25.767C34.918 25.6489 34.7066 25.587 34.491 25.5889C34.2755 25.5909 34.0653 25.6567 33.8871 25.778C33.7089 25.8993 33.5707 26.0706 33.49 26.2704C33.4092 26.4702 33.3896 26.6894 33.4335 26.9003C33.4774 27.1112 33.5829 27.3044 33.7367 27.4554C33.8905 27.6064 34.0856 27.7085 34.2974 27.7487C34.5092 27.7889 34.7282 27.7655 34.9267 27.6814C35.1252 27.5972 35.2943 27.4562 35.4125 27.2761C35.4911 27.1564 35.5454 27.0224 35.5721 26.8818C35.5988 26.7411 35.5976 26.5966 35.5684 26.4564C35.5392 26.3163 35.4827 26.1833 35.402 26.065C35.3214 25.9467 35.2182 25.8454 35.0983 25.767Z" fill="white"/>
<path d="M10.7728 33.7642C10.631 33.6713 10.4649 33.6224 10.2954 33.6238C10.1259 33.6252 9.96061 33.6768 9.82044 33.7721C9.68027 33.8673 9.57151 34.002 9.50792 34.159C9.44432 34.316 9.42875 34.4884 9.46316 34.6542C9.49757 34.8201 9.58043 34.972 9.70125 35.0908C9.82207 35.2097 9.97544 35.29 10.142 35.3217C10.3085 35.3535 10.4807 35.3351 10.6368 35.2691C10.7929 35.203 10.9258 35.0922 11.0189 34.9506C11.0808 34.8566 11.1234 34.7513 11.1445 34.6408C11.1656 34.5302 11.1647 34.4166 11.1418 34.3065C11.119 34.1963 11.0746 34.0917 11.0113 33.9986C10.948 33.9056 10.8669 33.8259 10.7728 33.7642Z" fill="white"/>
<path d="M28.739 33.6742C28.5876 33.7504 28.4622 33.8699 28.3787 34.0173C28.2952 34.1648 28.2574 34.3337 28.2699 34.5026C28.2825 34.6716 28.345 34.833 28.4494 34.9665C28.5538 35.1 28.6954 35.1996 28.8565 35.2526C29.0175 35.3056 29.1906 35.3097 29.354 35.2644C29.5174 35.2191 29.6636 35.1264 29.7743 34.998C29.8849 34.8697 29.955 34.7114 29.9756 34.5432C29.9962 34.375 29.9664 34.2045 29.8901 34.0533C29.8395 33.9527 29.7696 33.8632 29.6844 33.7897C29.5991 33.7162 29.5002 33.6602 29.3933 33.625C29.2863 33.5898 29.1735 33.576 29.0612 33.5844C28.9489 33.5929 28.8394 33.6234 28.739 33.6742Z" fill="white"/>
<path d="M18.7828 25.0305C19.106 24.5377 19.2554 23.9513 19.2075 23.3641C19.1596 22.7768 18.917 22.2223 18.5182 21.7884C18.1193 21.3544 17.5871 21.0658 17.0056 20.9681C16.4241 20.8705 15.8267 20.9694 15.3078 21.2493C14.789 21.5292 14.3783 21.974 14.141 22.5134C13.9036 23.0527 13.853 23.6557 13.9973 24.227C14.1415 24.7983 14.4723 25.3052 14.9373 25.6675C15.4023 26.0297 15.9749 26.2267 16.5646 26.2271C17.0049 26.2286 17.4386 26.1199 17.8261 25.9109C18.2135 25.7019 18.5425 25.3992 18.7828 25.0305Z" fill="white"/>
<path d="M13.4876 29.095C13.2687 28.9519 13.0121 28.8768 12.7504 28.8793C12.4887 28.8818 12.2337 28.9618 12.0175 29.1092C11.8013 29.2565 11.6336 29.4646 11.5358 29.7071C11.4379 29.9496 11.4141 30.2157 11.4676 30.4717C11.521 30.7277 11.6492 30.9621 11.8359 31.1453C12.0226 31.3285 12.2595 31.4523 12.5166 31.501C12.7737 31.5497 13.0395 31.5212 13.2804 31.419C13.5213 31.3168 13.7264 31.1455 13.8699 30.9268C14.0621 30.6332 14.1298 30.2753 14.0581 29.9319C13.9864 29.5884 13.7813 29.2874 13.4876 29.095Z" fill="white"/>
<path d="M19.6664 34.1634C19.4511 34.1511 19.2371 34.203 19.0513 34.3123C18.8655 34.4216 18.7163 34.5835 18.6225 34.7776C18.5288 34.9716 18.4948 35.189 18.5247 35.4024C18.5547 35.6158 18.6472 35.8155 18.7908 35.9763C18.9343 36.1371 19.1223 36.2518 19.331 36.3058C19.5397 36.3598 19.7598 36.3508 19.9634 36.2799C20.167 36.209 20.345 36.0793 20.4748 35.9074C20.6047 35.7354 20.6806 35.5288 20.693 35.3137C20.7012 35.1708 20.6812 35.0276 20.634 34.8925C20.5869 34.7573 20.5135 34.6328 20.4182 34.526C20.3229 34.4191 20.2074 34.3321 20.0784 34.2699C19.9494 34.2077 19.8094 34.1715 19.6664 34.1634Z" fill="white"/>
<path d="M19.6777 27.3084C19.3698 27.2897 19.0633 27.3627 18.7971 27.5182C18.5308 27.6737 18.3167 27.9047 18.1819 28.1819C18.0471 28.459 17.9976 28.77 18.0398 29.0752C18.0819 29.3805 18.2138 29.6664 18.4187 29.8968C18.6236 30.1271 18.8924 30.2915 19.1908 30.3691C19.4893 30.4467 19.8041 30.434 20.0954 30.3327C20.3866 30.2314 20.6412 30.046 20.827 29.7999C21.0127 29.5539 21.1212 29.2583 21.1386 28.9506C21.1624 28.5394 21.0219 28.1355 20.748 27.8276C20.4741 27.5197 20.0892 27.333 19.6777 27.3084Z" fill="white"/>
<path d="M26.0501 28.9894C25.8163 29.1079 25.623 29.2931 25.4945 29.5215C25.3661 29.7499 25.3084 30.0112 25.3287 30.2724C25.349 30.5336 25.4463 30.7829 25.6085 30.9888C25.7706 31.1946 25.9903 31.3478 26.2396 31.4289C26.4889 31.51 26.7566 31.5153 27.009 31.4443C27.2613 31.3732 27.4869 31.2289 27.6571 31.0297C27.8274 30.8305 27.9346 30.5852 27.9654 30.3251C27.9961 30.0649 27.9488 29.8015 27.8296 29.5681C27.751 29.4132 27.6425 29.2754 27.5104 29.1624C27.3783 29.0495 27.2253 28.9637 27.06 28.91C26.8947 28.8562 26.7204 28.8355 26.5471 28.8492C26.3738 28.8628 26.2049 28.9104 26.0501 28.9894Z" fill="white"/>
<path d="M55.2902 11.9147C57.8559 11.9147 59.6529 13.3239 59.6529 15.9399H63.0136C63.0136 11.3504 59.6268 9.13953 55.2395 9.13953C49.8502 9.13953 46.7197 12.0637 46.7197 18.2433C46.7197 24.5763 49.8502 27.3457 55.2395 27.3457C59.6789 27.3457 63.0136 25.1927 63.0136 20.6017H59.7803C59.7803 23.1656 58.0094 24.5763 55.2916 24.5763C51.7239 24.5763 50.079 22.6013 50.079 18.4994V17.9872C50.0819 13.9649 51.7485 11.9147 55.2902 11.9147Z" fill="white"/>
<path d="M71.8998 9.4519L65.0481 27.0431H68.4363L69.8466 23.2219H77.8987L79.3467 27.0431H82.8884L76.0323 9.4519H71.8998ZM70.8732 20.4482L72.6701 15.6258C73.0292 14.6781 73.6707 12.6264 73.7995 12.2675H73.927C74.0558 12.6264 74.6973 14.7026 75.0564 15.6258L76.8518 20.4468L70.8732 20.4482Z" fill="white"/>
<path d="M101.211 14.7851C101.211 11.5296 99.3369 9.4519 95.4622 9.4519H86.1721V27.0431H89.4575V20.2428H94.9221L98.2524 27.0431H101.845L98.0801 19.7349C100.158 18.9145 101.211 17.171 101.211 14.7851ZM95.2045 17.4778H89.4575V12.2473H95.2045C96.9753 12.2473 97.8991 13.1964 97.8991 14.7851C97.8991 16.4534 96.8986 17.4778 95.2045 17.4778Z" fill="white"/>
<path d="M112.733 9.4519H105.699V27.0431H112.73C118.042 27.0431 121.273 24.2738 121.273 18.2475C121.273 12.2212 118.044 9.4519 112.733 9.4519ZM117.917 18.5036C117.891 22.3509 116.069 24.2477 112.733 24.2477H108.988V12.2473H112.733C116.064 12.2473 117.917 14.1456 117.917 17.9914V18.5036Z" fill="white"/>
<path d="M129.88 9.4519L123.025 27.0431H126.412L127.824 23.2219H135.882L137.318 27.0431H140.86L134.008 9.4519H129.88ZM128.853 20.4482L130.647 15.6258C131.007 14.6781 131.648 12.6264 131.777 12.2675H131.907C132.035 12.6264 132.677 14.7026 133.037 15.6258L134.832 20.4468L128.853 20.4482Z" fill="white"/>
<path d="M155.877 19.9143C155.877 20.2471 155.927 21.1442 155.927 21.299L155.8 21.3496C155.723 21.2484 155.209 20.3498 154.931 19.9404L147.284 9.4519H144.15V27.0431H147.306V16.504C147.306 16.07 147.254 15.2221 147.254 15.0933L147.383 15.0166C147.46 15.1194 147.845 15.8631 148.252 16.4534L155.951 27.0431H159.029V9.4519H155.874V19.9143H155.877Z" fill="white"/>
<path d="M172.114 9.14526C166.597 9.14526 163.261 12.068 163.261 18.2476C163.261 24.4273 166.592 27.35 172.114 27.35C177.637 27.35 180.993 24.4273 180.993 18.2476C180.993 12.068 177.631 9.14526 172.114 9.14526ZM177.631 18.5298C177.631 22.555 175.706 24.5806 172.114 24.5806C168.548 24.5806 166.623 22.555 166.623 18.5298V17.9915C166.623 13.9648 168.574 11.9146 172.114 11.9146C175.682 11.9146 177.631 13.9648 177.631 17.9915V18.5298Z" fill="white"/>
</svg>
