<svg width="131" height="51" viewBox="0 0 131 51" fill="none" xmlns="http://www.w3.org/2000/svg">
<path fill-rule="evenodd" clip-rule="evenodd" d="M46.054 27.3265C46.054 27.5175 45.8629 27.7086 45.6718 27.7086H38.4739C38.665 29.4922 40.0027 31.1484 41.9136 31.1484C43.1876 31.1484 44.1431 30.6388 44.9075 29.6196C44.9712 29.4922 45.0985 29.4285 45.2259 29.4285C45.417 29.4285 45.6081 29.5559 45.6081 29.8107C45.6081 29.8744 45.6081 29.9381 45.5444 30.0018C44.8438 31.2758 43.3787 31.9128 41.9773 31.9128C39.5568 31.9128 37.8369 29.747 37.8369 27.3902C37.8369 25.0333 39.5568 22.8676 41.9773 22.8676C44.3979 22.8676 46.054 24.9696 46.054 27.3265ZM45.2897 26.9441C45.1623 25.1606 43.7609 23.5044 41.8499 23.5044C39.939 23.5044 38.6013 25.1606 38.4102 26.9441H45.2897Z" fill="white"/>
<path d="M38.4739 27.7086V27.2086H37.9175L37.9767 27.7619L38.4739 27.7086ZM44.9075 29.6196L45.3075 29.9196L45.3345 29.8835L45.3547 29.8432L44.9075 29.6196ZM45.5444 30.0018L45.1909 29.6482L45.1406 29.6985L45.1063 29.7608L45.5444 30.0018ZM45.2897 26.9441V27.4441H45.8266L45.7884 26.9085L45.2897 26.9441ZM38.4102 26.9441L37.9131 26.8908L37.8538 27.4441H38.4102V26.9441ZM45.554 27.3265C45.554 27.291 45.5627 27.2669 45.5681 27.2553C45.5735 27.2438 45.5785 27.2382 45.581 27.2357C45.5836 27.2331 45.5892 27.2281 45.6007 27.2227C45.6123 27.2173 45.6364 27.2086 45.6718 27.2086V28.2086C45.93 28.2086 46.1463 28.0846 46.2881 27.9428C46.43 27.8009 46.554 27.5846 46.554 27.3265H45.554ZM45.6718 27.2086H38.4739V28.2086H45.6718V27.2086ZM37.9767 27.7619C38.1865 29.7197 39.6742 31.6484 41.9136 31.6484V30.6484C40.3312 30.6484 39.1435 29.2647 38.9711 27.6554L37.9767 27.7619ZM41.9136 31.6484C43.3544 31.6484 44.4544 31.0569 45.3075 29.9196L44.5075 29.3196C43.8317 30.2206 43.0208 30.6484 41.9136 30.6484V31.6484ZM45.3547 29.8432C45.3404 29.8718 45.3169 29.8955 45.2909 29.9104C45.2669 29.9241 45.2444 29.9285 45.2259 29.9285V28.9285C44.9369 28.9285 44.6204 29.0757 44.4602 29.396L45.3547 29.8432ZM45.2259 29.9285C45.215 29.9285 45.1876 29.9254 45.1565 29.8978C45.14 29.883 45.1261 29.8642 45.1172 29.8439C45.1083 29.8236 45.1081 29.8105 45.1081 29.8107H46.1081C46.1081 29.5476 46.0045 29.3136 45.8209 29.1503C45.6465 28.9953 45.428 28.9285 45.2259 28.9285V29.9285ZM45.1081 29.8107C45.1081 29.8292 45.108 29.8295 45.1081 29.8273C45.1084 29.8229 45.1096 29.807 45.1151 29.785C45.1209 29.7618 45.1305 29.7355 45.1455 29.7089C45.1603 29.6825 45.1768 29.6623 45.1909 29.6482L45.898 30.3553C46.1171 30.1362 46.1081 29.8818 46.1081 29.8107H45.1081ZM45.1063 29.7608C44.5165 30.8332 43.2497 31.4128 41.9773 31.4128V32.4128C43.5077 32.4128 45.171 31.7183 45.9825 30.2428L45.1063 29.7608ZM41.9773 31.4128C39.893 31.4128 38.3369 29.535 38.3369 27.3902H37.3369C37.3369 29.959 39.2206 32.4128 41.9773 32.4128V31.4128ZM38.3369 27.3902C38.3369 25.2453 39.893 23.3676 41.9773 23.3676V22.3676C39.2206 22.3676 37.3369 24.8213 37.3369 27.3902H38.3369ZM41.9773 23.3676C44.0605 23.3676 45.554 25.1803 45.554 27.3265H46.554C46.554 24.759 44.7352 22.3676 41.9773 22.3676V23.3676ZM45.7884 26.9085C45.6464 24.9208 44.0772 23.0044 41.8499 23.0044V24.0044C43.4446 24.0044 44.6781 25.4003 44.7909 26.9797L45.7884 26.9085ZM41.8499 23.0044C39.6105 23.0044 38.1228 24.9331 37.9131 26.8908L38.9074 26.9974C39.0798 25.3881 40.2675 24.0044 41.8499 24.0044V23.0044ZM38.4102 27.4441H45.2897V26.4441H38.4102V27.4441Z" fill="white"/>
<path fill-rule="evenodd" clip-rule="evenodd" d="M54.8445 22.9949C55.0356 22.9949 55.2267 23.186 55.2267 23.3771C55.2267 23.5682 55.0993 23.7593 54.8445 23.7593H52.9335V31.3394C52.9335 31.5305 52.8061 31.7216 52.5513 31.7216C52.3602 31.7216 52.1691 31.5305 52.1691 31.3394V23.6956H50.3219C50.1308 23.6956 49.9397 23.5682 49.9397 23.3134C49.9397 23.1223 50.0671 22.9312 50.3219 22.9312H52.1691V20.1285C52.1691 19.9374 52.2965 19.7463 52.5513 19.7463C52.7424 19.7463 52.9335 19.8737 52.9335 20.1285V22.9312H54.8445V22.9949Z" fill="white" stroke="white"/>
<path fill-rule="evenodd" clip-rule="evenodd" d="M66.6928 26.6896V31.2759C66.6928 31.467 66.5017 31.6581 66.3106 31.6581C66.1195 31.6581 65.9284 31.5307 65.9284 31.2759V26.6896C65.9284 25.1608 65.0366 23.5684 63.3168 23.5684C61.0873 23.5684 60.1319 25.4793 60.2593 27.5177C60.2593 27.5814 60.2593 27.7725 60.2593 27.8362V31.2759C60.2593 31.467 60.1319 31.6581 59.8771 31.6581C59.686 31.6581 59.4949 31.5307 59.4949 31.2759V16.1157C59.4949 15.9246 59.6223 15.7335 59.8771 15.7335C60.0682 15.7335 60.2593 15.9246 60.2593 16.1157V24.6513C60.8962 23.5684 61.9791 22.804 63.3168 22.804C65.4825 22.804 66.6928 24.715 66.6928 26.6896Z" fill="white"/>
<path d="M66.6928 26.6896V31.2759C66.6928 31.467 66.5017 31.6581 66.3106 31.6581C66.1195 31.6581 65.9284 31.5307 65.9284 31.2759V26.6896C65.9284 25.1608 65.0366 23.5684 63.3168 23.5684C61.0873 23.5684 60.1319 25.4793 60.2593 27.5177C60.2593 27.5814 60.2593 27.7725 60.2593 27.8362V31.2759C60.2593 31.467 60.1319 31.6581 59.8771 31.6581C59.686 31.6581 59.4949 31.5307 59.4949 31.2759V16.1157C59.4949 15.9246 59.6223 15.7335 59.8771 15.7335C60.0682 15.7335 60.2593 15.9246 60.2593 16.1157V24.6513C60.8962 23.5684 61.9791 22.804 63.3168 22.804C65.4825 22.804 66.6928 24.715 66.6928 26.6896" stroke="white"/>
<path fill-rule="evenodd" clip-rule="evenodd" d="M79.6233 27.3265C79.6233 27.5176 79.4323 27.7087 79.2412 27.7087H72.0432C72.2343 29.4922 73.572 31.1484 75.483 31.1484C76.7569 31.1484 77.7124 30.6388 78.4768 29.6196C78.5405 29.4922 78.6679 29.4285 78.7953 29.4285C78.9864 29.4285 79.1775 29.5559 79.1775 29.8107C79.1775 29.8744 79.1775 29.9381 79.1138 30.0018C78.4131 31.2758 76.948 31.9128 75.5466 31.9128C73.1261 31.9128 71.4062 29.747 71.4062 27.3902C71.4062 25.0333 73.1261 22.8676 75.5466 22.8676C77.9035 22.8039 79.6233 24.9696 79.6233 27.3265ZM78.8587 26.9446C78.7313 25.161 77.3299 23.5049 75.419 23.5049C73.508 23.5049 72.1703 25.161 71.9792 26.9446H78.8587Z" fill="white"/>
<path d="M72.0432 27.7087V27.2087H71.4868L71.5461 27.7619L72.0432 27.7087ZM78.4768 29.6196L78.8768 29.9196L78.9038 29.8836L78.924 29.8432L78.4768 29.6196ZM79.1138 30.0018L78.7602 29.6483L78.7099 29.6986L78.6757 29.7609L79.1138 30.0018ZM75.5466 22.8676V23.3678L75.5602 23.3674L75.5466 22.8676ZM78.8587 26.9446V27.4446H79.3957L79.3574 26.909L78.8587 26.9446ZM71.9792 26.9446L71.4821 26.8913L71.4228 27.4446H71.9792V26.9446ZM79.1233 27.3265C79.1233 27.291 79.132 27.2669 79.1374 27.2554C79.1428 27.2439 79.1478 27.2382 79.1504 27.2357C79.1529 27.2331 79.1585 27.2281 79.1701 27.2227C79.1816 27.2174 79.2057 27.2087 79.2412 27.2087V28.2087C79.4993 28.2087 79.7156 28.0846 79.8575 27.9428C79.9993 27.801 80.1233 27.5846 80.1233 27.3265H79.1233ZM79.2412 27.2087H72.0432V28.2087H79.2412V27.2087ZM71.5461 27.7619C71.7558 29.7197 73.2435 31.6484 75.483 31.6484V30.6484C73.9005 30.6484 72.7128 29.2647 72.5404 27.6554L71.5461 27.7619ZM75.483 31.6484C76.9237 31.6484 78.0238 31.057 78.8768 29.9196L78.0768 29.3196C77.401 30.2206 76.5901 30.6484 75.483 30.6484V31.6484ZM78.924 29.8432C78.9097 29.8718 78.8862 29.8956 78.8602 29.9104C78.8362 29.9241 78.8137 29.9285 78.7953 29.9285V28.9285C78.5062 28.9285 78.1897 29.0758 78.0296 29.396L78.924 29.8432ZM78.7953 29.9285C78.7843 29.9285 78.7569 29.9254 78.7258 29.8978C78.7093 29.8831 78.6954 29.8643 78.6865 29.8439C78.6777 29.8236 78.6775 29.8105 78.6775 29.8107H79.6775C79.6775 29.5477 79.5738 29.3136 79.3902 29.1504C79.2158 28.9953 78.9974 28.9285 78.7953 28.9285V29.9285ZM78.6775 29.8107C78.6775 29.8292 78.6773 29.8296 78.6774 29.8273C78.6777 29.8229 78.6789 29.807 78.6844 29.785C78.6902 29.7618 78.6998 29.7355 78.7148 29.7089C78.7297 29.6825 78.7461 29.6624 78.7602 29.6483L79.4673 30.3554C79.6865 30.1362 79.6775 29.8819 79.6775 29.8107H78.6775ZM78.6757 29.7609C78.0858 30.8332 76.819 31.4128 75.5466 31.4128V32.4128C77.077 32.4128 78.7403 31.7183 79.5519 30.2428L78.6757 29.7609ZM75.5466 31.4128C73.4623 31.4128 71.9062 29.535 71.9062 27.3902H70.9062C70.9062 29.959 72.7899 32.4128 75.5466 32.4128V31.4128ZM71.9062 27.3902C71.9062 25.2453 73.4623 23.3676 75.5466 23.3676V22.3676C72.7899 22.3676 70.9062 24.8213 70.9062 27.3902H71.9062ZM75.5602 23.3674C77.5622 23.3133 79.1233 25.1716 79.1233 27.3265H80.1233C80.1233 24.7676 78.2448 22.2945 75.5331 22.3678L75.5602 23.3674ZM79.3574 26.909C79.2154 24.9213 77.6462 23.0049 75.419 23.0049V24.0049C77.0136 24.0049 78.2471 25.4008 78.36 26.9802L79.3574 26.909ZM75.419 23.0049C73.1795 23.0049 71.6919 24.9335 71.4821 26.8913L72.4764 26.9979C72.6488 25.3885 73.8365 24.0049 75.419 24.0049V23.0049ZM71.9792 27.4446H78.8587V26.4446H71.9792V27.4446Z" fill="white"/>
<path fill-rule="evenodd" clip-rule="evenodd" d="M88.5408 23.3135C88.5408 23.5683 88.4134 23.6957 88.2223 23.6957C86.1203 24.0142 85.1648 25.7341 85.1648 27.7724V31.2122C85.1648 31.4033 85.0374 31.5944 84.7826 31.5944C84.5915 31.5944 84.4004 31.467 84.4004 31.2122V23.3772C84.4004 23.1862 84.5278 22.9951 84.7826 22.9951C84.9737 22.9951 85.1648 23.1225 85.1648 23.3772V24.9697C85.7381 23.9505 86.9483 22.9951 88.2223 22.9951C88.286 22.9951 88.5408 23.1225 88.5408 23.3135Z" fill="white"/>
<path d="M88.5408 23.3135C88.5408 23.5683 88.4134 23.6957 88.2223 23.6957C86.1203 24.0142 85.1648 25.7341 85.1648 27.7724V31.2122C85.1648 31.4033 85.0374 31.5944 84.7826 31.5944C84.5915 31.5944 84.4004 31.467 84.4004 31.2122V23.3772C84.4004 23.1862 84.5278 22.9951 84.7826 22.9951C84.9737 22.9951 85.1648 23.1225 85.1648 23.3772V24.9697C85.7381 23.9505 86.9483 22.9951 88.2223 22.9951C88.286 22.9951 88.5408 23.1225 88.5408 23.3135" stroke="white"/>
<path fill-rule="evenodd" clip-rule="evenodd" d="M100.389 27.3265C100.389 27.5176 100.198 27.7087 100.007 27.7087H92.8086C92.9997 29.4922 94.3374 31.1484 96.2483 31.1484C97.5223 31.1484 98.4778 30.6388 99.2422 29.6196C99.3059 29.4922 99.4333 29.4285 99.5607 29.4285C99.7518 29.4285 99.9429 29.5559 99.9429 29.8107C99.9429 29.8744 99.9429 29.9381 99.8792 30.0018C99.1785 31.2758 97.7134 31.9128 96.312 31.9128C93.8915 31.9128 92.1716 29.747 92.1716 27.3902C92.1716 25.0333 93.8915 22.8676 96.312 22.8676C98.6052 22.8039 100.389 24.9696 100.389 27.3265ZM99.624 26.9446C99.4966 25.161 98.0952 23.5049 96.1843 23.5049C94.2733 23.5049 92.9357 25.161 92.7446 26.9446H99.624Z" fill="white"/>
<path d="M92.8086 27.7087V27.2087H92.2522L92.3115 27.7619L92.8086 27.7087ZM99.2422 29.6196L99.6422 29.9196L99.6692 29.8836L99.6894 29.8432L99.2422 29.6196ZM99.8792 30.0018L99.5256 29.6483L99.4753 29.6986L99.4411 29.7609L99.8792 30.0018ZM96.312 22.8676V23.3678L96.3259 23.3674L96.312 22.8676ZM99.624 26.9446V27.4446H100.161L100.123 26.909L99.624 26.9446ZM92.7446 26.9446L92.2474 26.8913L92.1881 27.4446H92.7446V26.9446ZM99.8888 27.3265C99.8888 27.291 99.8974 27.2669 99.9028 27.2554C99.9082 27.2439 99.9132 27.2382 99.9158 27.2357C99.9183 27.2331 99.9239 27.2281 99.9355 27.2227C99.947 27.2174 99.9711 27.2087 100.007 27.2087V28.2087C100.265 28.2087 100.481 28.0846 100.623 27.9428C100.765 27.801 100.889 27.5846 100.889 27.3265H99.8888ZM100.007 27.2087H92.8086V28.2087H100.007V27.2087ZM92.3115 27.7619C92.5212 29.7197 94.0089 31.6484 96.2483 31.6484V30.6484C94.6659 30.6484 93.4782 29.2647 93.3058 27.6554L92.3115 27.7619ZM96.2483 31.6484C97.6891 31.6484 98.7892 31.057 99.6422 29.9196L98.8422 29.3196C98.1664 30.2206 97.3555 30.6484 96.2483 30.6484V31.6484ZM99.6894 29.8432C99.6751 29.8718 99.6516 29.8956 99.6256 29.9104C99.6017 29.9241 99.5791 29.9285 99.5607 29.9285V28.9285C99.2716 28.9285 98.9551 29.0758 98.795 29.396L99.6894 29.8432ZM99.5607 29.9285C99.5497 29.9285 99.5224 29.9254 99.4913 29.8978C99.4747 29.8831 99.4608 29.8643 99.4519 29.8439C99.4431 29.8236 99.4429 29.8105 99.4429 29.8107H100.443C100.443 29.5477 100.339 29.3136 100.156 29.1504C99.9812 28.9953 99.7628 28.9285 99.5607 28.9285V29.9285ZM99.4429 29.8107C99.4429 29.8292 99.4427 29.8296 99.4428 29.8273C99.4431 29.8229 99.4443 29.807 99.4498 29.785C99.4556 29.7618 99.4653 29.7355 99.4802 29.7089C99.4951 29.6825 99.5115 29.6624 99.5256 29.6483L100.233 30.3554C100.452 30.1362 100.443 29.8819 100.443 29.8107H99.4429ZM99.4411 29.7609C98.8513 30.8332 97.5844 31.4128 96.312 31.4128V32.4128C97.8424 32.4128 99.5057 31.7184 100.317 30.2428L99.4411 29.7609ZM96.312 31.4128C94.2277 31.4128 92.6716 29.535 92.6716 27.3902H91.6716C91.6716 29.959 93.5553 32.4128 96.312 32.4128V31.4128ZM92.6716 27.3902C92.6716 25.2453 94.2277 23.3676 96.312 23.3676V22.3676C93.5553 22.3676 91.6716 24.8213 91.6716 27.3902H92.6716ZM96.3259 23.3674C98.2686 23.3134 99.8888 25.1769 99.8888 27.3265H100.889C100.889 24.7623 98.9418 22.2943 96.2982 22.3678L96.3259 23.3674ZM100.123 26.909C99.9807 24.9213 98.4115 23.0049 96.1843 23.0049V24.0049C97.779 24.0049 99.0125 25.4008 99.1253 26.9802L100.123 26.909ZM96.1843 23.0049C93.9448 23.0049 92.4572 24.9335 92.2474 26.8913L93.2417 26.9979C93.4142 25.3885 94.6018 24.0049 96.1843 24.0049V23.0049ZM92.7446 27.4446H99.624V26.4446H92.7446V27.4446Z" fill="white"/>
<path fill-rule="evenodd" clip-rule="evenodd" d="M112.046 23.3772V25.8614V31.2758C112.046 31.4669 111.855 31.658 111.663 31.658C111.472 31.658 111.281 31.5306 111.281 31.2758V29.747C110.708 30.9573 109.625 31.7854 108.287 31.7854C106.122 31.7854 104.975 29.9381 104.975 27.9635V23.3135C104.975 23.1224 105.102 22.9313 105.357 22.9313C105.548 22.9313 105.739 23.1224 105.739 23.3135V28.0272C105.739 29.5559 106.631 31.1484 108.351 31.1484C110.772 31.1484 111.345 28.8552 111.345 26.371V23.4409C111.345 23.2498 111.472 23.0587 111.727 23.0587C111.855 23.0587 112.046 23.1861 112.046 23.3772Z" fill="white"/>
<path d="M112.046 23.3772V25.8614V31.2758C112.046 31.4669 111.855 31.658 111.663 31.658C111.472 31.658 111.281 31.5306 111.281 31.2758V29.747C110.708 30.9573 109.625 31.7854 108.287 31.7854C106.122 31.7854 104.975 29.9381 104.975 27.9635V23.3135C104.975 23.1224 105.102 22.9313 105.357 22.9313C105.548 22.9313 105.739 23.1224 105.739 23.3135V28.0272C105.739 29.5559 106.631 31.1484 108.351 31.1484C110.772 31.1484 111.345 28.8552 111.345 26.371V23.4409C111.345 23.2498 111.472 23.0587 111.727 23.0587C111.855 23.0587 112.046 23.1861 112.046 23.3772" stroke="white"/>
<path fill-rule="evenodd" clip-rule="evenodd" d="M130.327 26.6257V31.2757C130.327 31.4668 130.136 31.6579 129.945 31.6579C129.754 31.6579 129.563 31.5305 129.563 31.2757V26.6257C129.563 25.097 128.671 23.5682 126.951 23.5682C124.786 23.5682 123.957 25.925 123.957 27.7086V31.2757C123.957 31.4668 123.766 31.6579 123.575 31.6579C123.384 31.6579 123.193 31.5305 123.193 31.2757V26.6257C123.193 25.097 122.301 23.5682 120.581 23.5682C118.352 23.5682 117.46 25.2881 117.524 27.5812C117.524 27.6449 117.524 27.7086 117.524 27.7723V31.2757C117.524 31.4668 117.397 31.6579 117.142 31.6579C116.951 31.6579 116.76 31.5305 116.76 31.2757V23.3771C116.76 23.186 116.887 22.9949 117.142 22.9949C117.333 22.9949 117.524 23.1223 117.524 23.3771V24.7148C118.161 23.6319 119.244 22.8675 120.581 22.8675C122.046 22.8675 123.193 23.823 123.639 25.1607C124.212 23.823 125.423 22.8675 126.888 22.8675C129.117 22.8038 130.327 24.6511 130.327 26.6257Z" fill="white"/>
<path d="M130.327 26.6257V31.2757C130.327 31.4668 130.136 31.6579 129.945 31.6579C129.754 31.6579 129.563 31.5305 129.563 31.2757V26.6257C129.563 25.097 128.671 23.5682 126.951 23.5682C124.786 23.5682 123.957 25.925 123.957 27.7086V31.2757C123.957 31.4668 123.766 31.6579 123.575 31.6579C123.384 31.6579 123.193 31.5305 123.193 31.2757V26.6257C123.193 25.097 122.301 23.5682 120.581 23.5682C118.352 23.5682 117.46 25.2881 117.524 27.5812C117.524 27.6449 117.524 27.7086 117.524 27.7723V31.2757C117.524 31.4668 117.397 31.6579 117.142 31.6579C116.951 31.6579 116.76 31.5305 116.76 31.2757V23.3771C116.76 23.186 116.887 22.9949 117.142 22.9949C117.333 22.9949 117.524 23.1223 117.524 23.3771V24.7148C118.161 23.6319 119.244 22.8675 120.581 22.8675C122.046 22.8675 123.193 23.823 123.639 25.1607C124.212 23.823 125.423 22.8675 126.888 22.8675C129.117 22.8038 130.327 24.6511 130.327 26.6257" stroke="white"/>
<g opacity="0.9">
<path opacity="0.5" fill-rule="evenodd" clip-rule="evenodd" d="M0 28.9192L15.6061 50.9589V38.1555L0 28.9192Z" fill="white"/>
<path fill-rule="evenodd" clip-rule="evenodd" d="M0 25.9253L15.6061 35.2253V18.8548L0 25.9253Z" fill="white" fill-opacity="0.8"/>
<path opacity="0.5" fill-rule="evenodd" clip-rule="evenodd" d="M0 25.9254L15.6061 18.8549V0.00012207L0 25.9254Z" fill="white"/>
<path opacity="0.75" fill-rule="evenodd" clip-rule="evenodd" d="M31.276 28.9192L15.6062 50.9589V38.1555L31.276 28.9192Z" fill="white"/>
<path fill-rule="evenodd" clip-rule="evenodd" d="M31.276 25.9253L15.6062 35.2253V18.8548L31.276 25.9253Z" fill="white" fill-opacity="0.9"/>
<path opacity="0.75" fill-rule="evenodd" clip-rule="evenodd" d="M31.276 25.9254L15.6062 18.8548V6.10352e-05L31.276 25.9254Z" fill="white"/>
</g>
</svg>
