<svg width="143" height="29" viewBox="0 0 143 29" fill="none" xmlns="http://www.w3.org/2000/svg">
<path d="M6.48715 14.5L3.25915 17.7565L0 14.5L3.25795 11.2145L6.48715 14.5ZM14.3786 6.54192L19.9383 12.1486L23.1975 8.86434L14.3786 0L5.55973 8.89334L8.81888 12.1776L14.3786 6.54192ZM25.4993 11.2145L22.2701 14.5L25.528 17.7855L28.7848 14.5L25.4993 11.2145ZM14.3786 22.4581L8.81888 16.8224L5.55973 20.1079L14.3786 29L23.1975 20.1067L19.9383 16.8224L14.3786 22.4581ZM14.3786 17.7577L17.6366 14.471L14.3786 11.2158L11.1207 14.5L14.3786 17.7565V17.7577ZM48.6404 18.096V18.0404C48.6404 15.9162 47.5165 14.8395 45.6916 14.1315C46.8143 13.5092 47.7693 12.4881 47.7693 10.7046V10.649C47.7693 8.15625 45.7755 6.54192 42.5738 6.54192H35.2444V22.4303H42.7428C46.3087 22.4581 48.6404 20.9851 48.6404 18.0972V18.096ZM44.3149 11.3003C44.3149 12.4893 43.3599 12.9703 41.8154 12.9703H38.6149V9.60021H42.0406C43.5013 9.60021 44.3149 10.1947 44.3149 11.2435V11.3003ZM45.186 17.6441C45.186 18.8331 44.2597 19.372 42.7416 19.372H38.6149V15.8872H42.6302C44.3999 15.8872 45.186 16.5397 45.186 17.6151V17.6441ZM55.9136 22.4581V6.54192H52.4316V22.4303H55.9136V22.4581ZM74.5614 22.4581V6.54192H71.1345V16.3415L63.7487 6.54192H60.5471V22.4303H63.974V12.348L71.6126 22.4581H74.5602H74.5614ZM93.7689 22.4581L87.0025 6.45734H83.8021L77.0334 22.4581H80.6005L82.0323 18.8899H88.6884L90.1203 22.4581H93.7713H93.7689ZM87.4507 15.8026H83.2665L85.3729 10.649L87.4507 15.8026ZM110.311 22.4581V6.54192H106.885V16.3415L99.4987 6.54192H96.2971V22.4303H99.724V12.348L107.363 22.4581H110.31H110.311ZM128.2 19.8807L125.982 17.6441C124.745 18.7763 123.65 19.5122 121.825 19.5122C119.129 19.5122 117.248 17.2466 117.248 14.5278V14.4432C117.248 11.7245 119.157 9.48784 121.825 9.48784C123.397 9.48784 124.634 10.1669 125.869 11.2713L128.087 8.69396C126.628 7.25001 124.858 6.23016 121.881 6.23016C117.051 6.23016 113.653 9.93976 113.653 14.4432V14.5C113.653 19.059 117.107 22.684 121.741 22.684C124.774 22.713 126.571 21.6364 128.2 19.8807ZM143 22.4581V19.343H134.434V16.0008H141.876V12.8857H134.434V9.657H142.887V6.54192H131.008V22.4303H143V22.4581Z" fill="#FFC328"/>
</svg>
