<svg width="105" height="29" viewBox="0 0 105 29" fill="none" xmlns="http://www.w3.org/2000/svg">
<path fill-rule="evenodd" clip-rule="evenodd" d="M29.8328 14.7498C29.8328 22.4149 23.3704 28.6287 15.3987 28.6287C7.42696 28.6287 0.9646 22.4149 0.9646 14.7498C0.9646 7.08465 7.42696 0.87085 15.3987 0.87085C23.3704 0.87085 29.8328 7.08465 29.8328 14.7498ZM16.9578 16.4746V16.4769V16.4791C20.3644 16.3262 22.9076 15.7326 22.9076 15.022C22.9076 14.3115 20.3667 13.7178 16.9578 13.5649V15.8855C16.8588 15.8945 16.3282 15.9395 15.2668 15.9395C14.3831 15.9395 13.7422 15.9012 13.5196 15.8855V13.5627C10.1062 13.7133 7.55628 14.3092 7.55628 15.0198C7.55628 15.7326 10.104 16.3262 13.5196 16.4769V16.4746C13.74 16.4859 14.3629 16.5106 15.2511 16.5106C16.3619 16.5106 16.8611 16.4814 16.9578 16.4746ZM16.9578 11.2466V13.3243L16.96 13.3266C20.8187 13.5042 23.7194 14.271 23.7194 15.1862C23.7194 16.1036 20.8187 16.8681 16.96 17.0458V23.7062H13.5219V17.0458C9.65874 16.8659 6.75127 16.1014 6.75127 15.1839C6.75127 14.2665 9.65649 13.502 13.5219 13.3243V11.2466H8.76604V8.07827H21.7136V11.2466H16.9578Z" fill="white" fill-opacity="0.25"/>
<path d="M41.6063 9.25292V12.5222H44.8572V14.9752H41.5839V19.949C41.5839 21.0475 42.2041 21.5837 43.1131 21.5837C43.5676 21.5837 44.0937 21.4436 44.5236 21.2335L45.3363 23.6625C44.5012 23.9885 43.8071 24.1286 42.9228 24.1527C40.3659 24.2467 38.6935 22.8222 38.6935 19.949V14.9752H36.4949V12.5222H38.6935V9.55708L41.6063 9.25292ZM97.6528 12.369L97.8678 13.6994C98.7768 12.2749 99.9947 12.0648 101.19 12.0648C102.408 12.0648 103.579 12.5309 104.224 13.1611L102.91 15.636C102.312 15.1459 101.763 14.8876 100.807 14.8876C99.2783 14.8876 97.8678 15.682 97.8678 17.8068V23.8791H94.9527V12.3646L97.6528 12.369ZM90.5085 16.7827C90.3182 15.2881 89.1226 14.5397 87.4501 14.5397C85.8739 14.5397 84.5821 15.2881 84.1522 16.7827H90.5085ZM84.1052 19.1416C84.2955 20.5661 85.5627 21.5946 87.6181 21.5946C88.6927 21.5946 90.1032 21.1963 90.7727 20.5202L92.6354 22.3189C91.3928 23.5793 89.3622 24.1877 87.5688 24.1877C83.5074 24.1877 81.0916 21.7346 81.0916 18.0453C81.0916 14.5419 83.5298 12.0189 87.3539 12.0189C91.2966 12.0189 93.7594 14.4018 93.3049 19.1416H84.1052ZM71.2494 7.53296V13.9314C72.3017 12.6009 73.5913 12.2027 74.9302 12.2027C78.2751 12.2027 79.7573 14.4215 79.7573 17.8089V23.8813H76.8422V17.833C76.8422 15.7301 75.7183 14.8439 74.1645 14.8439C72.4427 14.8439 71.2494 16.2684 71.2494 17.9971V23.8835H68.3344V7.53515L71.2494 7.53296ZM63.5073 9.12162V12.3909H66.7582V14.8439H63.4849V19.8177C63.4849 20.9162 64.1073 21.4524 65.0141 21.4524C65.4686 21.4524 65.9947 21.3123 66.4246 21.1022L67.2373 23.5312C66.4022 23.8572 65.7081 23.9973 64.8238 24.0214C62.2669 24.1155 60.5945 22.6887 60.5945 19.8177V14.8439H58.3959V12.3909H60.5945V9.42579L63.5073 9.12162ZM55.4539 16.7827C55.2636 15.2881 54.068 14.5397 52.3956 14.5397C50.8194 14.5397 49.5275 15.2881 49.0977 16.7827H55.4539ZM49.0507 19.1416C49.241 20.5661 50.5082 21.5946 52.5635 21.5946C53.6382 21.5946 55.0487 21.1963 55.7181 20.5202L57.5809 22.3189C56.3383 23.5793 54.3076 24.1877 52.5142 24.1877C48.4506 24.1877 46.0371 21.7346 46.0371 18.0453C46.0371 14.5419 48.4753 12.0189 52.2971 12.0189C56.2398 12.0189 58.7003 14.4018 58.2481 19.1416H49.0507Z" fill="white" fill-opacity="0.25"/>
</svg>
