<svg width="83" height="25" viewBox="0 0 83 25" fill="none" xmlns="http://www.w3.org/2000/svg">
<path d="M30.5166 9.81385C30.3021 9.74232 29.8492 9.69462 29.3963 9.69462C28.0376 9.69462 26.5836 10.7953 26.5836 12.1539V18.6334H23.4849V7.07263H26.4644V8.2406C27.1557 7.38249 28.4189 6.83423 29.8254 6.83423C30.177 6.83676 30.5279 6.86865 30.8742 6.92957L30.5166 9.81385Z" fill="white" fill-opacity="0.25"/>
<path d="M34.0205 0.994446C35.1408 0.994446 36.0466 1.85256 36.0466 2.9729C36.0466 4.09323 35.1409 4.95128 34.0205 4.95128C32.9001 4.95128 31.9944 4.09323 31.9944 2.9729C31.9944 1.85256 32.9002 0.994446 34.0205 0.994446ZM35.5699 18.6335H32.4711V7.07279H35.5699V18.6335V18.6335Z" fill="white" fill-opacity="0.25"/>
<path d="M44.7233 6.83392C43.4935 6.81835 42.2967 7.23174 41.3386 8.00301V7.07279H38.3584V24.3538H41.4574V17.8233C42.3387 18.5196 43.4334 18.8901 44.5564 18.8724C46.2728 18.8724 47.9171 18.109 48.9421 16.9171C49.8483 15.8681 50.3956 14.4387 50.3956 12.8651C50.3956 9.45647 47.8691 6.83392 44.7233 6.83392ZM44.3467 16.059C42.4218 16.059 41.1566 14.7306 41.1566 12.8753C41.1566 11.0199 42.4218 9.69154 44.3467 9.69154C45.9897 9.69154 47.3218 11.1172 47.3218 12.8753C47.3218 14.6333 45.9897 16.059 44.3467 16.059Z" fill="white" fill-opacity="0.25"/>
<path d="M69.203 18.6334H66.1041V1.70941H69.203V18.6334V18.6334Z" fill="white" fill-opacity="0.25"/>
<path d="M81.8363 16.7979C80.716 18.1328 78.8805 18.8717 77.0929 18.8717C73.6366 18.8717 71.0383 16.4881 71.0383 12.8649C71.0383 9.64698 73.2314 6.83423 76.6638 6.83423C79.858 6.83423 82.1224 9.52775 82.1224 12.7457C82.1242 13.0412 82.1003 13.3363 82.0508 13.6277H74.0418C74.2086 15.2485 75.5197 16.3689 77.1644 16.3689C78.4753 16.3689 79.5242 15.6299 80.0725 15.034L81.8363 16.7979ZM78.9521 11.3632C78.8567 10.3382 77.9272 9.33711 76.6638 9.33711C75.3766 9.33711 74.3278 10.3145 74.1848 11.3632H78.9521Z" fill="white" fill-opacity="0.25"/>
<path d="M58.5968 6.83392C57.367 6.81836 56.1702 7.23175 55.2122 8.00301V7.07279H52.2319V24.3538H55.331V17.8233C56.2123 18.5196 57.307 18.8901 58.43 18.8724C60.1464 18.8724 61.7906 18.109 62.8156 16.9171C63.7219 15.8681 64.2691 14.4387 64.2691 12.8651C64.2691 9.45647 61.7426 6.83392 58.5968 6.83392ZM58.2202 16.059C56.2953 16.059 55.0302 14.7306 55.0302 12.8753C55.0302 11.0199 56.2953 9.69152 58.2202 9.69152C59.8632 9.69152 61.1954 11.1172 61.1954 12.8752C61.1954 14.6333 59.8632 16.059 58.2202 16.059Z" fill="white" fill-opacity="0.25"/>
<path d="M17.0966 14.4214C16.397 14.0174 15.6091 13.9003 14.8287 13.8731C14.1739 13.8502 13.197 13.4306 13.197 12.2395C13.197 11.3521 13.9165 10.6379 14.829 10.606C15.6094 10.5787 16.3972 10.4615 17.0966 10.0577C17.7249 9.69494 18.2467 9.1732 18.6094 8.54491C18.9721 7.91662 19.1631 7.20391 19.1631 6.47843C19.1631 5.75294 18.9721 5.04023 18.6094 4.41195C18.2466 3.78366 17.7249 3.26193 17.0966 2.8992C16.4683 2.53646 15.7556 2.34551 15.0301 2.34552C14.3046 2.34553 13.5919 2.53652 12.9636 2.89928C12.3353 3.26204 11.8136 3.78379 11.4509 4.41209C11.0882 5.04039 10.8972 5.7531 10.8973 6.47859C10.8973 7.27934 11.1821 8.01623 11.5455 8.69968C11.8511 9.27451 12.0057 10.3414 10.9575 10.9466C10.1777 11.3968 9.2045 11.1117 8.71841 10.3338C8.30781 9.67669 7.81215 9.06103 7.1182 8.6603C6.48992 8.29756 5.77722 8.10659 5.05174 8.10659C4.32626 8.10659 3.61357 8.29756 2.98528 8.6603C2.357 9.02303 1.83527 9.54476 1.47253 10.173C1.10979 10.8013 0.918823 11.514 0.918823 12.2395C0.918823 12.965 1.10979 13.6777 1.47253 14.306C1.83527 14.9342 2.357 15.456 2.98528 15.8187C3.61357 16.1814 4.32626 16.3724 5.05174 16.3724C5.77722 16.3724 6.48992 16.1814 7.1182 15.8187C7.81195 15.4181 8.30766 14.8029 8.718 14.1462C9.05496 13.6069 9.89651 12.9196 10.9574 13.5326C11.736 13.9824 11.9767 14.968 11.5451 15.7799C11.1817 16.4632 10.8973 17.2 10.8973 18.0006C10.8973 18.726 11.0883 19.4387 11.451 20.067C11.8137 20.6953 12.3355 21.217 12.9637 21.5797C13.592 21.9425 14.3047 22.1334 15.0302 22.1334C15.7556 22.1334 16.4683 21.9425 17.0966 21.5797C17.7249 21.217 18.2466 20.6953 18.6093 20.067C18.9721 19.4387 19.163 18.726 19.1631 18.0006C19.1631 17.2751 18.9721 16.5624 18.6094 15.9341C18.2466 15.3059 17.7249 14.7841 17.0966 14.4214Z" fill="white" fill-opacity="0.25"/>
</svg>
