<svg width="131" height="37" viewBox="0 0 131 37" fill="none" xmlns="http://www.w3.org/2000/svg">
<path fill-rule="evenodd" clip-rule="evenodd" d="M36.7917 21.0494C36.7917 21.2607 36.5804 21.472 36.3691 21.472H28.411C28.6223 23.4439 30.1013 25.2749 32.214 25.2749C33.6225 25.2749 34.6789 24.7115 35.524 23.5847C35.5944 23.4439 35.7353 23.3735 35.8761 23.3735C36.0874 23.3735 36.2987 23.5143 36.2987 23.796C36.2987 23.8664 36.2987 23.9369 36.2283 24.0073C35.4536 25.4158 33.8338 26.1201 32.2844 26.1201C29.6083 26.1201 27.7068 23.7256 27.7068 21.1198C27.7068 18.5141 29.6083 16.1196 32.2844 16.1196C34.9606 16.1196 36.7917 18.4437 36.7917 21.0494ZM35.9469 20.6267C35.806 18.6548 34.2567 16.8237 32.1439 16.8237C30.0312 16.8237 28.5522 18.6548 28.3409 20.6267H35.9469Z" fill="white" fill-opacity="0.25"/>
<path d="M28.411 21.472V20.972H27.8546L27.9139 21.5252L28.411 21.472ZM35.524 23.5847L35.924 23.8847L35.9511 23.8487L35.9712 23.8083L35.524 23.5847ZM36.2283 24.0073L35.8747 23.6537L35.8244 23.704L35.7902 23.7663L36.2283 24.0073ZM35.9469 20.6267V21.1267H36.4839L36.4456 20.5911L35.9469 20.6267ZM28.3409 20.6267L27.8438 20.5734L27.7845 21.1267H28.3409V20.6267ZM36.2917 21.0494C36.2917 21.019 36.2991 20.9999 36.3023 20.9931C36.3054 20.9863 36.3073 20.9851 36.3061 20.9864C36.3049 20.9876 36.3061 20.9857 36.3128 20.9826C36.3196 20.9794 36.3387 20.972 36.3691 20.972V21.972C36.6374 21.972 36.8638 21.8429 37.0132 21.6935C37.1626 21.5441 37.2917 21.3177 37.2917 21.0494H36.2917ZM36.3691 20.972H28.411V21.972H36.3691V20.972ZM27.9139 21.5252C28.1438 23.6714 29.7727 25.7749 32.214 25.7749V24.7749C30.4298 24.7749 29.1008 23.2164 28.9082 21.4187L27.9139 21.5252ZM32.214 25.7749C33.7893 25.7749 34.9903 25.1297 35.924 23.8847L35.124 23.2847C34.3675 24.2934 33.4557 24.7749 32.214 24.7749V25.7749ZM35.9712 23.8083C35.9603 23.8302 35.9419 23.8489 35.9217 23.8604C35.9037 23.8707 35.8878 23.8735 35.8761 23.8735V22.8735C35.5736 22.8735 35.2437 23.0274 35.0768 23.3611L35.9712 23.8083ZM35.8761 23.8735C35.8752 23.8735 35.858 23.8737 35.8345 23.8528C35.8217 23.8414 35.811 23.8268 35.8043 23.8116C35.7976 23.7963 35.7987 23.789 35.7987 23.796H36.7987C36.7987 23.5195 36.69 23.2753 36.4988 23.1054C36.3168 22.9436 36.0883 22.8735 35.8761 22.8735V23.8735ZM35.7987 23.796C35.7987 23.8162 35.7985 23.8182 35.7986 23.8176C35.7987 23.8149 35.7997 23.8007 35.8048 23.7804C35.8102 23.7589 35.8192 23.7342 35.8332 23.7093C35.8471 23.6846 35.8623 23.6662 35.8747 23.6537L36.5818 24.3608C36.8077 24.135 36.7987 23.8739 36.7987 23.796H35.7987ZM35.7902 23.7663C35.1264 24.9732 33.7048 25.6201 32.2844 25.6201V26.6201C33.9628 26.6201 35.7808 25.8584 36.6664 24.2482L35.7902 23.7663ZM32.2844 25.6201C29.9445 25.6201 28.2068 23.5136 28.2068 21.1198H27.2068C27.2068 23.9376 29.2721 26.6201 32.2844 26.6201V25.6201ZM28.2068 21.1198C28.2068 18.7261 29.9445 16.6196 32.2844 16.6196V15.6196C29.2721 15.6196 27.2068 18.3021 27.2068 21.1198H28.2068ZM32.2844 16.6196C34.6232 16.6196 36.2917 18.6543 36.2917 21.0494H37.2917C37.2917 18.233 35.298 15.6196 32.2844 15.6196V16.6196ZM36.4456 20.5911C36.2902 18.415 34.573 16.3237 32.1439 16.3237V17.3237C33.9404 17.3237 35.3219 18.8946 35.4482 20.6623L36.4456 20.5911ZM32.1439 16.3237C29.7026 16.3237 28.0737 18.4273 27.8438 20.5734L28.8381 20.68C29.0307 18.8823 30.3597 17.3237 32.1439 17.3237V16.3237ZM28.3409 21.1267H35.9469V20.1267H28.3409V21.1267Z" fill="white" fill-opacity="0.25"/>
<path fill-rule="evenodd" clip-rule="evenodd" d="M46.5107 16.2595C46.7219 16.2595 46.9332 16.4708 46.9332 16.6821C46.9332 16.8934 46.7924 17.1047 46.5107 17.1047H44.3979V25.4853C44.3979 25.6966 44.257 25.9078 43.9753 25.9078C43.7641 25.9078 43.5528 25.6966 43.5528 25.4853V17.0342H41.5104C41.2992 17.0342 41.0879 16.8934 41.0879 16.6117C41.0879 16.4004 41.2287 16.1891 41.5104 16.1891H43.5528V13.0904C43.5528 12.8791 43.6936 12.6678 43.9753 12.6678C44.1866 12.6678 44.3979 12.8087 44.3979 13.0904V16.1891H46.5107V16.2595Z" fill="white" fill-opacity="0.25" stroke="white" stroke-opacity="0.25"/>
<path fill-rule="evenodd" clip-rule="evenodd" d="M59.6102 20.3452V25.4158C59.6102 25.6271 59.3989 25.8384 59.1876 25.8384C58.9763 25.8384 58.7651 25.6975 58.7651 25.4158V20.3452C58.7651 18.655 57.7791 16.8943 55.8776 16.8943C53.4127 16.8943 52.3564 19.0071 52.4972 21.2607C52.4972 21.3311 52.4972 21.5424 52.4972 21.6128V25.4158C52.4972 25.6271 52.3564 25.8384 52.0747 25.8384C51.8634 25.8384 51.6521 25.6975 51.6521 25.4158V8.65455C51.6521 8.44327 51.793 8.23199 52.0747 8.23199C52.2859 8.23199 52.4972 8.44327 52.4972 8.65455V18.0916C53.2015 16.8943 54.3987 16.0492 55.8776 16.0492C58.2721 16.0492 59.6102 18.162 59.6102 20.3452Z" fill="white" fill-opacity="0.25"/>
<path d="M59.6102 20.3452V25.4158C59.6102 25.6271 59.3989 25.8384 59.1876 25.8384C58.9763 25.8384 58.7651 25.6975 58.7651 25.4158V20.3452C58.7651 18.655 57.7791 16.8943 55.8776 16.8943C53.4127 16.8943 52.3564 19.0071 52.4972 21.2607C52.4972 21.3311 52.4972 21.5424 52.4972 21.6128V25.4158C52.4972 25.6271 52.3564 25.8384 52.0747 25.8384C51.8634 25.8384 51.6521 25.6975 51.6521 25.4158V8.65455C51.6521 8.44327 51.793 8.23199 52.0747 8.23199C52.2859 8.23199 52.4972 8.44327 52.4972 8.65455V18.0916C53.2015 16.8943 54.3987 16.0492 55.8776 16.0492C58.2721 16.0492 59.6102 18.162 59.6102 20.3452" stroke="white" stroke-opacity="0.25"/>
<path fill-rule="evenodd" clip-rule="evenodd" d="M73.9064 21.0489C73.9064 21.2601 73.6951 21.4714 73.4839 21.4714H65.5258C65.7371 23.4433 67.216 25.2744 69.3288 25.2744C70.7373 25.2744 71.7936 24.711 72.6388 23.5842C72.7092 23.4433 72.85 23.3729 72.9909 23.3729C73.2022 23.3729 73.4134 23.5137 73.4134 23.7955C73.4134 23.8659 73.4134 23.9363 73.343 24.0067C72.5683 25.4152 70.9485 26.1195 69.3992 26.1195C66.723 26.1195 64.8215 23.725 64.8215 21.1193C64.8215 18.5135 66.723 16.1191 69.3992 16.1191C72.0049 16.0486 73.9064 18.4431 73.9064 21.0489ZM73.0608 20.6272C72.9199 18.6553 71.3706 16.8242 69.2578 16.8242C67.145 16.8242 65.6661 18.6553 65.4548 20.6272H73.0608Z" fill="white" fill-opacity="0.25"/>
<path d="M65.5258 21.4714V20.9714H64.9694L65.0286 21.5247L65.5258 21.4714ZM72.6388 23.5842L73.0388 23.8842L73.0658 23.8481L73.086 23.8078L72.6388 23.5842ZM73.343 24.0067L72.9894 23.6532L72.9392 23.7035L72.9049 23.7658L73.343 24.0067ZM69.3992 16.1191V16.6193L69.4127 16.6189L69.3992 16.1191ZM73.0608 20.6272V21.1272H73.5978L73.5595 20.5916L73.0608 20.6272ZM65.4548 20.6272L64.9577 20.5739L64.8984 21.1272H65.4548V20.6272ZM73.4064 21.0489C73.4064 21.0184 73.4138 20.9994 73.417 20.9926C73.4202 20.9858 73.422 20.9846 73.4208 20.9858C73.4196 20.987 73.4208 20.9852 73.4276 20.982C73.4344 20.9788 73.4534 20.9714 73.4839 20.9714V21.9714C73.7521 21.9714 73.9785 21.8423 74.1279 21.6929C74.2773 21.5435 74.4064 21.3171 74.4064 21.0489H73.4064ZM73.4839 20.9714H65.5258V21.9714H73.4839V20.9714ZM65.0286 21.5247C65.2586 23.6708 66.8875 25.7744 69.3288 25.7744V24.7744C67.5445 24.7744 66.2155 23.2158 66.0229 21.4181L65.0286 21.5247ZM69.3288 25.7744C70.9041 25.7744 72.105 25.1291 73.0388 23.8842L72.2387 23.2842C71.4823 24.2928 70.5705 24.7744 69.3288 24.7744V25.7744ZM73.086 23.8078C73.075 23.8296 73.0566 23.8483 73.0365 23.8598C73.0184 23.8702 73.0026 23.8729 72.9909 23.8729V22.8729C72.6884 22.8729 72.3584 23.0269 72.1915 23.3606L73.086 23.8078ZM72.9909 23.8729C72.99 23.8729 72.9727 23.8732 72.9492 23.8522C72.9364 23.8409 72.9257 23.8263 72.919 23.811C72.9124 23.7957 72.9134 23.7885 72.9134 23.7955H73.9134C73.9134 23.5189 73.8048 23.2748 73.6136 23.1048C73.4316 22.9431 73.2031 22.8729 72.9909 22.8729V23.8729ZM72.9134 23.7955C72.9134 23.8156 72.9133 23.8176 72.9133 23.8171C72.9135 23.8144 72.9145 23.8001 72.9196 23.7798C72.9249 23.7583 72.9339 23.7337 72.9479 23.7088C72.9618 23.6841 72.977 23.6656 72.9894 23.6532L73.6966 24.3603C73.9224 24.1344 73.9134 23.8733 73.9134 23.7955H72.9134ZM72.9049 23.7658C72.2411 24.9727 70.8195 25.6195 69.3992 25.6195V26.6195C71.0776 26.6195 72.8956 25.8578 73.7811 24.2477L72.9049 23.7658ZM69.3992 25.6195C67.0592 25.6195 65.3215 23.513 65.3215 21.1193H64.3215C64.3215 23.937 66.3868 26.6195 69.3992 26.6195V25.6195ZM65.3215 21.1193C65.3215 18.7256 67.0592 16.6191 69.3992 16.6191V15.6191C66.3868 15.6191 64.3215 18.3015 64.3215 21.1193H65.3215ZM69.4127 16.6189C71.6636 16.5581 73.4064 18.6451 73.4064 21.0489H74.4064C74.4064 18.2411 72.3462 15.5392 69.3857 15.6193L69.4127 16.6189ZM73.5595 20.5916C73.4041 18.4155 71.6869 16.3242 69.2578 16.3242V17.3242C71.0543 17.3242 72.4358 18.8951 72.5621 20.6628L73.5595 20.5916ZM69.2578 16.3242C66.8165 16.3242 65.1876 18.4278 64.9577 20.5739L65.952 20.6805C66.1446 18.8828 67.4736 17.3242 69.2578 17.3242V16.3242ZM65.4548 21.1272H73.0608V20.1272H65.4548V21.1272Z" fill="white" fill-opacity="0.25"/>
<path fill-rule="evenodd" clip-rule="evenodd" d="M83.7657 16.6128C83.7657 16.8945 83.6248 17.0354 83.4135 17.0354C81.0895 17.3875 80.0331 19.289 80.0331 21.5426V25.3456C80.0331 25.5569 79.8922 25.7681 79.6105 25.7681C79.3993 25.7681 79.188 25.6273 79.188 25.3456V16.6832C79.188 16.472 79.3288 16.2607 79.6105 16.2607C79.8218 16.2607 80.0331 16.4015 80.0331 16.6832V18.4439C80.6669 17.3171 82.005 16.2607 83.4135 16.2607C83.4839 16.2607 83.7657 16.4015 83.7657 16.6128Z" fill="white" fill-opacity="0.25"/>
<path d="M83.7657 16.6128C83.7657 16.8945 83.6248 17.0354 83.4135 17.0354C81.0895 17.3875 80.0331 19.289 80.0331 21.5426V25.3456C80.0331 25.5569 79.8922 25.7681 79.6105 25.7681C79.3993 25.7681 79.188 25.6273 79.188 25.3456V16.6832C79.188 16.472 79.3288 16.2607 79.6105 16.2607C79.8218 16.2607 80.0331 16.4015 80.0331 16.6832V18.4439C80.6669 17.3171 82.005 16.2607 83.4135 16.2607C83.4839 16.2607 83.7657 16.4015 83.7657 16.6128" stroke="white" stroke-opacity="0.25"/>
<path fill-rule="evenodd" clip-rule="evenodd" d="M96.8644 21.0489C96.8644 21.2601 96.6532 21.4714 96.4419 21.4714H88.4838C88.6951 23.4433 90.174 25.2744 92.2868 25.2744C93.6953 25.2744 94.7517 24.711 95.5968 23.5842C95.6672 23.4433 95.8081 23.3729 95.9489 23.3729C96.1602 23.3729 96.3715 23.5137 96.3715 23.7955C96.3715 23.8659 96.3715 23.9363 96.301 24.0067C95.5264 25.4152 93.9066 26.1195 92.3572 26.1195C89.681 26.1195 87.7795 23.725 87.7795 21.1193C87.7795 18.5135 89.681 16.1191 92.3572 16.1191C94.8925 16.0486 96.8644 18.4431 96.8644 21.0489ZM96.019 20.6272C95.8782 18.6553 94.3288 16.8242 92.2161 16.8242C90.1033 16.8242 88.6244 18.6553 88.4131 20.6272H96.019Z" fill="white" fill-opacity="0.25"/>
<path d="M88.4838 21.4714V20.9714H87.9274L87.9866 21.5247L88.4838 21.4714ZM95.5968 23.5842L95.9968 23.8842L96.0238 23.8481L96.044 23.8078L95.5968 23.5842ZM96.301 24.0067L95.9475 23.6532L95.8972 23.7035L95.8629 23.7658L96.301 24.0067ZM92.3572 16.1191V16.6193L92.3711 16.6189L92.3572 16.1191ZM96.019 20.6272V21.1272H96.556L96.5178 20.5916L96.019 20.6272ZM88.4131 20.6272L87.9159 20.5739L87.8567 21.1272H88.4131V20.6272ZM96.3644 21.0489C96.3644 21.0184 96.3719 20.9994 96.375 20.9926C96.3782 20.9858 96.3801 20.9846 96.3788 20.9858C96.3776 20.987 96.3788 20.9852 96.3856 20.982C96.3924 20.9788 96.4115 20.9714 96.4419 20.9714V21.9714C96.7101 21.9714 96.9366 21.8423 97.086 21.6929C97.2354 21.5435 97.3644 21.3171 97.3644 21.0489H96.3644ZM96.4419 20.9714H88.4838V21.9714H96.4419V20.9714ZM87.9866 21.5247C88.2166 23.6708 89.8455 25.7744 92.2868 25.7744V24.7744C90.5025 24.7744 89.1736 23.2158 88.981 21.4181L87.9866 21.5247ZM92.2868 25.7744C93.8621 25.7744 95.0631 25.1291 95.9968 23.8842L95.1968 23.2842C94.4403 24.2928 93.5285 24.7744 92.2868 24.7744V25.7744ZM96.044 23.8078C96.0331 23.8296 96.0146 23.8483 95.9945 23.8598C95.9764 23.8702 95.9606 23.8729 95.9489 23.8729V22.8729C95.6464 22.8729 95.3164 23.0269 95.1496 23.3606L96.044 23.8078ZM95.9489 23.8729C95.948 23.8729 95.9308 23.8732 95.9072 23.8522C95.8945 23.8409 95.8838 23.8263 95.8771 23.811C95.8704 23.7958 95.8715 23.7885 95.8715 23.7955H96.8715C96.8715 23.5189 96.7628 23.2748 96.5716 23.1048C96.3896 22.9431 96.1611 22.8729 95.9489 22.8729V23.8729ZM95.8715 23.7955C95.8715 23.8156 95.8713 23.8176 95.8713 23.8171C95.8715 23.8144 95.8725 23.8001 95.8776 23.7798C95.883 23.7583 95.892 23.7337 95.906 23.7088C95.9199 23.6841 95.9351 23.6656 95.9475 23.6532L96.6546 24.3603C96.8805 24.1344 96.8715 23.8733 96.8715 23.7955H95.8715ZM95.8629 23.7658C95.1991 24.9727 93.7775 25.6195 92.3572 25.6195V26.6195C94.0356 26.6195 95.8536 25.8578 96.7392 24.2477L95.8629 23.7658ZM92.3572 25.6195C90.0172 25.6195 88.2795 23.513 88.2795 21.1193H87.2795C87.2795 23.937 89.3449 26.6195 92.3572 26.6195V25.6195ZM88.2795 21.1193C88.2795 18.7256 90.0172 16.6191 92.3572 16.6191V15.6191C89.3449 15.6191 87.2795 18.3015 87.2795 21.1193H88.2795ZM92.3711 16.6189C94.5559 16.5582 96.3644 18.6504 96.3644 21.0489H97.3644C97.3644 18.2358 95.2292 15.5391 92.3433 15.6193L92.3711 16.6189ZM96.5178 20.5916C96.3623 18.4155 94.6451 16.3242 92.2161 16.3242V17.3242C94.0125 17.3242 95.394 18.8951 95.5203 20.6628L96.5178 20.5916ZM92.2161 16.3242C89.7748 16.3242 88.1459 18.4278 87.9159 20.5739L88.9102 20.6805C89.1028 18.8828 90.4318 17.3242 92.2161 17.3242V16.3242ZM88.4131 21.1272H96.019V20.1272H88.4131V21.1272Z" fill="white" fill-opacity="0.25"/>
<path fill-rule="evenodd" clip-rule="evenodd" d="M109.753 16.6827V19.4293V25.4154C109.753 25.6267 109.541 25.838 109.33 25.838C109.119 25.838 108.907 25.6971 108.907 25.4154V23.7252C108.274 25.0633 107.076 25.9788 105.597 25.9788C103.203 25.9788 101.935 23.9365 101.935 21.7533V16.6123C101.935 16.401 102.076 16.1897 102.358 16.1897C102.569 16.1897 102.78 16.401 102.78 16.6123V21.8237C102.78 23.514 103.766 25.2746 105.668 25.2746C108.344 25.2746 108.978 22.7393 108.978 19.9927V16.7531C108.978 16.5418 109.119 16.3305 109.4 16.3305C109.541 16.3305 109.753 16.4714 109.753 16.6827Z" fill="white" fill-opacity="0.25"/>
<path d="M109.753 16.6827V19.4293V25.4154C109.753 25.6267 109.541 25.838 109.33 25.838C109.119 25.838 108.907 25.6971 108.907 25.4154V23.7252C108.274 25.0633 107.076 25.9788 105.597 25.9788C103.203 25.9788 101.935 23.9365 101.935 21.7533V16.6123C101.935 16.401 102.076 16.1897 102.358 16.1897C102.569 16.1897 102.78 16.401 102.78 16.6123V21.8237C102.78 23.514 103.766 25.2746 105.668 25.2746C108.344 25.2746 108.978 22.7393 108.978 19.9927V16.7531C108.978 16.5418 109.119 16.3305 109.4 16.3305C109.541 16.3305 109.753 16.4714 109.753 16.6827" stroke="white" stroke-opacity="0.25"/>
<path fill-rule="evenodd" clip-rule="evenodd" d="M129.965 20.2739V25.415C129.965 25.6263 129.753 25.8376 129.542 25.8376C129.331 25.8376 129.12 25.6967 129.12 25.415V20.2739C129.12 18.5837 128.134 16.8935 126.232 16.8935C123.838 16.8935 122.922 19.4993 122.922 21.4712V25.415C122.922 25.6263 122.711 25.8376 122.5 25.8376C122.288 25.8376 122.077 25.6967 122.077 25.415V20.2739C122.077 18.5837 121.091 16.8935 119.19 16.8935C116.725 16.8935 115.739 18.795 115.809 21.3303C115.809 21.4007 115.809 21.4712 115.809 21.5416V25.415C115.809 25.6263 115.668 25.8376 115.387 25.8376C115.175 25.8376 114.964 25.6967 114.964 25.415V16.6822C114.964 16.471 115.105 16.2597 115.387 16.2597C115.598 16.2597 115.809 16.4005 115.809 16.6822V18.1612C116.513 16.9639 117.711 16.1188 119.19 16.1188C120.809 16.1188 122.077 17.1752 122.57 18.6542C123.204 17.1752 124.542 16.1188 126.162 16.1188C128.627 16.0484 129.965 18.0907 129.965 20.2739Z" fill="white" fill-opacity="0.25"/>
<path d="M129.965 20.2739V25.415C129.965 25.6263 129.753 25.8376 129.542 25.8376C129.331 25.8376 129.12 25.6967 129.12 25.415V20.2739C129.12 18.5837 128.134 16.8935 126.232 16.8935C123.838 16.8935 122.922 19.4993 122.922 21.4712V25.415C122.922 25.6263 122.711 25.8376 122.5 25.8376C122.288 25.8376 122.077 25.6967 122.077 25.415V20.2739C122.077 18.5837 121.091 16.8935 119.19 16.8935C116.725 16.8935 115.739 18.795 115.809 21.3303C115.809 21.4007 115.809 21.4712 115.809 21.5416V25.415C115.809 25.6263 115.668 25.8376 115.387 25.8376C115.175 25.8376 114.964 25.6967 114.964 25.415V16.6822C114.964 16.471 115.105 16.2597 115.387 16.2597C115.598 16.2597 115.809 16.4005 115.809 16.6822V18.1612C116.513 16.9639 117.711 16.1188 119.19 16.1188C120.809 16.1188 122.077 17.1752 122.57 18.6542C123.204 17.1752 124.542 16.1188 126.162 16.1188C128.627 16.0484 129.965 18.0907 129.965 20.2739" stroke="white" stroke-opacity="0.25"/>
<g opacity="0.9">
<path opacity="0.5" fill-rule="evenodd" clip-rule="evenodd" d="M0.427002 20.8499L11.6785 36.7398V27.5089L0.427002 20.8499Z" fill="white" fill-opacity="0.25"/>
<path fill-rule="evenodd" clip-rule="evenodd" d="M0.427002 18.6914L11.6785 25.3964V13.5938L0.427002 18.6914Z" fill="white" fill-opacity="0.25"/>
<path opacity="0.5" fill-rule="evenodd" clip-rule="evenodd" d="M0.427002 18.6915L11.6785 13.5939V0.000183105L0.427002 18.6915Z" fill="white" fill-opacity="0.25"/>
<path opacity="0.75" fill-rule="evenodd" clip-rule="evenodd" d="M22.9762 20.8499L11.6787 36.7399V27.509L22.9762 20.8499Z" fill="white" fill-opacity="0.25"/>
<path fill-rule="evenodd" clip-rule="evenodd" d="M22.9762 18.6914L11.6787 25.3964V13.5938L22.9762 18.6914Z" fill="white" fill-opacity="0.25"/>
<path opacity="0.75" fill-rule="evenodd" clip-rule="evenodd" d="M22.9762 18.6913L11.6787 13.5937V0L22.9762 18.6913Z" fill="white" fill-opacity="0.25"/>
</g>
</svg>
