<svg width="119" height="22" viewBox="0 0 119 22" fill="none" xmlns="http://www.w3.org/2000/svg">
<mask id="path-1-outside-1_337_1606" maskUnits="userSpaceOnUse" x="28.6619" y="0.463318" width="90" height="20" fill="black">
<rect fill="white" x="28.6619" y="0.463318" width="90" height="20"/>
<path d="M39.8646 18.6212C39.7971 18.9402 39.5155 19.1685 39.1893 19.1685H30.9063C30.2672 19.1685 29.7922 18.5773 29.9297 17.9533L33.4362 2.04284C33.5108 1.70437 33.8107 1.46332 34.1573 1.46332C34.6295 1.46332 34.9803 1.90025 34.8784 2.36123L31.7358 16.5723C31.5977 17.1965 32.0729 17.7882 32.7122 17.7882H39.1893C39.628 17.7882 39.9553 18.192 39.8646 18.6212Z"/>
<path d="M47.383 4.33013C47.1176 4.33013 46.8875 4.24164 46.6929 4.06468C46.5159 3.87002 46.4274 3.64882 46.4274 3.40107C46.4274 3.06484 46.5513 2.79054 46.799 2.57819C47.0468 2.34814 47.3211 2.23311 47.6219 2.23311C47.8874 2.23311 48.1086 2.32159 48.2855 2.49855C48.4802 2.67552 48.5775 2.89672 48.5775 3.16217C48.5775 3.4984 48.4536 3.78154 48.2059 4.01159C47.9582 4.22395 47.6839 4.33013 47.383 4.33013ZM44.819 18.6404C44.7507 18.9489 44.4771 19.1685 44.1611 19.1685C43.7302 19.1685 43.4101 18.7696 43.5033 18.3489L46.045 6.87559C46.1133 6.56708 46.3869 6.34751 46.7029 6.34751C47.1338 6.34751 47.4539 6.74637 47.3607 7.16707L44.819 18.6404Z"/>
<path d="M52.2902 19.487C50.5914 19.487 49.742 18.7703 49.742 17.3369C49.742 17.1423 49.7685 16.9122 49.8216 16.6468L51.6081 8.6075C51.7266 8.07433 51.3209 7.56856 50.7747 7.56856H50.4729C50.0835 7.56856 49.7936 7.20888 49.8763 6.82834C49.9373 6.54769 50.1857 6.34751 50.4729 6.34751H51.3003C51.7699 6.34751 52.1762 6.02075 52.277 5.56209L52.7557 3.38325C52.8249 3.06813 53.1041 2.84363 53.4267 2.84363C53.8656 2.84363 54.1919 3.24947 54.0977 3.6781L53.7781 5.13293C53.6411 5.75681 54.1161 6.34751 54.7548 6.34751H55.3389C55.7335 6.34751 56.0245 6.71624 55.9327 7.10002C55.867 7.37476 55.6214 7.56856 55.3389 7.56856H54.0225C53.5533 7.56856 53.1472 7.89473 53.046 8.35286L51.255 16.461C51.2196 16.6379 51.2019 16.8237 51.2019 17.0184C51.2019 17.8324 51.6355 18.2394 52.5026 18.2394C52.7239 18.2394 52.9394 18.2053 53.1493 18.137C53.5104 18.0194 53.9546 18.1745 54.0426 18.5439C54.0908 18.7462 54.0177 18.9618 53.8395 19.0693C53.3776 19.3478 52.8612 19.487 52.2902 19.487Z"/>
<path d="M62.9184 19.487C61.0249 19.487 59.5296 18.9738 58.4324 17.9475C57.3529 16.9034 56.8132 15.5319 56.8132 13.8331C56.8132 11.6918 57.5033 9.86023 58.8836 8.33835C60.264 6.79876 61.9451 6.02897 63.9271 6.02897C65.5905 6.02897 66.9089 6.55102 67.8822 7.5951C68.8732 8.63918 69.3687 9.96641 69.3687 11.5768C69.3687 11.8535 69.3481 12.138 69.307 12.4302C69.2429 12.8846 68.8344 13.196 68.3756 13.196H59.0722C58.6417 13.196 58.2731 13.5088 58.2731 13.9392C58.2731 15.1957 58.6801 16.2398 59.4942 17.0715C60.3082 17.8855 61.4673 18.2925 62.9715 18.2925C64.2198 18.2925 65.3308 17.9681 66.3046 17.3191C66.5949 17.1257 67.0005 17.2038 67.1629 17.5125C67.2871 17.7484 67.2242 18.0412 67.0043 18.1919C65.7448 19.0553 64.3828 19.487 62.9184 19.487ZM58.7712 10.9631C58.55 11.5429 59.0266 12.1077 59.6472 12.1077H67.4298C67.77 12.1077 68.0415 11.8639 68.0415 11.5237C68.0415 10.2496 67.661 9.21432 66.9001 8.41798C66.1568 7.62164 65.1128 7.22348 63.7678 7.22348C62.4937 7.22348 61.3434 7.71013 60.317 8.68343C59.611 9.35227 59.0958 10.1122 58.7712 10.9631Z"/>
<path d="M82.1456 17.1405C82.3396 17.3733 82.3295 17.717 82.1047 17.9202C80.9491 18.9648 79.6075 19.487 78.0799 19.487C76.381 19.487 75.0007 18.9827 73.9389 17.974C72.8949 16.9653 72.3728 15.5761 72.3728 13.8065C72.3728 11.683 73.063 9.86023 74.4433 8.33835C75.8236 6.79876 77.5047 6.02897 79.4867 6.02897C81.3914 6.02897 82.813 6.64503 83.7515 7.87714C83.9542 8.14319 83.8764 8.51678 83.6089 8.71745C83.2942 8.95345 82.848 8.85588 82.5935 8.55593C81.87 7.70302 80.852 7.27657 79.5398 7.27657C77.841 7.27657 76.4607 7.93133 75.3989 9.24086C74.3548 10.5327 73.8328 12.0634 73.8328 13.8331C73.8328 15.2488 74.2398 16.3371 75.0538 17.098C75.8678 17.859 76.9208 18.2394 78.2126 18.2394C79.372 18.2394 80.3671 17.8621 81.1979 17.1075C81.4724 16.8582 81.9082 16.8556 82.1456 17.1405Z"/>
<path d="M91.117 19.487C89.4004 19.487 88.029 18.9738 87.0026 17.9475C85.9762 16.9211 85.463 15.5585 85.463 13.8596C85.463 11.7714 86.1443 9.94871 87.5069 8.39144C88.8695 6.81646 90.5418 6.02897 92.5238 6.02897C94.2404 6.02897 95.6118 6.54217 96.6382 7.56856C97.6646 8.59494 98.1778 9.95756 98.1778 11.6564C98.1778 13.7446 97.4965 15.5761 96.1339 17.1511C94.7713 18.7084 93.099 19.487 91.117 19.487ZM91.1435 18.2394C92.7008 18.2394 94.0103 17.5847 95.0721 16.2752C96.1339 14.9479 96.6648 13.426 96.6648 11.7095C96.6648 10.3469 96.2931 9.2674 95.5499 8.47107C94.8243 7.67473 93.8068 7.27657 92.4973 7.27657C90.94 7.27657 89.6305 7.94018 88.5687 9.2674C87.5069 10.5769 86.976 12.09 86.976 13.8065C86.976 15.1691 87.3388 16.2486 88.0643 17.0449C88.8076 17.8413 89.834 18.2394 91.1435 18.2394Z"/>
<path d="M104.211 4.33013C103.946 4.33013 103.716 4.24164 103.521 4.06468C103.344 3.87002 103.255 3.64882 103.255 3.40107C103.255 3.06484 103.379 2.79054 103.627 2.57819C103.875 2.34814 104.149 2.23311 104.45 2.23311C104.715 2.23311 104.937 2.32159 105.114 2.49855C105.308 2.67552 105.406 2.89672 105.406 3.16217C105.406 3.4984 105.282 3.78154 105.034 4.01159C104.786 4.22395 104.512 4.33013 104.211 4.33013ZM101.647 18.6404C101.579 18.9489 101.305 19.1685 100.989 19.1685C100.558 19.1685 100.238 18.7696 100.331 18.3489L102.873 6.87559C102.941 6.56708 103.215 6.34751 103.531 6.34751C103.962 6.34751 104.282 6.74638 104.189 7.16707L101.647 18.6404Z"/>
<path d="M115.977 18.6392C115.909 18.9484 115.635 19.1685 115.319 19.1685C114.888 19.1685 114.568 18.7703 114.66 18.3496L116.391 10.4619C116.498 9.98411 116.551 9.67442 116.551 9.53285C116.551 8.77191 116.294 8.20562 115.781 7.834C115.268 7.46238 114.595 7.27657 113.764 7.27657C112.329 7.27657 110.919 7.95234 109.533 9.30389C109.399 9.43436 109.309 9.60305 109.269 9.78558L107.323 18.6397C107.255 18.9485 106.982 19.1685 106.666 19.1685C106.235 19.1685 105.915 18.7699 106.008 18.3495L108.55 6.87633C108.618 6.56739 108.892 6.34751 109.209 6.34751H109.51C109.786 6.34751 109.991 6.60286 109.932 6.87265C109.84 7.29216 110.374 7.59871 110.718 7.34206C111.892 6.46667 113.067 6.02897 114.241 6.02897C115.374 6.02897 116.276 6.30327 116.949 6.85185C117.639 7.38274 117.984 8.15254 117.984 9.16123C117.984 9.49746 117.931 9.86023 117.825 10.2496L115.977 18.6392Z"/>
</mask>
<path d="M39.8646 18.6212C39.7971 18.9402 39.5155 19.1685 39.1893 19.1685H30.9063C30.2672 19.1685 29.7922 18.5773 29.9297 17.9533L33.4362 2.04284C33.5108 1.70437 33.8107 1.46332 34.1573 1.46332C34.6295 1.46332 34.9803 1.90025 34.8784 2.36123L31.7358 16.5723C31.5977 17.1965 32.0729 17.7882 32.7122 17.7882H39.1893C39.628 17.7882 39.9553 18.192 39.8646 18.6212Z" fill="white" fill-opacity="0.25"/>
<path d="M47.383 4.33013C47.1176 4.33013 46.8875 4.24164 46.6929 4.06468C46.5159 3.87002 46.4274 3.64882 46.4274 3.40107C46.4274 3.06484 46.5513 2.79054 46.799 2.57819C47.0468 2.34814 47.3211 2.23311 47.6219 2.23311C47.8874 2.23311 48.1086 2.32159 48.2855 2.49855C48.4802 2.67552 48.5775 2.89672 48.5775 3.16217C48.5775 3.4984 48.4536 3.78154 48.2059 4.01159C47.9582 4.22395 47.6839 4.33013 47.383 4.33013ZM44.819 18.6404C44.7507 18.9489 44.4771 19.1685 44.1611 19.1685C43.7302 19.1685 43.4101 18.7696 43.5033 18.3489L46.045 6.87559C46.1133 6.56708 46.3869 6.34751 46.7029 6.34751C47.1338 6.34751 47.4539 6.74637 47.3607 7.16707L44.819 18.6404Z" fill="white" fill-opacity="0.25"/>
<path d="M52.2902 19.487C50.5914 19.487 49.742 18.7703 49.742 17.3369C49.742 17.1423 49.7685 16.9122 49.8216 16.6468L51.6081 8.6075C51.7266 8.07433 51.3209 7.56856 50.7747 7.56856H50.4729C50.0835 7.56856 49.7936 7.20888 49.8763 6.82834C49.9373 6.54769 50.1857 6.34751 50.4729 6.34751H51.3003C51.7699 6.34751 52.1762 6.02075 52.277 5.56209L52.7557 3.38325C52.8249 3.06813 53.1041 2.84363 53.4267 2.84363C53.8656 2.84363 54.1919 3.24947 54.0977 3.6781L53.7781 5.13293C53.6411 5.75681 54.1161 6.34751 54.7548 6.34751H55.3389C55.7335 6.34751 56.0245 6.71624 55.9327 7.10002C55.867 7.37476 55.6214 7.56856 55.3389 7.56856H54.0225C53.5533 7.56856 53.1472 7.89473 53.046 8.35286L51.255 16.461C51.2196 16.6379 51.2019 16.8237 51.2019 17.0184C51.2019 17.8324 51.6355 18.2394 52.5026 18.2394C52.7239 18.2394 52.9394 18.2053 53.1493 18.137C53.5104 18.0194 53.9546 18.1745 54.0426 18.5439C54.0908 18.7462 54.0177 18.9618 53.8395 19.0693C53.3776 19.3478 52.8612 19.487 52.2902 19.487Z" fill="white" fill-opacity="0.25"/>
<path d="M62.9184 19.487C61.0249 19.487 59.5296 18.9738 58.4324 17.9475C57.3529 16.9034 56.8132 15.5319 56.8132 13.8331C56.8132 11.6918 57.5033 9.86023 58.8836 8.33835C60.264 6.79876 61.9451 6.02897 63.9271 6.02897C65.5905 6.02897 66.9089 6.55102 67.8822 7.5951C68.8732 8.63918 69.3687 9.96641 69.3687 11.5768C69.3687 11.8535 69.3481 12.138 69.307 12.4302C69.2429 12.8846 68.8344 13.196 68.3756 13.196H59.0722C58.6417 13.196 58.2731 13.5088 58.2731 13.9392C58.2731 15.1957 58.6801 16.2398 59.4942 17.0715C60.3082 17.8855 61.4673 18.2925 62.9715 18.2925C64.2198 18.2925 65.3308 17.9681 66.3046 17.3191C66.5949 17.1257 67.0005 17.2038 67.1629 17.5125C67.2871 17.7484 67.2242 18.0412 67.0043 18.1919C65.7448 19.0553 64.3828 19.487 62.9184 19.487ZM58.7712 10.9631C58.55 11.5429 59.0266 12.1077 59.6472 12.1077H67.4298C67.77 12.1077 68.0415 11.8639 68.0415 11.5237C68.0415 10.2496 67.661 9.21432 66.9001 8.41798C66.1568 7.62164 65.1128 7.22348 63.7678 7.22348C62.4937 7.22348 61.3434 7.71013 60.317 8.68343C59.611 9.35227 59.0958 10.1122 58.7712 10.9631Z" fill="white" fill-opacity="0.25"/>
<path d="M82.1456 17.1405C82.3396 17.3733 82.3295 17.717 82.1047 17.9202C80.9491 18.9648 79.6075 19.487 78.0799 19.487C76.381 19.487 75.0007 18.9827 73.9389 17.974C72.8949 16.9653 72.3728 15.5761 72.3728 13.8065C72.3728 11.683 73.063 9.86023 74.4433 8.33835C75.8236 6.79876 77.5047 6.02897 79.4867 6.02897C81.3914 6.02897 82.813 6.64503 83.7515 7.87714C83.9542 8.14319 83.8764 8.51678 83.6089 8.71745C83.2942 8.95345 82.848 8.85588 82.5935 8.55593C81.87 7.70302 80.852 7.27657 79.5398 7.27657C77.841 7.27657 76.4607 7.93133 75.3989 9.24086C74.3548 10.5327 73.8328 12.0634 73.8328 13.8331C73.8328 15.2488 74.2398 16.3371 75.0538 17.098C75.8678 17.859 76.9208 18.2394 78.2126 18.2394C79.372 18.2394 80.3671 17.8621 81.1979 17.1075C81.4724 16.8582 81.9082 16.8556 82.1456 17.1405Z" fill="white" fill-opacity="0.25"/>
<path d="M91.117 19.487C89.4004 19.487 88.029 18.9738 87.0026 17.9475C85.9762 16.9211 85.463 15.5585 85.463 13.8596C85.463 11.7714 86.1443 9.94871 87.5069 8.39144C88.8695 6.81646 90.5418 6.02897 92.5238 6.02897C94.2404 6.02897 95.6118 6.54217 96.6382 7.56856C97.6646 8.59494 98.1778 9.95756 98.1778 11.6564C98.1778 13.7446 97.4965 15.5761 96.1339 17.1511C94.7713 18.7084 93.099 19.487 91.117 19.487ZM91.1435 18.2394C92.7008 18.2394 94.0103 17.5847 95.0721 16.2752C96.1339 14.9479 96.6648 13.426 96.6648 11.7095C96.6648 10.3469 96.2931 9.2674 95.5499 8.47107C94.8243 7.67473 93.8068 7.27657 92.4973 7.27657C90.94 7.27657 89.6305 7.94018 88.5687 9.2674C87.5069 10.5769 86.976 12.09 86.976 13.8065C86.976 15.1691 87.3388 16.2486 88.0643 17.0449C88.8076 17.8413 89.834 18.2394 91.1435 18.2394Z" fill="white" fill-opacity="0.25"/>
<path d="M104.211 4.33013C103.946 4.33013 103.716 4.24164 103.521 4.06468C103.344 3.87002 103.255 3.64882 103.255 3.40107C103.255 3.06484 103.379 2.79054 103.627 2.57819C103.875 2.34814 104.149 2.23311 104.45 2.23311C104.715 2.23311 104.937 2.32159 105.114 2.49855C105.308 2.67552 105.406 2.89672 105.406 3.16217C105.406 3.4984 105.282 3.78154 105.034 4.01159C104.786 4.22395 104.512 4.33013 104.211 4.33013ZM101.647 18.6404C101.579 18.9489 101.305 19.1685 100.989 19.1685C100.558 19.1685 100.238 18.7696 100.331 18.3489L102.873 6.87559C102.941 6.56708 103.215 6.34751 103.531 6.34751C103.962 6.34751 104.282 6.74638 104.189 7.16707L101.647 18.6404Z" fill="white" fill-opacity="0.25"/>
<path d="M115.977 18.6392C115.909 18.9484 115.635 19.1685 115.319 19.1685C114.888 19.1685 114.568 18.7703 114.66 18.3496L116.391 10.4619C116.498 9.98411 116.551 9.67442 116.551 9.53285C116.551 8.77191 116.294 8.20562 115.781 7.834C115.268 7.46238 114.595 7.27657 113.764 7.27657C112.329 7.27657 110.919 7.95234 109.533 9.30389C109.399 9.43436 109.309 9.60305 109.269 9.78558L107.323 18.6397C107.255 18.9485 106.982 19.1685 106.666 19.1685C106.235 19.1685 105.915 18.7699 106.008 18.3495L108.55 6.87633C108.618 6.56739 108.892 6.34751 109.209 6.34751H109.51C109.786 6.34751 109.991 6.60286 109.932 6.87265C109.84 7.29216 110.374 7.59871 110.718 7.34206C111.892 6.46667 113.067 6.02897 114.241 6.02897C115.374 6.02897 116.276 6.30327 116.949 6.85185C117.639 7.38274 117.984 8.15254 117.984 9.16123C117.984 9.49746 117.931 9.86023 117.825 10.2496L115.977 18.6392Z" fill="white" fill-opacity="0.25"/>
<path d="M39.8646 18.6212C39.7971 18.9402 39.5155 19.1685 39.1893 19.1685H30.9063C30.2672 19.1685 29.7922 18.5773 29.9297 17.9533L33.4362 2.04284C33.5108 1.70437 33.8107 1.46332 34.1573 1.46332C34.6295 1.46332 34.9803 1.90025 34.8784 2.36123L31.7358 16.5723C31.5977 17.1965 32.0729 17.7882 32.7122 17.7882H39.1893C39.628 17.7882 39.9553 18.192 39.8646 18.6212Z" stroke="white" stroke-opacity="0.25" mask="url(#path-1-outside-1_337_1606)"/>
<path d="M47.383 4.33013C47.1176 4.33013 46.8875 4.24164 46.6929 4.06468C46.5159 3.87002 46.4274 3.64882 46.4274 3.40107C46.4274 3.06484 46.5513 2.79054 46.799 2.57819C47.0468 2.34814 47.3211 2.23311 47.6219 2.23311C47.8874 2.23311 48.1086 2.32159 48.2855 2.49855C48.4802 2.67552 48.5775 2.89672 48.5775 3.16217C48.5775 3.4984 48.4536 3.78154 48.2059 4.01159C47.9582 4.22395 47.6839 4.33013 47.383 4.33013ZM44.819 18.6404C44.7507 18.9489 44.4771 19.1685 44.1611 19.1685C43.7302 19.1685 43.4101 18.7696 43.5033 18.3489L46.045 6.87559C46.1133 6.56708 46.3869 6.34751 46.7029 6.34751C47.1338 6.34751 47.4539 6.74637 47.3607 7.16707L44.819 18.6404Z" stroke="white" stroke-opacity="0.25" mask="url(#path-1-outside-1_337_1606)"/>
<path d="M52.2902 19.487C50.5914 19.487 49.742 18.7703 49.742 17.3369C49.742 17.1423 49.7685 16.9122 49.8216 16.6468L51.6081 8.6075C51.7266 8.07433 51.3209 7.56856 50.7747 7.56856H50.4729C50.0835 7.56856 49.7936 7.20888 49.8763 6.82834C49.9373 6.54769 50.1857 6.34751 50.4729 6.34751H51.3003C51.7699 6.34751 52.1762 6.02075 52.277 5.56209L52.7557 3.38325C52.8249 3.06813 53.1041 2.84363 53.4267 2.84363C53.8656 2.84363 54.1919 3.24947 54.0977 3.6781L53.7781 5.13293C53.6411 5.75681 54.1161 6.34751 54.7548 6.34751H55.3389C55.7335 6.34751 56.0245 6.71624 55.9327 7.10002C55.867 7.37476 55.6214 7.56856 55.3389 7.56856H54.0225C53.5533 7.56856 53.1472 7.89473 53.046 8.35286L51.255 16.461C51.2196 16.6379 51.2019 16.8237 51.2019 17.0184C51.2019 17.8324 51.6355 18.2394 52.5026 18.2394C52.7239 18.2394 52.9394 18.2053 53.1493 18.137C53.5104 18.0194 53.9546 18.1745 54.0426 18.5439C54.0908 18.7462 54.0177 18.9618 53.8395 19.0693C53.3776 19.3478 52.8612 19.487 52.2902 19.487Z" stroke="white" stroke-opacity="0.25" mask="url(#path-1-outside-1_337_1606)"/>
<path d="M62.9184 19.487C61.0249 19.487 59.5296 18.9738 58.4324 17.9475C57.3529 16.9034 56.8132 15.5319 56.8132 13.8331C56.8132 11.6918 57.5033 9.86023 58.8836 8.33835C60.264 6.79876 61.9451 6.02897 63.9271 6.02897C65.5905 6.02897 66.9089 6.55102 67.8822 7.5951C68.8732 8.63918 69.3687 9.96641 69.3687 11.5768C69.3687 11.8535 69.3481 12.138 69.307 12.4302C69.2429 12.8846 68.8344 13.196 68.3756 13.196H59.0722C58.6417 13.196 58.2731 13.5088 58.2731 13.9392C58.2731 15.1957 58.6801 16.2398 59.4942 17.0715C60.3082 17.8855 61.4673 18.2925 62.9715 18.2925C64.2198 18.2925 65.3308 17.9681 66.3046 17.3191C66.5949 17.1257 67.0005 17.2038 67.1629 17.5125C67.2871 17.7484 67.2242 18.0412 67.0043 18.1919C65.7448 19.0553 64.3828 19.487 62.9184 19.487ZM58.7712 10.9631C58.55 11.5429 59.0266 12.1077 59.6472 12.1077H67.4298C67.77 12.1077 68.0415 11.8639 68.0415 11.5237C68.0415 10.2496 67.661 9.21432 66.9001 8.41798C66.1568 7.62164 65.1128 7.22348 63.7678 7.22348C62.4937 7.22348 61.3434 7.71013 60.317 8.68343C59.611 9.35227 59.0958 10.1122 58.7712 10.9631Z" stroke="white" stroke-opacity="0.25" mask="url(#path-1-outside-1_337_1606)"/>
<path d="M82.1456 17.1405C82.3396 17.3733 82.3295 17.717 82.1047 17.9202C80.9491 18.9648 79.6075 19.487 78.0799 19.487C76.381 19.487 75.0007 18.9827 73.9389 17.974C72.8949 16.9653 72.3728 15.5761 72.3728 13.8065C72.3728 11.683 73.063 9.86023 74.4433 8.33835C75.8236 6.79876 77.5047 6.02897 79.4867 6.02897C81.3914 6.02897 82.813 6.64503 83.7515 7.87714C83.9542 8.14319 83.8764 8.51678 83.6089 8.71745C83.2942 8.95345 82.848 8.85588 82.5935 8.55593C81.87 7.70302 80.852 7.27657 79.5398 7.27657C77.841 7.27657 76.4607 7.93133 75.3989 9.24086C74.3548 10.5327 73.8328 12.0634 73.8328 13.8331C73.8328 15.2488 74.2398 16.3371 75.0538 17.098C75.8678 17.859 76.9208 18.2394 78.2126 18.2394C79.372 18.2394 80.3671 17.8621 81.1979 17.1075C81.4724 16.8582 81.9082 16.8556 82.1456 17.1405Z" stroke="white" stroke-opacity="0.25" mask="url(#path-1-outside-1_337_1606)"/>
<path d="M91.117 19.487C89.4004 19.487 88.029 18.9738 87.0026 17.9475C85.9762 16.9211 85.463 15.5585 85.463 13.8596C85.463 11.7714 86.1443 9.94871 87.5069 8.39144C88.8695 6.81646 90.5418 6.02897 92.5238 6.02897C94.2404 6.02897 95.6118 6.54217 96.6382 7.56856C97.6646 8.59494 98.1778 9.95756 98.1778 11.6564C98.1778 13.7446 97.4965 15.5761 96.1339 17.1511C94.7713 18.7084 93.099 19.487 91.117 19.487ZM91.1435 18.2394C92.7008 18.2394 94.0103 17.5847 95.0721 16.2752C96.1339 14.9479 96.6648 13.426 96.6648 11.7095C96.6648 10.3469 96.2931 9.2674 95.5499 8.47107C94.8243 7.67473 93.8068 7.27657 92.4973 7.27657C90.94 7.27657 89.6305 7.94018 88.5687 9.2674C87.5069 10.5769 86.976 12.09 86.976 13.8065C86.976 15.1691 87.3388 16.2486 88.0643 17.0449C88.8076 17.8413 89.834 18.2394 91.1435 18.2394Z" stroke="white" stroke-opacity="0.25" mask="url(#path-1-outside-1_337_1606)"/>
<path d="M104.211 4.33013C103.946 4.33013 103.716 4.24164 103.521 4.06468C103.344 3.87002 103.255 3.64882 103.255 3.40107C103.255 3.06484 103.379 2.79054 103.627 2.57819C103.875 2.34814 104.149 2.23311 104.45 2.23311C104.715 2.23311 104.937 2.32159 105.114 2.49855C105.308 2.67552 105.406 2.89672 105.406 3.16217C105.406 3.4984 105.282 3.78154 105.034 4.01159C104.786 4.22395 104.512 4.33013 104.211 4.33013ZM101.647 18.6404C101.579 18.9489 101.305 19.1685 100.989 19.1685C100.558 19.1685 100.238 18.7696 100.331 18.3489L102.873 6.87559C102.941 6.56708 103.215 6.34751 103.531 6.34751C103.962 6.34751 104.282 6.74638 104.189 7.16707L101.647 18.6404Z" stroke="white" stroke-opacity="0.25" mask="url(#path-1-outside-1_337_1606)"/>
<path d="M115.977 18.6392C115.909 18.9484 115.635 19.1685 115.319 19.1685C114.888 19.1685 114.568 18.7703 114.66 18.3496L116.391 10.4619C116.498 9.98411 116.551 9.67442 116.551 9.53285C116.551 8.77191 116.294 8.20562 115.781 7.834C115.268 7.46238 114.595 7.27657 113.764 7.27657C112.329 7.27657 110.919 7.95234 109.533 9.30389C109.399 9.43436 109.309 9.60305 109.269 9.78558L107.323 18.6397C107.255 18.9485 106.982 19.1685 106.666 19.1685C106.235 19.1685 105.915 18.7699 106.008 18.3495L108.55 6.87633C108.618 6.56739 108.892 6.34751 109.209 6.34751H109.51C109.786 6.34751 109.991 6.60286 109.932 6.87265C109.84 7.29216 110.374 7.59871 110.718 7.34206C111.892 6.46667 113.067 6.02897 114.241 6.02897C115.374 6.02897 116.276 6.30327 116.949 6.85185C117.639 7.38274 117.984 8.15254 117.984 9.16123C117.984 9.49746 117.931 9.86023 117.825 10.2496L115.977 18.6392Z" stroke="white" stroke-opacity="0.25" mask="url(#path-1-outside-1_337_1606)"/>
<path fill-rule="evenodd" clip-rule="evenodd" d="M20.0564 13.798C20.283 12.9503 20.3973 12.0765 20.3967 11.199C20.3981 10.2278 20.2558 9.26178 19.9745 8.33223C19.7798 7.64851 19.506 6.98984 19.1586 6.3696C18.8175 5.73998 18.4087 5.14948 17.9394 4.60859C17.622 4.23819 17.2765 3.89274 16.9061 3.57529C16.3653 3.10601 15.7748 2.6972 15.1451 2.35613C15.0338 2.29103 14.9225 2.23222 14.8112 2.17971C14.5578 2.04799 14.297 1.93123 14.0299 1.83003C12.8489 1.35696 11.588 1.11526 10.3157 1.11807C9.43719 1.1171 8.56234 1.23149 7.71358 1.4583C6.33108 1.83225 5.04294 2.4935 3.93323 3.39888C2.77104 4.34677 1.83498 5.54203 1.19328 6.89755C0.551583 8.25307 0.220412 9.73468 0.223904 11.2344C0.227397 12.7341 0.565465 14.2142 1.21347 15.5667C1.86148 16.9192 2.80309 18.1101 3.96969 19.0526C5.13628 19.9951 6.49847 20.6654 7.95696 21.0147C9.41545 21.3639 10.9335 21.3834 12.4005 21.0716C13.8674 20.7599 15.2464 20.1247 16.4368 19.2125C17.6271 18.3002 18.599 17.1339 19.2815 15.7984C19.6129 15.1623 19.8728 14.4914 20.0564 13.798ZM6.69913 13.0894L7.49931 12.7743C7.48041 12.8468 7.48041 12.8909 7.48041 12.9318C7.27039 13.7404 7.06667 14.55 6.86925 15.3607C6.80939 15.6096 6.81884 15.6096 7.03936 15.6096C9.19417 15.6096 11.3521 15.6138 13.5132 15.6222C13.5436 15.6261 13.5745 15.6238 13.6039 15.6153C13.6333 15.6068 13.6607 15.5924 13.6843 15.5729C13.708 15.5534 13.7273 15.5293 13.7413 15.502C13.7552 15.4747 13.7633 15.4448 13.7652 15.4143C13.8597 14.9732 13.9648 14.5343 14.0803 14.0975C14.1212 13.9462 14.0866 13.8958 13.9417 13.8958H10.114C9.89983 13.8958 9.88408 13.8738 9.93763 13.6627C10.0132 13.3477 10.092 13.0327 10.1708 12.7176C10.2495 12.4026 10.3283 12.0876 10.4039 11.7725C10.4116 11.7231 10.4327 11.6767 10.4649 11.6383C10.4971 11.6 10.5392 11.5713 10.5866 11.5552C10.7299 11.5016 10.8733 11.4449 11.0166 11.3882C11.16 11.3315 11.3033 11.2748 11.4466 11.2212C11.4975 11.2056 11.543 11.1761 11.5781 11.136C11.6131 11.096 11.6363 11.0469 11.6451 10.9944C11.6766 10.859 11.7105 10.7243 11.7443 10.5896C11.7782 10.4549 11.8121 10.3203 11.8436 10.1848C11.8436 10.1683 11.8486 10.1495 11.8537 10.1303C11.8643 10.0907 11.8754 10.0496 11.8436 10.0241C11.8076 9.99536 11.7662 10.0159 11.7262 10.0356C11.7136 10.0418 11.7012 10.048 11.6892 10.0525L10.952 10.3455C10.9435 10.3506 10.9353 10.3561 10.9271 10.3615C10.8807 10.3921 10.8382 10.4203 10.7819 10.3801C10.7377 10.3485 10.7526 10.3042 10.7673 10.2605C10.7746 10.2388 10.7819 10.2172 10.7819 10.1974L11.5632 7.0471C11.623 6.79823 11.6167 6.79823 11.3773 6.79823H9.23512C9.0524 6.79508 8.98309 6.86438 8.93899 7.0471C8.761 7.7701 8.58064 8.4931 8.40028 9.2161C8.21993 9.93909 8.03958 10.6621 7.86159 11.3851C7.85228 11.4493 7.82479 11.5095 7.78237 11.5586C7.73995 11.6078 7.68436 11.6437 7.62217 11.6623C7.49084 11.7061 7.36162 11.7583 7.23267 11.8104C7.13892 11.8483 7.04532 11.8861 6.95116 11.9206C6.90578 11.9338 6.86497 11.9594 6.83326 11.9944C6.80156 12.0294 6.78021 12.0726 6.77159 12.1191C6.73693 12.2593 6.70149 12.4002 6.66605 12.5412C6.63061 12.6822 6.59517 12.8232 6.56052 12.9633C6.56052 12.979 6.55569 12.996 6.55083 13.0131C6.54099 13.0478 6.53101 13.083 6.56052 13.1083C6.59673 13.1393 6.6372 13.1194 6.67493 13.1008C6.68315 13.0967 6.69124 13.0927 6.69913 13.0894Z" fill="white" fill-opacity="0.25"/>
</svg>
