<svg width="98" height="21" viewBox="0 0 98 21" fill="none" xmlns="http://www.w3.org/2000/svg">
<path fill-rule="evenodd" clip-rule="evenodd" d="M8.26117 20.3555C13.7849 21.7364 19.1706 18.4222 20.5515 13.0365C21.9325 7.65084 18.6182 2.12708 13.2326 0.746142C7.70879 -0.634798 2.32313 2.67946 0.942187 8.06512C-0.438753 13.5889 2.8755 18.9745 8.26117 20.3555ZM12.9568 6.68412C14.3378 7.0984 15.3044 7.78887 15.1663 9.16981C15.0282 10.1365 14.4759 10.5508 13.6473 10.8269C14.614 11.2412 15.0282 12.0698 14.614 13.4507C14.0616 15.2459 12.6806 15.384 10.7473 14.9698L10.333 16.765L9.22829 16.4888L9.64258 14.6936C9.50448 14.6245 9.36639 14.59 9.22829 14.5555C9.0902 14.521 8.95211 14.4864 8.81401 14.4174L8.39973 16.2126L7.29498 15.9364L7.70926 14.1412C7.57117 14.1412 7.43307 14.1067 7.29498 14.0721C7.15688 14.0376 7.01879 14.0031 6.8807 14.0031L5.49976 13.5888L6.05213 12.346L6.8807 12.4841C7.29498 12.4841 7.43307 12.346 7.43307 12.2079L8.12354 9.30791L8.67592 7.2365C8.67592 6.96031 8.53782 6.68412 8.12354 6.54603L7.29498 6.40793L7.70926 5.16509L9.22829 5.57937C9.36639 5.57937 9.46996 5.61389 9.57353 5.64842C9.6771 5.68294 9.78067 5.71746 9.91876 5.71746L10.333 3.92224L11.4378 4.33652L11.0235 6.13175C11.1616 6.20079 11.2997 6.23532 11.4378 6.26984C11.5759 6.30436 11.714 6.33889 11.8521 6.40793L12.2664 4.61271L13.3711 4.8889L12.9568 6.68412ZM9.22827 13.0364C10.0568 13.3125 12.4044 14.003 12.6806 12.6221C13.0317 11.4518 11.3 10.9757 10.2593 10.6896C10.0719 10.6381 9.90702 10.5928 9.78065 10.5507L9.22827 13.0364ZM12.9566 9.03192C12.7185 10.1034 11.2489 9.73798 10.4056 9.52834C10.2707 9.4948 10.1519 9.46524 10.0566 9.4462L10.609 7.23669C10.7413 7.2896 10.9242 7.3425 11.1306 7.4022L11.1306 7.4022C12.0019 7.65416 13.2915 8.02714 12.9566 9.03192Z" fill="white" fill-opacity="0.25"/>
<path fill-rule="evenodd" clip-rule="evenodd" d="M32.2897 6.95978C31.7373 6.68359 31.0469 6.5455 30.2183 6.5455C29.804 6.5455 29.5278 6.5455 29.1135 6.68359C28.9755 6.75264 28.8028 6.82168 28.6302 6.89073C28.4576 6.95978 28.285 7.02883 28.1469 7.09787L29.6659 0.46936L25.6612 1.29792L21.2422 19.8025C21.6565 20.0787 22.2088 20.2168 22.7612 20.3549C23.0374 20.4239 23.2791 20.4585 23.5207 20.493C23.7624 20.5275 24.0041 20.562 24.2803 20.6311C24.8326 20.7692 25.2469 20.7692 25.6612 20.7692H25.6612H26.4898C27.7326 20.7692 28.8374 20.493 29.804 20.0787C30.7707 19.6644 31.7373 19.1121 32.4278 18.2835C33.2564 17.4549 33.8087 16.6264 34.223 15.5216C34.6373 14.5549 34.9135 13.4502 34.9135 12.2074C34.9135 11.3788 34.7754 10.6883 34.6373 9.99785C34.4992 9.30738 34.223 8.755 33.8087 8.20262C33.3945 7.65025 32.8421 7.23597 32.2897 6.95978ZM28.5614 17.0411C28.009 17.3173 27.4566 17.4554 26.9042 17.4554H26.4899H26.2138H25.9376H25.6614L27.1804 10.4126C27.5947 10.1364 27.8709 9.99836 28.2852 9.86026C28.6994 9.72217 28.9756 9.72217 29.2518 9.72217C29.9423 9.72217 30.4947 9.99836 30.7709 10.4126C31.047 10.8269 31.1851 11.5174 31.1851 12.346C31.1851 13.0364 31.1851 13.7269 30.9089 14.2793C30.6328 14.9697 30.3566 15.384 29.9423 15.9364C29.528 16.3507 29.1137 16.765 28.5614 17.0411Z" fill="white" fill-opacity="0.25"/>
<path fill-rule="evenodd" clip-rule="evenodd" d="M39.6086 4.7503C40.0229 5.02649 40.4372 5.16458 40.9896 5.16458C41.2657 5.16458 41.68 5.16458 41.9562 5.02649C42.2324 4.88839 42.5086 4.7503 42.7848 4.47411C43.061 4.19792 43.1991 3.92173 43.3372 3.64555C43.4753 3.36936 43.6133 3.09317 43.6133 2.67889C43.6133 2.12651 43.3372 1.57414 42.9229 1.29795C42.5086 1.02176 42.0943 0.883667 41.5419 0.883667C41.2657 0.883667 40.8515 0.883667 40.5753 1.02176C40.2991 1.15985 40.0229 1.29795 39.7467 1.57414C39.4705 1.85032 39.3324 2.12651 39.1943 2.4027C39.0562 2.67889 38.9182 2.95508 38.9182 3.36936C38.9182 3.92173 39.1943 4.47411 39.6086 4.7503ZM35.3279 20.2171H39.0564L42.3707 6.82202H38.504L35.3279 20.2171Z" fill="white" fill-opacity="0.25"/>
<path d="M45.6849 3.50764L49.6896 2.95526L48.723 6.95999H53.0039L52.1753 10.1361H47.8944L46.7896 14.6933C46.6515 15.1075 46.6515 15.3837 46.6515 15.798C46.6515 16.0742 46.6515 16.4885 46.7896 16.6266C46.9277 16.9028 47.0658 17.0409 47.342 17.1789C47.6182 17.317 48.0325 17.317 48.4468 17.317C48.861 17.317 49.2753 17.317 49.6896 17.1789C50.1039 17.0409 50.5182 17.0409 50.7944 16.9028L51.0706 19.8027C50.5182 19.9408 49.9658 20.217 49.4134 20.3551C48.861 20.4932 48.1706 20.4932 47.342 20.4932C46.0992 20.4932 45.2706 20.3551 44.5801 19.9408C43.8897 19.5265 43.4754 19.1123 43.1992 18.5599C42.923 18.0075 42.7849 17.317 42.7849 16.4885C42.7849 15.6599 42.923 14.8313 43.1992 14.0028L45.6849 3.50764Z" fill="white" fill-opacity="0.25"/>
<path d="M52.7275 14.9693C52.7275 13.8646 52.8656 12.7598 53.2799 11.6551C53.6942 10.6884 54.2466 9.72176 54.937 9.03129C55.6275 8.20272 56.4561 7.65035 57.4227 7.23606C58.3894 6.82178 59.4941 6.54559 60.737 6.54559C61.5656 6.54559 62.256 6.68369 62.8084 6.82178C63.3608 6.95988 63.9132 7.09797 64.4655 7.37416L63.2227 10.2741C62.9465 10.136 62.5322 9.99794 62.1179 9.85985C61.7036 9.72176 61.2894 9.72176 60.737 9.72176C59.4941 9.72176 58.5275 10.136 57.6989 10.9646C57.0085 11.7932 56.5942 13.036 56.5942 14.417C56.5942 15.2455 56.7323 15.936 57.1465 16.4884C57.5608 17.0407 58.2513 17.3169 59.218 17.3169C59.7703 17.3169 60.1846 17.3169 60.5989 17.1788C61.0132 17.0407 61.4275 16.9026 61.8417 16.7645L62.1179 19.8026C61.7036 19.9407 61.1513 20.2169 60.5989 20.355C60.0465 20.4931 59.3561 20.6312 58.5275 20.6312C57.4227 20.6312 56.5942 20.4931 55.9037 20.2169C55.2132 19.9407 54.5228 19.5264 54.1085 18.9741C53.6942 18.4217 53.2799 17.8693 53.1418 17.1788C52.8656 16.3503 52.7275 15.6598 52.7275 14.9693Z" fill="white" fill-opacity="0.25"/>
<path fill-rule="evenodd" clip-rule="evenodd" d="M67.0894 20.2171C67.7799 20.4933 68.4704 20.6314 69.437 20.6314C70.6799 20.6314 71.7846 20.3552 72.7513 19.8028C73.7179 19.2505 74.4084 18.56 75.0989 17.7314C75.6513 16.9029 76.2036 15.9362 76.4798 14.9695C76.8941 14.0029 77.0322 12.8981 77.0322 11.9315V11.9315C77.0322 11.1029 77.0322 10.4124 76.756 9.72197C76.6179 9.0315 76.2036 8.47912 75.7893 7.92675C75.3751 7.51247 74.8227 7.09818 74.1322 6.822C73.4417 6.54581 72.6132 6.40771 71.7846 6.40771C70.6799 6.40771 69.5751 6.6839 68.6085 7.23628C67.6418 7.78865 66.9513 8.47912 66.2609 9.30769C65.5704 10.1363 65.018 11.1029 64.7418 12.0696C64.3275 13.0362 64.1895 14.141 64.1895 15.1076C64.1895 15.9362 64.1895 16.6267 64.4656 17.3171C64.6037 18.0076 65.018 18.56 65.4323 19.1124C65.8466 19.5266 66.399 19.9409 67.0894 20.2171ZM69.8507 10.2741C70.265 9.85977 70.8174 9.72168 71.3697 9.72168C72.0602 9.72168 72.6126 9.99787 72.8888 10.4121C73.165 10.8264 73.3031 11.5169 73.3031 12.3455C73.3031 12.8978 73.165 13.4502 73.0269 14.0026L73.0269 14.0026C72.917 14.5521 72.7196 14.9267 72.5044 15.3351C72.4492 15.4399 72.3928 15.5469 72.3364 15.6597C72.0602 16.2121 71.6459 16.6264 71.2316 16.9026C70.8174 17.3168 70.265 17.4549 69.7126 17.4549C69.0221 17.4549 68.4698 17.1788 68.1936 16.7645C67.9174 16.3502 67.7793 15.6597 67.7793 14.8312C67.7793 14.2788 67.9174 13.7264 68.0555 13.174C68.1654 12.6245 68.3627 12.25 68.578 11.8415C68.6332 11.7367 68.6896 11.6297 68.746 11.5169C69.0221 10.9645 69.4364 10.5502 69.8507 10.2741Z" fill="white" fill-opacity="0.25"/>
<path fill-rule="evenodd" clip-rule="evenodd" d="M81.5896 4.7503C82.0039 5.02649 82.4182 5.16458 82.9706 5.16458H82.9706C83.3849 5.16458 83.6611 5.16458 83.9372 5.02649C84.2134 4.88839 84.4896 4.7503 84.7658 4.47411C85.042 4.19792 85.1801 3.92173 85.3182 3.64555C85.4563 3.36936 85.5944 3.09317 85.5944 2.67889C85.5944 2.12651 85.3182 1.57414 84.9039 1.29795C84.4896 1.02176 84.0753 0.883667 83.523 0.883667C83.2468 0.883667 82.8325 0.883667 82.5563 1.02176C82.2801 1.15985 82.0039 1.29795 81.7277 1.57414C81.4515 1.85032 81.3135 2.12651 81.1754 2.4027L81.1754 2.4027C81.0373 2.67889 80.8992 2.95508 80.8992 3.36936C80.8992 3.92173 81.1754 4.47411 81.5896 4.7503ZM77.4468 20.2171H81.1753L84.4896 6.82202H80.6229L77.4468 20.2171Z" fill="white" fill-opacity="0.25"/>
<path d="M87.1132 7.51225C87.3894 7.37416 87.6655 7.37416 88.0798 7.23606C88.4941 7.09797 88.7703 6.95988 89.3227 6.95988C89.737 6.82178 90.2893 6.82178 90.8417 6.68369C91.3941 6.68369 91.9465 6.54559 92.6369 6.54559C94.5702 6.54559 95.9512 7.09797 96.7798 8.34082C97.4702 9.44557 97.6083 11.1027 97.194 13.036L95.2607 20.2169H91.3941L93.0512 13.1741C93.1893 12.7598 93.1893 12.3455 93.3274 11.9313C93.3274 11.517 93.3274 11.1027 93.3274 10.8265C93.3274 10.5503 93.0512 10.2741 92.9131 9.99794C92.6369 9.85985 92.2227 9.72176 91.8084 9.72176C91.256 9.72176 90.8417 9.72176 90.2893 9.85985L87.8036 20.2169H83.937C84.0751 20.2169 87.1132 7.51225 87.1132 7.51225Z" fill="white" fill-opacity="0.25"/>
</svg>
