<svg width="117" height="21" viewBox="0 0 117 21" fill="none" xmlns="http://www.w3.org/2000/svg">
<path d="M11.3129 6.70374H9.8717V9.54512H12.1391V10.7348H9.8717V13.576H11.3835C11.772 13.576 14.5726 13.6198 14.5683 10.2703C14.5639 6.9207 11.852 6.70374 11.3129 6.70374Z" fill="white" fill-opacity="0.25"/>
<path d="M11.0712 0.0562744C5.50026 0.0562744 0.984253 4.57229 0.984253 10.1432C0.984253 15.7141 5.50026 20.2301 11.0712 20.2301C16.6421 20.2301 21.1581 15.7141 21.1581 10.1432C21.1581 4.57229 16.6421 0.0562744 11.0712 0.0562744ZM11.4675 15.5911H7.81451V10.7347H6.52681V9.54503H7.8144V4.68829H10.9496C11.6913 4.68829 16.6039 4.53426 16.6039 10.2308C16.6039 16.0216 11.4676 15.5911 11.4676 15.5911H11.4675Z" fill="white" fill-opacity="0.25"/>
<path d="M33.8569 16.4501H28.5905V2.28593H33.8569C36.0512 2.28593 37.835 2.94423 39.2083 4.26084C40.5815 5.57745 41.2681 7.28337 41.2681 9.37862C41.2681 11.4597 40.5815 13.1586 39.2083 14.4752C37.8492 15.7918 36.0654 16.4501 33.8569 16.4501ZM33.8569 14.2628C35.3434 14.2628 36.5255 13.7956 37.4032 12.8613C38.281 11.9269 38.7198 10.766 38.7198 9.37862C38.7198 7.94876 38.288 6.77372 37.4245 5.85351C36.575 4.9333 35.3858 4.4732 33.8569 4.4732H31.075V14.2628H33.8569Z" fill="white" fill-opacity="0.25"/>
<path d="M48.2326 16.7049C46.647 16.7049 45.3728 16.1882 44.4102 15.1547C43.4475 14.1071 42.9661 12.8259 42.9661 11.3111C42.9661 9.79625 43.4475 8.52212 44.4102 7.48865C45.3728 6.45518 46.647 5.93845 48.2326 5.93845C49.8323 5.93845 51.1135 6.45518 52.0762 7.48865C53.0389 8.52212 53.5202 9.79625 53.5202 11.3111C53.5202 12.84 53.0389 14.1212 52.0762 15.1547C51.1135 16.1882 49.8323 16.7049 48.2326 16.7049ZM48.2326 14.73C49.1528 14.73 49.8748 14.4044 50.3986 13.7532C50.9366 13.0878 51.2055 12.2737 51.2055 11.3111C51.2055 10.3625 50.9366 9.56266 50.3986 8.91144C49.8748 8.24606 49.1528 7.91336 48.2326 7.91336C47.3265 7.91336 46.6045 8.24606 46.0665 8.91144C45.5427 9.56266 45.2808 10.3625 45.2808 11.3111C45.2808 12.2737 45.5427 13.0878 46.0665 13.7532C46.6045 14.4044 47.3265 14.73 48.2326 14.73Z" fill="white" fill-opacity="0.25"/>
<path d="M59.9385 20.6123C58.1972 20.6123 56.7673 20.1026 55.6489 19.0833L56.6895 17.4694C57.454 18.3471 58.537 18.786 59.9385 18.786C60.7879 18.786 61.5029 18.5595 62.0833 18.1065C62.6779 17.6676 62.9752 16.9668 62.9752 16.0041V14.7725C62.0975 15.905 61.0003 16.4713 59.6837 16.4713C58.3388 16.4713 57.2416 16.0041 56.3922 15.0698C55.5569 14.1354 55.1393 12.8471 55.1393 11.2049C55.1393 9.57682 55.5569 8.2956 56.3922 7.36124C57.2416 6.41271 58.3388 5.93845 59.6837 5.93845C61.0286 5.93845 62.1258 6.49766 62.9752 7.61607V6.19328H65.205V15.9192C65.205 16.7969 65.0492 17.5543 64.7378 18.1914C64.4405 18.8426 64.0299 19.331 63.5061 19.6567C62.9823 19.9964 62.4231 20.2371 61.8285 20.3787C61.2481 20.5344 60.6181 20.6123 59.9385 20.6123ZM60.342 14.4964C60.8517 14.4964 61.3542 14.3619 61.8497 14.0929C62.3452 13.8239 62.7204 13.4983 62.9752 13.1161V9.29368C62.7204 8.91144 62.3452 8.58582 61.8497 8.31684C61.3542 8.04786 60.8517 7.91336 60.342 7.91336C59.4643 7.91336 58.7635 8.21774 58.2397 8.82649C57.7159 9.42109 57.454 10.2139 57.454 11.2049C57.454 12.1959 57.7159 12.9958 58.2397 13.6045C58.7635 14.1991 59.4643 14.4964 60.342 14.4964Z" fill="white" fill-opacity="0.25"/>
<path d="M72.8302 16.7049C71.2729 16.7049 69.9846 16.2094 68.9653 15.2184C67.9602 14.2133 67.4576 12.9108 67.4576 11.3111C67.4576 9.81041 67.946 8.54335 68.9228 7.50989C69.9138 6.46226 71.1597 5.93845 72.6603 5.93845C74.1751 5.93845 75.3926 6.46226 76.3128 7.50989C77.2472 8.55751 77.7144 9.89535 77.7144 11.5234V12.0543H69.7935C69.8784 12.8613 70.2111 13.5337 70.7916 14.0717C71.372 14.6097 72.1294 14.8786 73.0638 14.8786C73.5876 14.8786 74.1114 14.7795 74.6352 14.5813C75.1732 14.3831 75.6191 14.1071 75.9731 13.7532L76.9924 15.2184C75.9589 16.2094 74.5715 16.7049 72.8302 16.7049ZM75.5484 10.4829C75.52 9.77502 75.2581 9.14503 74.7626 8.5929C74.2813 8.04078 73.5805 7.76471 72.6603 7.76471C71.7826 7.76471 71.096 8.04078 70.6005 8.5929C70.105 9.13087 69.8289 9.76086 69.7723 10.4829H75.5484Z" fill="white" fill-opacity="0.25"/>
<path d="M84.5871 16.7049C83.0298 16.7049 81.7557 16.2023 80.7647 15.1972C79.7737 14.1779 79.2782 12.8825 79.2782 11.3111C79.2782 9.75378 79.7737 8.47257 80.7647 7.46742C81.7557 6.44811 83.0298 5.93845 84.5871 5.93845C86.3001 5.93845 87.6096 6.54721 88.5157 7.76471L87.0504 9.12379C86.4841 8.31684 85.6984 7.91336 84.6933 7.91336C83.7589 7.91336 83.0086 8.2319 82.4423 8.86897C81.876 9.49188 81.5929 10.3059 81.5929 11.3111C81.5929 12.3162 81.876 13.1373 82.4423 13.7744C83.0086 14.4115 83.7589 14.73 84.6933 14.73C85.6701 14.73 86.4558 14.3265 87.0504 13.5196L88.5157 14.8786C87.6096 16.0962 86.3001 16.7049 84.5871 16.7049Z" fill="white" fill-opacity="0.25"/>
<path d="M95.1002 16.7049C93.5146 16.7049 92.2405 16.1882 91.2778 15.1547C90.3151 14.1071 89.8338 12.8259 89.8338 11.3111C89.8338 9.79625 90.3151 8.52212 91.2778 7.48865C92.2405 6.45518 93.5146 5.93845 95.1002 5.93845C96.7 5.93845 97.9812 6.45518 98.9438 7.48865C99.9065 8.52212 100.388 9.79625 100.388 11.3111C100.388 12.84 99.9065 14.1212 98.9438 15.1547C97.9812 16.1882 96.7 16.7049 95.1002 16.7049ZM95.1002 14.73C96.0204 14.73 96.7424 14.4044 97.2662 13.7532C97.8042 13.0878 98.0732 12.2737 98.0732 11.3111C98.0732 10.3625 97.8042 9.56266 97.2662 8.91144C96.7424 8.24606 96.0204 7.91336 95.1002 7.91336C94.1942 7.91336 93.4721 8.24606 92.9342 8.91144C92.4104 9.56266 92.1485 10.3625 92.1485 11.3111C92.1485 12.2737 92.4104 13.0878 92.9342 13.7532C93.4721 14.4044 94.1942 14.73 95.1002 14.73Z" fill="white" fill-opacity="0.25"/>
<path d="M103.748 4.94038C103.38 4.94038 103.055 4.80589 102.771 4.5369C102.502 4.26792 102.368 3.9423 102.368 3.56006C102.368 3.17782 102.502 2.85221 102.771 2.58322C103.055 2.31424 103.38 2.17975 103.748 2.17975C104.13 2.17975 104.456 2.31424 104.725 2.58322C104.994 2.85221 105.129 3.17782 105.129 3.56006C105.129 3.9423 104.994 4.26792 104.725 4.5369C104.456 4.80589 104.13 4.94038 103.748 4.94038ZM104.874 16.4501H102.644V6.19328H104.874V16.4501Z" fill="white" fill-opacity="0.25"/>
<path d="M116.919 16.4501H114.689V10.0369C114.689 8.62122 114.002 7.91336 112.629 7.91336C112.091 7.91336 111.589 8.04786 111.121 8.31684C110.654 8.58582 110.279 8.91144 109.996 9.29368V16.4501H107.766V6.19328H109.996V7.59483C110.378 7.1418 110.888 6.75248 111.525 6.42687C112.162 6.10126 112.856 5.93845 113.606 5.93845C114.696 5.93845 115.517 6.22159 116.069 6.78788C116.636 7.35416 116.919 8.16819 116.919 9.22997V16.4501Z" fill="white" fill-opacity="0.25"/>
</svg>
