<svg width="79" height="92" viewBox="0 0 79 92" fill="none" xmlns="http://www.w3.org/2000/svg">
<path d="M63.652 92V23.0231C63.652 17.4822 61.6065 14.8855 55.5144 14.8855H10.1376C4.32233 14.8855 2 17.4822 2 23.0231V92" stroke="#FC363B" stroke-width="3" stroke-miterlimit="10"/>
<path d="M20.6343 61.4715H9.13647C8.93823 61.4715 8.73999 61.2733 8.73999 61.075V37.8812C8.73999 37.683 8.93823 37.4847 9.13647 37.4847H20.6343C20.8325 37.4847 21.0307 37.683 21.0307 37.8812V61.075C21.0307 61.2733 20.8325 61.4715 20.6343 61.4715Z" stroke="#FC363B" stroke-width="3" stroke-miterlimit="10"/>
<path d="M39.0704 61.4715H27.5726C27.3744 61.4715 27.1761 61.2733 27.1761 61.075V37.8812C27.1761 37.683 27.3744 37.4847 27.5726 37.4847H39.0704C39.2687 37.4847 39.4669 37.683 39.4669 37.8812V61.075C39.6651 61.2733 39.4669 61.4715 39.0704 61.4715Z" stroke="#FC363B" stroke-width="3" stroke-miterlimit="10"/>
<path d="M57.7049 61.4715H46.2071C46.0089 61.4715 45.8107 61.2733 45.8107 61.075V37.8812C45.8107 37.683 46.0089 37.4847 46.2071 37.4847H57.7049C57.9032 37.4847 58.1014 37.683 58.1014 37.8812V61.075C58.2997 61.2733 57.9032 61.4715 57.7049 61.4715Z" stroke="#FC363B" stroke-width="3" stroke-miterlimit="10"/>
<path d="M2 30.7446H63.652" stroke="#FC363B" stroke-width="3" stroke-miterlimit="10"/>
<path d="M54.0324 85.8546H12.0633C9.741 85.8546 8.54175 84.0558 8.54175 81.7335V78.7279C8.54175 72.4442 10.5151 70.5903 16.6793 70.5903H50.1619C56.1876 70.5903 58.2995 72.4442 58.2995 78.7279V82.3617C58.2995 84.8299 56.9618 85.8546 54.0324 85.8546Z" stroke="#FC363B" stroke-width="3" stroke-miterlimit="10"/>
<path d="M69.3477 47.6725H63.929V63.1547H69.3477C73.623 63.1547 77.0888 59.6889 77.0888 55.4136C77.0888 51.1383 73.623 47.6725 69.3477 47.6725Z" stroke="#FC363B" stroke-width="3" stroke-miterlimit="10"/>
<path d="M71.978 28.1675V47.1983" stroke="#FC363B" stroke-width="3" stroke-miterlimit="10"/>
<path d="M71.9779 29.3568C74.0581 29.3568 75.7445 27.6704 75.7445 25.5903C75.7445 23.5101 74.0581 21.8237 71.9779 21.8237C69.8978 21.8237 68.2114 23.5101 68.2114 25.5903C68.2114 27.6704 69.8978 29.3568 71.9779 29.3568Z" stroke="#FC363B" stroke-width="3" stroke-miterlimit="10"/>
<path d="M40.2599 11.3172V9.3348C40.2599 5.37004 36.8899 2 32.9251 2C28.9604 2 25.5903 5.37004 25.5903 9.3348V11.3172" stroke="#FC363B" stroke-width="4" stroke-miterlimit="10"/>
<path d="M13.6117 43.0278H15.934" stroke="#FC363B" stroke-width="4" stroke-miterlimit="10" stroke-linecap="round"/>
<path d="M13.6117 49.2207H15.934" stroke="#FC363B" stroke-width="4" stroke-miterlimit="10" stroke-linecap="round"/>
<path d="M13.6117 55.4137H15.934" stroke="#FC363B" stroke-width="4" stroke-miterlimit="10" stroke-linecap="round"/>
<path d="M32.1903 43.0278H34.5126" stroke="#FC363B" stroke-width="4" stroke-miterlimit="10" stroke-linecap="round"/>
<path d="M32.1903 49.2207H34.5126" stroke="#FC363B" stroke-width="4" stroke-miterlimit="10" stroke-linecap="round"/>
<path d="M32.1903 55.4137H34.5126" stroke="#FC363B" stroke-width="4" stroke-miterlimit="10" stroke-linecap="round"/>
<path d="M50.7689 43.0278H53.0913" stroke="#FC363B" stroke-width="4" stroke-miterlimit="10" stroke-linecap="round"/>
<path d="M50.7689 49.2207H53.0913" stroke="#FC363B" stroke-width="4" stroke-miterlimit="10" stroke-linecap="round"/>
<path d="M50.7689 55.4137H53.0913" stroke="#FC363B" stroke-width="4" stroke-miterlimit="10" stroke-linecap="round"/>
<path d="M8.54175 78.1233H22.6166" stroke="#FC363B" stroke-width="3" stroke-miterlimit="10" stroke-linecap="round"/>
<path d="M44.2246 78.1233H58.2995" stroke="#FC363B" stroke-width="3" stroke-miterlimit="10" stroke-linecap="round"/>
<path d="M18.0574 21.8237H23.2116" stroke="#FC363B" stroke-width="4" stroke-miterlimit="10" stroke-linecap="round"/>
<path d="M29.9515 21.8237H35.1057" stroke="#FC363B" stroke-width="4" stroke-miterlimit="10" stroke-linecap="round"/>
<path d="M41.8458 21.8237H47" stroke="#FC363B" stroke-width="4" stroke-miterlimit="10" stroke-linecap="round"/>
</svg>
