<svg width="90" height="90" viewBox="0 0 90 90" fill="none" xmlns="http://www.w3.org/2000/svg">
<circle cx="45" cy="45" r="43.5" stroke="#FC363B" stroke-width="3"/>
<path d="M82.9285 43.7143C82.9285 23.122 66.2352 6.42861 45.6428 6.42861" stroke="#FC363B" stroke-width="3" stroke-linecap="round"/>
<path d="M62.4001 41.2502L60.9166 41.028L60.9162 41.0308L62.4001 41.2502ZM53.2505 30.7539L51.795 30.3911L51.4627 31.7244L52.7617 32.1721L53.2505 30.7539ZM56.5723 47.952L56.236 46.4901L52.2678 47.4032L55.88 49.2826L56.5723 47.952ZM60.7655 59.0212L59.3499 58.5252L59.3497 58.5257L60.7655 59.0212ZM44.666 65.1817L44.945 63.7078L43.5534 63.4444L43.2106 64.8186L44.666 65.1817ZM43.3467 70.47L44.8021 70.833L43.3467 70.47ZM40.4981 72.1822L40.1359 73.6378H40.1359L40.4981 72.1822ZM38.7849 69.3315L37.3296 68.9682L38.7849 69.3315ZM40.0793 64.1466L41.5347 64.5099L41.8979 63.055L40.4431 62.6913L40.0793 64.1466ZM36.4406 63.2039L36.8304 61.7554L35.3548 61.3584L34.9852 62.841L36.4406 63.2039ZM35.1394 68.4234L33.684 68.0606L35.1394 68.4234ZM32.2913 70.1354L32.6537 68.6799H32.6537L32.2913 70.1354ZM30.5786 67.2872L29.123 66.9248L29.123 66.9248L30.5786 67.2872ZM31.8989 61.9839L33.3544 62.3463L33.7145 60.8998L32.2703 60.5306L31.8989 61.9839ZM30.5417 61.6322L30.9205 60.1808L30.9175 60.18L30.5417 61.6322ZM30.5406 61.6319L30.1618 63.0833L30.1649 63.0841L30.5406 61.6319ZM28.6483 61.1442L29.0138 59.6894L29.0112 59.6888L28.6483 61.1442ZM25.9022 60.4595L25.5393 61.915H25.5393L25.9022 60.4595ZM24.0175 56.6419L22.6413 56.045H22.6413L24.0175 56.6419ZM27.2965 55.0428L27.6623 53.5881H27.6623L27.2965 55.0428ZM28.2892 55.2663V53.7663H25.361L27.0719 56.1427L28.2892 55.2663ZM30.3832 54.1837L31.7732 54.7476L31.813 54.6494L31.8386 54.5466L30.3832 54.1837ZM33.367 42.2166L33.7252 40.76L32.2733 40.403L31.9116 41.8537L33.367 42.2166ZM33.8502 42.3355L33.4921 43.7921L34.39 40.936L33.8502 42.3355ZM33.3749 42.1849L31.9194 41.8223L31.5571 43.2767L33.0111 43.6402L33.3749 42.1849ZM35.5032 33.6427L36.9587 34.0054L36.9928 33.8687L37.0008 33.7282L35.5032 33.6427ZM33.3776 30.9863L32.5455 29.7382L30.3568 31.1974L32.7272 32.338L33.3776 30.9863ZM32.5285 30.7464L32.1674 32.2023L32.5285 30.7464ZM30.674 27.7026L29.2185 27.3399V27.3399L30.674 27.7026ZM33.6901 25.8905L34.0533 24.4352L33.6901 25.8905ZM37.5708 26.8591L39.0351 27.1845L39.3521 25.7577L37.934 25.4037L37.5708 26.8591ZM37.5655 26.8829L36.1012 26.5575L35.7847 27.9818L37.1998 28.3376L37.5655 26.8829ZM40.2812 27.5238L40.6155 26.0615L40.6154 26.0615L40.2812 27.5238ZM40.4807 27.5694L40.1464 29.0317L41.5802 29.3595L41.9361 27.9324L40.4807 27.5694ZM41.7813 22.354L43.2368 22.717V22.717L41.7813 22.354ZM44.6314 20.6418L44.9944 19.1864L44.6314 20.6418ZM46.3433 23.4925L44.888 23.1291L46.3433 23.4925ZM45.0779 28.5596L43.6226 28.1962L43.2516 29.6818L44.7446 30.0221L45.0779 28.5596ZM45.1543 28.577L45.4979 27.1169L45.4877 27.1145L45.1543 28.577ZM45.1544 28.5771L44.8109 30.0372L44.8255 30.0406L44.8401 30.0438L45.1544 28.5771ZM45.1545 28.5771L45.4878 27.1146L45.4783 27.1124L45.4687 27.1104L45.1545 28.5771ZM48.7351 29.4204L48.3698 30.8753L49.8268 31.2411L50.1905 29.7836L48.7351 29.4204ZM49.9882 24.3991L51.4435 24.7623V24.7623L49.9882 24.3991ZM52.8373 22.6867L52.4751 24.1423L52.8373 22.6867ZM54.551 25.5372L53.0955 25.1743V25.1743L54.551 25.5372ZM51.9699 55.8735L50.5146 55.51L50.514 55.5121L51.9699 55.8735ZM39.8586 58.2127L40.2291 56.7592H40.2291L39.8586 58.2127ZM42.379 48.1087L42.7158 46.647L42.7158 46.647L42.379 48.1087ZM39.946 49.6024L41.4013 49.9658V49.9658L39.946 49.6024ZM38.4071 55.7658L39.8625 56.1291L38.4071 55.7658ZM42.5439 43.3151L42.158 44.7646L42.158 44.7646L42.5439 43.3151ZM53.3827 41.1681L51.9273 40.8052L51.9273 40.8052L53.3827 41.1681ZM41.8213 42.0911L40.3658 41.7283V41.7283L41.8213 42.0911ZM43.1247 36.8623L41.6692 36.4994V36.4995L43.1247 36.8623ZM46.77 34.6336L47.149 33.1822V33.1822L46.77 34.6336ZM63.8835 41.4724C64.3716 38.2141 63.3497 35.6184 61.3617 33.6147C59.4482 31.6861 56.6935 30.3539 53.7392 29.3358L52.7617 32.1721C55.5692 33.1396 57.8039 34.2882 59.232 35.7277C60.5857 37.092 61.2576 38.7517 60.9166 41.028L63.8835 41.4724ZM56.9087 49.4138C58.6282 49.0181 60.2239 48.232 61.4778 46.8861C62.733 45.539 63.5489 43.735 63.8839 41.4696L60.9162 41.0308C60.6518 42.8187 60.0458 44.0223 59.2829 44.8411C58.5188 45.6611 57.5003 46.1992 56.236 46.4901L56.9087 49.4138ZM62.1811 59.5173C63.2574 56.446 63.3044 53.8004 62.3235 51.5593C61.3514 49.338 59.4825 47.7752 57.2647 46.6213L55.88 49.2826C57.7577 50.2596 58.9783 51.3981 59.5752 52.7621C60.1635 54.1062 60.2594 55.9298 59.3499 58.5252L62.1811 59.5173ZM44.387 66.6555C48.33 67.4018 52.0426 67.6844 55.1522 66.7275C58.3976 65.7289 60.8087 63.4388 62.1813 59.5167L59.3497 58.5257C58.2587 61.6433 56.5122 63.1702 54.2699 63.8602C51.8917 64.592 48.7864 64.4349 44.945 63.7078L44.387 66.6555ZM44.8021 70.833L46.1214 65.5447L43.2106 64.8186L41.8913 70.1069L44.8021 70.833ZM40.1359 73.6378C42.1988 74.1511 44.2875 72.8957 44.8021 70.833L41.8913 70.1069C41.7776 70.5626 41.3161 70.84 40.8603 70.7266L40.1359 73.6378ZM37.3296 68.9682C36.8142 71.0327 38.0709 73.124 40.1359 73.6378L40.8603 70.7266C40.4041 70.613 40.1264 70.151 40.2403 69.6948L37.3296 68.9682ZM38.624 63.7832L37.3296 68.9682L40.2403 69.6948L41.5347 64.5099L38.624 63.7832ZM36.0509 64.6524C37.3072 64.9904 38.5254 65.3042 39.7155 65.6018L40.4431 62.6913C39.2673 62.3974 38.0667 62.088 36.8304 61.7554L36.0509 64.6524ZM36.5949 68.7863L37.8961 63.5667L34.9852 62.841L33.684 68.0606L36.5949 68.7863ZM31.9289 71.591C33.9918 72.1046 36.0806 70.8491 36.5949 68.7863L33.684 68.0606C33.5704 68.5161 33.1092 68.7933 32.6537 68.6799L31.9289 71.591ZM29.123 66.9248C28.6093 68.9882 29.8655 71.0773 31.9289 71.591L32.6537 68.6799C32.1981 68.5664 31.9207 68.1052 32.0342 67.6496L29.123 66.9248ZM30.4433 61.6216L29.123 66.9248L32.0342 67.6496L33.3544 62.3463L30.4433 61.6216ZM30.1629 63.0835C30.6181 63.2023 31.0741 63.3214 31.5274 63.4372L32.2703 60.5306C31.8256 60.417 31.377 60.2999 30.9205 60.1808L30.1629 63.0835ZM30.1649 63.0841L30.166 63.0843L30.9175 60.18L30.9164 60.1797L30.1649 63.0841ZM28.2829 62.599C28.9127 62.7573 29.5367 62.9201 30.1618 63.0833L30.9194 60.1805C30.2964 60.0179 29.6592 59.8516 29.0138 59.6894L28.2829 62.599ZM25.5393 61.915L28.2854 62.5997L29.0112 59.6888L26.2651 59.0041L25.5393 61.915ZM22.6413 56.045C21.5865 58.4767 22.9673 61.2737 25.5393 61.915L26.2651 59.0041C25.4916 58.8112 25.0764 57.9701 25.3936 57.2388L22.6413 56.045ZM27.6623 53.5881C25.6255 53.0759 23.4885 54.0921 22.6413 56.045L25.3936 57.2388C25.6448 56.6596 26.2909 56.3367 26.9307 56.4976L27.6623 53.5881ZM27.0719 56.1427C26.9921 56.0319 26.8565 55.8122 26.8076 55.4986C26.7517 55.1402 26.8259 54.7552 27.0465 54.4286C27.2412 54.1403 27.4852 53.9928 27.6243 53.924C27.7696 53.8523 27.8959 53.8194 27.9679 53.8037C28.1097 53.7729 28.2231 53.7704 28.2639 53.7699C28.3173 53.7693 28.3594 53.7717 28.3825 53.7734C28.4571 53.7788 28.5068 53.789 28.4883 53.7857C28.4762 53.7835 28.4329 53.7747 28.3468 53.755C28.1837 53.7177 27.944 53.659 27.6623 53.5881L26.9307 56.4976C27.2164 56.5694 27.4817 56.6346 27.6775 56.6794C27.7709 56.7007 27.8704 56.7226 27.9542 56.7377C27.9836 56.743 28.0694 56.7586 28.1672 56.7657C28.1727 56.7661 28.3712 56.7862 28.6064 56.735C28.6485 56.7258 29.1799 56.6299 29.5325 56.1078C30.0558 55.3331 29.6558 54.5973 29.5065 54.3899L27.0719 56.1427ZM28.9932 53.6198C28.9739 53.6675 28.9633 53.6796 28.9664 53.6755C28.9725 53.6676 28.9803 53.6619 28.9783 53.6632C28.9718 53.6672 28.8103 53.7663 28.2892 53.7663V56.7663C29.1618 56.7663 29.9337 56.604 30.569 56.2067C31.2306 55.793 31.5779 55.2289 31.7732 54.7476L28.9932 53.6198ZM31.9116 41.8537L28.9277 53.8208L31.8386 54.5466L34.8225 42.5795L31.9116 41.8537ZM34.2084 40.8789L33.7252 40.76L33.0088 43.6732L33.4921 43.7921L34.2084 40.8789ZM33.0111 43.6402C33.0904 43.66 33.1938 43.69 33.3104 43.735L34.39 40.936C34.137 40.8384 33.913 40.7733 33.7387 40.7297L33.0111 43.6402ZM34.0477 33.2801L31.9194 41.8223L34.8304 42.5476L36.9587 34.0054L34.0477 33.2801ZM32.7272 32.338C33.6874 32.8 33.9323 33.0784 33.9854 33.1573C33.9969 33.1744 33.9992 33.1791 34.0035 33.2048C34.0117 33.2539 34.0178 33.3455 34.0057 33.5573L37.0008 33.7282C37.0332 33.1604 37.0406 32.3242 36.4746 31.4828C35.9635 30.723 35.1179 30.1591 34.028 29.6346L32.7272 32.338ZM32.1674 32.2023C32.4158 32.2639 32.6172 32.3157 32.7485 32.3522C32.82 32.3721 32.8433 32.3799 32.8372 32.3778C32.8334 32.3765 32.8203 32.3719 32.8012 32.3644C32.7865 32.3586 32.7431 32.3413 32.6874 32.3129C32.6831 32.3107 32.4716 32.212 32.2763 32.0008C32.1889 31.9063 31.8879 31.5618 31.8789 31.0091C31.8678 30.3285 32.287 29.9105 32.5455 29.7382L34.2096 32.2344C34.4696 32.0611 34.8896 31.642 34.8785 30.96C34.8694 30.406 34.5677 30.06 34.4788 29.9639C34.2804 29.7494 34.0629 29.6468 34.0498 29.6401C33.9407 29.5845 33.841 29.5506 33.8141 29.5413C33.7295 29.5122 33.6331 29.4843 33.5521 29.4618C33.3783 29.4135 33.1432 29.3534 32.8895 29.2905L32.1674 32.2023ZM29.2185 27.3399C28.6763 29.5159 30.0322 31.6727 32.1674 32.2023L32.8895 29.2905C32.3221 29.1498 31.9985 28.5911 32.1295 28.0652L29.2185 27.3399ZM34.0533 24.4352C31.916 23.9018 29.7511 25.2024 29.2185 27.3399L32.1295 28.0652C32.2614 27.5359 32.7975 27.2138 33.3268 27.3459L34.0533 24.4352ZM37.934 25.4037L34.0533 24.4352L33.3268 27.3459L37.2076 28.3145L37.934 25.4037ZM39.0298 27.2082L39.0351 27.1845L36.1065 26.5337L36.1012 26.5575L39.0298 27.2082ZM40.6154 26.0615C39.6882 25.8495 38.7948 25.6452 37.9312 25.4281L37.1998 28.3376C38.1001 28.5639 39.0256 28.7755 39.9469 28.9861L40.6154 26.0615ZM40.815 26.1071L40.6155 26.0615L39.9468 28.986L40.1464 29.0317L40.815 26.1071ZM40.3259 21.9911L39.0253 27.2064L41.9361 27.9324L43.2368 22.717L40.3259 21.9911ZM44.9944 19.1864C42.9307 18.6717 40.8406 19.9274 40.3259 21.9911L43.2368 22.717C43.3505 22.261 43.8124 21.9835 44.2684 22.0972L44.9944 19.1864ZM47.7986 23.8559C48.3141 21.792 47.0584 19.7012 44.9944 19.1864L44.2684 22.0972C44.7245 22.211 45.0019 22.673 44.888 23.1291L47.7986 23.8559ZM46.5332 28.9231L47.7986 23.8559L44.888 23.1291L43.6226 28.1962L46.5332 28.9231ZM45.4877 27.1145L45.4113 27.0971L44.7446 30.0221L44.8209 30.0395L45.4877 27.1145ZM45.498 27.1169L45.4979 27.1169L44.8108 30.0372L44.8109 30.0372L45.498 27.1169ZM45.4687 27.1104L45.4687 27.1104L44.8401 30.0438L44.8402 30.0438L45.4687 27.1104ZM49.1004 27.9656C47.9078 27.6662 46.6874 27.388 45.4878 27.1146L44.8211 30.0395C46.0264 30.3143 47.2146 30.5852 48.3698 30.8753L49.1004 27.9656ZM48.5328 24.0359L47.2797 29.0573L50.1905 29.7836L51.4435 24.7623L48.5328 24.0359ZM53.1995 21.2311C51.1364 20.7177 49.0476 21.9732 48.5328 24.0359L51.4435 24.7623C51.5573 24.3063 52.0191 24.0288 52.4751 24.1423L53.1995 21.2311ZM56.0065 25.9C56.5211 23.8355 55.2642 21.7449 53.1995 21.2311L52.4751 24.1423C52.9315 24.2559 53.2093 24.718 53.0955 25.1743L56.0065 25.9ZM54.7059 31.1168L56.0065 25.9L53.0955 25.1743L51.795 30.3911L54.7059 31.1168ZM50.514 55.5121C50.3167 56.3071 49.9148 56.7807 49.3771 57.1012C48.7902 57.4509 47.9616 57.6604 46.9051 57.7131C44.7761 57.8191 42.2394 57.2717 40.2291 56.7592L39.488 59.6663C41.4999 60.1791 44.4285 60.8402 47.0544 60.7094C48.3754 60.6435 49.7466 60.3733 50.9128 59.6783C52.1282 58.954 53.0326 57.8181 53.4257 56.235L50.514 55.5121ZM42.0422 49.5704C44.0725 50.0382 46.5696 50.6996 48.3945 51.7738C49.2974 52.3052 49.9231 52.8744 50.2715 53.4632C50.5917 54.0044 50.7306 54.6453 50.5146 55.51L53.4251 56.237C53.8284 54.6225 53.5836 53.1697 52.8535 51.9356C52.1516 50.7493 51.0605 49.8619 49.9163 49.1884C47.6473 47.8528 44.7297 47.111 42.7158 46.647L42.0422 49.5704ZM41.4013 49.9658C41.4715 49.6844 41.7654 49.5066 42.0422 49.5704L42.7158 46.647C40.8394 46.2146 38.9556 47.3767 38.4906 49.2391L41.4013 49.9658ZM39.8625 56.1291L41.4013 49.9658L38.4906 49.2391L36.9518 55.4024L39.8625 56.1291ZM40.2291 56.7592C39.9686 56.6928 39.7919 56.4117 39.8625 56.1291L36.9518 55.4024C36.4867 57.2651 37.6059 59.1865 39.488 59.6663L40.2291 56.7592ZM42.158 44.7646C43.7294 45.1829 46.3552 45.8651 48.7731 45.7921C49.9925 45.7553 51.2932 45.5254 52.4139 44.8642C53.5856 44.1731 54.4541 43.0711 54.8381 41.5311L51.9273 40.8052C51.7352 41.5754 51.3597 42.003 50.8897 42.2803C50.3687 42.5876 49.63 42.7649 48.6826 42.7935C46.7669 42.8513 44.5494 42.2967 42.9298 41.8655L42.158 44.7646ZM40.3658 41.7283C40.0339 43.0596 40.8334 44.4119 42.158 44.7646L42.9298 41.8655C43.187 41.934 43.3414 42.1943 43.2767 42.4539L40.3658 41.7283ZM41.6692 36.4995L40.3658 41.7283L43.2767 42.4539L44.5801 37.2251L41.6692 36.4995ZM47.149 33.1822C44.6885 32.5397 42.2593 34.1323 41.6692 36.4994L44.5801 37.2251C44.7915 36.377 45.6454 35.8902 46.391 36.0849L47.149 33.1822ZM54.8381 41.5311C55.1578 40.2494 55.0684 39.0615 54.6155 38.0035C54.1719 36.9673 53.4262 36.1635 52.6036 35.5415C50.9939 34.3245 48.8471 33.6257 47.149 33.1822L46.391 36.0849C48.0293 36.5127 49.6841 37.0951 50.7943 37.9345C51.3317 38.3408 51.6756 38.759 51.8576 39.1843C52.0304 39.5878 52.1029 40.1008 51.9273 40.8052L54.8381 41.5311Z" fill="#FC363B"/>
</svg>
