<svg width="81" height="90" viewBox="0 0 81 90" fill="none" xmlns="http://www.w3.org/2000/svg">
<path d="M79.4334 21.5293C56.321 21.2127 41.4404 0.633216 41.2821 0.474912C40.8072 -0.158304 39.8574 -0.158304 39.3825 0.474912C39.2242 0.633216 24.3436 21.2127 1.23125 21.5293C0.598037 21.5293 0.123125 22.0042 0.123125 22.6375C0.123125 23.1124 -4.30939 70.1286 40.0157 89.4417C40.174 89.4417 40.3323 89.6 40.4906 89.6C40.6489 89.6 40.8072 89.6 40.9655 89.4417C85.1323 70.2869 80.8581 23.1124 80.8581 22.6375C80.5415 22.0042 80.0666 21.5293 79.4334 21.5293ZM40.3323 86.9088C1.86447 69.9703 2.02277 30.711 2.33938 23.9039C22.9189 23.1124 36.6913 7.75689 40.3323 3.16608C43.9733 7.75689 57.7457 23.1124 78.3252 23.9039C78.6419 30.711 78.8002 69.9703 40.3323 86.9088Z" fill="#FC363B"/>
<path d="M70.2517 30.0778C57.2708 27.545 47.2976 20.1047 41.1238 14.4057C40.6489 13.9308 40.0157 13.9308 39.5408 14.4057C33.5252 20.1047 23.3938 27.545 10.4128 30.0778C9.77962 30.2361 9.46301 30.711 9.46301 31.3443C10.4128 43.692 15.4786 66.3294 39.6991 78.8354C39.8574 78.9937 40.0157 78.9937 40.174 78.9937C40.3323 78.9937 40.4906 78.9937 40.6489 78.8354C65.0277 66.3294 70.0934 43.692 70.8849 31.3443C71.2015 30.711 70.7266 30.2361 70.2517 30.0778ZM40.3323 76.4609C18.1697 64.7464 13.104 44.1669 11.9959 32.2941C24.5019 29.6029 34.1584 22.6375 40.3323 16.9386C46.5061 22.6375 56.321 29.4446 68.6687 32.2941C67.7188 44.1669 62.4948 64.7464 40.3323 76.4609Z" fill="#FC363B"/>
<path d="M36.6164 35.9348V35.5348H36.4751C36.684 33.0872 38.7881 31.1107 41.2821 31.1107C43.9107 31.1107 46.1062 33.3062 46.1062 35.9348V40.7588H36.6164V35.9348ZM33.2835 35.9348V40.7588H30.0426C29.2219 40.7588 28.3761 41.3807 28.3761 42.4252V58.2556C28.3761 59.0763 28.9981 59.922 30.0426 59.922H52.2051C53.0258 59.922 53.8715 59.3001 53.8715 58.2556V42.4252C53.8715 41.6046 53.2496 40.7588 52.2051 40.7588H48.9641V35.9348C48.9641 31.6034 45.466 27.9362 40.9655 27.9362C36.443 27.9362 33.2835 31.6264 33.2835 35.9348ZM50.8553 56.5892H31.709V43.9334H34.95H47.6143H50.8553V56.5892Z" fill="#FC363B" stroke="#FC363B" stroke-width="0.8"/>
<path d="M41.1239 47.0911C40.3032 47.0911 39.4574 47.713 39.4574 48.7575V51.9236C39.4574 52.7442 40.0794 53.59 41.1239 53.59C41.5998 53.59 42.0275 53.4457 42.3367 53.1365C42.6459 52.8273 42.7903 52.3996 42.7903 51.9236V48.7575C42.7903 47.713 41.9445 47.0911 41.1239 47.0911Z" fill="#FC363B" stroke="#FC363B" stroke-width="0.8"/>
</svg>
