<svg width="148" height="27" viewBox="0 0 148 27" fill="none" xmlns="http://www.w3.org/2000/svg">
<path d="M49.5305 14.6522H54.5882C55.2993 14.6522 55.8756 15.3718 55.8756 16.2505C55.8756 17.1367 55.2993 17.8487 54.5882 17.8487H48.4883C48.3902 17.8487 48.2983 17.8942 48.2308 17.9699L46.3917 19.9318C46.1097 20.2348 46.2813 20.8029 46.6491 20.8029H54.2816C54.2816 20.8029 54.2878 20.8029 54.2878 20.7953C54.2878 20.7877 54.2939 20.7877 54.2939 20.7877C54.392 20.7953 54.4839 20.8029 54.582 20.8029C56.6051 20.8029 58.2481 18.7653 58.2481 16.2505C58.2481 13.8644 56.7706 11.9026 54.8824 11.7132C54.8824 11.7132 54.8763 11.7132 54.8763 11.7057C54.8763 11.6981 54.8763 11.6981 54.8702 11.6981H49.4263C48.7151 11.6981 48.1389 10.9785 48.1389 10.0998C48.1389 9.21358 48.7151 8.50155 49.4263 8.50155H55.5139C55.612 8.50155 55.71 8.45611 55.7836 8.37279L57.494 6.41094C57.7638 6.10038 57.586 5.54742 57.2243 5.54742H49.5305C49.4998 5.54742 49.4631 5.54742 49.4324 5.54742C47.4093 5.54742 45.7664 7.58502 45.7664 10.0998C45.7664 12.6146 47.4093 14.6522 49.4324 14.6522C49.4631 14.6522 49.4937 14.6522 49.5305 14.6522Z" fill="white"/>
<path d="M82.2681 5.55499C82.0225 5.55499 81.8247 5.77433 81.8247 6.05417V20.3037C81.8247 20.576 82.0225 20.8029 82.2681 20.8029H92.5682C92.6909 20.8029 92.8069 20.7424 92.8956 20.644L94.1848 19.1087C94.4508 18.791 94.253 18.2691 93.8574 18.2691H84.867C84.6214 18.2691 84.4236 18.0498 84.4236 17.7699V6.04661C84.4236 5.77433 84.2258 5.54742 83.9802 5.54742H82.2681V5.55499Z" fill="white"/>
<path fill-rule="evenodd" clip-rule="evenodd" d="M66.1712 5.54742C66.1712 5.555 66.1712 5.555 66.1712 5.54742C64.8868 5.61563 63.8553 6.79029 63.7954 8.25293V17.8548C63.7954 17.8927 63.7954 17.9382 63.7954 17.9761C63.7954 19.4994 64.8469 20.7422 66.1712 20.8029H75.2882C76.6059 20.7347 77.664 19.4918 77.664 17.9761C77.664 17.9382 77.664 17.8927 77.664 17.8548V8.26051C77.6108 6.79787 76.5793 5.61563 75.2949 5.555H66.1712V5.54742ZM67.8748 8.26051C67.8681 8.26051 67.8681 8.26051 67.8748 8.26051C67.0696 8.29841 66.4241 9.04109 66.3908 9.96567V16.0057C66.3908 16.0284 66.3908 16.0587 66.3908 16.0815C66.3908 17.0364 67.0496 17.8245 67.8748 17.8624H73.5913C74.4165 17.8245 75.0753 17.0364 75.0753 16.0815C75.0753 16.0587 75.0753 16.0284 75.0753 16.0057V9.96567C75.042 9.04109 74.3965 8.30598 73.5913 8.26051H67.8748Z" fill="white"/>
<path fill-rule="evenodd" clip-rule="evenodd" d="M108.341 20.2956C108.341 20.5682 108.537 20.7953 108.78 20.7953H110.51C110.753 20.7953 110.949 20.5757 110.949 20.2956V8.49252C110.949 8.45466 110.949 8.40924 110.949 8.37139C110.949 6.84963 109.888 5.60799 108.564 5.54742H99.6809C99.6471 5.54742 99.6065 5.54742 99.5728 5.54742C98.1947 5.54742 97.0801 6.81177 97.0801 8.37895C97.0801 8.41681 97.0801 8.46224 97.0801 8.50009V20.3032C97.0801 20.5757 97.276 20.8029 97.5192 20.8029H99.2485C99.4917 20.8029 99.6876 20.5833 99.6876 20.3032V15.3896C99.6876 15.1171 99.8835 14.89 100.127 14.89H107.922C108.165 14.89 108.361 15.1095 108.361 15.3896V20.2956H108.341ZM99.6741 12.172V9.71901C99.6741 8.76507 100.356 7.99284 101.194 7.99284H106.828C107.666 7.99284 108.348 8.76507 108.348 9.71901V12.172C108.348 12.4445 108.152 12.6717 107.909 12.6717H100.113C99.87 12.6717 99.6741 12.4521 99.6741 12.172Z" fill="white"/>
<path fill-rule="evenodd" clip-rule="evenodd" d="M144.835 20.8029C144.594 20.8029 144.4 20.5833 144.4 20.3032V15.3896C144.4 15.1171 144.207 14.89 143.966 14.89H136.166C135.926 14.89 135.732 15.1095 135.732 15.3896V20.3032C135.732 20.5757 135.538 20.8029 135.297 20.8029H133.573C133.332 20.8029 133.138 20.5833 133.138 20.3032V8.50009C133.138 8.46223 133.138 8.41681 133.138 8.37896C133.138 6.81934 134.255 5.54742 135.631 5.54742C135.665 5.54742 135.705 5.54742 135.738 5.54742H144.621C145.944 5.61556 147.007 6.8572 147.007 8.37138C147.007 8.40924 147.007 8.45467 147.007 8.49252V20.2956C147.007 20.5682 146.813 20.7953 146.573 20.7953H144.835V20.8029ZM135.732 9.72658V12.1796C135.732 12.4521 135.926 12.6792 136.166 12.6792H143.966C144.207 12.6792 144.4 12.4597 144.4 12.1796V9.72658C144.4 8.77264 143.719 8.00041 142.883 8.00041H137.249C136.407 8.00041 135.732 8.77264 135.732 9.72658Z" fill="white"/>
<path d="M117.531 5.54742C117.659 5.54742 117.78 5.60793 117.861 5.72138L125.605 16.0757C125.868 16.4236 126.374 16.2119 126.374 15.7505V6.04661C126.374 5.77433 126.57 5.54742 126.812 5.54742H128.539C128.782 5.54742 128.978 5.76676 128.978 6.04661V20.2961C128.978 20.5684 128.782 20.7953 128.539 20.7953H126.394C126.387 20.7953 126.381 20.7877 126.381 20.7802C126.381 20.7726 126.381 20.7726 126.374 20.765L118.495 10.4863C118.232 10.1384 117.726 10.3578 117.726 10.8116V20.3037C117.726 20.576 117.531 20.8029 117.288 20.8029H115.548C115.305 20.8029 115.109 20.5835 115.109 20.3037V6.04661C115.109 5.77433 115.305 5.54742 115.548 5.54742H117.531Z" fill="white"/>
<path fill-rule="evenodd" clip-rule="evenodd" d="M5.63618 0.272735C5.84878 0.0981846 6.13446 0 6.43343 0H34.1044C34.6093 0 34.8618 0.501833 34.503 0.790932L29.0353 5.2747C28.8227 5.44925 28.537 5.54743 28.238 5.54743H0.567048C0.0621273 5.54743 -0.190333 5.0456 0.168426 4.7565L5.63618 0.272735ZM5.63618 21.0752C5.84878 20.9008 6.13446 20.8027 6.43343 20.8027H34.1044C34.6093 20.8027 34.8618 21.3041 34.503 21.5929L29.0353 26.0777C28.8227 26.2521 28.537 26.3502 28.238 26.3502H0.567048C0.0621273 26.3502 -0.190333 25.8488 0.168426 25.56L5.63618 21.0752ZM28.238 9.70801C28.537 9.70801 28.8227 9.83074 29.0353 10.0489L34.503 15.6536C34.8618 16.015 34.6093 16.6423 34.1044 16.6423H6.43343C6.13446 16.6423 5.84878 16.5196 5.63618 16.3014L0.168426 10.6967C-0.190333 10.3353 0.0621273 9.70801 0.567048 9.70801H28.238Z" fill="url(#paint0_linear_2_427)"/>
<defs>
<linearGradient id="paint0_linear_2_427" x1="35" y1="-0.386717" x2="-2.89731e-07" y2="26.6133" gradientUnits="userSpaceOnUse">
<stop stop-color="#0BF3A7"/>
<stop offset="1" stop-color="#D921FE"/>
</linearGradient>
</defs>
</svg>
