<svg width="145" height="34" viewBox="0 0 145 34" fill="none" xmlns="http://www.w3.org/2000/svg">
<path d="M63.091 23.6202C61.0729 23.6202 59.4391 22.9956 58.2379 21.6982C57.0366 20.4008 56.46 18.671 56.46 16.4126C56.46 14.2983 57.0846 12.5685 58.334 11.2711C59.6313 9.97371 61.4092 9.25294 63.2352 9.34904C64.6767 9.30099 66.1182 9.6854 67.3676 10.5023L66.5507 12.4724C65.5897 11.8477 64.4364 11.5113 63.2832 11.4633C62.13 11.4152 60.9768 11.9438 60.256 12.8568C59.4872 13.9139 59.1028 15.2113 59.1508 16.5087C59.1508 18.0943 59.4872 19.3437 60.2079 20.2566C60.9768 21.1696 62.0819 21.6501 63.2832 21.6021C64.4845 21.6021 65.6858 21.3138 66.7429 20.7372L67.0793 22.7553C65.878 23.3319 64.4845 23.6683 63.091 23.6202Z" fill="white" fill-opacity="0.25"/>
<path d="M73.6141 23.6209C72.2206 23.669 70.8752 23.1404 69.9622 22.1313C69.0493 21.0262 68.5688 19.6327 68.6168 18.1911C68.6168 16.5093 69.0493 15.1639 69.9622 14.2029C70.8272 13.2419 72.0765 12.7614 73.7102 12.7614C75.1037 12.6653 76.4491 13.2419 77.3621 14.2509C78.2751 15.3561 78.7556 16.7496 78.7075 18.1911C78.7556 19.6327 78.2751 21.0262 77.3621 22.1313C76.4011 23.1404 75.0076 23.717 73.6141 23.6209ZM73.7102 21.7469C74.479 21.795 75.1998 21.4586 75.6323 20.8339C76.1128 20.0171 76.305 19.1041 76.2569 18.1911C76.305 17.2782 76.0647 16.3171 75.5842 15.5003C74.7193 14.4432 73.1817 14.2509 72.1245 15.1159C71.9804 15.212 71.8362 15.3561 71.7401 15.5003C71.2596 16.3171 71.0674 17.2301 71.1155 18.1911C71.0674 19.1041 71.3077 20.0171 71.7882 20.7859C72.1726 21.4106 72.9414 21.795 73.7102 21.7469Z" fill="white" fill-opacity="0.25"/>
<path d="M80.7739 11.4634V9.34912H83.2726V11.4634H80.7739ZM80.7739 23.4281V13.001H83.2726V23.4281H80.7739Z" fill="white" fill-opacity="0.25"/>
<path d="M85.8674 23.4285V13.0014H87.8856L88.1739 14.2987C89.0869 13.3377 90.3842 12.7611 91.7297 12.7131C92.7387 12.617 93.7478 13.0014 94.4686 13.7702C95.0932 14.491 95.3816 15.5 95.3816 16.7974V23.3804H92.8829V17.1338C92.9309 16.461 92.7868 15.8364 92.4504 15.2598C92.1141 14.8273 91.5855 14.5871 91.0089 14.6351C90.4803 14.6351 89.9518 14.7793 89.5193 15.0676C89.0869 15.3078 88.7505 15.6922 88.5583 16.1247C88.4141 16.8935 88.3661 17.6623 88.3661 18.4311V23.5246H85.8674V23.4285Z" fill="white" fill-opacity="0.25"/>
<path d="M101.1 23.6201C99.8022 23.6682 98.5529 23.4279 97.3997 22.8513L97.6399 20.9773C98.1685 21.2176 98.697 21.4578 99.2256 21.602C99.8022 21.7461 100.379 21.8422 101.003 21.8903C101.436 21.8903 101.916 21.7942 102.301 21.602C102.589 21.4098 102.781 21.0734 102.781 20.689C102.781 20.3526 102.637 20.0163 102.349 19.8241C101.82 19.4877 101.292 19.2475 100.715 19.0553L100.187 18.863C99.4178 18.6228 98.697 18.1903 98.1204 17.6137C97.688 17.0852 97.4477 16.4124 97.4958 15.7397C97.4477 14.8748 97.8321 14.0579 98.5048 13.5294C99.3698 12.9528 100.379 12.7125 101.388 12.7606C102.589 12.7125 103.79 13.0008 104.896 13.5294L104.271 15.2592C103.406 14.8268 102.397 14.5865 101.436 14.5865C101.052 14.5865 100.619 14.6345 100.283 14.8268C99.9944 14.9709 99.8503 15.2592 99.8503 15.5956C99.8503 15.8839 99.9944 16.1722 100.283 16.3644C100.811 16.6527 101.34 16.893 101.868 17.0852L102.109 17.1813L102.445 17.3254C103.214 17.5657 103.935 17.9981 104.559 18.5747C105.04 19.1033 105.28 19.776 105.232 20.4968C105.28 21.4098 104.896 22.3227 104.175 22.8993C103.262 23.3799 102.205 23.6682 101.1 23.6201Z" fill="white" fill-opacity="0.25"/>
<path d="M107.298 23.4283V9.49347H111.959C112.92 9.49347 113.881 9.63762 114.794 9.92593C115.515 10.1662 116.188 10.6467 116.62 11.3194C117.101 12.0402 117.341 12.857 117.293 13.722C117.293 14.3466 117.197 14.9232 117.053 15.4999C116.861 16.0284 116.572 16.5089 116.188 16.8933C115.707 17.3739 115.179 17.6622 114.554 17.8544C113.737 18.0946 112.872 18.1907 111.959 18.1907C111.094 18.1907 110.374 18.1907 109.845 18.0946V23.4283H107.298ZM111.671 16.2687C112.151 16.2687 112.584 16.2206 113.064 16.1245C113.401 16.0284 113.689 15.9323 113.977 15.7401C114.17 15.596 114.362 15.4038 114.506 15.1635C114.65 14.9713 114.698 14.731 114.746 14.4908C114.794 14.2505 114.794 14.0103 114.794 13.77C114.842 13.0973 114.554 12.4726 114.074 12.0402C113.449 11.6077 112.728 11.4155 111.959 11.4636H109.845V16.3167C109.941 16.2687 110.518 16.2687 111.671 16.2687Z" fill="white" fill-opacity="0.25"/>
<path d="M121.521 23.6211C120.656 23.6691 119.839 23.3808 119.167 22.8042C118.542 22.2276 118.206 21.3627 118.254 20.4977C118.206 19.5848 118.59 18.6718 119.311 18.0952C120.272 17.4705 121.377 17.1342 122.53 17.0861C122.723 17.0381 122.963 17.0381 123.155 16.99L123.924 16.8939L124.597 16.8458V16.2692C124.645 15.7887 124.5 15.2602 124.164 14.8758C123.78 14.5394 123.299 14.3952 122.819 14.4433C121.713 14.4913 120.656 14.7316 119.695 15.1641C119.695 15.1641 119.599 14.8758 119.359 14.2991L119.071 13.4342C120.32 12.9057 121.713 12.6174 123.059 12.6654C124.452 12.6654 125.51 12.9537 126.134 13.5784C126.759 14.203 127.095 15.1641 127.095 16.5575V23.3808H125.269C125.269 23.3808 125.173 23.1405 125.077 22.7561C124.981 22.3717 124.885 22.1315 124.885 22.1315C124.452 22.5639 123.924 22.9483 123.347 23.2366C122.771 23.525 122.146 23.6211 121.521 23.6211ZM122.194 21.8432C122.723 21.8432 123.251 21.699 123.684 21.4107C124.068 21.1704 124.404 20.8341 124.597 20.4016V18.3835L124.116 18.4315L123.587 18.4796C122.819 18.5276 122.05 18.7198 121.377 19.0562C120.897 19.3445 120.656 19.9211 120.656 20.4497C120.656 20.8341 120.752 21.2185 121.041 21.4588C121.377 21.7471 121.81 21.8912 122.194 21.8432Z" fill="white" fill-opacity="0.25"/>
<path d="M129.642 11.4634V9.34912H132.141V11.4634H129.642ZM129.642 23.4281V13.001H132.141V23.4281H129.642Z" fill="white" fill-opacity="0.25"/>
<path d="M138.628 23.6202C137.378 23.6682 136.177 23.0916 135.408 22.1306C134.591 20.9773 134.159 19.5358 134.255 18.1423C134.207 16.7488 134.591 15.3554 135.408 14.2502C136.177 13.2892 137.378 12.7126 138.628 12.7606C140.117 12.7606 141.174 13.2892 141.751 14.3463C141.703 13.7697 141.655 13.145 141.655 12.5684V9.20482L144.153 9.06067V23.476H141.991L141.703 22.0345C141.607 22.2267 141.511 22.3708 141.415 22.4669C141.318 22.6111 141.174 22.7552 141.03 22.8994C140.838 23.0435 140.646 23.1877 140.454 23.2838C140.213 23.3799 139.925 23.476 139.685 23.5241C139.348 23.5721 138.964 23.6202 138.628 23.6202ZM139.204 21.7462C140.886 21.7462 141.703 20.5929 141.751 18.3345C141.751 17.0372 141.511 16.1242 141.078 15.5476C140.646 14.971 139.925 14.6346 139.156 14.6826C138.435 14.6346 137.763 14.971 137.378 15.5476C136.898 16.3164 136.657 17.2774 136.706 18.1904C136.657 19.1033 136.898 20.0644 137.378 20.8332C137.811 21.4098 138.483 21.7462 139.204 21.7462Z" fill="white" fill-opacity="0.25"/>
<path d="M36.3266 14.587H11.6284C10.8595 14.539 10.0907 14.2507 9.51412 13.7701C9.03361 13.2416 8.79335 12.5208 8.8414 11.8C8.8414 9.30139 10.8115 9.01308 11.6284 8.96503H20.4217L18.0672 0.123627H11.6764C7.64012 0.123627 0 2.57423 0 11.8C0 21.0259 7.64012 23.4765 11.6764 23.4765L38.6811 23.4284L36.3266 14.587Z" fill="white" fill-opacity="0.25"/>
<path d="M23.0166 33.0389H31.9541L30.7528 28.6663H33.1073C37.1436 28.6663 44.7357 26.2157 44.7357 16.9899C44.7357 7.76407 37.1436 5.36151 33.1073 5.36151H15.6167L18.1154 14.5873H32.9151C33.78 14.5873 35.9904 14.3471 36.1345 16.8938C36.2306 19.2483 34.0203 19.3924 33.1553 19.4405H19.3647L23.0166 33.0389Z" fill="#2C2C2C"/>
</svg>
