<svg width="94" height="88" viewBox="0 0 94 88" fill="none" xmlns="http://www.w3.org/2000/svg">
<path fill-rule="evenodd" clip-rule="evenodd" d="M27.8905 37.4517C27.7684 37.2807 27.6373 37.1168 27.4979 36.9608C27.6373 37.1168 27.7684 37.2807 27.8905 37.4516C27.8905 37.4516 27.8905 37.4516 27.8905 37.4517ZM89.9902 51.6074L89.1545 52.2502L89.8407 53.0508C90.9104 54.2988 91.5999 56.0746 91.5999 57.4C91.5999 60.1003 89.5447 62.44 87.4117 63.9912L86.7266 64.4895L87.1055 65.2472C87.6302 66.2966 87.9999 67.7416 87.9999 69.4C87.9999 72.5219 85.9196 75.3849 82.4542 76.6616L81.5447 76.9967L81.8512 77.9162C81.9887 78.3286 81.9999 78.9433 81.9999 79.8C81.9999 81.5637 81.0626 83.5634 79.368 85.1436C77.6879 86.7101 75.3267 87.8 72.5999 87.8H43.9999C40.4702 87.8 37.2706 86.3169 34.0606 84.7123C32.514 83.8801 30.8634 83.0986 29.2829 82.5917L28.0854 82.2076L27.9809 83.4608C27.7635 86.07 25.6982 88 23 88H5C2.15228 88 0 85.8477 0 83V41C0 38.1523 2.15228 36 5 36H23C25.0472 36 26.7141 37.1087 27.5026 38.7541L28.0486 39.8934L29.0321 39.1004C35.1307 34.1835 42.018 27.394 44.9372 19.5487L44.9674 19.4674L44.9832 19.3821L47.9773 3.21412C48.1488 2.54726 48.4356 2.10017 48.8471 1.89443L48.8954 1.87032L48.9407 1.84118C50.2575 0.994625 51.3513 0.545396 52.4233 0.299732C53.5089 0.0509541 54.616 0 55.9999 0C56.9031 0 57.8099 0.19207 58.6727 0.697307C59.5359 1.20276 60.4124 2.05527 61.2028 3.46425C62.8019 6.31483 63.9999 11.3577 63.9999 20C63.9999 24.2899 63.2182 29.402 61.8319 34.749L61.5076 36H62.7999H82.9999C86.3527 36 89.1132 36.8158 91.0116 38.2898C92.8783 39.7393 93.9999 41.8903 93.9999 44.8C93.9999 47.1803 92.446 49.7183 89.9902 51.6074ZM28.3965 44.6026L28 44.9027V45.4L27.9999 77.2L27.9999 77.9955L28.7751 78.1744C31.235 78.7421 33.5253 79.8807 35.9391 81.0876C38.5313 82.4824 41.5259 83.8 43.9999 83.8H72.5999C73.9531 83.8 75.2538 83.4638 76.2486 82.811C77.2548 82.1507 77.9999 81.1181 77.9999 79.8C77.9999 78.3042 77.794 77.2872 77.6423 76.5381L77.6417 76.5354C77.4542 75.6094 77.4255 75.3461 77.6391 74.9486C77.6645 74.925 77.7594 74.8436 78.0098 74.718C78.305 74.5701 78.6809 74.4243 79.1525 74.2427L79.1959 74.2259C79.9756 73.9258 80.9716 73.5423 81.8196 72.9668C82.7057 72.3655 83.5208 71.4944 83.7805 70.1961L83.7999 70.099V70V69.4C83.7999 67.3989 83.1856 66.1369 82.7254 65.1915L82.7212 65.1829C82.2546 64.2241 82.0913 63.8249 82.3397 63.1417L82.3443 63.129L82.3486 63.1162C82.3685 63.0565 82.4395 62.9303 82.7151 62.7314C82.9936 62.5304 83.3591 62.3389 83.8405 62.0899L83.891 62.0638C84.5991 61.6978 85.5191 61.2222 86.2482 60.5014C87.0398 59.719 87.5999 58.6603 87.5999 57.2C87.5999 54.9506 86.5807 53.6015 85.8626 52.6509L85.8459 52.6288C85.1701 51.734 85.0484 51.4714 85.1529 51.1039C85.1914 50.9982 85.2863 50.8516 85.5179 50.6453C85.7636 50.4263 86.0803 50.2103 86.4932 49.9314L86.5518 49.8918C87.8452 49.0188 89.7999 47.6993 89.7999 44.8C89.7999 43.1497 88.8197 41.9166 87.5423 41.1442C86.2775 40.3794 84.6383 40 82.9999 40H55.9999C54.9522 40 53.9999 39.0477 53.9999 38C53.9999 36.9523 54.9522 36 55.9999 36H56.7999H57.5542L57.7615 35.2747C59.3793 29.6124 60.1999 24.5173 60.1999 20C60.1999 14.2362 59.5939 10.387 58.8853 7.94619C58.5317 6.72844 58.1456 5.83658 57.7793 5.22613C57.5978 4.92361 57.4047 4.66258 57.2014 4.46308C57.0997 4.36338 56.9766 4.26031 56.8321 4.17698C56.6967 4.09886 56.4767 4 56.1999 4L56.0906 3.99998C54.587 3.99972 53.6085 3.99954 52.4285 4.47155L51.9178 4.67582L51.8169 5.21653L49.0912 19.8186C48.9779 19.9553 48.9133 20.0977 48.8763 20.2087C48.8291 20.3503 48.8106 20.4984 48.8036 20.6117C45.0717 30.6504 35.742 39.0438 28.3965 44.6026ZM5 40H4V41V83V84H5H23H24V83V41V40H23H5Z" fill="#FC363B"/>
</svg>
