<svg width="300" height="69" viewBox="0 0 300 69" fill="none" xmlns="http://www.w3.org/2000/svg">
<path d="M131.3 48.8994C127.1 48.8994 123.7 47.5994 121.2 44.8994C118.7 42.1994 117.5 38.5994 117.5 33.8994C117.5 29.4994 118.8 25.8994 121.4 23.1994C124.1 20.4994 127.8 18.9994 131.6 19.1994C134.6 19.0994 137.6 19.8994 140.2 21.5994L138.5 25.6994C136.5 24.3994 134.1 23.6994 131.7 23.5994C129.3 23.4994 126.9 24.5994 125.4 26.4994C123.8 28.6994 123 31.3994 123.1 34.0994C123.1 37.3994 123.8 39.9994 125.3 41.8994C126.9 43.7994 129.2 44.7994 131.7 44.6994C134.2 44.6994 136.7 44.0994 138.9 42.8994L139.6 47.0994C137.1 48.2994 134.2 48.9994 131.3 48.8994Z" fill="white"/>
<path d="M153.2 48.9009C150.3 49.0009 147.5 47.9009 145.6 45.8009C143.7 43.5009 142.7 40.6009 142.8 37.6009C142.8 34.1009 143.7 31.3009 145.6 29.3009C147.4 27.3009 150 26.3009 153.4 26.3009C156.3 26.1009 159.1 27.3009 161 29.4009C162.9 31.7009 163.9 34.6009 163.8 37.6009C163.9 40.6009 162.9 43.5009 161 45.8009C159 47.9009 156.1 49.1009 153.2 48.9009ZM153.4 45.0009C155 45.1009 156.5 44.4009 157.4 43.1009C158.4 41.4009 158.8 39.5009 158.7 37.6009C158.8 35.7009 158.3 33.7009 157.3 32.0009C155.5 29.8009 152.3 29.4009 150.1 31.2009C149.8 31.4009 149.5 31.7009 149.3 32.0009C148.3 33.7009 147.9 35.6009 148 37.6009C147.9 39.5009 148.4 41.4009 149.4 43.0009C150.2 44.3009 151.8 45.1009 153.4 45.0009Z" fill="white"/>
<path d="M168.1 23.5992V19.1992H173.3V23.5992H168.1ZM168.1 48.4992V26.7992H173.3V48.4992H168.1Z" fill="white"/>
<path d="M178.7 48.5001V26.8001H182.9L183.5 29.5001C185.4 27.5001 188.1 26.3001 190.9 26.2001C193 26.0001 195.1 26.8001 196.6 28.4001C197.9 29.9001 198.5 32.0001 198.5 34.7001V48.4001H193.3V35.4001C193.4 34.0001 193.1 32.7001 192.4 31.5001C191.7 30.6001 190.6 30.1001 189.4 30.2001C188.3 30.2001 187.2 30.5001 186.3 31.1001C185.4 31.6001 184.7 32.4001 184.3 33.3001C184 34.9001 183.9 36.5001 183.9 38.1001V48.7001H178.7V48.5001Z" fill="white"/>
<path d="M210.4 48.8996C207.7 48.9996 205.1 48.4996 202.7 47.2996L203.2 43.3996C204.3 43.8996 205.4 44.3996 206.5 44.6996C207.7 44.9996 208.9 45.1996 210.2 45.2996C211.1 45.2996 212.1 45.0996 212.9 44.6996C213.5 44.2996 213.9 43.5996 213.9 42.7996C213.9 42.0996 213.6 41.3996 213 40.9996C211.9 40.2996 210.8 39.7996 209.6 39.3996L208.5 38.9996C206.9 38.4996 205.4 37.5996 204.2 36.3996C203.3 35.2996 202.8 33.8996 202.9 32.4996C202.8 30.6996 203.6 28.9996 205 27.8996C206.8 26.6996 208.9 26.1996 211 26.2996C213.5 26.1996 216 26.7996 218.3 27.8996L217 31.4996C215.2 30.5996 213.1 30.0996 211.1 30.0996C210.3 30.0996 209.4 30.1996 208.7 30.5996C208.1 30.8996 207.8 31.4996 207.8 32.1996C207.8 32.7996 208.1 33.3996 208.7 33.7996C209.8 34.3996 210.9 34.8996 212 35.2996L212.5 35.4996L213.2 35.7996C214.8 36.2996 216.3 37.1996 217.6 38.3996C218.6 39.4996 219.1 40.8996 219 42.3996C219.1 44.2996 218.3 46.1996 216.8 47.3996C214.9 48.3996 212.7 48.9996 210.4 48.8996Z" fill="white"/>
<path d="M223.3 48.5V19.5H233C235 19.5 237 19.8 238.9 20.4C240.4 20.9 241.8 21.9 242.7 23.3C243.7 24.8 244.2 26.5 244.1 28.3C244.1 29.6 243.9 30.8 243.6 32C243.2 33.1 242.6 34.1 241.8 34.9C240.8 35.9 239.7 36.5 238.4 36.9C236.7 37.4 234.9 37.6 233 37.6C231.2 37.6 229.7 37.6 228.6 37.4V48.5H223.3ZM232.4 33.6C233.4 33.6 234.3 33.5 235.3 33.3C236 33.1 236.6 32.9 237.2 32.5C237.6 32.2 238 31.8 238.3 31.3C238.6 30.9 238.7 30.4 238.8 29.9C238.9 29.4 238.9 28.9 238.9 28.4C239 27 238.4 25.7 237.4 24.8C236.1 23.9 234.6 23.5 233 23.6H228.6V33.7C228.8 33.6 230 33.6 232.4 33.6Z" fill="white"/>
<path d="M252.9 48.9006C251.1 49.0006 249.4 48.4006 248 47.2006C246.7 46.0006 246 44.2006 246.1 42.4006C246 40.5006 246.8 38.6006 248.3 37.4006C250.3 36.1006 252.6 35.4006 255 35.3006C255.4 35.2006 255.9 35.2006 256.3 35.1006L257.9 34.9006L259.3 34.8006V33.6006C259.4 32.6006 259.1 31.5006 258.4 30.7006C257.6 30.0006 256.6 29.7006 255.6 29.8006C253.3 29.9006 251.1 30.4006 249.1 31.3006C249.1 31.3006 248.9 30.7006 248.4 29.5006L247.8 27.7006C250.4 26.6006 253.3 26.0006 256.1 26.1006C259 26.1006 261.2 26.7006 262.5 28.0006C263.8 29.3006 264.5 31.3006 264.5 34.2006V48.4006H260.7C260.7 48.4006 260.5 47.9006 260.3 47.1006C260.1 46.3006 259.9 45.8006 259.9 45.8006C259 46.7006 257.9 47.5006 256.7 48.1006C255.5 48.7006 254.2 48.9006 252.9 48.9006ZM254.3 45.2006C255.4 45.2006 256.5 44.9006 257.4 44.3006C258.2 43.8006 258.9 43.1006 259.3 42.2006V38.0006L258.3 38.1006L257.2 38.2006C255.6 38.3006 254 38.7006 252.6 39.4006C251.6 40.0006 251.1 41.2006 251.1 42.3006C251.1 43.1006 251.3 43.9006 251.9 44.4006C252.6 45.0006 253.5 45.3006 254.3 45.2006Z" fill="white"/>
<path d="M269.8 23.5992V19.1992H275V23.5992H269.8ZM269.8 48.4992V26.7992H275V48.4992H269.8Z" fill="white"/>
<path d="M288.5 48.8996C285.9 48.9996 283.4 47.7996 281.8 45.7996C280.1 43.3996 279.2 40.3996 279.4 37.4996C279.3 34.5996 280.1 31.6996 281.8 29.3996C283.4 27.3996 285.9 26.1996 288.5 26.2996C291.6 26.2996 293.8 27.3996 295 29.5996C294.9 28.3996 294.8 27.0996 294.8 25.8996V18.8996L300 18.5996V48.5996H295.5L294.9 45.5996C294.7 45.9996 294.5 46.2996 294.3 46.4996C294.1 46.7996 293.8 47.0996 293.5 47.3996C293.1 47.6996 292.7 47.9996 292.3 48.1996C291.8 48.3996 291.2 48.5996 290.7 48.6996C290 48.7996 289.2 48.8996 288.5 48.8996ZM289.7 44.9996C293.2 44.9996 294.9 42.5996 295 37.8996C295 35.1996 294.5 33.2996 293.6 32.0996C292.7 30.8996 291.2 30.1996 289.6 30.2996C288.1 30.1996 286.7 30.8996 285.9 32.0996C284.9 33.6996 284.4 35.6996 284.5 37.5996C284.4 39.4996 284.9 41.4996 285.9 43.0996C286.8 44.2996 288.2 44.9996 289.7 44.9996Z" fill="white"/>
<path d="M75.6 30.1H24.2C22.6 30 21 29.4 19.8 28.4C18.8 27.3 18.3 25.8 18.4 24.3C18.4 19.1 22.5 18.5 24.2 18.4H42.5L37.6 0H24.3C15.9 0 0 5.1 0 24.3C0 43.5 15.9 48.6 24.3 48.6L80.5 48.5L75.6 30.1Z" fill="white"/>
<path d="M47.9 68.5004H66.5L64 59.4004H68.9C77.3 59.4004 93.1 54.3004 93.1 35.1004C93.1 15.9004 77.3 10.9004 68.9 10.9004H32.5L37.7 30.1004H68.5C70.3 30.1004 74.9 29.6004 75.2 34.9004C75.4 39.8004 70.8 40.1004 69 40.2004H40.3L47.9 68.5004Z" fill="#0C97FA"/>
</svg>
