<svg width="50" height="50" viewBox="0 0 21 21" fill = "#fe333c"  xmlns="http://www.w3.org/2000/svg">
    <path fill-rule="evenodd" clip-rule="evenodd" d="M19.9624 8.95117L11.8021 0.791687C11.4543 0.443787 10.992 0.252136 10.5002 0.252136C10.0083 0.252136 9.54597 0.443634 9.19805 0.791534L1.04345 8.94553L1.03521 8.95392C0.321055 9.67215 0.322276 10.8375 1.03872 11.5539C1.36604 11.8813 1.79834 12.071 2.26056 12.0908C2.27933 12.0927 2.29825 12.0936 2.31732 12.0936H2.64251V18.0974C2.64251 19.2855 3.6092 20.2521 4.79763 20.2521H7.98964C8.31314 20.2521 8.57561 19.9898 8.57561 19.6662V14.9592C8.57561 14.417 9.01661 13.976 9.55879 13.976H11.4415C11.9837 13.976 12.4247 14.417 12.4247 14.9592V19.6662C12.4247 19.9898 12.687 20.2521 13.0107 20.2521H16.2027C17.3911 20.2521 18.3578 19.2855 18.3578 18.0974V12.0936H18.6593C19.151 12.0936 19.6134 11.9021 19.9614 11.5542C20.6786 10.8365 20.6789 9.66925 19.9624 8.95117ZM19.1126 10.7059C19.3615 10.4568 19.3618 10.0488 19.1134 9.79928C19.1132 9.79912 19.113 9.79896 19.1129 9.7988L19.1124 9.79834L10.9535 1.64023C10.8307 1.51736 10.6734 1.45214 10.5002 1.45214C10.3267 1.45214 10.1695 1.51717 10.0466 1.64006L1.89611 9.78997L1.89454 9.79157L1.88621 9.79999C1.63812 10.0495 1.63884 10.4569 1.88729 10.7053C2.00171 10.8198 2.14951 10.885 2.31201 10.8919L2.34461 10.8933L2.34711 10.8936H3.84257V18.0974C3.84257 18.6226 4.27187 19.0521 4.79763 19.0521H7.37554V14.9592C7.37554 13.7543 8.35383 12.776 9.55879 12.776H11.4415C12.6465 12.776 13.6248 13.7543 13.6248 14.9592V19.0521H16.2027C16.7284 19.0521 17.1577 18.6226 17.1577 18.0974V10.8936H18.6593C18.8323 10.8936 18.9895 10.8288 19.1126 10.7059ZM1.89866 9.78735C1.89927 9.78673 1.89978 9.7862 1.89986 9.78613L1.89944 9.78655L1.89866 9.78735Z"  ></path>
</svg>