<svg width="50" height="50" viewBox="0 0 50 50" fill="#fe333c"  xmlns="http://www.w3.org/2000/svg">
    <path d="M42.6777 7.32227C37.9558 2.60049 31.6777 0 25 0C18.3223 0 12.0442 2.60049 7.32227 7.32227C2.60049 12.0442 0 18.3223 0 25C0 31.6777 2.60049 37.9558 7.32227 42.6777C12.0442 47.3995 18.3223 50 25 50C31.6777 50 37.9558 47.3995 42.6777 42.6777C47.3995 37.9558 50 31.6777 50 25C50 18.3223 47.3995 12.0442 42.6777 7.32227ZM47.0703 25C47.0703 27.4732 46.6613 29.8528 45.9075 32.0746L43.1926 30.9501C43.8069 29.0763 44.1406 27.0766 44.1406 25C44.1406 22.9234 43.8069 20.9237 43.1926 19.0499L45.9075 17.9254C46.6613 20.1472 47.0703 22.5268 47.0703 25ZM25 41.2109C16.0612 41.2109 8.78906 33.9388 8.78906 25C8.78906 16.0612 16.0612 8.78906 25 8.78906C33.9388 8.78906 41.2109 16.0612 41.2109 25C41.2109 33.9388 33.9388 41.2109 25 41.2109ZM2.92969 25C2.92969 22.5268 3.33867 20.1472 4.09248 17.9254L6.80742 19.0499C6.19307 20.9237 5.85938 22.9234 5.85938 25C5.85938 27.0766 6.19307 29.0763 6.80742 30.9501L4.09248 32.0746C3.33867 29.8528 2.92969 27.4732 2.92969 25ZM44.7814 15.2207L42.0687 16.3443C40.2277 12.7286 37.2714 9.77227 33.6557 7.93125L34.7793 5.21855C39.1068 7.3667 42.6333 10.8932 44.7814 15.2207ZM32.0746 4.09248L30.9501 6.80742C29.0763 6.19307 27.0766 5.85938 25 5.85938C22.9234 5.85938 20.9237 6.19307 19.0499 6.80742L17.9254 4.09248C20.1472 3.33867 22.5268 2.92969 25 2.92969C27.4732 2.92969 29.8528 3.33867 32.0746 4.09248ZM15.2207 5.21855L16.3443 7.93125C12.7286 9.77227 9.77227 12.7286 7.93125 16.3443L5.21855 15.2207C7.3667 10.8932 10.8932 7.3667 15.2207 5.21855ZM5.21855 34.7793L7.93125 33.6557C9.77227 37.2714 12.7286 40.2277 16.3443 42.0687L15.2207 44.7814C10.8932 42.6333 7.3667 39.1068 5.21855 34.7793ZM17.9254 45.9075L19.0499 43.1926C20.9237 43.8069 22.9234 44.1406 25 44.1406C27.0766 44.1406 29.0763 43.8069 30.9501 43.1926L32.0746 45.9075C29.8528 46.6613 27.4732 47.0703 25 47.0703C22.5268 47.0703 20.1472 46.6613 17.9254 45.9075ZM34.7793 44.7814L33.6557 42.0687C37.2714 40.2277 40.2277 37.2714 42.0687 33.6557L44.7814 34.7793C42.6333 39.1068 39.1068 42.6333 34.7793 44.7814Z" ></path>
    <path d="M25 11.7188C17.6767 11.7188 11.7188 17.6767 11.7188 25C11.7188 32.3233 17.6767 38.2812 25
                         38.2812C32.3233 38.2812 38.2812 32.3233 38.2812 25C38.2812 17.6767 32.3233 11.7188
                         25 11.7188ZM25 35.3516C19.2921 35.3516 14.6484 30.7079 14.6484 25C14.6484 19.2921
                         19.2921 14.6484 25 14.6484C30.7079 14.6484 35.3516 19.2921 35.3516 25C35.3516 30.7079 30.7079 35.3516 25 35.3516Z"></path>
</svg>