<svg width="50" height="50" viewBox="0 0 50 50" fill="#fe333c"   xmlns="http://www.w3.org/2000/svg">
    <g>
        <path d="M44.0121 47.2376L42.7375 41.969C42.2001 39.7477 40.4961 37.9958 38.2905 37.3968L35.325 36.5914C35.2269 36.5531 35.1267 36.5266 35.026 36.5102L33.1691 36.0059C32.1184 35.7206 31.2728 34.9381 30.907 33.9127L30.6341 33.1478H37.7906C39.8824 33.1478 41.5841 31.4461 41.5841 29.3543V16.5739C41.5841 7.43499 34.1492 0 25.0103 0C15.8714 0 8.43642 7.43499 8.43642 16.5739V29.3543C8.43642 31.4461 10.1381 33.1478 12.23 33.1478H19.0058L18.7379 33.9652C18.4042 34.9835 17.5946 35.7829 16.5721 36.1038L11.2982 37.759C9.16316 38.4289 7.53778 40.2027 7.05635 42.3879L5.97779 47.2825C5.83125 47.9476 5.99199 48.6337 6.41869 49.1647C6.8454 49.6956 7.48081 50.0001 8.16193 50.0001H41.8384C42.5285 50.0001 43.1691 49.6891 43.5959 49.1467C44.0226 48.6044 44.1743 47.9086 44.0121 47.2376ZM12.23 30.2111C11.7576 30.2111 11.3731 29.8267 11.3731 29.3543V16.5739C11.3731 9.0543 17.4907 2.93672 25.0103 2.93672C32.5299 2.93672 38.6474 9.0543 38.6474 16.5739V29.3543C38.6474 29.8267 38.263 30.2111 37.7906 30.2111H32.0885C34.4672 28.0851 35.9802 24.9114 35.9802 21.3712V14.7833C35.9802 13.9724 35.3228 13.315 34.5118 13.315H15.5086C14.6977 13.315 14.0403 13.9724 14.0403 14.7833V21.3712C14.0403 24.9114 15.5534 28.0851 17.932 30.2111H12.23ZM16.977 21.3712V16.2517H33.0435V21.3712C33.0435 26.1376 29.4398 30.0153 25.0103 30.0153C20.5807 30.0153 16.977 26.1376 16.977 21.3712ZM27.8727 34.1473C27.4069 34.5894 26.4183 35.2203 24.566 35.2203C23.0617 35.2203 22.1921 34.5994 21.7645 34.1594L22.2792 32.5888C23.1526 32.8259 24.0677 32.952 25.0102 32.952C25.8135 32.952 26.5966 32.8595 27.3512 32.6857L27.8727 34.1473ZM17.4514 38.9058C18.6354 38.5342 19.6669 37.8205 20.4324 36.8808C21.4017 37.5853 22.7706 38.1569 24.566 38.1569C26.843 38.1569 28.3477 37.448 29.2387 36.8143C30.0327 37.7626 31.1004 38.4668 32.3192 38.8155C31.0452 40.1426 28.6637 41.8448 24.828 41.8448C20.6205 41.8448 18.3114 40.2344 17.1583 38.9976L17.4514 38.9058ZM9.03316 47.0633L9.92416 43.0197C10.1799 41.8589 11.0433 40.9167 12.1774 40.5608L14.1573 39.9395C15.388 41.6947 18.458 44.7816 24.8281 44.7816C30.8658 44.7816 34.1386 41.415 35.4326 39.6637L37.5208 40.2308C38.6924 40.5489 39.5976 41.4796 39.883 42.6597L40.9484 47.0634H9.03316V47.0633Z"  ></path>
    </g>
    <defs>
        <clipPath>
            <rect width="50" height="50"  ></rect>
        </clipPath>
    </defs>
</svg>