<svg width="50" height="50" fill = "#fe333c" viewBox="0 0 50 50"   xmlns="http://www.w3.org/2000/svg">
    <g>
        <path d="M50 21.3082C50 16.3337 46.3274 12.2026 41.5557 11.4913V4.86855C41.5557 2.18398 39.3752 0
                    36.6951 0C34.015 0 31.8347 2.18398 31.8347 4.86855V5.5457L18.3289 10.8358H10.8787C4.88018 10.8357
                     0 15.7239 0 21.7323C0 27.3612 4.2832 32.0068 9.75644 32.5712L14.4115 48.9348C14.5908 49.5652 15.1659 50
                      15.8203 50H23.2422C23.6975 50 24.1269 49.788 24.404 49.4263C24.6813 49.0646 24.7749 48.5942 24.6573
                       48.1537L20.7681 33.5844L31.8346 37.919V38.5962C31.8346 41.2808 34.0149 43.4647 36.695 43.4647C39.3751
                        43.4647 41.5556 41.2808 41.5556 38.5962V31.1251C46.3274 30.4138 50 26.2826 50 21.3082ZM12.5345
                        13.7703H17.1402V29.6944H12.5345V13.7703ZM2.92969 21.7323C2.92969 17.7765 5.82529 14.4864 9.60478
                        13.8738V29.5908C5.82529 28.9782 2.92969 25.6883 2.92969 21.7323ZM16.9261 47.0655L12.8192 32.629H17.4804L21.3342
                        47.0655H16.9261ZM20.0699 30.16V13.3048L31.8347 8.69668V34.7683L20.0699 30.16ZM38.626 38.5962C38.626 39.6626
                         37.7598 40.5303 36.6951 40.5303C35.6305 40.5303 34.7644 39.6627 34.7644 38.5962V4.86855C34.7644 3.80215
                          35.6305 2.93457 36.6951 2.93457C37.7598 2.93457 38.626 3.80215 38.626 4.86855V38.5962ZM41.5557
                           28.1442V14.4721C44.7033 15.1479 47.0703 17.9563 47.0703 21.3082C47.0703 24.6601 44.7034 27.4684 41.5557 28.1442Z"
        ></path>
    </g>
    <defs>
        <clipPath>
            <rect width="50" height="50" ></rect>
        </clipPath>
    </defs>
</svg>