<svg width="50" height="50" viewBox="0 0 50 50" fill="#fe333c"   xmlns="http://www.w3.org/2000/svg">
    <path d="M25.0001 17.849C23.7581 17.849 22.875 18.3734 22.875 19.1462V29.6611C22.875 30.3234 23.7582 30.9858 25.0001 30.9858C26.1868 30.9858 27.1527 30.3234 27.1527 29.6611V19.1462C27.1527 18.3734 26.1868 17.849 25.0001 17.849Z"  ></path>
    <path d="M25.0004 11.3634C23.7309 11.3634 22.7373 12.2741 22.7373 13.3229C22.7373 14.3716 23.7309 15.31 25.0004 15.31C26.2424 15.31 27.2359 14.3716 27.2359 13.3229C27.2359 12.2742 26.2423 11.3634 25.0004 11.3634Z"  ></path>
    <path d="M25 0C13.1248 0 3.51562 9.6043 3.51562 21.472C3.51562 31.1625 9.8958 39.2089 18.4978 41.9416L23.3837 49.1435C23.7472 49.6792 24.3525 50 25 50C25.6475 50 26.2528 49.6792 26.6163 49.1435L31.5022 41.9416C40.108 39.2076 46.4844 31.1583 46.4844 21.472C46.4844 9.59678 36.8675 0 25 0ZM29.7505 38.3886C29.3057 38.513 28.9194 38.7909 28.6602 39.173L25 44.568L21.3399 39.1731C21.0806 38.791 20.6943 38.513 20.2495 38.3887C12.9274 36.3413 7.42188 29.6075 7.42188 21.472C7.42188 11.7861 15.3074 3.90625 25 3.90625C34.6926 3.90625 42.5781 11.7861 42.5781 21.472C42.5781 29.6156 37.0645 36.3436 29.7505 38.3886Z"  ></path>
</svg>