<svg width="369" height="184" viewBox="0 0 369 184" fill="none" xmlns="http://www.w3.org/2000/svg">
<path d="M199.5 102.177L186.5 115.116H200.198V153.553H167.57V134L153.134 148.5V183.29H167.57V166.481H200.198V183.29H214.623V102.177H199.5Z" fill="white"></path>
<path d="M3.53235 81.2441V1.99628e-05H58.1661V12.952H17.8973V36.1478H54.6337V49.0997H17.8973V81.2441H3.53235Z" fill="white"></path>
<path d="M229.483 62.1694V19.0747C229.483 6.35826 235.842 1.99628e-05 248.558 1.99628e-05H290.122V5.41629V12.952H249.029C245.575 12.952 243.848 14.6789 243.848 18.1328V63.1114C243.848 66.5652 245.575 68.2922 249.029 68.2922H278.112V45.5674H260.921V32.6154H292.477V81.2441H248.558C235.842 81.2441 229.483 74.8859 229.483 62.1694Z" fill="white"></path>
<path d="M299.661 1.99628e-05H302.933H315.061L334.371 36.972L353.681 1.99628e-05H365.927H369L341.554 52.0434V81.2441H327.189V52.0434L299.661 1.99628e-05Z" fill="white"></path>
<path d="M0 177.874V170.338H36.3832C39.8371 170.338 41.564 168.611 41.564 165.157V156.209C41.564 153.147 40.2296 151.342 37.5607 150.792L13.6584 146.082C4.55281 144.199 0 138.037 0 127.596V121.12C0 108.404 6.35823 102.046 19.0747 102.046H53.574V107.462V114.998H19.5457C16.0918 114.998 14.3649 116.725 14.3649 120.179V127.95C14.3649 131.011 15.6993 132.816 18.3682 133.366L42.2705 138.076C51.3761 139.96 55.9289 146.082 55.9289 156.444V164.215C55.9289 176.932 49.5707 183.29 36.8542 183.29H0L0 177.874Z" fill="white"></path>
<path d="M64.0487 114.998V102.046H87.5L103.964 118.5V183.29H89.5994V114.998H64.0487Z" fill="white"></path>
<path d="M229.236 183.29V102.046H271.445C284.161 102.046 290.52 108.404 290.52 121.12V134.426C290.52 144.395 286.595 150.439 278.745 152.558L292.875 180.229L294.503 183.29H278.863L263.792 153.5H243.601V183.29H229.236ZM243.601 140.548H270.974C274.428 140.548 276.155 138.821 276.155 135.368V120.179C276.155 116.725 274.428 114.998 270.974 114.998H243.601V140.548Z" fill="white"></path>
<path d="M172.119 101.244C166.98 101.244 162.051 103.285 158.417 106.919C154.783 110.553 152.742 115.482 152.742 120.621V134.812L186.337 101.244H172.119Z" fill="#FE333C"></path>
<path d="M115.036 101.244C120.175 101.244 125.103 103.286 128.737 106.92C132.371 110.554 134.413 115.482 134.413 120.621V134.812L100.79 101.244H115.036Z" fill="#FE333C"></path>
<path d="M115.055 82.4042C120.194 82.4042 125.123 80.3626 128.757 76.7287C132.391 73.0948 134.432 68.1662 134.432 63.027V48.8773L100.809 82.4042H115.055Z" fill="#FE333C"></path>
<path d="M172.118 82.0462C166.979 82.0462 162.051 80.0047 158.417 76.3708C154.783 72.7369 152.741 67.8082 152.741 62.6691V48.5194L186.337 82.0462H172.118Z" fill="#FE333C"></path>
<path d="M69.3639 19.0747V62.1694C69.3639 74.8859 76.0613 81.2441 88 81.2441L101 68.2922H88.9096C85.4558 68.2922 83.7288 66.5652 83.7288 63.1114V18.1327C83.7288 14.6789 85.4558 12.952 88.9096 12.952H115.167C118.621 12.952 120.348 14.6789 120.348 18.1327V49L134.712 34.5V19.0747C134.712 6.35824 128.354 0 115.638 0H88.4386C75.7222 0 69.3639 6.35824 69.3639 19.0747Z" fill="white"></path>
<path d="M171.816 1.99628e-05C159.1 1.99628e-05 152.742 6.35826 152.742 19.0747V34.5L167.132 48.781L167.107 18.1328C167.107 14.6789 168.833 12.952 172.287 12.952H213.38V5.41629V0L171.816 1.99628e-05Z" fill="white"></path>
<path d="M201.37 45.5674V68.2922H186.5L200 81.2441H215.735V32.6154H184.18V45.5674H201.37Z" fill="white"></path>
</svg>