<svg width="200" height="200" viewBox="0 0 200 200" fill="none" xmlns="http://www.w3.org/2000/svg">
<circle cx="100.071" cy="100" r="99.0726" fill="url(#paint0_linear_27701_91318)"/>
<path fill-rule="evenodd" clip-rule="evenodd" d="M89.4061 3.26074C89.4061 1.72632 90.5636 0.434281 92.0933 0.313548C94.7251 0.105831 97.3855 0 100.071 0C102.864 0 105.631 0.114542 108.366 0.339184C109.892 0.464479 111.044 1.75473 111.044 3.2856V21.7295C111.044 23.3864 109.701 24.7295 108.044 24.7295H92.4061C90.7492 24.7295 89.4061 23.3864 89.4061 21.7295V3.26074Z" fill="#FF3A2B"/>
<path fill-rule="evenodd" clip-rule="evenodd" d="M89.4061 196.739C89.4061 198.274 90.5636 199.566 92.0933 199.686C94.7251 199.894 97.3855 200 100.071 200C102.864 200 105.631 199.885 108.366 199.661C109.892 199.536 111.044 198.245 111.044 196.714V178.27C111.044 176.614 109.701 175.27 108.044 175.27H92.4061C90.7492 175.27 89.4061 176.614 89.4061 178.27V196.739Z" fill="#BD3429"/>
<path fill-rule="evenodd" clip-rule="evenodd" d="M9.43147 142.489C8.77711 141.106 9.31834 139.462 10.6441 138.697L26.617 129.475C28.0519 128.647 29.8867 129.138 30.7151 130.573L38.5342 144.116C39.3627 145.551 38.871 147.386 37.4362 148.214L21.4417 157.449C20.1129 158.216 18.4152 157.86 17.5458 156.595C16.05 154.42 14.6282 152.169 13.2856 149.843C11.8888 147.424 10.6047 144.971 9.43147 142.489Z" fill="#DF372B"/>
<path fill-rule="evenodd" clip-rule="evenodd" d="M12.3287 52.0059C11.2991 53.8669 10.327 55.7641 9.41501 57.6953C8.76159 59.0788 9.3031 60.7208 10.6282 61.4858L26.617 70.717C28.0519 71.5454 29.8867 71.0538 30.7151 69.6189L38.5342 56.0757C39.3627 54.6408 38.8711 52.806 37.4362 51.9776L21.4383 42.7412C20.1114 41.9752 18.4164 42.3292 17.5458 43.5899C16.3606 45.3061 15.2276 47.0611 14.1493 48.8527L12.3287 52.0059Z" fill="#D5372B"/>
<path fill-rule="evenodd" clip-rule="evenodd" d="M190.797 57.7025C191.452 59.0865 190.91 60.7296 189.585 61.495L173.612 70.7169C172.177 71.5454 170.342 71.0537 169.514 69.6188L161.694 56.0757C160.866 54.6408 161.358 52.806 162.793 51.9776L178.787 42.7432C180.116 41.976 181.813 42.3325 182.683 43.5968C184.179 45.7722 185.601 48.0233 186.943 50.3487C188.34 52.7679 189.624 55.2212 190.797 57.7025Z" fill="#DF372B"/>
<path fill-rule="evenodd" clip-rule="evenodd" d="M190.797 142.489C191.452 141.106 190.91 139.462 189.585 138.697L173.612 129.475C172.177 128.647 170.342 129.138 169.514 130.573L161.694 144.116C160.866 145.551 161.358 147.386 162.792 148.214L178.787 157.449C180.116 158.216 181.813 157.86 182.683 156.595C184.179 154.42 185.6 152.169 186.943 149.843C188.34 147.424 189.624 144.971 190.797 142.489Z" fill="#BD3429"/>
<path d="M178.311 55.5652L178.35 51.823L176.024 56.8852L181.573 57.4043L178.311 55.5641L178.311 55.5652ZM185.151 51.6729L178.904 51.5588L178.864 55.3022L182.124 57.1398L185.151 51.6729Z" fill="white" fill-opacity="0.85"/>
<path d="M19.4072 57.5918L19.84 59.2026L18.2229 59.6431L17.7865 58.0175L19.4072 57.5918ZM18.3502 53.6544L21.1249 52.9123L20.6891 51.2866L16.2969 52.4689L17.4782 56.8691L19.104 56.4336L18.3502 53.6544ZM21.847 50.9847L22.2886 52.6011L23.9146 52.1663L23.4779 50.5411L21.847 50.9847ZM23.3456 56.5385L20.5618 57.2753L20.998 58.9012L25.3989 57.724L24.2176 53.3238L22.5918 53.7593L23.3456 56.5385ZM21.8704 55.6868L21.4336 54.061L19.8171 54.5013L20.2531 56.1266L21.87 55.6865L21.8704 55.6868Z" fill="#FCFCFC"/>
<path fill-rule="evenodd" clip-rule="evenodd" d="M101.472 7.55795C101.769 7.55795 102.047 7.44864 102.256 7.2501C102.466 7.05146 102.581 6.78767 102.581 6.50696C102.581 6.22621 102.466 5.96223 102.256 5.76369C102.047 5.56524 101.769 5.45594 101.472 5.45594H98.4239V7.55795H101.472L101.472 7.55795ZM101.564 12.8115V13.6012H99.9016V12.813H99.1627V13.6012H97.4999V12.813H96.2067V11.2365H96.761V5.45596H96.2067V3.87944H97.4999V3.09119H99.1627V3.87944H99.9016V3.09119H101.564V3.8809C102.27 3.9026 102.93 4.17343 103.432 4.64899C103.956 5.14538 104.244 5.80521 104.244 6.50697C104.244 7.19998 103.963 7.85208 103.452 8.34622C103.963 8.8404 104.244 9.49248 104.244 10.1855C104.244 10.8872 103.956 11.5471 103.432 12.0433C102.93 12.519 102.27 12.7898 101.564 12.8115V12.8115ZM98.4239 11.2365H101.472C101.769 11.2365 102.047 11.1271 102.256 10.9286C102.466 10.73 102.581 10.4662 102.581 10.1855C102.581 9.90474 102.466 9.64073 102.256 9.44218C102.047 9.24377 101.769 9.13445 101.472 9.13445H98.4239V11.2365L98.4239 11.2365Z" fill="#FCFCFC"/>
<path d="M50.3868 178.311C50.9441 178.162 51.4192 177.797 51.7077 177.297C51.9962 176.798 52.0744 176.204 51.925 175.647L51.5127 174.108L48.8449 178.724L50.3868 178.311Z" fill="#FCFCFC" fill-opacity="0.8"/>
<path d="M56.265 176.736C55.7077 176.885 55.1139 176.807 54.6142 176.519C54.1146 176.23 53.75 175.755 53.6006 175.198L53.1883 173.659L57.8099 176.322L56.265 176.736Z" fill="#FCFCFC" fill-opacity="0.8"/>
<path d="M56.7157 178.417C56.1584 178.567 55.6832 178.931 55.3947 179.431C55.1062 179.931 55.0281 180.525 55.1774 181.082L55.5885 182.616L58.2605 178.004L56.7157 178.417Z" fill="#FCFCFC" fill-opacity="0.8"/>
<path d="M50.8373 179.993C51.3947 179.843 51.9885 179.921 52.4881 180.21C52.9878 180.498 53.3524 180.974 53.5017 181.531L53.9129 183.065L49.2955 180.406L50.8373 179.993Z" fill="#FCFCFC" fill-opacity="0.8"/>
<path d="M50.3868 22.1139C50.9441 22.2632 51.4192 22.6278 51.7077 23.1275C51.9962 23.6272 52.0744 24.221 51.925 24.7783L51.5127 26.3172L48.8449 21.7007L50.3868 22.1139Z" fill="#FCFCFC"/>
<path d="M56.265 23.6888C55.7077 23.5395 55.1139 23.6176 54.6142 23.9061C54.1146 24.1946 53.75 24.6698 53.6006 25.2271L53.1883 26.766L57.8099 24.1027L56.265 23.6888Z" fill="#FCFCFC"/>
<path d="M56.7157 22.0074C56.1584 21.8581 55.6832 21.4934 55.3947 20.9938C55.1062 20.4941 55.0281 19.9003 55.1774 19.343L55.5885 17.8085L58.2605 22.4213L56.7157 22.0074Z" fill="#FCFCFC"/>
<path d="M50.8373 20.4322C51.3947 20.5815 51.9885 20.5033 52.4881 20.2149C52.9878 19.9264 53.3524 19.4512 53.5017 18.8939L53.9129 17.3594L49.2955 20.019L50.8373 20.4322Z" fill="#FCFCFC"/>
<path d="M5.99469 100.521C6.57166 100.521 7.125 100.75 7.53298 101.158C7.94096 101.566 8.17017 102.119 8.17017 102.696L8.17017 104.289L4.39842 100.521L5.99469 100.521Z" fill="#FCFCFC" fill-opacity="0.9"/>
<path d="M12.0803 100.521C11.5034 100.521 10.95 100.75 10.5421 101.158C10.1341 101.566 9.90487 102.119 9.90487 102.696L9.90487 104.289L13.6797 100.521L12.0803 100.521Z" fill="#FCFCFC" fill-opacity="0.9"/>
<path d="M12.0803 98.7795C11.5033 98.7795 10.95 98.5503 10.542 98.1423C10.134 97.7343 9.90481 97.181 9.90481 96.604L9.90481 95.0154L13.6796 98.7795L12.0803 98.7795Z" fill="#FCFCFC" fill-opacity="0.9"/>
<path d="M5.99475 98.7796C6.57172 98.7796 7.12506 98.5504 7.53305 98.1424C7.94103 97.7344 8.17023 97.1811 8.17023 96.6041L8.17023 95.0155L4.39848 98.7796L5.99475 98.7796Z" fill="#FCFCFC" fill-opacity="0.9"/>
<path d="M188.375 100.521C188.952 100.521 189.505 100.75 189.913 101.158C190.321 101.566 190.55 102.119 190.55 102.696L190.55 104.289L186.778 100.521L188.375 100.521Z" fill="#FCFCFC" fill-opacity="0.8"/>
<path d="M194.46 100.521C193.884 100.521 193.33 100.75 192.922 101.158C192.514 101.566 192.285 102.119 192.285 102.696L192.285 104.289L196.06 100.521L194.46 100.521Z" fill="#FCFCFC" fill-opacity="0.8"/>
<path d="M194.46 98.7795C193.884 98.7795 193.33 98.5503 192.922 98.1423C192.514 97.7343 192.285 97.181 192.285 96.604L192.285 95.0154L196.06 98.7795L194.46 98.7795Z" fill="#FCFCFC" fill-opacity="0.8"/>
<path d="M188.375 98.7796C188.952 98.7796 189.505 98.5504 189.913 98.1424C190.321 97.7344 190.55 97.1811 190.55 96.6041L190.55 95.0155L186.779 98.7796L188.375 98.7796Z" fill="#FCFCFC" fill-opacity="0.8"/>
<path d="M144.19 176.735C144.747 176.885 145.341 176.807 145.841 176.518C146.341 176.23 146.705 175.754 146.854 175.197L147.267 173.658L142.648 176.322L144.19 176.735Z" fill="#FCFCFC" fill-opacity="0.7"/>
<path d="M150.068 178.311C149.511 178.161 149.036 177.797 148.747 177.297C148.459 176.797 148.381 176.204 148.53 175.646L148.942 174.107L151.613 178.725L150.068 178.311Z" fill="#FCFCFC" fill-opacity="0.7"/>
<path d="M149.618 179.992C149.061 179.843 148.467 179.921 147.967 180.209C147.467 180.498 147.103 180.973 146.953 181.53L146.542 183.065L151.163 180.406L149.618 179.992Z" fill="#FCFCFC" fill-opacity="0.7"/>
<path d="M143.74 178.417C144.297 178.566 144.772 178.931 145.061 179.43C145.349 179.93 145.427 180.524 145.278 181.081L144.867 182.616L142.198 178.004L143.74 178.417Z" fill="#FCFCFC" fill-opacity="0.7"/>
<path d="M144.19 23.6896C144.747 23.5403 145.341 23.6185 145.841 23.907C146.341 24.1955 146.705 24.6706 146.854 25.2279L147.267 26.7668L142.648 24.1028L144.19 23.6896Z" fill="#FCFCFC" fill-opacity="0.9"/>
<path d="M150.068 22.1144C149.511 22.2638 149.036 22.6284 148.747 23.1281C148.459 23.6277 148.381 24.2215 148.53 24.7788L148.942 26.3178L151.613 21.7005L150.068 22.1144Z" fill="#FCFCFC" fill-opacity="0.9"/>
<path d="M149.618 20.433C149.061 20.5824 148.467 20.5042 147.967 20.2157C147.467 19.9272 147.103 19.4521 146.953 18.8948L146.542 17.3603L151.163 20.0191L149.618 20.433Z" fill="#FCFCFC" fill-opacity="0.9"/>
<path d="M143.74 22.0082C144.297 21.8589 144.772 21.4943 145.061 20.9946C145.349 20.495 145.427 19.9012 145.278 19.3438L144.867 17.8094L142.198 22.4214L143.74 22.0082Z" fill="#FCFCFC" fill-opacity="0.9"/>
<circle cx="100.071" cy="100" r="82.6893" fill="url(#paint1_linear_27701_91318)"/>
<mask id="path-36-inside-1_27701_91318" fill="white">
<path d="M182.761 100C182.761 145.668 145.739 182.689 100.071 182.689C54.4032 182.689 17.382 145.668 17.382 100C17.382 54.3319 54.4032 17.3107 100.071 17.3107C145.739 17.3107 182.761 54.3319 182.761 100ZM19.0357 100C19.0357 144.755 55.3166 181.036 100.071 181.036C144.826 181.036 181.107 144.755 181.107 100C181.107 55.2453 144.826 18.9645 100.071 18.9645C55.3166 18.9645 19.0357 55.2453 19.0357 100Z"/>
</mask>
<path d="M182.761 100C182.761 145.668 145.739 182.689 100.071 182.689C54.4032 182.689 17.382 145.668 17.382 100C17.382 54.3319 54.4032 17.3107 100.071 17.3107C145.739 17.3107 182.761 54.3319 182.761 100ZM19.0357 100C19.0357 144.755 55.3166 181.036 100.071 181.036C144.826 181.036 181.107 144.755 181.107 100C181.107 55.2453 144.826 18.9645 100.071 18.9645C55.3166 18.9645 19.0357 55.2453 19.0357 100Z" fill="url(#paint2_linear_27701_91318)" stroke="url(#paint3_linear_27701_91318)" stroke-width="8" mask="url(#path-36-inside-1_27701_91318)"/>
<mask id="path-37-inside-2_27701_91318" fill="white">
<path d="M176.269 100C176.269 142.254 141.946 176.507 99.607 176.507C57.268 176.507 22.9455 142.254 22.9455 100C22.9455 57.7464 57.268 23.493 99.607 23.493C141.946 23.493 176.269 57.7464 176.269 100ZM29.4885 100C29.4885 138.647 60.8816 169.977 99.607 169.977C138.332 169.977 169.725 138.647 169.725 100C169.725 61.3527 138.332 30.0229 99.607 30.0229C60.8816 30.0229 29.4885 61.3527 29.4885 100Z"/>
</mask>
<path d="M176.269 100C176.269 142.254 141.946 176.507 99.607 176.507C57.268 176.507 22.9455 142.254 22.9455 100C22.9455 57.7464 57.268 23.493 99.607 23.493C141.946 23.493 176.269 57.7464 176.269 100ZM29.4885 100C29.4885 138.647 60.8816 169.977 99.607 169.977C138.332 169.977 169.725 138.647 169.725 100C169.725 61.3527 138.332 30.0229 99.607 30.0229C60.8816 30.0229 29.4885 61.3527 29.4885 100Z" fill="url(#paint4_linear_27701_91318)" stroke="url(#paint5_linear_27701_91318)" stroke-width="40" mask="url(#path-37-inside-2_27701_91318)"/>
<mask id="path-38-inside-3_27701_91318" fill="white">
<path d="M163.904 100C163.904 135.596 135.117 164.451 99.607 164.451C64.0969 164.451 35.3102 135.596 35.3102 100C35.3102 64.4045 64.0969 35.5487 99.607 35.5487C135.117 35.5487 163.904 64.4045 163.904 100ZM36.6248 100C36.6248 134.868 64.8229 163.134 99.607 163.134C134.391 163.134 162.589 134.868 162.589 100C162.589 65.1323 134.391 36.8664 99.607 36.8664C64.8229 36.8664 36.6248 65.1323 36.6248 100Z"/>
</mask>
<path d="M163.904 100C163.904 135.596 135.117 164.451 99.607 164.451C64.0969 164.451 35.3102 135.596 35.3102 100C35.3102 64.4045 64.0969 35.5487 99.607 35.5487C135.117 35.5487 163.904 64.4045 163.904 100ZM36.6248 100C36.6248 134.868 64.8229 163.134 99.607 163.134C134.391 163.134 162.589 134.868 162.589 100C162.589 65.1323 134.391 36.8664 99.607 36.8664C64.8229 36.8664 36.6248 65.1323 36.6248 100Z" stroke="url(#paint6_linear_27701_91318)" stroke-width="8" mask="url(#path-38-inside-3_27701_91318)"/>
<path fill-rule="evenodd" clip-rule="evenodd" d="M107.667 36.1935C104.994 35.8557 102.302 35.6863 99.6067 35.6863L99.6067 100L108.335 163.719C111.005 163.353 113.649 162.82 116.252 162.123L99.6067 100L124.529 159.289C127.014 158.245 129.43 157.045 131.764 155.698L99.6067 100L139.025 150.818C141.155 149.166 143.178 147.383 145.084 145.477L99.6067 100L150.835 138.884C152.464 136.738 153.957 134.491 155.304 132.157L99.6067 100L159.153 124.301C160.171 121.806 161.032 119.249 161.729 116.646L99.6067 100L163.413 108.061C163.751 105.387 163.921 102.695 163.921 100H99.6067L163.326 91.2719C162.96 88.6019 162.427 85.9576 161.729 83.3546L99.6067 100L158.895 75.0776C157.851 72.5933 156.652 70.1771 155.304 67.8433L99.6067 100L150.425 60.5818C148.773 58.4525 146.989 56.429 145.084 54.5235L99.6067 100L138.491 48.7723C136.344 47.143 134.097 45.6502 131.764 44.3028L99.6067 100L123.907 40.4539C121.412 39.4357 118.855 38.5753 116.252 37.8778L99.6067 100L107.667 36.1935ZM35.7999 91.9396C35.4621 94.6132 35.2927 97.3054 35.2927 100H99.6067L35.8878 108.729C36.2535 111.399 36.7867 114.043 37.4842 116.646L99.6067 100L40.318 124.923C41.3623 127.407 42.5617 129.823 43.9092 132.157L99.6067 100L48.7887 139.419C50.4404 141.548 52.2243 143.571 54.1298 145.477L99.6067 100L60.7225 151.228C62.869 152.857 65.1159 154.35 67.4497 155.698L99.6067 100L75.3062 159.547C77.8013 160.565 80.3579 161.425 82.961 162.123L99.6067 100L91.546 163.807C94.2196 164.145 96.9118 164.314 99.6066 164.314L99.6067 100L90.8783 36.2814C88.2083 36.6471 85.564 37.1803 82.961 37.8778L99.6067 100L74.684 40.7116C72.1997 41.7559 69.7835 42.9553 67.4497 44.3028L99.6067 100L60.1882 49.1823C58.0588 50.834 56.0354 52.6179 54.1298 54.5235L99.6067 100L48.3787 61.1161C46.7494 63.2627 45.2566 65.5095 43.9092 67.8433L99.6067 100L40.0603 75.6998C39.0421 78.1949 38.1817 80.7516 37.4842 83.3546L99.6067 100L35.7999 91.9396Z" fill="url(#paint7_linear_27701_91318)"/>
<ellipse cx="99.7616" cy="99.8454" rx="47.4498" ry="47.2952" fill="url(#paint8_radial_27701_91318)"/>
<path fill-rule="evenodd" clip-rule="evenodd" d="M99.6882 188.346L101.874 188.346L101.874 191.119L99.7065 191.119L99.7065 192.238L101.874 192.238L101.874 194.963L99.82 194.963C99.82 194.963 97.2913 194.963 97.2913 191.884C97.2913 188.254 99.6882 188.346 99.6882 188.346ZM100.028 196.909L103.886 196.909L103.886 192.238L105.172 192.238L105.172 191.119L103.886 191.119L103.886 186.4L99.7807 186.4C99.7807 186.4 95.2799 186.254 95.2799 192.019C95.2799 196.909 100.028 196.909 100.028 196.909Z" fill="#FCFCFC" fill-opacity="0.7"/>
<path d="M23.658 147.421L24.4739 148.084C24.5205 148.12 24.5904 148.151 24.5785 148.22C24.5665 148.29 24.4778 148.279 24.429 148.307C24.0973 148.4 23.7605 148.492 23.4288 148.585C23.3756 148.604 23.318 148.607 23.2624 148.594C23.2068 148.581 23.1554 148.553 23.1139 148.512C22.8922 148.323 22.6529 148.149 22.4357 147.953C22.3784 147.898 22.3072 147.86 22.2305 147.844C22.1538 147.828 22.0748 147.835 22.0029 147.863C20.2932 148.346 18.5777 148.819 16.8681 149.301C16.6526 149.363 16.5385 149.331 16.4297 149.134C15.9908 148.374 15.5519 147.614 15.115 146.857C14.968 146.603 14.9642 146.596 15.2576 146.512C16.5003 146.163 17.7431 145.815 18.9859 145.466C19.0476 145.431 19.1662 145.456 19.1743 145.358C19.1824 145.259 19.1047 145.237 19.0341 145.197L18.2796 144.588C18.2292 144.546 18.1456 144.514 18.1556 144.441C18.1656 144.368 18.2693 144.375 18.3213 144.345C18.6394 144.251 18.96 144.169 19.2781 144.074C19.3376 144.052 19.4024 144.048 19.4652 144.061C19.528 144.075 19.5864 144.105 19.6338 144.15C19.9202 144.391 20.2196 144.625 20.506 144.866C20.5517 144.906 20.6071 144.934 20.6664 144.945C20.7257 144.957 20.7865 144.952 20.8423 144.93C21.5848 144.716 22.3351 144.515 23.0777 144.301C23.3282 144.232 23.3413 144.202 23.2098 143.974L20.8608 139.906C20.7719 139.752 20.8026 139.685 20.9837 139.638C21.5051 139.501 22.0222 139.351 22.535 139.189C22.5677 139.173 22.6035 139.164 22.6402 139.162C22.6769 139.161 22.7137 139.167 22.7483 139.181C22.7829 139.194 22.8146 139.215 22.8414 139.241C22.8682 139.267 22.8895 139.298 22.9041 139.333C24.2217 141.635 25.5417 143.932 26.8642 146.222C26.9995 146.457 27.0053 146.467 26.7119 146.551C25.7547 146.824 24.7947 147.09 23.832 147.348C23.7898 147.372 23.7443 147.398 23.658 147.421Z" fill="#FCFCFC" fill-opacity="0.7"/>
<path d="M178.431 145.639L178.432 145.639C178.461 145.581 178.612 145.279 178.986 144.631C179.286 144.113 179.51 143.757 179.591 143.632L179.589 143.632C180.828 141.688 182.033 140.401 182.448 140.641C182.862 140.879 182.349 142.568 181.287 144.612L179.934 143.831C179.85 143.955 179.611 144.316 179.314 144.832C178.956 145.452 178.803 145.777 178.775 145.838L180.127 146.618C178.889 148.556 177.687 149.84 177.273 149.601C176.859 149.362 177.37 147.678 178.429 145.638L178.431 145.639ZM180.267 146.699L181.477 147.397L179.874 150.174L181.719 151.239L186.083 143.681L184.238 142.616L182.635 145.392L181.425 144.693C182.624 142.377 183.158 140.424 182.624 140.115C182.089 139.807 180.664 141.247 179.257 143.442L175.378 141.202L174.219 143.209L178.099 145.449C176.902 147.761 176.369 149.711 176.904 150.02C177.437 150.327 178.861 148.892 180.265 146.699" fill="white" fill-opacity="0.7"/>
<path d="M82.7826 98.7068C78.1275 98.7068 74.3333 97.238 71.4 94.3004C68.4667 91.299 67 87.5312 67 82.9971C67 78.3991 68.4667 74.5994 71.4 71.598C74.3333 68.5327 78.1275 67 82.7826 67C87.5014 67 91.3275 68.5327 94.2609 71.598C97.258 74.5994 98.7565 78.3991 98.7565 82.9971C98.7565 87.5312 97.258 91.299 94.2609 94.3004C91.3275 97.238 87.5014 98.7068 82.7826 98.7068ZM82.9739 131.851H76.6609L117.409 67.9579H123.817L82.9739 131.851ZM128.504 128.594C125.571 131.531 121.777 133 117.122 133C112.467 133 108.672 131.531 105.739 128.594C102.806 125.592 101.339 121.824 101.339 117.29C101.339 112.692 102.806 108.893 105.739 105.891C108.672 102.826 112.467 101.293 117.122 101.293C121.777 101.293 125.571 102.826 128.504 105.891C131.501 108.956 133 112.756 133 117.29C133 121.824 131.501 125.592 128.504 128.594ZM82.7826 92.3846C85.2696 92.3846 87.3101 91.5225 88.9043 89.7983C90.4985 88.0102 91.2956 85.7431 91.2956 82.9971C91.2956 80.1234 90.4985 77.8244 88.9043 76.1001C87.3101 74.312 85.2696 73.418 82.7826 73.418C80.2957 73.418 78.2551 74.312 76.6609 76.1001C75.1304 77.8244 74.3652 80.1234 74.3652 82.9971C74.3652 85.7431 75.1623 88.0102 76.7565 89.7983C78.3507 91.5225 80.3594 92.3846 82.7826 92.3846ZM111 124.091C112.594 125.816 114.635 126.678 117.122 126.678C119.609 126.678 121.649 125.816 123.243 124.091C124.838 122.303 125.635 120.036 125.635 117.29C125.635 114.417 124.838 112.118 123.243 110.393C121.649 108.605 119.609 107.711 117.122 107.711C114.635 107.711 112.594 108.605 111 110.393C109.47 112.118 108.704 114.417 108.704 117.29C108.704 120.036 109.47 122.303 111 124.091Z" fill="url(#paint9_linear_27701_91318)"/>
<path d="M170.711 170.711C189.464 151.957 200 126.522 200 100C200 73.4784 189.464 48.043 170.711 29.2893C151.957 10.5357 126.522 4.76875e-06 100 0C73.4784 -4.76875e-06 48.043 10.5357 29.2893 29.2893L100 100L170.711 170.711Z" fill="url(#paint10_linear_27701_91318)" fill-opacity="0.2"/>
<defs>
<linearGradient id="paint0_linear_27701_91318" x1="0.998047" y1="0.927368" x2="199.143" y2="199.073" gradientUnits="userSpaceOnUse">
<stop stop-color="#333333"/>
<stop offset="1" stop-color="#111111"/>
</linearGradient>
<linearGradient id="paint1_linear_27701_91318" x1="17.3819" y1="17.3107" x2="182.761" y2="182.689" gradientUnits="userSpaceOnUse">
<stop stop-color="#333333"/>
<stop offset="0.0001" stop-color="#333333"/>
<stop offset="1" stop-color="#111111"/>
</linearGradient>
<linearGradient id="paint2_linear_27701_91318" x1="17.3819" y1="17.3107" x2="182.761" y2="182.689" gradientUnits="userSpaceOnUse">
<stop stop-color="#333333"/>
<stop offset="0.0001" stop-color="#333333"/>
<stop offset="1" stop-color="#111111"/>
</linearGradient>
<linearGradient id="paint3_linear_27701_91318" x1="58.4204" y1="26.1921" x2="135.597" y2="174.267" gradientUnits="userSpaceOnUse">
<stop stop-color="#444444"/>
<stop offset="1" stop-color="#222222"/>
</linearGradient>
<linearGradient id="paint4_linear_27701_91318" x1="22.9455" y1="23.493" x2="175.959" y2="176.816" gradientUnits="userSpaceOnUse">
<stop stop-color="#333333"/>
<stop offset="1" stop-color="#111111"/>
</linearGradient>
<linearGradient id="paint5_linear_27701_91318" x1="66.4892" y1="29.6136" x2="132.965" y2="170.184" gradientUnits="userSpaceOnUse">
<stop stop-color="#FF3A2B"/>
<stop offset="1" stop-color="#FF3A2B" stop-opacity="0.8"/>
</linearGradient>
<linearGradient id="paint6_linear_27701_91318" x1="35.3102" y1="35.5487" x2="164.213" y2="164.142" gradientUnits="userSpaceOnUse">
<stop stop-color="#222222"/>
<stop offset="1" stop-color="#111111"/>
</linearGradient>
<linearGradient id="paint7_linear_27701_91318" x1="35.2927" y1="35.6863" x2="163.921" y2="164.314" gradientUnits="userSpaceOnUse">
<stop stop-color="#2D2D2D"/>
<stop offset="1"/>
</linearGradient>
<radialGradient id="paint8_radial_27701_91318" cx="0" cy="0" r="1" gradientUnits="userSpaceOnUse" gradientTransform="translate(99.7616 99.8454) rotate(90) scale(47.2952 47.4498)">
<stop offset="0.369792" stop-color="#282828"/>
<stop offset="1" stop-color="#222222" stop-opacity="0"/>
</radialGradient>
<linearGradient id="paint9_linear_27701_91318" x1="87.6056" y1="67" x2="133.29" y2="132.799" gradientUnits="userSpaceOnUse">
<stop stop-color="white"/>
<stop offset="1" stop-color="white" stop-opacity="0.6"/>
</linearGradient>
<linearGradient id="paint10_linear_27701_91318" x1="-3.82473" y1="77.2677" x2="199.783" y2="89.836" gradientUnits="userSpaceOnUse">
<stop stop-color="white"/>
<stop offset="1" stop-color="white" stop-opacity="0.05"/>
</linearGradient>
</defs>
</svg>
