<svg width="304" height="170" viewBox="0 0 304 170" fill="none" xmlns="http://www.w3.org/2000/svg">
<rect width="304" height="170" rx="5" fill="#222427"/>
<path d="M97 65.88H109.98V104.38H97V65.88Z" fill="white" fill-opacity="0.02"/>
<path d="M150.604 104.38L150.494 86.835L142.134 100.915H136.414L128.054 87.44V104.38H116.229V65.88H126.899L139.439 86.395L151.649 65.88H162.319L162.429 104.38H150.604Z" fill="white" fill-opacity="0.02"/>
<path d="M194.169 84.085H205.444V100.365C203.171 101.942 200.531 103.152 197.524 103.995C194.517 104.838 191.566 105.26 188.669 105.26C184.562 105.26 180.877 104.417 177.614 102.73C174.351 101.007 171.784 98.6233 169.914 95.58C168.081 92.5 167.164 89.0167 167.164 85.13C167.164 81.2433 168.081 77.7783 169.914 74.735C171.784 71.655 174.369 69.2717 177.669 67.585C181.006 65.8617 184.764 65 188.944 65C192.721 65 196.094 65.6417 199.064 66.925C202.071 68.1717 204.564 70.005 206.544 72.425L198.239 79.74C195.819 76.9167 192.941 75.505 189.604 75.505C186.744 75.505 184.471 76.3667 182.784 78.09C181.097 79.8133 180.254 82.16 180.254 85.13C180.254 88.0267 181.079 90.355 182.729 92.115C184.416 93.875 186.652 94.755 189.439 94.755C191.089 94.755 192.666 94.4433 194.169 93.82V84.085Z" fill="white" fill-opacity="0.02"/>
</svg>
