<svg width="70" height="71" viewBox="0 0 70 71" fill="none" xmlns="http://www.w3.org/2000/svg">
<mask id="mask0_845_1144" style="mask-type:alpha" maskUnits="userSpaceOnUse" x="0" y="0" width="70" height="71">
<circle cx="35" cy="35.0315" r="35" fill="#222427"/>
</mask>
<g mask="url(#mask0_845_1144)">
<circle cx="35" cy="35.0315" r="35" fill="#18191B"/>
<path fill-rule="evenodd" clip-rule="evenodd" d="M50.6266 17.9027L45.2267 50.3027C45.1564 50.7105 44.9314 51.0269 44.5517 51.2519C44.3548 51.3644 44.1369 51.4207 43.8978 51.4207C43.7431 51.4207 43.5744 51.3855 43.3916 51.3152L33.8363 47.4129L28.7317 53.6355C28.4786 53.959 28.1341 54.1207 27.6981 54.1207C27.5153 54.1207 27.3606 54.0926 27.2341 54.0363C26.9669 53.9379 26.7524 53.7726 26.5907 53.5406C26.429 53.3086 26.3482 53.0519 26.3482 52.7707V45.409L44.5728 23.0707L22.024 42.5824L13.6921 39.1652C13.1718 38.9683 12.8906 38.5816 12.8484 38.0051C12.8203 37.4426 13.0453 37.0277 13.5234 36.7605L48.6227 16.5105C48.8337 16.384 49.0587 16.3207 49.2977 16.3207C49.579 16.3207 49.8321 16.398 50.0571 16.5527C50.5211 16.8902 50.711 17.3402 50.6266 17.9027Z" fill="white"/>
</g>
</svg>
