<svg width="70" height="71" viewBox="0 0 70 71" fill="none" xmlns="http://www.w3.org/2000/svg">
<mask id="mask0_845_1152" style="mask-type:alpha" maskUnits="userSpaceOnUse" x="0" y="0" width="70" height="71">
<circle cx="35" cy="35.0315" r="35" fill="#222427"/>
</mask>
<g mask="url(#mask0_845_1152)">
<circle cx="35" cy="35.0315" r="35" fill="#18191B"/>
<path d="M28.1197 52.4556C43.1556 52.4556 51.3781 39.8792 51.3781 28.9738C51.3781 28.6166 51.3708 28.2609 51.355 27.9072C52.9509 26.7421 54.3381 25.2883 55.4326 23.6335C53.968 24.291 52.3915 24.7331 50.7383 24.9331C52.4259 23.9109 53.7216 22.2947 54.3327 20.3681C52.7533 21.3135 51.0041 22.0003 49.1421 22.3712C47.6504 20.7671 45.5264 19.7639 43.1749 19.7639C38.6609 19.7639 34.9999 23.4598 34.9999 28.0157C34.9999 28.6636 35.0718 29.2934 35.2119 29.8976C28.418 29.5524 22.3933 26.2686 18.3619 21.2748C17.6602 22.4942 17.2552 23.9112 17.2552 25.4231C17.2552 28.286 18.6984 30.8141 20.8928 32.2926C19.5517 32.251 18.292 31.8793 17.1907 31.2606C17.1895 31.2953 17.1895 31.329 17.1895 31.3659C17.1895 35.3629 20.0071 38.7001 23.748 39.4563C23.0609 39.645 22.338 39.7466 21.5924 39.7466C21.0665 39.7466 20.5539 39.6944 20.0559 39.5977C21.0965 42.8769 24.1145 45.2631 27.6923 45.33C24.8944 47.544 21.3699 48.8628 17.5394 48.8628C16.8805 48.8628 16.2292 48.8246 15.5894 48.7484C19.2072 51.0895 23.5031 52.4558 28.12 52.4558" fill="white"/>
</g>
</svg>
