<svg width="70" height="71" viewBox="0 0 70 71" fill="none" xmlns="http://www.w3.org/2000/svg">
<mask id="mask0_845_1148" style="mask-type:alpha" maskUnits="userSpaceOnUse" x="0" y="0" width="70" height="71">
<circle cx="35" cy="35.0315" r="35" fill="#222427"/>
</mask>
<g mask="url(#mask0_845_1148)">
<circle cx="35" cy="35.0315" r="35" fill="#18191B"/>
<path d="M51.6166 24.0472C52.8452 27.8909 52.8452 41.9847 51.2815 45.7003C50.8347 46.7253 50.1645 47.3659 49.3826 48.0065C48.1539 48.7753 41.2286 49.0315 34.3033 49.0315C28.0482 49.0315 21.7931 48.7753 20.341 48.2628C19.0006 47.7503 18.107 46.7253 17.6602 45.1878C16.5432 41.4722 16.2082 25.7128 18.5538 22.6378C19.3357 21.6128 20.341 20.9722 21.5697 20.844C24.3621 20.4597 29.612 20.3315 34.8618 20.3315C41.3403 20.3315 47.8188 20.5878 49.0475 21.1003C50.2762 21.6128 51.1698 22.6378 51.6166 24.0472ZM30.2822 40.9597C33.9682 38.7815 37.6542 36.6034 41.452 34.2972C37.7659 32.119 34.0799 29.8128 30.3939 27.6347C30.2822 32.119 30.2822 36.4753 30.2822 40.9597Z" fill="white"/>
</g>
</svg>
